/* XPM */
static char * sv_static_var_xpm[] = {
"16 16 29 1",
" 	c None",
".	c #36454D",
"+	c #848C91",
"@	c #565355",
"#	c #B6D6E9",
"$	c #8299A6",
"%	c #00A2D1",
"&	c #007394",
"*	c #490000",
"=	c #480000",
"-	c #4C0000",
";	c #FFCFCF",
">	c #FFCECE",
",	c #FFF4F4",
"'	c #FFF5F5",
")	c #FF9797",
"!	c #FF9A9A",
"~	c #FFA1A1",
"{	c #FFAEAE",
"]	c #FF8B8B",
"^	c #FF8888",
"/	c #FFA7A7",
"(	c #FFC5C5",
"_	c #FF8080",
":	c #FF9595",
"<	c #FFA6A6",
"[	c #FFC3C3",
"}	c #FF8585",
"|	c #FF8E8E",
"                ",
"  ... ++@@@@@@@ ",
"  ... ++@####$@ ",
"  ... ++@#%%%&@ ",
"        @#%%%&@ ",
"         @#%&@  ",
"     *=-==@&@*  ",
"    =;>;@@@@@@@ ",
"   =;>;;@####$@ ",
"  =,''''@#%%%&@ ",
"  *))!~{@#%%%&@ ",
"  *]^])/(@#%&@  ",
"  *^_^:<[;@&@   ",
"  =]}|!/(;'@    ",
"  *=-===**-     ",
"                "};
