/* XPM */
static char * sv_static_fun_xpm[] = {
"16 16 24 1",
" 	c None",
".	c #58636A",
"+	c #565355",
"@	c #B6D6E9",
"#	c #8299A6",
"$	c #1C1A1B",
"%	c #00A2D1",
"&	c #007394",
"*	c #FFE894",
"=	c #FDFBF1",
"-	c #F8C84B",
";	c #F8C646",
">	c #F9C74B",
",	c #FACD58",
"'	c #FBD56A",
")	c #F7C03A",
"!	c #F6BD32",
"~	c #FBD260",
"{	c #F6BD33",
"]	c #F5B725",
"^	c #F8C546",
"/	c #FACF5C",
"(	c #F9C84B",
"_	c #FBD161",
"                ",
"                ",
"    ....+++++++ ",
"   .    +@@@@#+ ",
"  .  $$$+@%%%&+ ",
"    $***+@%%%&+ ",
"   $*****+@%&+  ",
"  $=======+&+$  ",
"  $-;>,'+++++++ ",
"  $)!)>~+@@@@#+ ",
"  ${]{^/+@%%%&+ ",
"  $)!)(_+@%%%&+ ",
"  $$$$$$$+@%&+  ",
"          +&+   ",
"   ........+    ",
"                "};
