/* XPM */
static char * sv_private_fun_xpm[] = {
"16 16 25 1",
" 	c None",
".	c #1C1A1B",
"+	c #58636A",
"@	c #8C9093",
"#	c #182328",
"$	c #FFE894",
"%	c #FDFBF1",
"&	c #AA861A",
"*	c #F8C84B",
"=	c #F8C646",
"-	c #F9C74B",
";	c #FACD58",
">	c #FBD56A",
",	c #FEE58C",
"'	c #F7C03A",
")	c #F6BD32",
"!	c #FBD260",
"~	c #FEE388",
"{	c #F6BD33",
"]	c #F5B725",
"^	c #F8C546",
"/	c #FACF5C",
"(	c #FEE286",
"_	c #F9C84B",
":	c #FBD161",
"                ",
"   ..           ",
"  . +.+++++++   ",
"  ....          ",
"  .@@#........  ",
"  .@@#$$$$$$%.  ",
"  ....$$$$$%&.  ",
"  .%%%%%%%%&&.  ",
"  .*=-;>,$%&&.  ",
"  .')'-!~$%&&.  ",
"  .{]{^/($%&.   ",
"  .')'_:~$%.    ",
"  .........  +  ",
"            +   ",
"   +++++++++    ",
"                "};
