/* XPM */
static char *magick[] = {
/* columns rows colors chars-per-pixel */
"16 14 16 1",
"  c #1c60ab",
". c #2768b0",
"X c #2868b0",
"o c #3874b6",
"O c #4b82be",
"+ c #5f90c7",
"@ c #719dce",
"# c #83aad6",
"$ c #97b9de",
"% c #a9c7e6",
"& c #b9d3ed",
"* c #c0c0c0",
"= c #d0d0d0",
"- c #c5dbf2",
"; c gray91",
": c None",
/* pixels */
"::::::::::::::::",
"::::::::::::::::",
":::::     ::::::",
"::   ;;;;;   :::",
": ;;;;;;;;;;; ::",
":    =====    ::",
": --&     &-- ::",
": &%$%$ $%$%& ::",
": $#@#@ @#@#$ ::",
": @+O+O O+O+@ ::",
": OoXo. .oXoO ::",
"::           :::",
":::::     ::::::",
"::::::::::::::::"
};
