/* XPM */
static char * sv_class_xpm[] = {
"16 16 14 1",
" 	c None",
".	c #D3938F",
"+	c #694947",
"@	c #F0B293",
"#	c #EDD4D2",
"$	c #53130F",
"%	c #F9E0D4",
"&	c #703213",
"*	c #80B2D4",
"=	c #003254",
"-	c #A7261F",
";	c #CCE0EE",
">	c #E16427",
",	c #0065A9",
"                ",
"   ...+@        ",
"  .##$@%&       ",
" .##$@%%%&**=   ",
" .-$@%%%&*;;;=  ",
" .-$@>>&*;;;==  ",
" .-$@>>&*,,===  ",
" .-$@>>&*,,===  ",
" .-$@>>&*,,===  ",
" .-$@>>&*,,===  ",
" .-$@>>&*,,===  ",
" .-$@>>&*,,===  ",
" .-$@>>&*,,===  ",
" .-$@>>&*,,==   ",
"     >>&*,,=    ",
"                "};
