/* XPM */
static char * sv_variable_xpm[] = {
"16 16 29 1",
" 	c None",
".	c #36454D",
"+	c #848C91",
"@	c #C3C7C9",
"#	c #490000",
"$	c #480000",
"%	c #4C0000",
"&	c #FFCFCF",
"*	c #FFCECE",
"=	c #FFCBCB",
"-	c #FFF5F5",
";	c #ED2626",
">	c #FFF4F4",
",	c #FF9797",
"'	c #FF9A9A",
")	c #FFA1A1",
"!	c #FFAEAE",
"~	c #FFCACA",
"{	c #FF8B8B",
"]	c #FF8888",
"^	c #FFA7A7",
"/	c #FFC5C5",
"(	c #FF8080",
"_	c #FF9595",
":	c #FFA6A6",
"<	c #FFC3C3",
"[	c #EC2424",
"}	c #FF8585",
"|	c #FF8E8E",
"                ",
"  ... +++ @@@   ",
"  ... +++ @@@   ",
"  ... +++ @@@   ",
"                ",
"                ",
"     #$%$$$$$#  ",
"    $&*&=&&&-$  ",
"   $&*&&&&*-;$  ",
"  $>----->-;;#  ",
"  #,,')!~&-;;$  ",
"  #{]{,^/*-;;$  ",
"  #](]_:<&>[#   ",
"  ${}|'^/&-#    ",
"  #$%$$$##%     ",
"                "};
