/* XPM */
static char * collection_xpm[] = {
"16 16 23 1",
" 	c None",
".	c #5A5D5A",
"+	c #5A595A",
"@	c #4A4462",
"#	c #626562",
"$	c #393C5A",
"%	c #393C6A",
"&	c #413C5A",
"*	c #BDBEBD",
"=	c #7B817B",
"-	c #BDBABD",
";	c #6A616A",
">	c #837D83",
",	c #9CA59C",
"'	c #9C999C",
")	c #838583",
"!	c #524062",
"~	c #BDC6BD",
"{	c #C5C2C5",
"]	c #52406A",
"^	c #413C6A",
"/	c #625962",
"(	c #413C62",
" .+@            ",
" # $            ",
" %&@            ",
"  #   *=.#-     ",
"  ;   >,');     ",
"  !.#).,>..     ",
"  #   .)..;     ",
"  #   ~.#.{     ",
"  #     #       ",
"  #     #   #+$ ",
"  #     @.#>. ] ",
"  #         !^& ",
"  /    #.&      ",
"  @#+#=. %      ",
"       @(@      ",
"                "};
