/* XPM */
static char * open_xpm[] = {
"26 26 3 1",
" 	c None",
".	c #000000",
"+	c #9C917B",
"                          ",
"                          ",
"                          ",
"                          ",
"                          ",
"                          ",
"               ..         ",
"            ...++.        ",
"     ..  ...++++   ...    ",
"    .++..++++    ..++.    ",
"    .+++++     ..++++.    ",
"     .++     ..++++++.    ",
"     .++   ..++++++++.    ",
"      .+  .++++++++++.    ",
"      .++ .++++++++++.    ",
"       .+ .++++++++++.    ",
"       .++.++++++++..     ",
"        .+.++++++..       ",
"        .+.+++++.         ",
"         ..+++..          ",
"         ..+..            ",
"          ..              ",
"                          ",
"                          ",
"                          ",
"                          "};
