/* XPM */
static char * exception_xpm[] = {
"16 16 26 1",
" 	c None",
".	c #39404A",
"+	c #F6AEA4",
"@	c #FFFFFF",
"#	c #F6A5A4",
"$	c #F6A19C",
"%	c #EE9994",
"&	c #EE958B",
"*	c #E6918B",
"=	c #E68983",
"-	c #DE7D73",
";	c #D5756A",
">	c #D56962",
",	c #E6817B",
"'	c #DE756A",
")	c #CD615A",
"!	c #D5655A",
"~	c #CD5952",
"{	c #C5554A",
"]	c #BD4039",
"^	c #C54C41",
"/	c #B43429",
"(	c #B42C20",
"_	c #AC2820",
":	c #AC2018",
"<	c #BD4841",
"   ..........   ",
"  .++++@@#$%&.  ",
" .+++@+@@%@*=-. ",
".++@+@$@@*@--;>.",
".++@$@%@@,@'>>).",
".+$@%@=@@;@!)~{.",
".$%@=@-@@>@~{@].",
".&*@@@@@@@@^@@/.",
".=,@@@@@@@@]@@(.",
".-;@@@@@@@@/@_:.",
".>>@@@@@@@@@@::.",
".)~@@@@@@@@@:::.",
".{^@@@@@@@@@:::.",
".<]@@@:@@@@::::.",
" ./(_:::::::::. ",
"  ............  "};
