/* XPM */
static char * search_xpm[] = {
"26 26 62 1",
" 	c None",
".	c #000000",
"+	c #ACAE9C",
"@	c #949583",
"#	c #DEDEC5",
"$	c #DEDECD",
"%	c #202420",
"&	c #A4A594",
"*	c #D5D6C5",
"=	c #DEDAC5",
"-	c #E6E2CD",
";	c #D5D6BD",
">	c #B4B29C",
",	c #7B7D7B",
"'	c #626562",
")	c #E6E6CD",
"!	c #EEEAD5",
"~	c #313431",
"{	c #E6E6E6",
"]	c #BDBAA4",
"^	c #D5D2BD",
"/	c #EEEED5",
"(	c #EEEEEE",
"_	c #393C31",
":	c #CDCEB4",
"<	c #F6F2DE",
"[	c #EEEEE6",
"}	c #393C39",
"|	c #8B8D83",
"1	c #B4B6A4",
"2	c #414439",
"3	c #080808",
"4	c #4A4841",
"5	c #C5C2AC",
"6	c #525052",
"7	c #949183",
"8	c #313029",
"9	c #9C9D8B",
"0	c #CDCEBD",
"a	c #C5C6AC",
"b	c #8B8D7B",
"c	c #313429",
"d	c #F6F6DE",
"e	c #E6E2D5",
"f	c #838173",
"g	c #BDBEAC",
"h	c #7B7973",
"i	c #080800",
"j	c #FFFAFF",
"k	c #9C998B",
"l	c #CDCAB4",
"m	c #DEDED5",
"n	c #ACAA9C",
"o	c #737162",
"p	c #83857B",
"q	c #A4A194",
"r	c #4A4C4A",
"s	c #414041",
"t	c #6A6D6A",
"u	c #F6F2D5",
"v	c #BDBAAC",
"w	c #4A4C41",
"                          ",
"                          ",
"                          ",
"              .           ",
"            ..+.          ",
"          ..@#$%          ",
"        ..&*=##-.         ",
"      ..&;**==#->.        ",
"     .,';;;*=#-)!~        ",
"     .{~]^*=#-)!//.       ",
"     .((_:;=-)!!/<&.      ",
"     .[[}|^123345<<.      ",
"     .[67^>890abc5dd.     ",
"     ..@^=29e[5>f4ddg.    ",
"     .h==#i;j51&@3ddd=.   ",
"     .k=#$3lm1nkb3dddf.   ",
"      .#--27]+97o4dd..    ",
"      .g))]8pq7o..=.      ",
"       r!!!g433st..       ",
"       .!///<<<=....      ",
"        ./u<<!&.  ...     ",
"        .v<<0w.    ...    ",
"         .<&.       ..    ",
"          ..              ",
"                          ",
"                          "};
