/* XPM */
static char * error_xpm[] = {
"48 48 277 2",
"  	c None",
". 	c #BD9994",
"+ 	c #9C7162",
"@ 	c #83594A",
"# 	c #7B4C41",
"$ 	c #734841",
"% 	c #734439",
"& 	c #734039",
"* 	c #8B5D52",
"= 	c #A4817B",
"- 	c #CDB2AC",
"; 	c #734C41",
"> 	c #945D52",
", 	c #AC695A",
"' 	c #CD7562",
") 	c #DE816A",
"! 	c #E67D6A",
"~ 	c #DE7962",
"{ 	c #D57162",
"] 	c #B46152",
"^ 	c #9C5041",
"/ 	c #7B4031",
"( 	c #623429",
"_ 	c #AC958B",
": 	c #D5C2BD",
"< 	c #9C6D62",
"[ 	c #6A4C41",
"} 	c #835D52",
"| 	c #C57D6A",
"1 	c #EE8973",
"2 	c #E6715A",
"3 	c #E65D39",
"4 	c #DE4C29",
"5 	c #DE4020",
"6 	c #D53818",
"7 	c #D53C18",
"8 	c #D54020",
"9 	c #D54831",
"0 	c #C54C39",
"a 	c #944031",
"b 	c #622820",
"c 	c #6A4039",
"d 	c #B4A1A4",
"e 	c #BD918B",
"f 	c #73504A",
"g 	c #7B554A",
"h 	c #C5816A",
"i 	c #EE856A",
"j 	c #DE4018",
"k 	c #DE3C18",
"l 	c #DE3818",
"m 	c #D53418",
"n 	c #D53010",
"o 	c #CD3010",
"p 	c #C53418",
"q 	c #8B2818",
"r 	c #5A1C10",
"s 	c #835D5A",
"t 	c #A47D73",
"u 	c #A47162",
"v 	c #CD2C10",
"w 	c #C52810",
"x 	c #B42810",
"y 	c #621808",
"z 	c #A4796A",
"A 	c #BD8173",
"B 	c #E6755A",
"C 	c #DE4418",
"D 	c #BD2410",
"E 	c #731408",
"F 	c #C5C2C5",
"G 	c #C5897B",
"H 	c #E66541",
"I 	c #C52410",
"J 	c #B42008",
"K 	c #623831",
"L 	c #BD958B",
"M 	c #6A504A",
"N 	c #BD857B",
"O 	c #BD2010",
"P 	c #6A1008",
"Q 	c #7B5552",
"R 	c #735952",
"S 	c #AC7973",
"T 	c #E66D52",
"U 	c #D53410",
"V 	c #BD2008",
"W 	c #AC1C08",
"X 	c #5A1008",
"Y 	c #9C8D8B",
"Z 	c #9C756A",
"` 	c #83615A",
" .	c #E67D62",
"..	c #BD1C08",
"+.	c #941408",
"@.	c #5A2C29",
"#.	c #BDBEBD",
"$.	c #6A5952",
"%.	c #C58573",
"&.	c #B41C08",
"*.	c #AC1808",
"=.	c #6A0C00",
"-.	c #8B7573",
";.	c #9C7973",
">.	c #8B6962",
",.	c #E6694A",
"'.	c #B41808",
").	c #623029",
"!.	c #735D5A",
"~.	c #C58173",
"{.	c #A41408",
"].	c #621008",
"^.	c #A4A1A4",
"/.	c #BD9D94",
"(.	c #E66952",
"_.	c #C52C10",
":.	c #B41408",
"<.	c #830C00",
"[.	c #73595A",
"}.	c #94716A",
"|.	c #CD3418",
"1.	c #BD3010",
"2.	c #BD2C10",
"3.	c #BD2810",
"4.	c #B42410",
"5.	c #AC2008",
"6.	c #A41808",
"7.	c #AC2010",
"8.	c #AC1408",
"9.	c #940C00",
"0.	c #AC6D5A",
"a.	c #C53010",
"b.	c #E6E6E6",
"c.	c #E6E2E6",
"d.	c #DEDEDE",
"e.	c #DEDADE",
"f.	c #B42018",
"g.	c #AC1008",
"h.	c #9C0C00",
"i.	c #622420",
"j.	c #B4B2B4",
"k.	c #7B615A",
"l.	c #C5614A",
"m.	c #CD3410",
"n.	c #FFFAFF",
"o.	c #F6F6F6",
"p.	c #F6F2F6",
"q.	c #EEEEEE",
"r.	c #C54C41",
"s.	c #A40C00",
"t.	c #6A1410",
"u.	c #ACAAAC",
"v.	c #7B5952",
"w.	c #D55039",
"x.	c #C55952",
"y.	c #AC1000",
"z.	c #730C08",
"A.	c #A4A5A4",
"B.	c #7B5D52",
"C.	c #D54429",
"D.	c #EEEAEE",
"E.	c #AC0C00",
"F.	c #730800",
"G.	c #9C9D9C",
"H.	c #CD3818",
"I.	c #940800",
"J.	c #6A0800",
"K.	c #73554A",
"L.	c #D5D6D5",
"M.	c #C5554A",
"N.	c #A40800",
"O.	c #8B0400",
"P.	c #9C999C",
"Q.	c #AC2C10",
"R.	c #CD3820",
"S.	c #BD4039",
"T.	c #9C0800",
"U.	c #830400",
"V.	c #5A1818",
"W.	c #8B655A",
"X.	c #D56952",
"Y.	c #DE796A",
"Z.	c #DE756A",
"`.	c #D5756A",
" +	c #D5695A",
".+	c #CD695A",
"++	c #CD655A",
"@+	c #CD5D52",
"#+	c #C5504A",
"$+	c #B43831",
"%+	c #7B0400",
"&+	c #522420",
"*+	c #949994",
"=+	c #A4857B",
"-+	c #732818",
";+	c #A40400",
">+	c #6A0000",
",+	c #523839",
"'+	c #949594",
")+	c #ACB2AC",
"!+	c #BDBABD",
"~+	c #940400",
"{+	c #830000",
"]+	c #5A0400",
"^+	c #5A5D5A",
"/+	c #8B1C08",
"(+	c #730000",
"_+	c #411410",
":+	c #6A6D6A",
"<+	c #949194",
"[+	c #B4BAB4",
"}+	c #AC9594",
"|+	c #621408",
"1+	c #620000",
"2+	c #413031",
"3+	c #737573",
"4+	c #838983",
"5+	c #6A3C31",
"6+	c #831C08",
"7+	c #9C0400",
"8+	c #390C08",
"9+	c #525052",
"0+	c #838183",
"a+	c #ACAEAC",
"b+	c #521408",
"c+	c #8B0000",
"d+	c #7B0000",
"e+	c #520000",
"f+	c #392C29",
"g+	c #626162",
"h+	c #737173",
"i+	c #940000",
"j+	c #311410",
"k+	c #4A4C4A",
"l+	c #626562",
"m+	c #6A1408",
"n+	c #310C08",
"o+	c #414041",
"p+	c #626962",
"q+	c #838583",
"r+	c #B4B6B4",
"s+	c #BDC2BD",
"t+	c #731008",
"u+	c #393C39",
"v+	c #525552",
"w+	c #7B7D7B",
"x+	c #8B898B",
"y+	c #6A1000",
"z+	c #5A0000",
"A+	c #6A696A",
"B+	c #737973",
"C+	c #5A0C08",
"D+	c #4A0000",
"E+	c #311810",
"F+	c #414441",
"G+	c #9C898B",
"H+	c #5A2820",
"I+	c #941008",
"J+	c #A41008",
"K+	c #393031",
"L+	c #837173",
"M+	c #5A0C00",
"N+	c #7B0C00",
"O+	c #8B0C00",
"P+	c #391010",
"Q+	c #525952",
"R+	c #7B797B",
"S+	c #A4AAA4",
"T+	c #A4A19C",
"U+	c #6A5052",
"V+	c #521818",
"W+	c #520C08",
"X+	c #520808",
"Y+	c #4A1010",
"Z+	c #411818",
"`+	c #412C29",
" @	c #8B8D8B",
"                                                                                                ",
"                                                                                                ",
"                                                                                                ",
"                                                                                                ",
"                                                                                                ",
"                              . + @ # $ % & % # * =                                             ",
"                        - + ; ; > , ' ) ! ~ { ] ^ / ( # _                                       ",
"                    : < [ } | 1 2 3 4 5 6 6 6 7 8 9 0 a b c d                                   ",
"                  e f g h i 3 j k k l 6 6 m m m n o o o p q r s                                 ",
"                t [ u 1 3 j k k k l 6 6 m m m n o o v v v w x y c                               ",
"              z [ A B C j k k k l 6 6 m m m o o o v v v w w w D E ( F                           ",
"            t [ G H j j k k k l 6 6 m m m o o o v v v w w w I I J E K                           ",
"          L M N H j j k k k l 6 6 m m m o o o v v v w w w I I I O J P Q                         ",
"        : R S T j j k k k 6 6 6 m m U o o o v v v w w w I I I O V V W X Y                       ",
"        Z `  .j j k k k 6 6 6 m m U o o o v v v w w w I I I O V V ....+.@.#.                    ",
"      - $.%.5 j k k k 6 6 6 m m U o o o v v v w w w I I D O V V ....&.*.=.-.                    ",
"      ;.>.,.j k k k 6 6 6 m m U o o o v v v w w w I I D O V V ....&.'.'.+.).#.                  ",
"      !.~.j k k k 6 6 6 m m U o o o v v v w w w I I D V V V ....&.'.'.'.{.].^.                  ",
"    /.!.(.k k k 6 6 6 m m U o o o v v _.w w w I I D V V V ....&.'.'.'.:.:.<.[.                  ",
"    ;.}.5 k l 6 |.1.1.1.2.2.2.3.3.x x 4.4.4.J 5.5.W W W *.*.6.7.*.'.:.:.8.9.K #.                ",
"    >.0.k l 6 6 a.F b.b.b.b.b.b.c.c.c.c.c.c.d.d.d.d.d.d.d.d.e.b.f.:.8.8.g.h.i.j.                ",
"    k.l.l 6 6 m m.d.n.n.n.n.n.n.o.o.o.o.o.o.o.p.p.p.p.p.p.q.q.o.r.8.8.g.g.s.t.u.                ",
"    v.w.6 6 m m o e.n.n.n.o.o.o.o.o.o.o.p.p.p.p.p.p.q.q.q.q.q.o.x.8.g.y.y.s.z.A.                ",
"    B.C.6 m m m o e.n.o.o.o.o.o.o.p.p.p.p.p.p.p.q.q.q.q.q.q.D.p.x.g.y.y.E.h.F.G.                ",
"    R H.m m U o a.e.o.o.o.o.p.p.p.p.p.p.p.q.q.q.q.q.q.D.D.D.D.p.x.y.E.E.s.I.J.G.                ",
"    K.a.m U o o _.L.o.o.p.p.p.p.p.p.q.q.q.q.q.q.q.D.D.D.D.D.D.p.M.E.E.s.N.O.].P.                ",
"    v.Q.U o o o R.c.o.o.o.o.o.o.o.o.o.o.p.p.p.p.p.p.p.p.p.p.p.p.S.E.s.N.T.U.V.P.                ",
"    W.q o o o v |.w.X.Y.Y.Z.Z.`.`.{  + +.+.+++++++++@+x.x.M.#+$+E.s.N.N.I.%+&+*+#.F             ",
"    =+-+o o v v v w w w I I D O V V ....&.'.'.'.:.:.8.g.g.y.E.E.s.N.N.;+U.>+,+'+)+!+F           ",
"      b 2.v v v w w w I I D V V V ....&.'.'.'.:.:.8.g.g.y.E.s.s.N.N.N.~+{+]+^+P.A.j.#.          ",
"      # /+v _.w w w I I D V V V ....&.'.'.'.:.:.8.g.g.y.E.s.s.N.N.N.;+U.(+_+:+<+G.u.[+F         ",
"      }+|+3.w w w I I D V V V ....&.'.'.'.:.:.8.g.g.y.E.s.s.N.N.N.;+~+{+1+2+3+4+'+A.j.#.        ",
"        5+6+w w I I D V V V ....&.'.'.'.:.8.8.g.g.y.E.s.s.N.N.N.;+7+{+(+8+9+3+0+<+^.a+#.        ",
"        d b+7.I I O V V V ....&.'.'.'.:.8.8.g.y.y.E.s.s.N.N.N.;+7+c+d+e+f+g+h+0+'+G.a+#.        ",
"          s ].J O V V ......'.'.'.'.:.8.8.g.y.y.E.s.s.N.N.N.;+7+i+d+1+j+k+l+h+0+<+^.j.#.        ",
"            5+m+J V ....&.'.'.'.:.:.8.g.g.y.y.E.s.s.N.N.N.;+7+i+d+1+n+o+^+p+3+q+'+A.r+s+        ",
"              ).t+W ..&.'.'.'.:.:.8.g.g.y.E.E.s.N.N.N.N.;+7+c+d+1+n+u+v+g+:+w+x+P.u.!+          ",
"              F K y+6.'.'.'.:.:.8.g.g.y.E.E.s.N.N.N.;+7+7+{+(+z+n+u+v+g+A+B+q+'+A.r+s+          ",
"                  f C++.8.:.:.8.g.g.y.E.E.s.N.N.N.;+7+O.d+>+D+E+F+^+g+:+B+q+<+^.j.#.            ",
"                    G+H+=.I+J+g.g.y.E.E.s.N.N.N.7+O.d+>+z+n+K+v+l+:+3+0+x+'+^.j.#.              ",
"                      #.L+@.M+N+O+h.s.N.N.T.O.%+>+1+e+P+f+Q+:+h+R+0+x+<+P.S+r+#.                ",
"                          #.T+U+@.V+W+]+]+]+X+Y+Z+`+9+A+R+q+x+ @ @'+G.A.a+[+#.                  ",
"                                !+A.P.x+q+w+w+0+0+x+*+'+*+P.G.^.A.u.j.!+#.                      ",
"                                        #.[+j.r+a+a+u.a+)+a+)+r+!+#.F                           ",
"                                                F s+#.s+F F F                                   ",
"                                                                                                ",
"                                                                                                ",
"                                                                                                "};
