/* XPM */
static char * folder_xpm[] = {
"48 47 147 2",
"  	c None",
". 	c #202020",
"+ 	c #B5C3E3",
"@ 	c #ACBAD9",
"# 	c #9EABCA",
"$ 	c #9EACCA",
"% 	c #9FABCA",
"& 	c #9EABC9",
"* 	c #9FACC9",
"= 	c #9EACC9",
"- 	c #9FACCA",
"; 	c #9FABC9",
"> 	c #000000",
", 	c #8E9AB7",
"' 	c #8E9AB6",
") 	c #818DA7",
"! 	c #808CA8",
"~ 	c #818DA8",
"{ 	c #818CA7",
"] 	c #808CA7",
"^ 	c #818CA8",
"/ 	c #808DA7",
"( 	c #808DA8",
"_ 	c #DBE2F2",
": 	c #7A86A0",
"< 	c #7A85A0",
"[ 	c #7A85A1",
"} 	c #B4C1E1",
"| 	c #B3C0E0",
"1 	c #B2BFDF",
"2 	c #727D97",
"3 	c #B2BFDE",
"4 	c #B1BEDE",
"5 	c #B1BEDD",
"6 	c #B0BDDD",
"7 	c #B0BDDC",
"8 	c #B0BCDC",
"9 	c #AFBCDC",
"0 	c #AFBCDB",
"a 	c #AFBBDB",
"b 	c #AEBBDB",
"c 	c #AEBBDA",
"d 	c #AEBADA",
"e 	c #ADBAD9",
"f 	c #ACB9D9",
"g 	c #ACB9D8",
"h 	c #ACB8D8",
"i 	c #ABB8D7",
"j 	c #ABB7D7",
"k 	c #AAB7D6",
"l 	c #AAB6D5",
"m 	c #A9B6D5",
"n 	c #A9B5D4",
"o 	c #A8B5D4",
"p 	c #A8B4D3",
"q 	c #A7B4D3",
"r 	c #A7B4D2",
"s 	c #A7B3D2",
"t 	c #A6B3D2",
"u 	c #A6B3D1",
"v 	c #A6B2D1",
"w 	c #A5B2D0",
"x 	c #A5B1D0",
"y 	c #A4B1D0",
"z 	c #A4B1CF",
"A 	c #A4B0CF",
"B 	c #A3B0CE",
"C 	c #A3AFCE",
"D 	c #A2AFCD",
"E 	c #A2AECD",
"F 	c #A2AECC",
"G 	c #A1AECC",
"H 	c #A1ADCC",
"I 	c #A1ADCB",
"J 	c #A0ADCB",
"K 	c #A0ACCB",
"L 	c #A0ACCA",
"M 	c #9EAAC8",
"N 	c #9DAAC8",
"O 	c #9DAAC7",
"P 	c #9DA9C7",
"Q 	c #9CA9C7",
"R 	c #9CA8C6",
"S 	c #9BA8C5",
"T 	c #9BA7C5",
"U 	c #9AA7C4",
"V 	c #9AA6C4",
"W 	c #9AA6C3",
"X 	c #99A6C3",
"Y 	c #99A5C3",
"Z 	c #99A5C2",
"` 	c #98A4C2",
" .	c #98A4C1",
"..	c #97A3C1",
"+.	c #97A3C0",
"@.	c #96A3C0",
"#.	c #96A2C0",
"$.	c #96A2BF",
"%.	c #95A2BF",
"&.	c #95A1BE",
"*.	c #94A0BE",
"=.	c #94A0BD",
"-.	c #939FBC",
";.	c #929EBB",
">.	c #929EBA",
",.	c #919DBA",
"'.	c #919CB9",
").	c #909CB9",
"!.	c #909CB8",
"~.	c #909BB8",
"{.	c #8F9BB8",
"].	c #8F9BB7",
"^.	c #8D99B6",
"/.	c #8D99B5",
"(.	c #8D98B5",
"_.	c #8C98B5",
":.	c #8C98B4",
"<.	c #8C97B4",
"[.	c #8B97B3",
"}.	c #8B96B3",
"|.	c #8A96B2",
"1.	c #8A95B1",
"2.	c #8995B1",
"3.	c #8994B1",
"4.	c #8994B0",
"5.	c #8894B0",
"6.	c #8893AF",
"7.	c #8793AF",
"8.	c #8792AE",
"9.	c #8692AE",
"0.	c #8692AD",
"a.	c #8691AD",
"b.	c #8591AD",
"c.	c #8591AC",
"d.	c #8590AC",
"e.	c #8490AC",
"f.	c #8490AB",
"g.	c #848FAB",
"h.	c #838FAA",
"i.	c #838EAA",
"j.	c #828EA9",
"k.	c #828DA9",
"l.	c #828DA8",
"m.	c #808BA7",
"n.	c #808BA6",
"o.	c #7F8BA6",
"p.	c #7F8AA6",
"                                                                                                ",
"                                                                                                ",
"                                                                                                ",
"          . . . . . . . . . . . . . .                                                           ",
"        . + + + + + + + + + + + + + + .                                                         ",
"      . @ @ @ @ @ @ @ @ @ @ @ @ @ @ @ @ .                                                       ",
"    . # $ # % & * $ = % - $ = & ; & - * % . > >                                                 ",
"  . , , , ' , , , , , ' , , , ' , , , , , , > > > > > > > > > > > > > > > > > > > > > > >       ",
"  > ) ! ~ { ! ] ~ ^ { ^ ^ ~ / ^ ( / ! ) ^ > _ _ _ _ _ _ _ _ _ _ _ _ _ _ _ _ _ _ _ _ _ _ _ .     ",
"  > : : < < < < < : < [ < < [ : : < : [ > _ } } } } } } } } } } } } } | | | | | | | | 1 1 1 >   ",
"  > 2 2 2 2 2 2 2 2 2 2 2 2 2 2 2 2 2 > _ } } } } } } } | | | | | | | | 1 1 1 1 1 3 3 4 4 4 >   ",
"  > 2 > > > > > > > > > > > > > > > > _ } | | | | | | | | 1 1 1 1 1 3 3 4 4 4 4 5 5 6 6 6 7 >   ",
"  > > _ _ _ _ _ _ _ _ _ _ _ _ _ _ _ _ | | | 1 1 1 1 1 3 3 4 4 4 4 5 5 6 6 6 7 8 8 9 0 0 0 a >   ",
"  > _ } } } } | | | | | | | | 1 1 1 1 1 3 3 4 4 4 4 5 5 6 6 6 7 8 8 9 0 0 0 a b c c c d e e >   ",
"  > | | | | | | 1 1 1 1 1 3 3 4 4 4 4 5 5 6 6 6 7 8 8 9 0 0 0 a b c c c d e e e e f g g g h >   ",
"  > 1 1 1 1 3 3 4 4 4 4 5 5 6 6 6 7 8 8 9 0 0 0 a b c c c d e e e e f g g g h i i i j j k k >   ",
"  > 4 4 4 5 5 6 6 6 7 8 8 9 0 0 0 a b c c c d e e e e f g g g h i i i j j k k k l m m m n o >   ",
"  > 6 7 8 8 9 0 0 0 a b c c c d e e e e f g g g h i i i j j k k k l m m m n o o o p p q r s >   ",
"  > 0 a b c c c d e e e e f g g g h i i i j j k k k l m m m n o o o p p q r s s t u v v w w >   ",
"  > e e e e f g g g h i i i j j k k k l m m m n o o o p p q r s s t u v v w w x y z A A A B >   ",
"  > g h i i i j j k k k l m m m n o o o p p q r s s t u v v w w x y z A A A B B C C D D E F >   ",
"  > k k k l m m m n o o o p p q r s s t u v v w w x y z A A A B B C C D D E F G G H I J K L >   ",
"  > n o o o p p q r s s t u v v w w x y z A A A B B C C D D E F G G H I J K L L - ; ; ; & M >   ",
"  > r s s t u v v w w x y z A A A B B C C D D E F G G H I J K L L - ; ; ; & M M N O P P Q R >   ",
"  > w w x y z A A A B B C C D D E F G G H I J K L L - ; ; ; & M M N O P P Q R R R S T T T U >   ",
"  > A B B C C D D E F G G H I J K L L - ; ; ; & M M N O P P Q R R R S T T T U V V W X Y Y Z >   ",
"  > E F G G H I J K L L - ; ; ; & M M N O P P Q R R R S T T T U V V W X Y Y Z ` `  . . ...+.>   ",
"  > K L L - ; ; ; & M M N O P P Q R R R S T T T U V V W X Y Y Z ` `  . . ...+.+.@.#.$.$.%.&.>   ",
"  > & M M N O P P Q R R R S T T T U V V W X Y Y Z ` `  . . ...+.+.@.#.$.$.%.&.&.&.&.*.=.=.=.>   ",
"  > Q R R R S T T T U V V W X Y Y Z ` `  . . ...+.+.@.#.$.$.%.&.&.&.&.*.=.=.=.-.-.-.-.-.;.;.>   ",
"  > T U V V W X Y Y Z ` `  . . ...+.+.@.#.$.$.%.&.&.&.&.*.=.=.=.-.-.-.-.-.;.;.;.>.,.,.,.,.'.>   ",
"  > Y Z ` `  . . ...+.+.@.#.$.$.%.&.&.&.&.*.=.=.=.-.-.-.-.-.;.;.;.>.,.,.,.,.'.).).!.~.{.{.].>   ",
"  > ..+.+.@.#.$.$.%.&.&.&.&.*.=.=.=.-.-.-.-.-.;.;.;.>.,.,.,.,.'.).).!.~.{.{.]., , , ' ' ^./.>   ",
"  > %.&.&.&.&.*.=.=.=.-.-.-.-.-.;.;.;.>.,.,.,.,.'.).).!.~.{.{.]., , , ' ' ^././.(._.:.:.<.[.>   ",
"  > =.=.-.-.-.-.-.;.;.;.>.,.,.,.,.'.).).!.~.{.{.]., , , ' ' ^././.(._.:.:.<.[.[.[.}.|.|.|.1.>   ",
"  > ;.;.;.>.,.,.,.,.'.).).!.~.{.{.]., , , ' ' ^././.(._.:.:.<.[.[.[.}.|.|.|.1.2.2.3.4.5.5.6.>   ",
"  > ,.'.).).!.~.{.{.]., , , ' ' ^././.(._.:.:.<.[.[.[.}.|.|.|.1.2.2.3.4.5.5.6.7.7.7.8.9.9.0.>   ",
"  > {.]., , , ' ' ^././.(._.:.:.<.[.[.[.}.|.|.|.1.2.2.3.4.5.5.6.7.7.7.8.9.9.0.a.b.c.d.d.e.f.>   ",
"  > ^././.(._.:.:.<.[.[.[.}.|.|.|.1.2.2.3.4.5.5.6.7.7.7.8.9.9.0.a.b.c.d.d.e.f.g.g.h.h.i.i.j.>   ",
"  > <.[.[.[.}.|.|.|.1.2.2.3.4.5.5.6.7.7.7.8.9.9.0.a.b.c.d.d.e.f.g.g.h.h.i.i.j.j.j.k.l.~ ^ ^ >   ",
"  > |.1.2.2.3.4.5.5.6.7.7.7.8.9.9.0.a.b.c.d.d.e.f.g.g.h.h.i.i.j.j.j.k.l.~ ^ ^ ] ] m.n.o.o.p.>   ",
"  > > > > > > > > > > > > > > > > > > > > > > > > > > > > > > > > > > > > > > > > > > > > > >   ",
"                                                                                                ",
"                                                                                                ",
"                                                                                                ",
"                                                                                                ",
"                                                                                                "};
