/* XPM */
static char * bottom_xpm[] = {
"26 26 40 1",
" 	c None",
".	c #000000",
"+	c #000400",
"@	c #080808",
"#	c #080C08",
"$	c #DEDEDE",
"%	c #EEEEEE",
"&	c #F6F6F6",
"*	c #A4BE9C",
"=	c #9CB694",
"-	c #9CB68B",
";	c #8BAA83",
">	c #738D62",
",	c #E6E2DE",
"'	c #EEEAEE",
")	c #8BAE7B",
"!	c #8BAA7B",
"~	c #7B996A",
"{	c #D5D6D5",
"]	c #F6F2F6",
"^	c #6A895A",
"/	c #E6E6E6",
"(	c #83AA73",
"_	c #739162",
":	c #F6EEF6",
"<	c #94B283",
"[	c #8BA57B",
"}	c #E6E2E6",
"|	c #8BAE83",
"1	c #62855A",
"2	c #F6EEEE",
"3	c #CDCECD",
"4	c #627D52",
"5	c #BDC2BD",
"6	c #A4AE9C",
"7	c #5A7952",
"8	c #DEE2DE",
"9	c #DEDADE",
"0	c #7B9D6A",
"a	c #83A573",
"                          ",
"                          ",
"                          ",
"                          ",
"                          ",
"      .+.....+@#+++.      ",
"      @$%&&&%*==-;>.      ",
"       .,'%%%)))!~.       ",
"       .{%]]])));^.       ",
"        ./]]]))(_.        ",
"        .{%:])<[^.        ",
"         .}]]))_.         ",
"         .{%%|[1.         ",
"          .}2[^.          ",
"          .3$~4.          ",
"           .51.           ",
"           .67.           ",
"            ..            ",
"      ..+++++.......      ",
"      @/}}}89)||!0_.      ",
"      @'{{{{{aaaa0_.      ",
"      .#+...........      ",
"                          ",
"                          ",
"                          ",
"                          "};
