/* XPM */
static char * dnd_xpm[] = {
"26 26 63 1",
" 	c None",
".	c #BDBEBD",
"+	c #6A6D6A",
"@	c #6A696A",
"#	c #A4A5A4",
"$	c #838183",
"%	c #D5D6D5",
"&	c #CDCECD",
"*	c #B4B2B4",
"=	c #626562",
"-	c #9CA19C",
";	c #9C999C",
">	c #F6F6F6",
",	c #F6F2F6",
"'	c #EEEEEE",
")	c #DEDEDE",
"!	c #FFFAFF",
"~	c #EEEAEE",
"{	c #ACAEAC",
"]	c #626162",
"^	c #4A4C4A",
"/	c #9C9D9C",
"(	c #E6E6E6",
"_	c #DEDADE",
":	c #E6E2E6",
"<	c #202420",
"[	c #B4B6B4",
"}	c #EEEAE6",
"|	c #D5D2D5",
"1	c #393C39",
"2	c #CDCACD",
"3	c #CDCAC5",
"4	c #BDBABD",
"5	c #393839",
"6	c #C5C6C5",
"7	c #BDBAB4",
"8	c #83898B",
"9	c #838583",
"0	c #C5C2C5",
"a	c #838D94",
"b	c #94998B",
"c	c #7B8994",
"d	c #B4B2AC",
"e	c #D5D2CD",
"f	c #94999C",
"g	c #ACAA7B",
"h	c #7B857B",
"i	c #94997B",
"j	c #737D7B",
"k	c #ACAAA4",
"l	c #DEDAD5",
"m	c #C5C2BD",
"n	c #ACAAAC",
"o	c #CDCEC5",
"p	c #949194",
"q	c #313431",
"r	c #A4A1A4",
"s	c #313031",
"t	c #313029",
"u	c #292C29",
"v	c #8B898B",
"w	c #7B7D7B",
"x	c #8B8D8B",
"                          ",
"                          ",
"                          ",
"                          ",
"                          ",
"      .++@@@@@@@@+        ",
"      #$%%%%%%%%&*=.      ",
"      -;>%,'))'!~{]^      ",
"      /;>('>)_':'.+<[     ",
"      /;>(',_%~%(}|1#     ",
"      /;':'~23:44%&5-     ",
"      /;~|:6768894&5-     ",
"      /;~0%(|.abcd25-     ",
"      /;}&|e%4fgh{65-     ",
"      /;(2e2e7fijk05-     ",
"      /;).l4m6//;4m5-     ",
"      /;%{n2d{6[k6.5-     ",
"      /;e03[%nk.do.5-     ",
"      /p&20mm7[[*[#q-     ",
"      rs11qqqqssstu1#     ",
"       #v$wwwwwwww$x*     ",
"       0[{{{{{{{{{{[      ",
"                          ",
"                          ",
"                          ",
"                          "};
