/* XPM */
static char * dnd_multi_xpm[] = {
"26 26 75 1",
" 	c None",
".	c #BDBABD",
"+	c #838583",
"@	c #8B8D8B",
"#	c #838183",
"$	c #9C9D9C",
"%	c #9C999C",
"&	c #737573",
"*	c #6A6D6A",
"=	c #393C39",
"-	c #7B7D7B",
";	c #7B797B",
">	c #626562",
",	c #737173",
"'	c #FFFFFF",
")	c #EEEEEE",
"!	c #C5C6C5",
"~	c #C5C2BD",
"{	c #ACAAAC",
"]	c #626162",
"^	c #A4A1A4",
"/	c #949594",
"(	c #F6F6F6",
"_	c #E6E6E6",
":	c #FFFAFF",
"<	c #EEEAEE",
"[	c #F6F2F6",
"}	c #C5C2C5",
"|	c #525552",
"1	c #A4A5A4",
"2	c #E6E2E6",
"3	c #4A4841",
"4	c #292829",
"5	c #B4B6B4",
"6	c #DEDEDE",
"7	c #CDCACD",
"8	c #D5D6D5",
"9	c #313431",
"0	c #DEDADE",
"a	c #F6F2EE",
"b	c #DEDAD5",
"c	c #CDCAC5",
"d	c #A4A19C",
"e	c #D5D2CD",
"f	c #ACAEAC",
"g	c #83919C",
"h	c #839194",
"i	c #7B858B",
"j	c #BDBEBD",
"k	c #EEEAE6",
"l	c #9C9994",
"m	c #D5D2D5",
"n	c #9CA19C",
"o	c #A4A173",
"p	c #737D7B",
"q	c #CDCECD",
"r	c #A4AAAC",
"s	c #8B957B",
"t	c #7B8583",
"u	c #949194",
"v	c #8B898B",
"w	c #BDBAB4",
"x	c #313031",
"y	c #94918B",
"z	c #B4B2AC",
"A	c #414441",
"B	c #7B7973",
"C	c #B4B2B4",
"D	c #C5C6BD",
"E	c #4A484A",
"F	c #5A595A",
"G	c #5A5952",
"H	c #52504A",
"I	c #414041",
"J	c #393839",
"                          ",
"                          ",
"                          ",
"   .++++++++++@           ",
"   +#$$$$$$$$%&*          ",
"   +$=--------;>,         ",
"   +$-'')!!!!!~{>]^{      ",
"   +$-''{,%%%%%%%%/&+     ",
"   +$-''{.(_:(<[(:_}|;    ",
"   +$-''1.(_((2_)[<%345   ",
"   +$-':1.<6<)77_8))!91   ",
"   +$-:(^._2<_}}6{50!91   ",
"   +$-(a$._b6!~cd$$e}91   ",
"   +$-[)%.<b2_6fghij~91   ",
"   +$-)kl._m060{nop.j91   ",
"   +$-<2/50j}~q1rst5j91   ",
"   +%-_6u5mj8f~fv+-ww91   ",
"   +x-20y5qzfq5fc5fc591   ",
"    /A;B35mqq!ewj~jc591   ",
"     ;]]=Cqqc~755jwDf91   ",
"        #EFGHHHEAAAIJJ{   ",
"         @&&&&&&&&&&&@j   ",
"                          ",
"                          ",
"                          ",
"                          "};
