/* XPM */
static char * down_xpm[] = {
"26 26 40 1",
" 	c None",
".	c #000000",
"+	c #000400",
"@	c #080808",
"#	c #DEDEDE",
"$	c #EEEAEE",
"%	c #EEEEEE",
"&	c #F6F2F6",
"*	c #B4C6A4",
"=	c #A4BE9C",
"-	c #A4BA94",
";	c #9CB694",
">	c #83A17B",
",	c #738D62",
"'	c #E6E6E6",
")	c #F6EEEE",
"!	c #94B283",
"~	c #8BAE83",
"{	c #83AA73",
"]	c #739162",
"^	c #DEDADE",
"/	c #F6EEF6",
"(	c #8BAE7B",
"_	c #83A57B",
":	c #6A895A",
"<	c #E6E2DE",
"[	c #73956A",
"}	c #D5D6D5",
"|	c #8BA57B",
"1	c #E6E2E6",
"2	c #94AE83",
"3	c #7B9D73",
"4	c #62855A",
"5	c #94AA83",
"6	c #6A8962",
"7	c #7B9973",
"8	c #627D52",
"9	c #BDC2BD",
"0	c #A4AE9C",
"a	c #5A7952",
"                          ",
"                          ",
"                          ",
"                          ",
"                          ",
"                          ",
"      .+++@@++++@...      ",
"      .#$%&&&*=-;>,.      ",
"       .')&&&!~~{].       ",
"       +^$/&&(((_:.       ",
"        .</&&(({[.        ",
"        .}%&&((|:.        ",
"         .1/&(~].         ",
"         .}$%234.         ",
"          .1$56.          ",
"          .}#78.          ",
"           .94.           ",
"           .0a.           ",
"            ..            ",
"            ..            ",
"                          ",
"                          ",
"                          ",
"                          ",
"                          ",
"                          "};
