/* XPM */
static char * error_xpm[] = {
"26 26 187 2",
"  	c None",
". 	c #BDBABD",
"+ 	c #ACAEAC",
"@ 	c #ACAAA4",
"# 	c #B4B6B4",
"$ 	c #94817B",
"% 	c #6A4C39",
"& 	c #5A2C18",
"* 	c #623018",
"= 	c #522818",
"- 	c #624439",
"; 	c #8B7D7B",
"> 	c #949594",
", 	c #835D4A",
"' 	c #944820",
") 	c #C55D29",
"! 	c #DE6531",
"~ 	c #DE6529",
"{ 	c #D56129",
"] 	c #CD5920",
"^ 	c #AC4008",
"/ 	c #7B2C08",
"( 	c #7B4C39",
"_ 	c #8B8983",
": 	c #834829",
"< 	c #C56131",
"[ 	c #E66D31",
"} 	c #E66520",
"| 	c #DE5918",
"1 	c #DE5010",
"2 	c #D54C10",
"3 	c #CD4C08",
"4 	c #C54808",
"5 	c #BD4408",
"6 	c #A43808",
"7 	c #733820",
"8 	c #838183",
"9 	c #CD6531",
"0 	c #E65D18",
"a 	c #E65910",
"b 	c #DE5510",
"c 	c #CD4808",
"d 	c #C54408",
"e 	c #BD4008",
"f 	c #AC3C08",
"g 	c #733C20",
"h 	c #948D8B",
"i 	c #83614A",
"j 	c #BD5D29",
"k 	c #E65D10",
"l 	c #DE5910",
"m 	c #C55018",
"n 	c #D55510",
"o 	c #E65510",
"p 	c #CD4C10",
"q 	c #BD4818",
"r 	c #BD4410",
"s 	c #B43C08",
"t 	c #9C3408",
"u 	c #734C39",
"v 	c #B4B2B4",
"w 	c #948583",
"x 	c #8B4420",
"y 	c #DE6D31",
"z 	c #AC7152",
"A 	c #B49D8B",
"B 	c #B4795A",
"C 	c #CD5518",
"D 	c #B46D4A",
"E 	c #BDA194",
"F 	c #C5856A",
"G 	c #BD5520",
"H 	c #B44008",
"I 	c #732808",
"J 	c #837973",
"K 	c #6A554A",
"L 	c #BD5D31",
"M 	c #DE5D20",
"N 	c #DE5D18",
"O 	c #C5A594",
"P 	c #FFFFFF",
"Q 	c #F6E6DE",
"R 	c #CD8D6A",
"S 	c #BD714A",
"T 	c #CDC2BD",
"U 	c #F6F6F6",
"V 	c #EEC6B4",
"W 	c #CD714A",
"X 	c #B44010",
"Y 	c #8B3008",
"Z 	c #5A4031",
"` 	c #523020",
" .	c #D55010",
"..	c #BD7552",
"+.	c #E6D6D5",
"@.	c #F6E6E6",
"#.	c #E6DAD5",
"$.	c #DE9D83",
"%.	c #CD6D41",
"&.	c #AC3808",
"*.	c #9C3008",
"=.	c #411808",
"-.	c #A4A5A4",
";.	c #D55518",
">.	c #CD7D5A",
",.	c #E6DED5",
"'.	c #FFEAE6",
").	c #E6A58B",
"!.	c #CD6941",
"~.	c #BD4C18",
"{.	c #943008",
"].	c #411800",
"^.	c #A4A19C",
"/.	c #CD5D29",
"(.	c #C57952",
"_.	c #FFEEE6",
":.	c #DE997B",
"<.	c #8B2C08",
"[.	c #391000",
"}.	c #522C18",
"|.	c #C55520",
"1.	c #BD4810",
"2.	c #B47152",
"3.	c #DED2CD",
"4.	c #FFFAFF",
"5.	c #F6EAE6",
"6.	c #FFEEEE",
"7.	c #D5957B",
"8.	c #B44C18",
"9.	c #A43408",
"0.	c #832808",
"a.	c #311408",
"b.	c #BDBEBD",
"c.	c #AC4818",
"d.	c #A44010",
"e.	c #C5A194",
"f.	c #DE9D7B",
"g.	c #DE9173",
"h.	c #EECABD",
"i.	c #BD6139",
"j.	c #6A2000",
"k.	c #524039",
"l.	c #948983",
"m.	c #7B3C20",
"n.	c #AC4010",
"o.	c #B4755A",
"p.	c #DEBAAC",
"q.	c #C55929",
"r.	c #D5896A",
"s.	c #E6BEAC",
"t.	c #CD9173",
"u.	c #B45529",
"v.	c #832800",
"w.	c #521C00",
"x.	c #7B594A",
"y.	c #A44820",
"z.	c #B44818",
"A.	c #C56539",
"B.	c #BD5020",
"C.	c #B44410",
"D.	c #BD5529",
"E.	c #B45531",
"F.	c #A43C10",
"G.	c #949194",
"H.	c #733C29",
"I.	c #8B898B",
"J.	c #6A3C29",
"K.	c #944018",
"L.	c #AC3C10",
"M.	c #7B2800",
"N.	c #621C00",
"O.	c #5A3020",
"P.	c #73554A",
"Q.	c #6A2408",
"R.	c #832C08",
"S.	c #7B2808",
"T.	c #6A4839",
"U.	c #8B8D8B",
"V.	c #BDBAB4",
"W.	c #624C41",
"X.	c #391C08",
"Y.	c #391400",
"Z.	c #311000",
"`.	c #5A4439",
" +	c #837D7B",
".+	c #B4B2AC",
"++	c #B4BAB4",
"                                                    ",
"                                                    ",
"                                                    ",
"                    . + @ @ + .                     ",
"                # $ % & * * = - ; +                 ",
"              > , ' ) ! ~ { ] ^ / ( _               ",
"            _ : < [ } | 1 2 3 4 5 6 7 8             ",
"          > : 9 [ 0 a a b 1 2 c d e f g h           ",
"        # i j [ k l m n o b p q r e s t u v         ",
"        w x y 0 a z A B C n D E F G H f I J         ",
"      . K L M b N O P Q R S T U V W X f Y Z #       ",
"      + ` {  .b b ..+.P @.#.U @.$.%.H &.*.=.-.      ",
"      @ & { 2  .1 ;.>.,.P P '.).!.~.s &.{.].^.      ",
"      @ & /.c p 2  .(.#.P P _.:.m H f 6 <.[.^.      ",
"      + }.|.d c 1.2.3.4.'.5.P 6.7.8.&.9.0.a.-.      ",
"      b.K c.5 d d.e.P @.f.g.Q P h.i.6 {.j.k.#       ",
"        l.m.r e n.o.p.g.q.q.r.s.t.u.9.v.w.J         ",
"        # x.y.z.H z.A.B.H C.D.i.E.F.{.j.- +         ",
"          G.H.y.z.s s f f &.&.6 t {.j.}.I.          ",
"            I.J.K.L.&.6 6 9.t {.M.N.O.8             ",
"              > P.Q.R.{.{.0.S.N.w.T.U.              ",
"                V.; W.X.Y.Z.a.`. +.+                ",
"                    . -.^.^.-.++                    ",
"                                                    ",
"                                                    ",
"                                                    "};
