/* XPM */
static char * first_xpm[] = {
"26 26 32 1",
" 	c None",
".	c #000000",
"+	c #C5D6C5",
"@	c #E6EAE6",
"#	c #FFFFFF",
"$	c #DEEADE",
"%	c #F6F6F6",
"&	c #DEE6DE",
"*	c #EEF2EE",
"=	c #101810",
"-	c #B4C6AC",
";	c #EEEEEE",
">	c #D5E2D5",
",	c #62915A",
"'	c #315931",
")	c #52814A",
"!	c #73996A",
"~	c #83A573",
"{	c #7BA573",
"]	c #83AA73",
"^	c #83AA7B",
"/	c #83AE7B",
"(	c #526D4A",
"_	c #4A7D41",
":	c #739D6A",
"<	c #739962",
"[	c #628D52",
"}	c #4A7539",
"|	c #5A8952",
"1	c #417139",
"2	c #6AA562",
"3	c #315929",
"                          ",
"                          ",
"                          ",
"                          ",
"                          ",
"                          ",
"    ....           ..     ",
"    .++.         ..+.     ",
"    .++.       ..@#+.     ",
"    .++.     ..$#%%+.     ",
"    .++.   ..&#%*%%+.     ",
"    .++. .=&#******+.     ",
"    .++..-#;>&@****+.     ",
"    .,,..')!~{]^/^/,.     ",
"    .,,. ..(_:^~^/^,.     ",
"    .,,.   ..'_<]~/,.     ",
"    .[[.     ..}_<~[.     ",
"    .||.       ..12|.     ",
"    .33.         ..3.     ",
"    ....           ..     ",
"                          ",
"                          ",
"                          ",
"                          ",
"                          ",
"                          "};
