/* XPM */
static char * home_xpm[] = {
"26 26 22 1",
" 	c None",
".	c #000000",
"+	c #FFFFFF",
"@	c #CDD6CD",
"#	c #E6E6DE",
"$	c #83917B",
"%	c #CDD2C5",
"&	c #D5DAD5",
"*	c #BDC2B4",
"=	c #7B8D73",
"-	c #C5CEC5",
";	c #D5D6CD",
">	c #CDD2CD",
",	c #CDCEC5",
"'	c #B4C2B4",
")	c #EEF2EE",
"!	c #7B896A",
"~	c #D5DACD",
"{	c #6A7962",
"]	c #A4B29C",
"^	c #626D5A",
"/	c #DEDED5",
"                          ",
"                          ",
"                          ",
"                          ",
"                          ",
"            .  ...        ",
"           .+. .@.        ",
"          .+#$..%.        ",
"         .++&*=.-.        ",
"        .++;>,'=,.        ",
"       .)+;,,,%*!.        ",
"      .++~,,%,,,*{.       ",
"     .+++%,,%,---]^.      ",
"    ...++,,,,----{...     ",
"      .++%,------{.       ",
"      .++....----{.       ",
"      .++.--.---,{.       ",
"      .++.,,.,,,-{.       ",
"      .+/.>>.,,--{.       ",
"      .%{.{{.{{{{{.       ",
"      .............       ",
"                          ",
"                          ",
"                          ",
"                          ",
"                          "};
