/* XPM */
static char * mail_send_xpm[] = {
"26 26 67 1",
" 	c None",
".	c #000000",
"+	c #7B797B",
"@	c #C5C6C5",
"#	c #F6F2EE",
"$	c #BDBEBD",
"%	c #5A5D5A",
"&	c #E6E2DE",
"*	c #F6EEEE",
"=	c #D5D2CD",
"-	c #949594",
";	c #626162",
">	c #B4B6B4",
",	c #FFFAF6",
"'	c #F6F6F6",
")	c #EEEEEE",
"!	c #4A4C4A",
"~	c #A4A5A4",
"{	c #7B7D7B",
"]	c #525052",
"^	c #DEDADE",
"/	c #F6F2F6",
"(	c #9C9994",
"_	c #62615A",
":	c #BDBEB4",
"<	c #EEEAE6",
"[	c #838183",
"}	c #D5D6D5",
"|	c #ACAAA4",
"1	c #DEDAD5",
"2	c #EEEEE6",
"3	c #BDBAB4",
"4	c #94918B",
"5	c #7B7973",
"6	c #EEE6DE",
"7	c #B4B2AC",
"8	c #7B7573",
"9	c #BDB6B4",
"0	c #E6E6DE",
"a	c #EEE6E6",
"b	c #737573",
"c	c #9C9594",
"d	c #73756A",
"e	c #CDCAC5",
"f	c #A4A19C",
"g	c #CDCEC5",
"h	c #CDCECD",
"i	c #ACAEAC",
"j	c #292829",
"k	c #6A655A",
"l	c #7B6D62",
"m	c #5A5552",
"n	c #73695A",
"o	c #948573",
"p	c #948973",
"q	c #625D4A",
"r	c #8B816A",
"s	c #9C917B",
"t	c #080C08",
"u	c #AC9983",
"v	c #AC957B",
"w	c #9C8973",
"x	c #B4A18B",
"y	c #8B7D6A",
"z	c #CDB29C",
"A	c #DEC2A4",
"B	c #B49D83",
"                          ",
"                          ",
"                          ",
"              ....        ",
"         .....+@#$.       ",
"    .....%$&###*=-.       ",
"   .;>,''''###*)!$~.      ",
"   .@{]^'/###*)(_:<.      ",
"   .[}|]{1##*)2!3<<.      ",
"    .''#>(;4)2!55<67.     ",
"    .=###*$$5!-<-890.     ",
"    .|##*);2<<<a60b4.     ",
"     .#*)$c<<<a600&d4.    ",
"     .*)2_<<<6000&ef..    ",
"     .>2:-<<600g-...      ",
"      .<_<<6g-.....       ",
"      .5-hi...  jkl.      ",
"      .m5..    .nopq.     ",
"       ..     ...rs.t.    ",
"                .uv.      ",
"               .wxxy.     ",
"               .zzzz.     ",
"              .xAAAAB.    ",
"              ........    ",
"                          ",
"                          "};
