/* XPM */
static char * mail_new_xpm[] = {
"26 26 51 1",
" 	c None",
".	c #000000",
"+	c #7B797B",
"@	c #C5C6C5",
"#	c #F6F2EE",
"$	c #BDBEBD",
"%	c #5A5D5A",
"&	c #E6E2DE",
"*	c #F6EEEE",
"=	c #D5D2CD",
"-	c #949594",
";	c #626162",
">	c #B4B6B4",
",	c #FFFAF6",
"'	c #F6F6F6",
")	c #EEEEEE",
"!	c #4A4C4A",
"~	c #A4A5A4",
"{	c #7B7D7B",
"]	c #525052",
"^	c #DEDADE",
"/	c #F6F2F6",
"(	c #9C9994",
"_	c #62615A",
":	c #BDBEB4",
"<	c #EEEAE6",
"[	c #838183",
"}	c #D5D6D5",
"|	c #ACAAA4",
"1	c #DEDAD5",
"2	c #EEEEE6",
"3	c #BDBAB4",
"4	c #94918B",
"5	c #7B7973",
"6	c #EEE6DE",
"7	c #B4B2AC",
"8	c #7B7573",
"9	c #BDB6B4",
"0	c #E6E6DE",
"a	c #DEBE6A",
"b	c #EEE6E6",
"c	c #737573",
"d	c #8B7D41",
"e	c #9C9594",
"f	c #CDCEC5",
"g	c #CDCECD",
"h	c #ACAEAC",
"i	c #5A5552",
"j	c #AC8D31",
"k	c #736120",
"l	c #000400",
"                          ",
"                          ",
"                          ",
"              ....        ",
"         .....+@#$.       ",
"    .....%$&###*=-.       ",
"   .;>,''''###*)!$~.      ",
"   .@{]^'/###*)(_:<.      ",
"   .[}|]{1##*)2!3<<.      ",
"    .''#>(;4)2!55<67. .   ",
"    .=###*$$5!-<-890..a.  ",
"    .|##*);2<<<b60c4.ad.  ",
"     .#*)$e<<<b600&.ad.   ",
"     .*)2_<<<6000&.ad.    ",
"     .>2:-<<600f-.ad.     ",
"      .<_<<6f-...ad.      ",
"      .5-gh...).ad.       ",
"      .i5..   .ad.        ",
"       ..    .ad.         ",
"            jk..          ",
"            l.            ",
"                          ",
"                          ",
"                          ",
"                          ",
"                          "};
