/* XPM */
static char * paste_xpm[] = {
"26 26 51 1",
" 	c None",
".	c #000000",
"+	c #CDCEBD",
"@	c #CDCABD",
"#	c #D5CEBD",
"$	c #7B7D73",
"%	c #292C29",
"&	c #5A5952",
"*	c #A49D9C",
"=	c #DEDEDE",
"-	c #ACAAA4",
";	c #393C39",
">	c #4A4C4A",
",	c #73716A",
"'	c #4A4C41",
")	c #A4A194",
"!	c #CDC6BD",
"~	c #D5D2BD",
"{	c #949183",
"]	c #202420",
"^	c #ACAEAC",
"/	c #B4B6A4",
"(	c #D5D6BD",
"_	c #DEDAC5",
":	c #EEEAE6",
"<	c #737173",
"[	c #B4B2AC",
"}	c #D5D6C5",
"|	c #ACAE9C",
"1	c #414039",
"2	c #A4A594",
"3	c #DEDEC5",
"4	c #E6E2CD",
"5	c #CDC6B4",
"6	c #626152",
"7	c #E6E6CD",
"8	c #C5C6B4",
"9	c #C5C2B4",
"0	c #C5BEAC",
"a	c #BDBAA4",
"b	c #EEEAD5",
"c	c #C5C2AC",
"d	c #DEDECD",
"e	c #EEEED5",
"f	c #F6F2DE",
"g	c #C5BAAC",
"h	c #BDB6A4",
"i	c #B4B2A4",
"j	c #F6F6DE",
"k	c #F6F2D5",
"l	c #9C9D8B",
"                          ",
"                          ",
"                          ",
"                          ",
"          ...             ",
"        ..++@.      .     ",
"      ..#++@@.   .....    ",
"    ..##$%&*@@.  .....    ",
"   .###&=-$;@@.     .     ",
"   .###>-$;@@@@.          ",
"    .#+,')@@@@!. ..       ",
"    .+++@@@@@@!..~{.      ",
"     .+@@@@@@.]^/(_.      ",
"     .@@@@@@!.:<[}_|.     ",
"      .@@@@!!.=12_34.     ",
"      .@@@@!5.62_347/.    ",
"       .@!890.a_3447b).   ",
"       .c000a.{_d47bef.   ",
"        .gahi..347befj2.  ",
"        .hh.. .|7bek2..   ",
"         ..    .7b)..     ",
"               .l..       ",
"                .         ",
"                          ",
"                          ",
"                          "};
