/* XPM */
static char * print_xpm[] = {
"26 26 64 1",
" 	c None",
".	c #000000",
"+	c #F6F6F6",
"@	c #CDCACD",
"#	c #525552",
"$	c #FFFAFF",
"%	c #FFF6F6",
"&	c #F6F2F6",
"*	c #F6F2EE",
"=	c #C5C6C5",
"-	c #414441",
";	c #EEEEEE",
">	c #EEEAEE",
",	c #EEEAE6",
"'	c #E6E6E6",
")	c #E6E2DE",
"!	c #A4A19C",
"~	c #292C29",
"{	c #CDCAC5",
"]	c #000400",
"^	c #A4A5A4",
"/	c #F6EEEE",
"(	c #EEE6E6",
"_	c #DEDEDE",
":	c #5A595A",
"<	c #CDCECD",
"[	c #B4B6B4",
"}	c #9C999C",
"|	c #7B7D7B",
"1	c #BDBEBD",
"2	c #E6E2E6",
"3	c #B4B2B4",
"4	c #5A5D5A",
"5	c #838183",
"6	c #413C39",
"7	c #6A6D6A",
"8	c #8B8D8B",
"9	c #949194",
"0	c #626162",
"a	c #524C4A",
"b	c #626562",
"c	c #4A484A",
"d	c #ACAEAC",
"e	c #ACAAAC",
"f	c #BDBABD",
"g	c #D5D6D5",
"h	c #414041",
"i	c #202420",
"j	c #313431",
"k	c #393839",
"l	c #D5D2D5",
"m	c #DEDADE",
"n	c #393C39",
"o	c #6A696A",
"p	c #A4A1A4",
"q	c #C5C2C5",
"r	c #949594",
"s	c #7B797B",
"t	c #313031",
"u	c #838583",
"v	c #9C9D9C",
"w	c #4A4C4A",
"x	c #525052",
"y	c #737173",
"                          ",
"                          ",
"                          ",
"                          ",
"             ..           ",
"            .+@#..        ",
"           .$%+&*=-...    ",
"          .=++*;>,')!.    ",
"          ~+&*;>,'){.     ",
"        .]^&/;,(')_:      ",
"      ..<[}|>,'))_1..     ",
"    ..@>;>234453_{647..   ",
"   .8[>$++&&;;90a0-bc~.   ",
"   .deef2&;&;>>>>ghijk.   ",
"   .33deeel';&>&m-knkh.   ",
"   .op[[3epp}l2qh~jnhk.   ",
"   .b-0pdee^^rstiknnkj.   ",
"   .::c-c0uppv|jkntkn..   ",
"    ..wx#w--w0skk~jj.     ",
"      ...h:#by7htj..      ",
"         ...cyykn.        ",
"            .....         ",
"                          ",
"                          ",
"                          ",
"                          "};
