/* XPM */
static char * prop_xpm[] = {
"26 26 57 1",
" 	c None",
".	c #000000",
"+	c #ACAE9C",
"@	c #949583",
"#	c #DEDEC5",
"$	c #DEDECD",
"%	c #202420",
"&	c #A4A594",
"*	c #D5D6C5",
"=	c #DEDAC5",
"-	c #E6E2CD",
";	c #DEBE6A",
">	c #D5D6BD",
",	c #A4A194",
"'	c #B4B29C",
")	c #8B7D41",
"!	c #7B7D7B",
"~	c #626562",
"{	c #9C9D8B",
"]	c #ACAA9C",
"^	c #E6E6CD",
"/	c #EEEAD5",
"(	c #313431",
"_	c #E6E6E6",
":	c #BDBAA4",
"<	c #D5D2BD",
"[	c #949183",
"}	c #EEEED5",
"|	c #EEEEEE",
"1	c #393C31",
"2	c #8B897B",
"3	c #9C998B",
"4	c #EEEEE6",
"5	c #393C39",
"6	c #8B8D83",
"7	c #525052",
"8	c #F6F6DE",
"9	c #E6E2DE",
"0	c #7B7973",
"a	c #DEDACD",
"b	c #BDBEB4",
"c	c #ACAEA4",
"d	c #9C9D94",
"e	c #AC8D31",
"f	c #736120",
"g	c #C5C6B4",
"h	c #838173",
"i	c #000400",
"j	c #BDBEAC",
"k	c #7B7D73",
"l	c #C5C2AC",
"m	c #4A4C4A",
"n	c #F6F2DE",
"o	c #F6F2D5",
"p	c #BDBAAC",
"q	c #CDCEBD",
"r	c #4A4C41",
"                          ",
"                          ",
"                          ",
"              .           ",
"            ..+.          ",
"          ..@#$%      .   ",
"        ..&*=##-.    .;.  ",
"      ..&>**==,-'.  .;).  ",
"     .!~>>>*{]-^/( .;).   ",
"     ._(:<[{#-^,}}.;).    ",
"     .||12>=-^3/}.;).     ",
"     .4456<-33}}.;).      ",
"     .47[<#@^/}.;).8.     ",
"     ..@<=@-/}.;).889.    ",
"     .0=[@-^/.;).8abcd.   ",
"     .3=#$^^ef..g{{{{h.   ",
"      .#--^/i.3{{{{{..    ",
"      .j^^{2klllg8=.      ",
"       m/,/}}nn8nh.       ",
"       ./}}}nnn=.         ",
"        .}onn/&.          ",
"        .pnnqr.           ",
"         .n&.             ",
"          ..              ",
"                          ",
"                          "};
