/* XPM */
static char * remove_xpm[] = {
"25 26 26 1",
" 	c None",
".	c #8B8D8B",
"+	c #6A6D6A",
"@	c #737573",
"#	c #BDC2BD",
"$	c #5A616A",
"%	c #737983",
"&	c #737D83",
"*	c #626162",
"=	c #7B818B",
"-	c #8BA5BD",
";	c #8399B4",
">	c #627183",
",	c #313031",
"'	c #ACAEAC",
")	c #4A5562",
"!	c #5A6983",
"~	c #52657B",
"{	c #4A596A",
"]	c #313431",
"^	c #A4A5A4",
"/	c #BDBEBD",
"(	c #5A5D5A",
"_	c #292C29",
":	c #7B7D7B",
"<	c #A4A1A4",
"                         ",
"                         ",
"                         ",
"                         ",
"                         ",
"                         ",
"                         ",
"                         ",
"                         ",
"                         ",
"      .+++++++++++@#     ",
"     .$%&&&&&&&&&&$*     ",
"     +=-;;;;;;;;;;>,'    ",
"     @)!~~~~~~~~~~{]^    ",
"     /(,__________]:'    ",
"       '<<<<<<<<<<<'     ",
"                         ",
"                         ",
"                         ",
"                         ",
"                         ",
"                         ",
"                         ",
"                         ",
"                         ",
"                         "};
