/* XPM */
static char * replace_xpm[] = {
"26 26 66 1",
" 	c None",
".	c #000000",
"+	c #DEBE6A",
"@	c #8B7D41",
"#	c #ACAE9C",
"$	c #949583",
"%	c #DEDEC5",
"&	c #DEDECD",
"*	c #A4A594",
"=	c #D5D6C5",
"-	c #DEDAC5",
";	c #D5D6BD",
">	c #7B7D7B",
",	c #626562",
"'	c #C5B273",
")	c #736120",
"!	c #EEEAD5",
"~	c #313431",
"{	c #E6E6E6",
"]	c #BDBAA4",
"^	c #D5D2BD",
"/	c #000400",
"(	c #E6E6CD",
"_	c #EEEED5",
":	c #EEEEEE",
"<	c #393C31",
"[	c #CDCEB4",
"}	c #E6E2CD",
"|	c #F6F2DE",
"1	c #EEEEE6",
"2	c #393C39",
"3	c #8B8D83",
"4	c #B4B6A4",
"5	c #414439",
"6	c #080808",
"7	c #4A4841",
"8	c #C5C2AC",
"9	c #525052",
"0	c #949183",
"a	c #B4B29C",
"b	c #313029",
"c	c #9C9D8B",
"d	c #CDCEBD",
"e	c #C5C6AC",
"f	c #8B8D7B",
"g	c #313429",
"h	c #F6F6DE",
"i	c #E6E2D5",
"j	c #838173",
"k	c #BDBEAC",
"l	c #7B7973",
"m	c #080800",
"n	c #FFFAFF",
"o	c #9C998B",
"p	c #CDCAB4",
"q	c #DEDED5",
"r	c #ACAA9C",
"s	c #737162",
"t	c #83857B",
"u	c #A4A194",
"v	c #4A4C4A",
"w	c #414041",
"x	c #6A6D6A",
"y	c #F6F2D5",
"z	c #BDBAAC",
"A	c #4A4C41",
"                          ",
"                          ",
"                 ..       ",
"                .+@.      ",
"            .  .+@.       ",
"          ..#..+@.        ",
"        ..$%&.+@.         ",
"      ..*=-%.+@.          ",
"    ..*;==-.+@..          ",
"   .>,;;;=')..!~          ",
"   .{~]^=-/.(!__.         ",
"   .::<[;-}(!!_|*.        ",
"   .1123^456678||.        ",
"   .190^abcdefg8hh.       ",
"   ..$^-5ci18aj7hhk.      ",
"   .l--%m;n84*$6hhh-.     ",
"   .o-%&6pq4rof6hhhj.     ",
"    .%}}50]#c0s7hh..      ",
"    .k((]btu0s..-.        ",
"     v!!!k766wx..         ",
"     .!___|||-....        ",
"      ._y||!*.  ...       ",
"      .z||dA.    ...      ",
"       .|*.       ..      ",
"        ..                ",
"                          "};
