/* XPM */
static char * revert_xpm[] = {
"26 26 51 1",
" 	c None",
".	c #000000",
"+	c #629DAC",
"@	c #293C41",
"#	c #EEEEEE",
"$	c #ACC6CD",
"%	c #C5DADE",
"&	c #F6F2F6",
"*	c #FFFAFF",
"=	c #E6EEEE",
"-	c #7BAAB4",
";	c #B4CAD5",
">	c #F6F6F6",
",	c #83AEBD",
"'	c #202C31",
")	c #8BB6BD",
"!	c #D5E2E6",
"~	c #EEEEF6",
"{	c #627D83",
"]	c #EEF2F6",
"^	c #41656A",
"/	c #31555A",
"(	c #9CC2C5",
"_	c #29404A",
":	c #293839",
"<	c #395D62",
"[	c #A4AEAC",
"}	c #EEEAEE",
"|	c #41484A",
"1	c #CDD2D5",
"2	c #E6E6E6",
"3	c #ACB6BD",
"4	c #29444A",
"5	c #182829",
"6	c #5A8594",
"7	c #C5CACD",
"8	c #395052",
"9	c #D5DEE6",
"0	c #E6E2E6",
"a	c #DEDEDE",
"b	c #838D8B",
"c	c #6AA5AC",
"d	c #DEE2E6",
"e	c #BDBABD",
"f	c #4A5D62",
"g	c #D5DEDE",
"h	c #A4B6B4",
"i	c #DEDADE",
"j	c #7B898B",
"k	c #292829",
"l	c #839594",
"                          ",
"                          ",
"       .                  ",
"      ..                  ",
"     ......               ",
"    .........  ..         ",
"     ..........+@.        ",
"      ..###...$#+.        ",
"       .#..%...&+@.       ",
"       ..%$%*..*=+.       ",
"     ..-;%***..*>,'.      ",
"    .);!*****.***~+.      ",
"    .{)]****.****]+@.     ",
"     .$=*******>=+++.     ",
"     .^-]****&=++//+@.    ",
"      .(=**&=++_:<+/+.    ",
"      .^-]=++_[#}|+/+@.   ",
"       .)++/1&&}234+_5.   ",
"       .6-+7>89}0ab+'..   ",
"        .)+/&5cd2ef..     ",
"        .<++g#hijk.       ",
"         .4+/0l..         ",
"          .....           ",
"                          ",
"                          ",
"                          "};
