/* XPM */
static char * save_xpm[] = {
"26 26 52 1",
" 	c None",
".	c #000000",
"+	c #739DAC",
"@	c #4A595A",
"#	c #BDD2D5",
"$	c #ACC2C5",
"%	c #E6EEEE",
"&	c #FFFFFF",
"*	c #EEF2F6",
"=	c #E6EAEE",
"-	c #83AAB4",
";	c #ACC6CD",
">	c #F6FAFF",
",	c #8BAEB4",
"'	c #394C52",
")	c #94B2BD",
"!	c #CDDEDE",
"~	c #7B898B",
"{	c #EEEEF6",
"]	c #F6F6F6",
"^	c #62797B",
"/	c #526D73",
"(	c #A4BEC5",
"_	c #415D62",
":	c #4A555A",
"<	c #52717B",
"[	c #A4AAAC",
"}	c #EEEAEE",
"|	c #E6E6E6",
"1	c #626162",
"2	c #C5CACD",
"3	c #F6F2F6",
"4	c #E6E2E6",
"5	c #ACB2B4",
"6	c #4A6162",
"7	c #31444A",
"8	c #739194",
"9	c #BDC2C5",
"0	c #52696A",
"a	c #CDDADE",
"b	c #DEDEDE",
"c	c #DEDADE",
"d	c #8B9194",
"e	c #39444A",
"f	c #7BA5AC",
"g	c #D5DADE",
"h	c #B4B6B4",
"i	c #627173",
"j	c #D5D6D5",
"k	c #A4B2B4",
"l	c #4A484A",
"m	c #8B999C",
"                          ",
"                          ",
"                          ",
"                          ",
"               ..         ",
"             ..+@.        ",
"           ..#$%+.        ",
"         ..#$#&*+@.       ",
"       ..#$#&&&&=+.       ",
"     ..-;#&&&&&&>,'.      ",
"    .);!&&&&&&&&&%+.      ",
"    .~)*&&&&&&&&&{+@.     ",
"     .$=&&&&&&&]=+++.     ",
"     .^-*&&&&]=++//+@.    ",
"      .(=&&]=++_:<+/+.    ",
"      .^-{=++_[}|1+/+@.   ",
"       .)++/233|456+_7.   ",
"       .8-+9]0a|bcd+'..   ",
"        .)+/3efg4hi..     ",
"        .<++j}kjdl.       ",
"         .6+/bm..         ",
"          .....           ",
"                          ",
"                          ",
"                          ",
"                          "};
