/* XPM */
static char * trash_full_xpm[] = {
"26 26 82 1",
" 	c None",
".	c #080808",
"+	c #000000",
"@	c #202420",
"#	c #ACBA9C",
"$	c #B4C2AC",
"%	c #E6E6DE",
"&	c #83897B",
"*	c #949D83",
"=	c #4A4C41",
"-	c #A4AE94",
";	c #9CAA94",
">	c #B4C6AC",
",	c #BDCEB4",
"'	c #A4B69C",
")	c #BDCAB4",
"!	c #626D5A",
"~	c #292C29",
"{	c #313831",
"]	c #9CAA8B",
"^	c #9CA58B",
"/	c #94A58B",
"(	c #D5DED5",
"_	c #A4B29C",
":	c #A4B294",
"<	c #94A18B",
"[	c #7B9573",
"}	c #CDD6CD",
"|	c #DEE2D5",
"1	c #BDC6B4",
"2	c #627152",
"3	c #738D6A",
"4	c #94AA8B",
"5	c #8BA58B",
"6	c #6A856A",
"7	c #4A594A",
"8	c #4A5041",
"9	c #73896A",
"0	c #6A7962",
"a	c #5A6D5A",
"b	c #526552",
"c	c #FFFFFF",
"d	c #EEEEEE",
"e	c #6A7D62",
"f	c #E6E6E6",
"g	c #62795A",
"h	c #4A5D4A",
"i	c #C5C2C5",
"j	c #949194",
"k	c #9CAE94",
"l	c #525D4A",
"m	c #6A6D6A",
"n	c #ACAEAC",
"o	c #B4C6B4",
"p	c #C7E3C7",
"q	c #7BB67B",
"r	c #9CCA9C",
"s	c #83997B",
"t	c #62715A",
"u	c #5AA55A",
"v	c #8BBA8B",
"w	c #B4B2B4",
"x	c #7B8D73",
"y	c #FFFAFF",
"z	c #4A994A",
"A	c #6AAA6A",
"B	c #BDBEBD",
"C	c #F6F2F6",
"D	c #F6F6F6",
"E	c #529D52",
"F	c #9C999C",
"G	c #EEEAEE",
"H	c #BDD2BD",
"I	c #8BB68B",
"J	c #949594",
"K	c #6AAE6A",
"L	c #B4CEB4",
"M	c #BDBABD",
"N	c #C5C6C5",
"O	c #A4BEA4",
"P	c #D5D6D5",
"Q	c #CDCACD",
"                          ",
"                          ",
"                          ",
"                 .        ",
"     ++++++++   ..        ",
"   @+#$%&*=-;++           ",
"  +>,')!~{@;]^^+          ",
"  +/()_::-;]^^<.    .     ",
"  +[$}|1-;]^^[..    ..    ",
"  +23455[[6++78+ +        ",
"   +@900ab+cc++d+c+       ",
"   +e@@@.@@+cc++f+        ",
"   +e1g..9h6+ijd+         ",
"   +e1gkl9h+ccmn+.        ",
"   +e1gkl9+ccccf+..       ",
"   +eogkl9+ccccfi+.       ",
"   +eogkl+cpqrcff+.  .    ",
"   +s_gkt+pupcuvfw+...    ",
"    +[[x+yzpccqAfB+...... ",
"     ++++CcccccDEBF+....  ",
"        +GqccpcHvIJ+....  ",
"        +fdKKAELviJ+...   ",
"         ++MNOPQMJ+..     ",
"           +++++++        ",
"                          ",
"                          "};
