/* XPM */
static char * undo_xpm[] = {
"26 26 7 1",
" 	c None",
".	c #000000",
"+	c #8B4018",
"@	c #833C18",
"#	c #944420",
"$	c #733418",
"%	c #5A2810",
"                          ",
"                          ",
"                          ",
"                          ",
"                          ",
"                          ",
"                          ",
"          .               ",
"         ..               ",
"        .+@...            ",
"       .+#++@$..          ",
"        .++...$$.         ",
"         ..   .%.         ",
"          .    .%.        ",
"                ..        ",
"                ..        ",
"                .         ",
"               .          ",
"                          ",
"                          ",
"                          ",
"                          ",
"                          ",
"                          ",
"                          ",
"                          "};
