/* XPM */
static char * add_xpm[] = {
"30 30 36 1",
" 	c None",
".	c #ACAAAC",
"+	c #000000",
"@	c #9C9D9C",
"#	c #D5DAE6",
"$	c #BDC6D5",
"%	c #949DAC",
"&	c #B4BAB4",
"*	c #7391AC",
"=	c #5A718B",
"-	c #A4A1A4",
";	c #9C999C",
">	c #BDC2BD",
",	c #BDBEBD",
"'	c #949994",
")	c #5A6D83",
"!	c #ACBECD",
"~	c #9CB2C5",
"{	c #94A5BD",
"]	c #8399B4",
"^	c #A4B6CD",
"/	c #B4C6D5",
"(	c #94A1AC",
"_	c #C5CEDE",
":	c #627994",
"<	c #7389A4",
"[	c #6A81A4",
"}	c #949194",
"|	c #839DBD",
"1	c #626562",
"2	c #B4B6B4",
"3	c #A4B2C5",
"4	c #838983",
"5	c #ACAEAC",
"6	c #4A6173",
"7	c #C5C2C5",
"                              ",
"                              ",
"                              ",
"                              ",
"                              ",
"                              ",
"                              ",
"                              ",
"            .+++@             ",
"            +#$%+&            ",
"            +$*=+-            ",
"            +$*=+;>           ",
"            +$*=+;,           ",
"            +$*=+',           ",
"      .++++++$*)++++++@       ",
"      +!~~~~~{*]^$///(+&      ",
"      +_*************:+-      ",
"      +<=====**[======+;>     ",
"      }++++++|*=++++++1-      ",
"       2-;;;+3*=+4};;;-2      ",
"         >,,+/*=+}5,,>        ",
"            +/*=+',           ",
"            +/*=+;,           ",
"            +3=6+;,           ",
"            }+++1-            ",
"             2-;-2            ",
"               7              ",
"                              ",
"                              ",
"                              "};
