/* XPM */
static char * apply_xpm[] = {
"30 30 97 2",
"  	c None",
". 	c #BDBABD",
"+ 	c #838583",
"@ 	c #8B8D8B",
"# 	c #C5C2C5",
"$ 	c #7B797B",
"% 	c #182018",
"& 	c #9C9D9C",
"* 	c #5A5D5A",
"= 	c #414439",
"- 	c #A4B694",
"; 	c #6A8152",
"> 	c #081008",
", 	c #949594",
"' 	c #313C29",
") 	c #83996A",
"! 	c #5A754A",
"~ 	c #080C08",
"{ 	c #737173",
"] 	c #525D52",
"^ 	c #6A7D5A",
"/ 	c #627D52",
"( 	c #202C18",
"_ 	c #6A6D6A",
": 	c #A4A1A4",
"< 	c #414041",
"[ 	c #4A5941",
"} 	c #7B916A",
"| 	c #4A6139",
"1 	c #BDBEBD",
"2 	c #838183",
"3 	c #414C41",
"4 	c #313C31",
"5 	c #5A655A",
"6 	c #A4A5A4",
"7 	c #949194",
"8 	c #4A5041",
"9 	c #5A6D4A",
"0 	c #627552",
"a 	c #394431",
"b 	c #5A595A",
"c 	c #ACAEAC",
"d 	c #080808",
"e 	c #8BA183",
"f 	c #83A583",
"g 	c #314031",
"h 	c #B4B6B4",
"i 	c #181818",
"j 	c #5A694A",
"k 	c #738D5A",
"l 	c #415031",
"m 	c #292829",
"n 	c #B4B2B4",
"o 	c #101410",
"p 	c #738D6A",
"q 	c #83AA83",
"r 	c #395039",
"s 	c #000400",
"t 	c #202420",
"u 	c #181C18",
"v 	c #314429",
"w 	c #313031",
"x 	c #202820",
"y 	c #627D5A",
"z 	c #739573",
"A 	c #415039",
"B 	c #4A5D39",
"C 	c #628152",
"D 	c #4A4C4A",
"E 	c #5A755A",
"F 	c #6A896A",
"G 	c #394839",
"H 	c #000800",
"I 	c #5A7141",
"J 	c #62794A",
"K 	c #293020",
"L 	c #525052",
"M 	c #4A594A",
"N 	c #628162",
"O 	c #83A57B",
"P 	c #394C29",
"Q 	c #627D4A",
"R 	c #394829",
"S 	c #525952",
"T 	c #526152",
"U 	c #6A8162",
"V 	c #182410",
"W 	c #6A895A",
"X 	c #415931",
"Y 	c #313429",
"Z 	c #8B898B",
"` 	c #626562",
" .	c #314431",
"..	c #83A17B",
"+.	c #7B9D7B",
"@.	c #7B7D7B",
"#.	c #7B817B",
"                                                            ",
"                                                            ",
"                                                            ",
"                                                            ",
"                                                            ",
"                                                            ",
"                                                            ",
"                                                            ",
"                                    . + @                   ",
"                                  # $ % % &                 ",
"                                  * = - ; > ,               ",
"                                  * ' ) ! ~ ,               ",
"                                { ] ^ / ( + #               ",
"                  _ * :         < [ } | ~ 1                 ",
"                2 3 4 5 6     7 8 9 0 a b                   ",
"              c d e f g < h   i j k l m                     ",
"              n o p q r s t 1 u | ! v w                     ",
"                n x y z A s u B C v D #                     ",
"                  i E q F G H I J K L                       ",
"                  + M N O F P Q R S &                       ",
"                    $ T U O ; ! V $                         ",
"                      * g O W X Y Z                         ",
"                      `  ...+.o ,                           ",
"                        @.x N > ,                           ",
"                        1 #.K + #                           ",
"                            @.                              ",
"                                                            ",
"                                                            ",
"                                                            ",
"                                                            "};
