/* XPM */
static char * ascending_xpm[] = {
"30 30 27 1",
" 	c None",
".	c #000000",
"+	c #FFFAFF",
"@	c #DEDED5",
"#	c #8B8D7B",
"$	c #E6E6DE",
"%	c #83A57B",
"&	c #5A6541",
"*	c #EEEEEE",
"=	c #EEEEE6",
"-	c #7BA17B",
";	c #7BA173",
">	c #CDD6C5",
",	c #7B7D73",
"'	c #DEE6DE",
")	c #CDDACD",
"!	c #94B28B",
"~	c #73996A",
"{	c #6A855A",
"]	c #202018",
"^	c #394439",
"/	c #CDDAC5",
"(	c #9CBA9C",
"_	c #73956A",
":	c #394031",
"<	c #52594A",
"[	c #5A6152",
"                              ",
"                              ",
"                              ",
"                              ",
"                              ",
"                              ",
"                              ",
"                              ",
"                  ....        ",
"        .....    ..  ..       ",
"        .+@#.    ..  ..       ",
"        .$%&.    ......       ",
"        .$%&.    ..  ..       ",
"        .*%&.    ..  ..       ",
"        .=%&.                 ",
"        .$%&.      ..         ",
"        .$%&.      ..         ",
"        .$-&.                 ",
"        .$;&.      ..         ",
"        .@-&.      ..         ",
"      ...>-&...               ",
"      .,')!~{].  ......       ",
"       .^/(_:.      ...       ",
"        .<(:.      ...        ",
"         .[.      ...         ",
"          .      ...          ",
"                 ......       ",
"                              ",
"                              ",
"                              "};
