/* XPM */
static char * bold_xpm[] = {
"30 30 45 1",
" 	c None",
".	c #5A595A",
"+	c #000000",
"@	c #525552",
"#	c #B4B6B4",
"$	c #E6E2E6",
"%	c #F6F2F6",
"&	c #F6F6F6",
"*	c #DEDADE",
"=	c #4A4C4A",
"-	c #E6E6E6",
";	c #EEEAEE",
">	c #EEEEEE",
",	c #A4AAA4",
"'	c #949194",
")	c #949594",
"!	c #A4A5A4",
"~	c #393C39",
"{	c #414041",
"]	c #CDCECD",
"^	c #D5D6D5",
"/	c #7B797B",
"(	c #7B7D7B",
"_	c #202020",
":	c #393839",
"<	c #202420",
"[	c #BDBABD",
"}	c #626562",
"|	c #BDBEBD",
"1	c #626162",
"2	c #FFFAFF",
"3	c #080C08",
"4	c #101010",
"5	c #9C9D9C",
"6	c #414441",
"7	c #4A484A",
"8	c #FFFFFF",
"9	c #838583",
"0	c #737173",
"a	c #8B8D8B",
"b	c #292C29",
"c	c #ACAAAC",
"d	c #CDCACD",
"e	c #B4B2B4",
"f	c #C5C2C5",
"                              ",
"                              ",
"                              ",
"                              ",
"                              ",
"    .++++++++++++++++++@#     ",
"   .$%%%%%%%&&&&&&&&&&&*=     ",
"   +%$$$$$----;;;;;>>>>>+#    ",
"   +%$$$$----;;;;;>>>>%%+,    ",
"   +%$$$---'++++)>>>>%%%+!    ",
"   +%$-----~++++{>>>%%%%+!    ",
"   +%-----]++++++^>%%%%&+!    ",
"   +%---;;/++++++(%%%%&&+!    ",
"   +&--;;;_++:_++<%%%&&&+!    ",
"   +&-;;;[+++/}+++|&&&&&+!    ",
"   +&;;;;1+++[!+++}&&&&2+!    ",
"   +&;;;-3++3>-+++4%&222+!    ",
"   +&;;>5+++=%%:+++!2222+!    ",
"   +&;>>6++++++++++72228+!    ",
"   +&>>*++++++++++++-288+!    ",
"   +&>>9+++0&&&&.+++a888+!    ",
"   +2%%b+++|&&22c+++b888+!    ",
"   +2%%%&&&&&22228888888+!    ",
"   +%%%&&&&&22228888888>+!    ",
"   @d>2&&&222228888888>|<!    ",
"   |=++++++++++++++++++<ae    ",
"     #,!!!!!!!!!!!!!!!!!ef    ",
"                              ",
"                              ",
"                              "};
