/* XPM */
static char * bottom_xpm[] = {
"30 30 38 1",
" 	c None",
".	c #000000",
"+	c #EEF2EE",
"@	c #CDDAC5",
"#	c #C5D6C5",
"$	c #A4B6A4",
"%	c #9CB29C",
"&	c #A4B29C",
"*	c #8B9D83",
"=	c #D5E2D5",
"-	c #ACCAAC",
";	c #ACC6AC",
">	c #6A8D62",
",	c #5A7952",
"'	c #526941",
")	c #ACC6A4",
"!	c #6A9162",
"~	c #D5E6D5",
"{	c #A4C6A4",
"]	c #C5D6BD",
"^	c #B4BAB4",
"/	c #8BA583",
"(	c #B4CEAC",
"_	c #B4CEB4",
":	c #B4CAAC",
"<	c #415929",
"[	c #73A16A",
"}	c #B4CAB4",
"|	c #739962",
"1	c #081008",
"2	c #7B9D73",
"3	c #A4C2A4",
"4	c #F6F2F6",
"5	c #9CB69C",
"6	c #94AA8B",
"7	c #8B9D7B",
"8	c #C5D2C5",
"9	c #415D39",
"                              ",
"                              ",
"                              ",
"                              ",
"                              ",
"                              ",
"                              ",
"          .........           ",
"          .+@#$%&*.           ",
"          .=-;>,,'.           ",
"          .=;)!,,'.           ",
"          .~;{!,,'.           ",
"          .=;)!,,'.           ",
"          .]))!,,'.           ",
"     ^.....]);!,,'.....^      ",
"      ^./(_:;-!,,,''<.^       ",
"       ^.[-}-;!,,,,<.^        ",
"        ^.|;;;!,,,<.^         ",
"         ^.|{-!,,<.^          ",
"          ^123!,<.^           ",
"           ^.!><.^            ",
"            ^.<.^             ",
"             ^.^              ",
"      .................       ",
"      .4@@@@@@56666667.       ",
"      .8------!,,,,,,9.       ",
"      .................       ",
"                              ",
"                              ",
"                              "};
