/* XPM */
static char * cancel_xpm[] = {
"30 30 91 1",
" 	c None",
".	c #9CA19C",
"+	c #838583",
"@	c #A4A5A4",
"#	c #8B8D8B",
"$	c #B4B6B4",
"%	c #4A4441",
"&	c #200C10",
"*	c #52484A",
"=	c #949194",
"-	c #291418",
";	c #9C999C",
">	c #181818",
",	c #83484A",
"'	c #AC505A",
")	c #622429",
"!	c #292829",
"~	c #838183",
"{	c #291010",
"]	c #AC3C4A",
"^	c #100808",
"/	c #949594",
"(	c #7B3039",
"_	c #B4444A",
":	c #6A2829",
"<	c #6A6D6A",
"[	c #4A2C31",
"}	c #AC4C52",
"|	c #9C9D9C",
"1	c #523C39",
"2	c #7B2C31",
"3	c #9C3841",
"4	c #622C31",
"5	c #4A4C4A",
"6	c #737173",
"7	c #624041",
"8	c #94404A",
"9	c #AC444A",
"0	c #833039",
"a	c #100400",
"b	c #414041",
"c	c #B4404A",
"d	c #8B3439",
"e	c #000400",
"f	c #525052",
"g	c #8B3039",
"h	c #391818",
"i	c #736D6A",
"j	c #BDBABD",
"k	c #7B797B",
"l	c #623839",
"m	c #9C3C41",
"n	c #411818",
"o	c #944041",
"p	c #B44852",
"q	c #522829",
"r	c #5A595A",
"s	c #5A5D5A",
"t	c #943841",
"u	c #5A2C31",
"v	c #4A484A",
"w	c #4A1C20",
"x	c #AC404A",
"y	c #522020",
"z	c #525552",
"A	c #6A3439",
"B	c #AC4852",
"C	c #4A1818",
"D	c #6A3C41",
"E	c #A4444A",
"F	c #391418",
"G	c #C5C2C5",
"H	c #833031",
"I	c #524041",
"J	c #7B7573",
"K	c #523031",
"L	c #080400",
"M	c #A43C41",
"N	c #201010",
"O	c #BD616A",
"P	c #4A2829",
"Q	c #6A696A",
"R	c #732C31",
"S	c #5A2429",
"T	c #A43C4A",
"U	c #311818",
"V	c #7B7D7B",
"W	c #523839",
"X	c #311410",
"Y	c #5A4441",
"Z	c #A4A1A4",
"                              ",
"                              ",
"                              ",
"                              ",
"                              ",
"                              ",
"                              ",
"                              ",
"          .+@       #         ",
"         $%&*$     =-;        ",
"         >,')!    ~{]^/       ",
"         >(_:!   <[}]^/       ",
"         |12345 67890a/       ",
"          b)cdef789ghij       ",
"          kldmnnopdqr         ",
"           sn____tuv          ",
"           rw___xyr           ",
"          zAB___Ci            ",
"         zDEp___Fk            ",
"       GrAExHwy]:I#           ",
"      jJq}92KbLtMnf           ",
"      +NO90PQ$!RMS*$          ",
"      #-TgUV   >2])!          ",
"       ;^a+    >:x:!          ",
"        //G    |WXYZ          ",
"                /k|           ",
"                              ",
"                              ",
"                              ",
"                              "};
