/* XPM */
static char * clear_xpm[] = {
"30 30 48 1",
" 	c None",
".	c #000000",
"+	c #7B614A",
"@	c #BDA18B",
"#	c #DECABD",
"$	c #312818",
"%	c #312820",
"&	c #624C39",
"*	c #000400",
"=	c #080808",
"-	c #735941",
";	c #7B5D4A",
">	c #A48162",
",	c #413429",
"'	c #A47D62",
")	c #8B9583",
"!	c #5A6152",
"~	c #9C795A",
"{	c #413020",
"]	c #ACBAA4",
"^	c #292018",
"/	c #83795A",
"(	c #EEDAAC",
"_	c #ACA17B",
":	c #CDCECD",
"<	c #CDCAA4",
"[	c #B4A17B",
"}	c #525552",
"|	c #9C997B",
"1	c #292C29",
"2	c #83816A",
"3	c #9C8D73",
"4	c #C5BA94",
"5	c #8B8973",
"6	c #BDBEA4",
"7	c #ACAA8B",
"8	c #83856A",
"9	c #737562",
"0	c #62614A",
"a	c #8B8162",
"b	c #DED2A4",
"c	c #B4AE8B",
"d	c #7B755A",
"e	c #626552",
"f	c #73715A",
"g	c #94957B",
"h	c #8B917B",
"i	c #6A6D5A",
"                              ",
"                              ",
"                              ",
"                              ",
"                              ",
"                              ",
"                              ",
"      ..                      ",
"     .+@.                     ",
"     .@#+.                    ",
"     .+#@$                    ",
"      %@#+.                   ",
"      .&@@*                   ",
"       =-@+.                  ",
"        .;>,   ...      .     ",
"         *-'* ..)!.           ",
"          .~{.]]]).   .       ",
"           ^-]]]]./.    .     ",
"           .]]]].(_. .        ",
"          .]]]].(((/.  . .    ",
"         .]]]].((/:<...       ",
"         .)]].((((.<[.. . .   ",
"         .}).(([((|123...     ",
"          ..4((45678.90...    ",
"           .a_bc|.d8e..       ",
"            .1fghi...         ",
"              ....            ",
"                              ",
"                              ",
"                              "};
