/* XPM */
static char * close_xpm[] = {
"30 30 10 1",
" 	c None",
".	c #313831",
"+	c #9C999C",
"@	c #414041",
"#	c #6A6D6A",
"$	c #000000",
"%	c #B4B6B4",
"&	c #838183",
"*	c #202820",
"=	c #4A4C4A",
"                              ",
"                              ",
"                              ",
"                              ",
"                              ",
"                              ",
"                              ",
"                              ",
"                              ",
"                              ",
"                              ",
"          .+     @#           ",
"          #$%   $$.           ",
"          %$$  $$$$           ",
"           &$$&$$$&           ",
"            $$$$$+            ",
"            &$$$%             ",
"           +$$*$$%            ",
"          %$$$@$$$&           ",
"          =$$%%$$$$#          ",
"         =$$%  +$$$$          ",
"        @=$%    &$$&          ",
"                              ",
"                              ",
"                              ",
"                              ",
"                              ",
"                              ",
"                              ",
"                              "};
