/* XPM */
static char * color_xpm[] = {
"30 30 168 2",
"  	c None",
". 	c #C5C2C5",
"+ 	c #000000",
"@ 	c #FFFFFF",
"# 	c #FFE2DE",
"$ 	c #F6AEA4",
"% 	c #2048FF",
"& 	c #5A79FF",
"* 	c #6279FF",
"= 	c #627DFF",
"- 	c #7B91FF",
"; 	c #FFFAEE",
"> 	c #FFF6DE",
", 	c #FFF6E6",
"' 	c #F6EAC5",
") 	c #F6BAAC",
"! 	c #EE8573",
"~ 	c #A4B6FF",
"{ 	c #ACB6FF",
"] 	c #ACBAFF",
"^ 	c #F6E6BD",
"/ 	c #F6EABD",
"( 	c #EED27B",
"_ 	c #EED67B",
": 	c #EE8973",
"< 	c #8391CD",
"[ 	c #080400",
"} 	c #A4B2F6",
"| 	c #A4B2FF",
"1 	c #524C4A",
"2 	c #8391C5",
"3 	c #E6DED5",
"4 	c #F6AA9C",
"5 	c #DE3C18",
"6 	c #738DFF",
"7 	c #94A1E6",
"8 	c #525052",
"9 	c #FFFAFF",
"0 	c #7B81B4",
"a 	c #DECEAC",
"b 	c #E6C652",
"c 	c #6A6562",
"d 	c #FFF2EE",
"e 	c #F6F2EE",
"f 	c #F6EEE6",
"g 	c #D5C6B4",
"h 	c #D5D6D5",
"i 	c #BDBEBD",
"j 	c #625D5A",
"k 	c #FFEEE6",
"l 	c #4A4C4A",
"m 	c #838173",
"n 	c #B4AEA4",
"o 	c #EEE2D5",
"p 	c #FFF2E6",
"q 	c #FFD29C",
"r 	c #E6D2C5",
"s 	c #E6D6C5",
"t 	c #CDB294",
"u 	c #9C9D9C",
"v 	c #736D62",
"w 	c #101010",
"x 	c #8B7D6A",
"y 	c #DEC2A4",
"z 	c #F6C27B",
"A 	c #CDB29C",
"B 	c #F6F2F6",
"C 	c #9C958B",
"D 	c #A4958B",
"E 	c #736D6A",
"F 	c #736962",
"G 	c #A4A1A4",
"H 	c #B4A18B",
"I 	c #DEAE6A",
"J 	c #E6D6CD",
"K 	c #EEE6E6",
"L 	c #94918B",
"M 	c #F6EADE",
"N 	c #83817B",
"O 	c #948D83",
"P 	c #7B7973",
"Q 	c #838583",
"R 	c #948573",
"S 	c #CDA56A",
"T 	c #E6DEDE",
"U 	c #ACA19C",
"V 	c #F6E2CD",
"W 	c #CDBEB4",
"X 	c #D5CEBD",
"Y 	c #DED6CD",
"Z 	c #DED2CD",
"` 	c #DECEC5",
" .	c #8B816A",
"..	c #DECABD",
"+.	c #AC8962",
"@.	c #DED6D5",
"#.	c #D5CABD",
"$.	c #DECEBD",
"%.	c #CDBAAC",
"&.	c #7B756A",
"*.	c #D5994A",
"=.	c #C5BEBD",
"-.	c #8B8583",
";.	c #C5B6A4",
">.	c #BDB6A4",
",.	c #BDAA9C",
"'.	c #BDAE9C",
").	c #BDB2A4",
"!.	c #94897B",
"~.	c #F6E6E6",
"{.	c #E6B2AC",
"].	c #94B68B",
"^.	c #312C29",
"/.	c #5A5952",
"(.	c #7B716A",
"_.	c #8B817B",
":.	c #9C8D83",
"<.	c #736562",
"[.	c #52555A",
"}.	c #ACB2BD",
"|.	c #94A1EE",
"1.	c #EECAC5",
"2.	c #D59994",
"3.	c #ACCEA4",
"4.	c #6A8162",
"5.	c #201818",
"6.	c #52504A",
"7.	c #625952",
"8.	c #6A615A",
"9.	c #5A5052",
"0.	c #080000",
"a.	c #525562",
"b.	c #BDC2E6",
"c.	c #8B99EE",
"d.	c #EECECD",
"e.	c #C5EEBD",
"f.	c #ACD2A4",
"g.	c #A4AA9C",
"h.	c #292831",
"i.	c #6A6D83",
"j.	c #C5CAEE",
"k.	c #F6EAE6",
"l.	c #D59D94",
"m.	c #CDF6C5",
"n.	c #BDDEB4",
"o.	c #DED2D5",
"p.	c #E6DAD5",
"q.	c #000400",
"r.	c #7B8194",
"s.	c #CDCEEE",
"t.	c #949DEE",
"u.	c #DE9D94",
"v.	c #CDEEC5",
"w.	c #101008",
"x.	c #080800",
"y.	c #8B8DA4",
"z.	c #CDD2F6",
"A.	c #7B8DEE",
"B.	c #F6DAD5",
"C.	c #BD554A",
"D.	c #94EA8B",
"E.	c #94EE8B",
"F.	c #8BDE83",
"G.	c #73B26A",
"H.	c #6A75B4",
"I.	c #5A659C",
"J.	c #6A71AC",
"K.	c #5A6DE6",
"                                                            ",
"                                                            ",
"                                                            ",
"                                                            ",
"                                                            ",
"                                            .               ",
"        + + + + + + + + + + + + + + + + + + + + + +         ",
"        + @ # # # # $ + % & * * = - + ; > , , , ' +         ",
"        + # ) ) ) ) ! + & ~ ~ { { ] + > ^ ^ / / ( +         ",
"        + # ) ) ) ) ! + & ~ { ] ] ] + , ^ / / / _ +         ",
"        + # ) ) ) ) : + * { < [ < } + , ^ ^ / / _ +         ",
"        + # ) ) ) ) ! + = | 1 @ + 2 + 3 / / / / _ +         ",
"        + 4 ! ! ! ! 5 + 6 7 8 9 + 0 + a ( _ _ _ b +         ",
"        + + + + + + + + + + c d + + + + + + + + + +         ",
"        + @ e f f f g + h i j k l + + + m n o p q +         ",
"        + f r s s s t + u + j p v @ + @ w + x y z +         ",
"        + f s s s s A + + B C k D @ E @ F G + H I +         ",
"        + f s s s J A + + K L M N d O f P Q + R S +         ",
"        + f s s J J A + + T U V W X Y Z ` O +  .S +         ",
"        + ..A A A A +.+ + @...#.$...r %.` &.+ x *.+         ",
"        + + + + + + + + + =.-.;.>.,.'.).!.F + + + +         ",
"        + @ ~.~.~.~.{.+ ].^./.(.O _.!.:.<.+ [.}.|.+         ",
"        + ~.1.1.1.1.2.+ 3.4.5.6.j 7.8.9.c 0.a.b.c.+         ",
"        + ~.1.1.1.d.2.+ e.f.g.+ 0.0.0.+ h.a.i.j.c.+         ",
"        + k.d.d.d.d.l.+ m.n.+ K @.o.p.K 9 q.r.s.t.+         ",
"        + k.d.d.d.d.u.+ m.v.+ [ + w.+ x.+ + y.z.A.+         ",
"        + B.2.l.l.u.C.+ D.E.E.E.F.G.+ H.H.I.J.|.K.+         ",
"        + + + + + + + + + + + + + + + + + + + + + +         ",
"                                                            ",
"                                                            "};
