/* XPM */
static char * convert_xpm[] = {
"30 30 156 2",
"  	c None",
". 	c #949594",
"+ 	c #525552",
"@ 	c #292829",
"# 	c #000000",
"$ 	c #8B8983",
"% 	c #ACAAAC",
"& 	c #5A5D5A",
"* 	c #B4B2B4",
"= 	c #EEEEEE",
"- 	c #F6DEAC",
"; 	c #E6C673",
"> 	c #DEBA4A",
", 	c #8B6918",
"' 	c #414039",
") 	c #BDBEBD",
"! 	c #A4A5A4",
"~ 	c #393839",
"{ 	c #E6D69C",
"] 	c #EED683",
"^ 	c #E6C25A",
"/ 	c #D59910",
"( 	c #946D10",
"_ 	c #7B5908",
": 	c #5A5D52",
"< 	c #414041",
"[ 	c #EEEAE6",
"} 	c #CDB673",
"| 	c #735910",
"1 	c #C5A541",
"2 	c #BD8510",
"3 	c #AC7D10",
"4 	c #393429",
"5 	c #949DA4",
"6 	c #202C31",
"7 	c #ACAEAC",
"8 	c #AC9D5A",
"9 	c #B4B2AC",
"0 	c #838183",
"a 	c #9C7D29",
"b 	c #292818",
"c 	c #BDBAB4",
"d 	c #39404A",
"e 	c #A4BED5",
"f 	c #293039",
"g 	c #94999C",
"h 	c #C5C6C5",
"i 	c #C5CAC5",
"j 	c #393418",
"k 	c #A47918",
"l 	c #201C10",
"m 	c #B4B6B4",
"n 	c #838994",
"o 	c #526573",
"p 	c #B4CEE6",
"q 	c #39556A",
"r 	c #C5C2BD",
"s 	c #080800",
"t 	c #AC7D18",
"u 	c #394852",
"v 	c #9CBAD5",
"w 	c #4A6983",
"x 	c #415973",
"y 	c #293439",
"z 	c #ACB2AC",
"A 	c #CDCAC5",
"B 	c #D5D2CD",
"C 	c #C58D10",
"D 	c #B48510",
"E 	c #836120",
"F 	c #312C18",
"G 	c #737D83",
"H 	c #5A697B",
"I 	c #CDCECD",
"J 	c #313020",
"K 	c #946D20",
"L 	c #BDBABD",
"M 	c #C5C2C5",
"N 	c #CDCACD",
"O 	c #292418",
"P 	c #ACAAA4",
"Q 	c #737983",
"R 	c #6A798B",
"S 	c #394C62",
"T 	c #947120",
"U 	c #B4AEA4",
"V 	c #101418",
"W 	c #31485A",
"X 	c #181C20",
"Y 	c #292C18",
"Z 	c #A4A1A4",
"` 	c #182831",
" .	c #838583",
"..	c #CDD2CD",
"+.	c #9C999C",
"@.	c #202C39",
"#.	c #626562",
"$.	c #948D8B",
"%.	c #414441",
"&.	c #181C18",
"*.	c #393C39",
"=.	c #BDB6B4",
"-.	c #9C9994",
";.	c #203441",
">.	c #525052",
",.	c #83716A",
"'.	c #CD5541",
").	c #CD554A",
"!.	c #C54839",
"~.	c #C53C31",
"{.	c #94817B",
"].	c #A49D9C",
"^.	c #D56152",
"/.	c #DE7D6A",
"(.	c #C54439",
"_.	c #9C2C20",
":.	c #DE8573",
"<.	c #EEC6BD",
"[.	c #DE796A",
"}.	c #C54C41",
"|.	c #6A1810",
"1.	c #737573",
"2.	c #DE6D62",
"3.	c #DE8173",
"4.	c #CD6962",
"5.	c #831810",
"6.	c #BD3429",
"7.	c #C55552",
"8.	c #6A1008",
"9.	c #202020",
"0.	c #9C2018",
"a.	c #A42C20",
"b.	c #C54841",
"c.	c #BD3831",
"d.	c #BD3029",
"e.	c #C55D52",
"f.	c #B43431",
"g.	c #410400",
"h.	c #6A6D6A",
"i.	c #9C9194",
"j.	c #181818",
"k.	c #941C18",
"l.	c #AC3C39",
"m.	c #C5655A",
"n.	c #C5615A",
"o.	c #C55052",
"p.	c #520800",
"q.	c #B4AEAC",
"r.	c #080C08",
"s.	c #7B1008",
"t.	c #941410",
"u.	c #8B1410",
"v.	c #6A0C08",
"w.	c #4A0400",
"x.	c #7B6962",
"y.	c #313031",
"                                                            ",
"                                                            ",
"                                                            ",
"                                                            ",
"                                                            ",
"                            . + @ # # # $                   ",
"                        % & * = - ; > , # ' )               ",
"                      ! ~ = { ] ] ] ^ / ( _ :               ",
"                      < [ } # # # | 1 ^ 2 3 4 )             ",
"              5 6 7   # 8 @ 7 9 * 0 a ] / 3 b c             ",
"              d e f g h # * c h i h j ] / k l m             ",
"            n o p q f 7 r ) i s # # # ] / t # # #           ",
"            u v p w x y z A B l [ ] ] ] / C D E F )         ",
"          G H v p w w x 6 * I I J [ ] ] / / K F 7 L         ",
"        M u v v p w w w q f * N h O [ ] / K J P m           ",
"        Q R v v p w w w w S f * N h F [ T F U m             ",
"        V v v v p w w w w w W X h I h F Y 7 m               ",
"        Z # v v p w w w w ` #  .) I ..h c c                 ",
"          +.# v p w w @.# #.. m h $.%.&.# # *.=.            ",
"            -.# p ;.# >.. m ) i ,.# '.).'.!.~.# {.          ",
"              % # *.. m )     ].# '.^./.^.'.(._.# 9         ",
"                  ) )         < !.).:.<.[.).!.}.|.1.        ",
"                              # (.'.2.3.^.'.(.4.|.'         ",
"                              # ~.!.'.).'.!.~.4.5.#         ",
"                              # 6.~.(.!.(.~.6.7.8.9.M       ",
"                              ~ 0.a.b.c.6.d.e.f.g.h.        ",
"                              i.j.k.l.m.n.o.f.p.# q.        ",
"                                ,.r.s.t.u.v.w.# x.          ",
"                                  q.< # # # y.P             ",
"                                                            "};
