/* XPM */
static char * cut_xpm[] = {
"30 30 68 1",
" 	c None",
".	c #000000",
"+	c #7B797B",
"@	c #8B8D8B",
"#	c #949594",
"$	c #737573",
"%	c #CDC6C5",
"&	c #BDBEBD",
"*	c #E6E6E6",
"=	c #EEEEEE",
"-	c #4A4841",
";	c #7B7D7B",
">	c #73716A",
",	c #B4B6B4",
"'	c #F6EEEE",
")	c #7B7D73",
"!	c #BDBABD",
"~	c #F6F2EE",
"{	c #D5CECD",
"]	c #414041",
"^	c #BDB6AC",
"/	c #525552",
"(	c #949194",
"_	c #A4A194",
":	c #837D7B",
"<	c #4A4C4A",
"[	c #C5C2C5",
"}	c #F6F6F6",
"|	c #414441",
"1	c #838183",
"2	c #B4B2B4",
"3	c #8B898B",
"4	c #F6F2F6",
"5	c #73756A",
"6	c #313031",
"7	c #EEEAEE",
"8	c #625D5A",
"9	c #CDCEC5",
"0	c #313431",
"a	c #6A6D6A",
"b	c #EEE6E6",
"c	c #BDB6B4",
"d	c #DEDAD5",
"e	c #9C9994",
"f	c #626162",
"g	c #202020",
"h	c #181810",
"i	c #393839",
"j	c #BDC2BD",
"k	c #626562",
"l	c #080C08",
"m	c #101410",
"n	c #202820",
"o	c #101010",
"p	c #181818",
"q	c #080808",
"r	c #737173",
"s	c #6A696A",
"t	c #181C18",
"u	c #CDCACD",
"v	c #5A595A",
"w	c #525052",
"x	c #C5C6C5",
"y	c #ACB2AC",
"z	c #838583",
"A	c #C5CAC5",
"B	c #626962",
"C	c #5A5D5A",
"                              ",
"                              ",
"                              ",
"                              ",
"                              ",
"                              ",
"                              ",
"         .        .           ",
"        +.@      #.$          ",
"        .%.&     .*.&         ",
"        .=-;&   #>*.,&        ",
"        .').!   .~{.,&        ",
"        ]*^/;& (>=_/,&        ",
"        #:=).! .~{<+,[        ",
"         .}^|;1<=^.2!         ",
"         #345.67{8+,&         ",
"          .}90a&^.2!          ",
"           .bc|^.2,&          ",
"            .de.f,!           ",
"           $ghaig,j           ",
"        kll0lmnolpqlf         ",
"       r.as.o+!fm.$k.s        ",
"       tfu[vo&& t]!&wp[       ",
"       .2xxy. [ .+j[z.        ",
"       tfxAft   t][xkt        ",
"       r.BB.a   r.wz.a        ",
"        fllC [   flqC [       ",
"                              ",
"                              ",
"                              "};
