/* XPM */
static char * down_xpm[] = {
"30 30 31 1",
" 	c None",
".	c #000000",
"+	c #C5D6BD",
"@	c #ACC6AC",
"#	c #A4BEA4",
"$	c #738D6A",
"%	c #6A8562",
"&	c #62815A",
"*	c #BDD2BD",
"=	c #ACCAAC",
"-	c #6A8D62",
";	c #5A7952",
">	c #526941",
",	c #BDD6BD",
"'	c #ACC6A4",
")	c #6A9162",
"!	c #A4C6A4",
"~	c #C5C2C5",
"{	c #8BA583",
"]	c #B4CEAC",
"^	c #B4CEB4",
"/	c #B4CAAC",
"(	c #415929",
"_	c #B4B6B4",
":	c #73A16A",
"<	c #B4CAB4",
"[	c #739962",
"}	c #081008",
"|	c #7B9D73",
"1	c #A4C2A4",
"2	c #BDBEBD",
"                              ",
"                              ",
"                              ",
"                              ",
"                              ",
"                              ",
"                              ",
"                              ",
"                              ",
"          .........           ",
"          .+@#$%%&.           ",
"          .*=@-;;>.           ",
"          .,@');;>.           ",
"          .+@!);;>.           ",
"          .+@');;>.           ",
"          .+'');;>.           ",
"      .....+'@);;>.....       ",
"      ~.{]^/@=);;;>>(.~       ",
"       _.:=<=@);;;;(._        ",
"        _.[@@@);;;(._         ",
"         _.[!=);;(._          ",
"          _}|1);(._           ",
"           _.)-(._            ",
"            _.(._             ",
"             _._              ",
"              2               ",
"                              ",
"                              ",
"                              ",
"                              "};
