/* XPM */
static char * exec_xpm[] = {
"30 30 75 1",
" 	c None",
".	c #B4BAB4",
"+	c #8B8D8B",
"@	c #000000",
"#	c #949594",
"$	c #9C9D9C",
"%	c #CDCECD",
"&	c #949194",
"*	c #E6E2E6",
"=	c #94958B",
"-	c #8B8583",
";	c #8B8D83",
">	c #83817B",
",	c #7B797B",
"'	c #BDBEBD",
")	c #7B7973",
"!	c #62655A",
"~	c #413C39",
"{	c #6A6562",
"]	c #ACAEAC",
"^	c #DEDEDE",
"/	c #9C9994",
"(	c #52504A",
"_	c #101410",
":	c #737573",
"<	c #9CA19C",
"[	c #83857B",
"}	c #B4B6B4",
"|	c #9C999C",
"1	c #8B8983",
"2	c #6A6962",
"3	c #7B756A",
"4	c #5A5D52",
"5	c #52554A",
"6	c #5A595A",
"7	c #C5C2C5",
"8	c #414039",
"9	c #ACAAAC",
"0	c #A4AAA4",
"a	c #000400",
"b	c #080808",
"c	c #8B898B",
"d	c #838583",
"e	c #A4A1A4",
"f	c #B4B2B4",
"g	c #4A4441",
"h	c #9C9D94",
"i	c #202420",
"j	c #BDBABD",
"k	c #B4AEAC",
"l	c #ACA5A4",
"m	c #948D83",
"n	c #837D73",
"o	c #A4A5A4",
"p	c #5A5952",
"q	c #625D52",
"r	c #73756A",
"s	c #6A6D6A",
"t	c #292420",
"u	c #313431",
"v	c #080C08",
"w	c #B4B6AC",
"x	c #202018",
"y	c #181810",
"z	c #E6E6E6",
"A	c #62615A",
"B	c #D5D6D5",
"C	c #94918B",
"D	c #6A696A",
"E	c #ACAAA4",
"F	c #202020",
"G	c #4A4841",
"H	c #181C18",
"I	c #7B7D7B",
"J	c #BDC2BD",
"                              ",
"                              ",
"                              ",
"                              ",
"                              ",
"        .+@@@#$               ",
"        @@@%@@@&              ",
"        @*=-;>@,'             ",
"       @@)!~{)@@]             ",
"       @^/(_:/(@<             ",
"       @@)[/})@@|'            ",
"        @12345@6$7            ",
"        @@@8@@@,9@@@          ",
"         0@@@:abca*adbb9      ",
"          }e|b*fbghgb-ibj     ",
"            'bklhhhm=ngbo     ",
"             |bhhpq1nrase     ",
"            @@ghq8tuh2gvv'    ",
"     .+@@@#|@*whpxbyznAqv9    ",
"     @@@%@@@@agh1u_c^Agbv$7   ",
"     @*=-;>@s:aknwzBCAaD&9    ",
"    @@)!~{)@@bBEhnnrr4gae'    ",
"    @^/(_:/(@aFpagrgaGHae     ",
"    @@)[/})@@:bbsv8vDaaIo     ",
"     @12345@6#ooevvb#eeoj     ",
"     @@@8@@@I]7  '9$9'        ",
"      0@@@c#o'     7          ",
"       }e|e}                  ",
"         J                    ",
"                              "};
