/* XPM */
static char * fill_xpm[] = {
"30 30 28 1",
" 	c None",
".	c #5A595A",
"+	c #000000",
"@	c #525552",
"#	c #B4B6B4",
"$	c #E6E2E6",
"%	c #F6F2F6",
"&	c #F6F6F6",
"*	c #DEDADE",
"=	c #4A4C4A",
"-	c #E6E6E6",
";	c #EEEAEE",
">	c #EEEEEE",
",	c #838583",
"'	c #8B898B",
")	c #8B8D8B",
"!	c #A4AAA4",
"~	c #A4A5A4",
"{	c #949194",
"]	c #FFFAFF",
"^	c #949594",
"/	c #FFFFFF",
"(	c #9C999C",
"_	c #CDCACD",
":	c #BDBEBD",
"<	c #202420",
"[	c #B4B2B4",
"}	c #C5C2C5",
"                              ",
"                              ",
"                              ",
"                              ",
"                              ",
"    .++++++++++++++++++@#     ",
"   .$%%%%%%%&&&&&&&&&&&*=     ",
"   +%$$$$$----;;;;;>>>>>+#    ",
"   +%$,,,,''''''')))))%%+!    ",
"   +%$$$----;;;;>>>>>%%%+~    ",
"   +%$,'''''''))))))))%%+~    ",
"   +%-----;;;;>>>>>%%%%&+~    ",
"   +%-'''''')))))))){{&&+~    ",
"   +&--;;;;;>>>>%%%%%&&&+~    ",
"   +&-''')))))))){{{{{&&+~    ",
"   +&;;;;>>>>>%%%%&&&&&]+~    ",
"   +&;')))))))){{{{{{{]]+~    ",
"   +&;;>>>>%%%%%&&&&]]]]+~    ",
"   +&;)))))){{{{{{{{^^]/+~    ",
"   +&>>>>%%%%&&&&&]]]]//+~    ",
"   +&>)))){{{{{{{{^^^^//+~    ",
"   +]%%%%%&&&&]]]]]/////+~    ",
"   +]%{{{{{{{{^^^^^^^(//+~    ",
"   +%%%&&&&&]]]]///////>+~    ",
"   @_>]&&&]]]]]///////>:<~    ",
"   :=++++++++++++++++++<)[    ",
"     #!~~~~~~~~~~~~~~~~~[}    ",
"                              ",
"                              ",
"                              "};
