/* XPM */
static char * font_xpm[] = {
"30 30 51 1",
" 	c None",
".	c #5A595A",
"+	c #000000",
"@	c #525552",
"#	c #B4B6B4",
"$	c #E6E2E6",
"%	c #F6F2F6",
"&	c #F6F6F6",
"*	c #DEDADE",
"=	c #4A4C4A",
"-	c #E6E6E6",
";	c #EEEAEE",
">	c #EEEEEE",
",	c #B4B2B4",
"'	c #292C29",
")	c #000400",
"!	c #101410",
"~	c #8B8D8B",
"{	c #A4AAA4",
"]	c #202020",
"^	c #9C999C",
"/	c #080C08",
"(	c #838583",
"_	c #101010",
":	c #A4A5A4",
"<	c #D5D2D5",
"[	c #737573",
"}	c #4A484A",
"|	c #181C18",
"1	c #ACAAAC",
"2	c #393839",
"3	c #BDBABD",
"4	c #BDBEBD",
"5	c #313431",
"6	c #080808",
"7	c #D5D6D5",
"8	c #525052",
"9	c #838183",
"0	c #A4A1A4",
"a	c #313031",
"b	c #292829",
"c	c #CDCACD",
"d	c #FFFAFF",
"e	c #5A5D5A",
"f	c #9C9D9C",
"g	c #393C39",
"h	c #FFFFFF",
"i	c #414441",
"j	c #626162",
"k	c #202420",
"l	c #C5C2C5",
"                              ",
"                              ",
"                              ",
"                              ",
"                              ",
"    .++++++++++++++++++@#     ",
"   .$%%%%%%%&&&&&&&&&&&*=     ",
"   +%$$$$$----;;;;;>>>>>+#    ",
"   +%$$,')!~-;;;;;>>>>%%+{    ",
"   +%$$]^$#/;;;;>>(__^%%+:    ",
"   +%$-<[}|+;;;>>12*3_%%+:    ",
"   +%--'~14+;;>>>54%%%%&+:    ",
"   +%--6378+;>>>>6;%%%&&+:    ",
"   +&--9__9+>>>>%|40a&&&+:    ",
"   +&-;;;;>>>>>%%^/bc&&&+:    ",
"   +&;;;;>>>++%%%%&&&&&d+:    ",
"   +&;;;>>>>++%%%&&&&ddd+:    ",
"   +&;;>>>>%++e)a<&&dddd+:    ",
"   +&;>>>>%%++ff+g&ddddh+:    ",
"   +&>>>>%%%++>>+)ddddhh+:    ",
"   +&>>>%%%%++>%+6dddhhh+:    ",
"   +d%%%%%&&++f:+idhhhhh+:    ",
"   +d%%%&&&&++j)a*hhhhhh+:    ",
"   +%%%&&&&&ddddhhhhhhh>+:    ",
"   @c>d&&&dddddhhhhhhh>4k:    ",
"   4=++++++++++++++++++k~,    ",
"     #{:::::::::::::::::,l    ",
"                              ",
"                              ",
"                              "};
