/* XPM */
static char * indent_xpm[] = {
"30 30 2 1",
" 	c None",
".	c #000000",
"                              ",
"                              ",
"                              ",
"                              ",
"                              ",
"                              ",
"                              ",
"                              ",
"                              ",
"                              ",
"       ...........            ",
"                              ",
"       . . . . . . . . .      ",
"                              ",
"          .    ..........     ",
"       .....   ..........     ",
"       ......                 ",
"       .....   ........       ",
"          .    ........       ",
"                              ",
"       . . . . . . . . .      ",
"                              ",
"       .............          ",
"                              ",
"       ...........            ",
"                              ",
"                              ",
"                              ",
"                              ",
"                              "};
