/* XPM */
static char * information_xpm[] = {
"30 30 128 2",
"  	c None",
". 	c #BDBABD",
"+ 	c #A4A5A4",
"@ 	c #9CA19C",
"# 	c #B4B6B4",
"$ 	c #ACAAAC",
"% 	c #B4B2B4",
"& 	c #CDCED5",
"* 	c #E6E2EE",
"= 	c #E6E2F6",
"- 	c #D5D2DE",
"; 	c #ACAEB4",
"> 	c #83858B",
", 	c #9C9D9C",
"' 	c #E6E2E6",
") 	c #F6F2FF",
"! 	c #EEEEF6",
"~ 	c #E6E6F6",
"{ 	c #DEDEF6",
"] 	c #DEDEEE",
"^ 	c #9C9DAC",
"/ 	c #7B7D7B",
"( 	c #BDBEBD",
"_ 	c #A4A5AC",
": 	c #FFFAFF",
"< 	c #F6F6FF",
"[ 	c #EEEAF6",
"} 	c #DEDAEE",
"| 	c #A4AAB4",
"1 	c #7B797B",
"2 	c #C5C2C5",
"3 	c #ACB2AC",
"4 	c #F6F2F6",
"5 	c #7B818B",
"6 	c #D5DAEE",
"7 	c #CDCEE6",
"8 	c #626562",
"9 	c #FFFFFF",
"0 	c #73757B",
"a 	c #DEE2EE",
"b 	c #D5DEEE",
"c 	c #7B7983",
"d 	c #D5E2EE",
"e 	c #A4AAA4",
"f 	c #DEDAE6",
"g 	c #F6F2EE",
"h 	c #F6FAFF",
"i 	c #DEE6EE",
"j 	c #D5E6EE",
"k 	c #BDBAC5",
"l 	c #DEDEE6",
"m 	c #D5EAEE",
"n 	c #5A5D62",
"o 	c #9C999C",
"p 	c #E6EAEE",
"q 	c #E6E6EE",
"r 	c #E6EAF6",
"s 	c #BDC6CD",
"t 	c #D5EEEE",
"u 	c #A4AABD",
"v 	c #6A6D6A",
"w 	c #ACAAB4",
"x 	c #DEEAEE",
"y 	c #D5D6D5",
"z 	c #D5DEE6",
"A 	c #CDD6E6",
"B 	c #4A4C52",
"C 	c #ACAEBD",
"D 	c #C5CAC5",
"E 	c #D5DEDE",
"F 	c #BDC2C5",
"G 	c #D5E6E6",
"H 	c #CDDAE6",
"I 	c #5A595A",
"J 	c #949194",
"K 	c #949594",
"L 	c #83898B",
"M 	c #BDB6B4",
"N 	c #CDCABD",
"O 	c #A4AAAC",
"P 	c #A4A1A4",
"Q 	c #EEDEB4",
"R 	c #E6DECD",
"S 	c #DEDAD5",
"T 	c #DED6C5",
"U 	c #DED6BD",
"V 	c #D5C294",
"W 	c #524831",
"X 	c #F6E6BD",
"Y 	c #EEDAA4",
"Z 	c #E6D294",
"` 	c #D5C27B",
" .	c #CDB673",
"..	c #C5B27B",
"+.	c #5A5031",
"@.	c #EEDEAC",
"#.	c #F6EED5",
"$.	c #F6EECD",
"%.	c #DECE9C",
"&.	c #C5B273",
"*.	c #525039",
"=.	c #EEE2C5",
"-.	c #E6DEC5",
";.	c #DECA9C",
">.	c #CDBE8B",
",.	c #CDBA8B",
"'.	c #525031",
").	c #EEE6C5",
"!.	c #E6DAB4",
"~.	c #DECA94",
"{.	c #C5B673",
"].	c #BDA562",
"^.	c #BDAA73",
"/.	c #A4956A",
"(.	c #EEE2BD",
"_.	c #EEDEBD",
":.	c #D5C28B",
"<.	c #948552",
"[.	c #313031",
"}.	c #8B898B",
"|.	c #625D52",
"1.	c #837962",
"2.	c #6A654A",
"3.	c #313020",
"4.	c #414039",
"5.	c #BDC2BD",
"6.	c #5A615A",
"7.	c #393839",
"                                                            ",
"                                                            ",
"                                                            ",
"                                                            ",
"                                                            ",
"                        . + @ + #                           ",
"                    $ % & * = - ; > ,                       ",
"                  + ' ) ) ! ~ ~ { ] ^ / (                   ",
"                _ ! : : < ! [ ~ = ] } | 1 2                 ",
"              3 * < : : < 4 ! ~ = ] } } 5 @                 ",
"              . < : : : < ) ! [ ~ { 6 6 7 8 (               ",
"            2   < : 9 : : < ) ! [ = ] 6 6 0 %               ",
"            # [ ) < : : : < < ) ! ~ a b 6 c $               ",
"            % ! 4 < < : : : : : ! [ a d 6 c e               ",
"            # f ! 4 < g h < < ) [ ~ i j b 0 $               ",
"              k [ ! ! l 4 ! ! ! ' i j m b n #               ",
"              o ~ p p p q r ~ i s j t j u v 2               ",
"              # w i x x s a b y z m m A B $                 ",
"                o C ] a D E E F G j H I J                   ",
"                  K L 2 M ( N N N O B J                     ",
"                    P Q R S T U V W o                       ",
"                    3 X Y Z `  ...+.+                       ",
"                    3 @.#.$.Y %.&.*.+                       ",
"                    3 X =.-.;.>.,.'.+                       ",
"                    % ).!.~.{.].^.W $                       ",
"                    ( /.(._.%.:.<.[.#                       ",
"                      }.|.1.2.3.4.J                         ",
"                        5.6.7.I #                           ",
"                                                            ",
"                                                            "};
