/* XPM */
static char * italic_xpm[] = {
"30 30 50 1",
" 	c None",
".	c #5A595A",
"+	c #000000",
"@	c #525552",
"#	c #B4B6B4",
"$	c #E6E2E6",
"%	c #F6F2F6",
"&	c #F6F6F6",
"*	c #DEDADE",
"=	c #4A4C4A",
"-	c #E6E6E6",
";	c #EEEAEE",
">	c #EEEEEE",
",	c #A4AAA4",
"'	c #CDCECD",
")	c #000400",
"!	c #CDCACD",
"~	c #A4A5A4",
"{	c #525052",
"]	c #101010",
"^	c #BDBEBD",
"/	c #737173",
"(	c #080808",
"_	c #838583",
":	c #393839",
"<	c #080C08",
"[	c #DEDEDE",
"}	c #181C18",
"|	c #626162",
"1	c #737573",
"2	c #393C39",
"3	c #202420",
"4	c #101410",
"5	c #181818",
"6	c #8B8D8B",
"7	c #8B898B",
"8	c #7B7D7B",
"9	c #FFFAFF",
"0	c #A4A1A4",
"a	c #C5C6C5",
"b	c #D5D6D5",
"c	c #FFFFFF",
"d	c #202020",
"e	c #414441",
"f	c #313431",
"g	c #414041",
"h	c #D5D2D5",
"i	c #6A696A",
"j	c #B4B2B4",
"k	c #C5C2C5",
"                              ",
"                              ",
"                              ",
"                              ",
"                              ",
"    .++++++++++++++++++@#     ",
"   .$%%%%%%%&&&&&&&&&&&*=     ",
"   +%$$$$$----;;;;;>>>>>+#    ",
"   +%$$$$----;;;;;>>>>%%+,    ",
"   +%$$$----;;')+!>>>%%%+~    ",
"   +%$-----;;;{]+~>>%%%%+~    ",
"   +%-----;;;^+/(_>%%%%&+~    ",
"   +%---;;;;;:<[}|%%%%&&+~    ",
"   +&--;;;;;~+1>:2%%%&&&+~    ",
"   +&-;;;;>;34$%.5%&&&&&+~    ",
"   +&;;;;>>6+7%%8+;&&&&9+~    ",
"   +&;;;>>$4};%%0+a&&999+~    ",
"   +&;;>>>1+++++++~&9999+~    ",
"   +&;>>>b(@%%&&%)89999c+~    ",
"   +&>>>>.+'%&&&&d.999cc+~    ",
"   +&>>>a+.%&&&&&ef99ccc+~    ",
"   +9%%%g+h&&&999i]ccccc+~    ",
"   +9%%%&&&&&9999ccccccc+~    ",
"   +%%%&&&&&9999ccccccc>+~    ",
"   @!>9&&&99999ccccccc>^3~    ",
"   ^=++++++++++++++++++36j    ",
"     #,~~~~~~~~~~~~~~~~~jk    ",
"                              ",
"                              ",
"                              "};
