/* XPM */
static char * no_xpm[] = {
"30 30 205 2",
"  	c None",
". 	c #838583",
"+ 	c #414041",
"@ 	c #949594",
"# 	c #6A6D6A",
"$ 	c #626162",
"% 	c #4A3831",
"& 	c #391C18",
"* 	c #4A2420",
"= 	c #5A2820",
"- 	c #4A1C18",
"; 	c #311008",
"> 	c #4A3839",
", 	c #625D5A",
"' 	c #737573",
") 	c #838183",
"! 	c #312420",
"~ 	c #392820",
"{ 	c #6A3C39",
"] 	c #8B4C41",
"^ 	c #9C554A",
"/ 	c #A4504A",
"( 	c #8B4031",
"_ 	c #732C20",
": 	c #4A1C10",
"< 	c #290C08",
"[ 	c #291C18",
"} 	c #8B8D8B",
"| 	c #9C999C",
"1 	c #201410",
"2 	c #624039",
"3 	c #A46D62",
"4 	c #BD817B",
"5 	c #BD7D73",
"6 	c #BD756A",
"7 	c #AC6152",
"8 	c #9C4439",
"9 	c #943831",
"0 	c #391408",
"a 	c #100C08",
"b 	c #4A3C39",
"c 	c #83554A",
"d 	c #C58983",
"e 	c #CD9D9C",
"f 	c #D5A19C",
"g 	c #CD9994",
"h 	c #B46D62",
"i 	c #AC594A",
"j 	c #943C31",
"k 	c #8B3429",
"l 	c #7B2C20",
"m 	c #4A1408",
"n 	c #080000",
"o 	c #8B898B",
"p 	c #6A716A",
"q 	c #6A4441",
"r 	c #D5AAA4",
"s 	c #DEB6B4",
"t 	c #D5A5A4",
"u 	c #CD918B",
"v 	c #AC554A",
"w 	c #943829",
"x 	c #832C20",
"y 	c #732418",
"z 	c #390C08",
"A 	c #412829",
"B 	c #A4716A",
"C 	c #D5A59C",
"D 	c #DEBEBD",
"E 	c #E6CACD",
"F 	c #E6C6C5",
"G 	c #DEB2AC",
"H 	c #CD9594",
"I 	c #9C4031",
"J 	c #943429",
"K 	c #8B3020",
"L 	c #7B2818",
"M 	c #621C10",
"N 	c #200800",
"O 	c #7B797B",
"P 	c #EED6D5",
"Q 	c #EED2CD",
"R 	c #DEBAB4",
"S 	c #BD716A",
"T 	c #AC504A",
"U 	c #9C3C31",
"V 	c #943020",
"W 	c #942C20",
"X 	c #8B2818",
"Y 	c #7B2418",
"Z 	c #732010",
"` 	c #413831",
" .	c #412018",
"..	c #945952",
"+.	c #E6C2BD",
"@.	c #E6CECD",
"#.	c #D5AEAC",
"$.	c #C58D83",
"%.	c #BD6962",
"&.	c #AC4C41",
"*.	c #9C3829",
"=.	c #942818",
"-.	c #8B2418",
";.	c #7B2010",
">.	c #5A1410",
",.	c #525052",
"'.	c #522C29",
").	c #AC6962",
"!.	c #C5918B",
"~.	c #CD958B",
"{.	c #BD7973",
"].	c #B45D52",
"^.	c #A44439",
"/.	c #9C3429",
"(.	c #832418",
"_.	c #6A2418",
":.	c #291008",
"<.	c #5A3429",
"[.	c #C5817B",
"}.	c #C5857B",
"|.	c #B4655A",
"1.	c #9C3C29",
"2.	c #9C3020",
"3.	c #833C31",
"4.	c #834039",
"5.	c #4A2820",
"6.	c #9C5952",
"7.	c #B4756A",
"8.	c #BD7D7B",
"9.	c #B46152",
"0.	c #AC5041",
"a.	c #942C18",
"b.	c #8B2C20",
"c.	c #8B4439",
"d.	c #8B504A",
"e.	c #392018",
"f.	c #391810",
"g.	c #7B4439",
"h.	c #AC655A",
"i.	c #B46962",
"j.	c #AC615A",
"k.	c #A44C41",
"l.	c #9C5D52",
"m.	c #A46D6A",
"n.	c #7B4841",
"o.	c #291810",
"p.	c #522820",
"q.	c #A45952",
"r.	c #A4594A",
"s.	c #A45041",
"t.	c #9C4839",
"u.	c #944039",
"v.	c #9C716A",
"w.	c #4A3031",
"x.	c #524C4A",
"y.	c #9C9D9C",
"z.	c #291410",
"A.	c #7B3C31",
"B.	c #944C41",
"C.	c #944839",
"D.	c #944031",
"E.	c #8B2820",
"F.	c #8B3029",
"G.	c #944439",
"H.	c #A47573",
"I.	c #835552",
"J.	c #291818",
"K.	c #292018",
"L.	c #411C18",
"M.	c #8B4039",
"N.	c #8B3C31",
"O.	c #8B3829",
"P.	c #833020",
"Q.	c #833429",
"R.	c #9C6152",
"S.	c #A4756A",
"T.	c #8B615A",
"U.	c #412820",
"V.	c #292420",
"W.	c #181010",
"X.	c #522018",
"Y.	c #733429",
"Z.	c #7B3831",
"`.	c #833831",
" +	c #9C615A",
".+	c #522C20",
"++	c #101010",
"@+	c #080400",
"#+	c #622C20",
"$+	c #8B4841",
"%+	c #945552",
"&+	c #9C655A",
"*+	c #9C6D6A",
"=+	c #7B504A",
"-+	c #412420",
";+	c #A4A5A4",
">+	c #201810",
",+	c #200C08",
"'+	c #623429",
")+	c #8B5D52",
"!+	c #8B5952",
"~+	c #734841",
"{+	c #4A3029",
"]+	c #311C18",
"^+	c #392420",
"                                                            ",
"                                                            ",
"                                                            ",
"                                                            ",
"                                                            ",
"                                                            ",
"                      . + + + + + @                         ",
"                  # $ % & * = - ; > , '                     ",
"                ) ! ~ { ] ^ / ( _ : < [ }                   ",
"              | 1 2 3 4 5 6 7 / 8 9 _ 0 a |                 ",
"            @ b c d e f g d h i 8 j k l m n o               ",
"          p ! q d r s s t u 6 v 8 w k x y z 1 .             ",
"          $ A B C D E F G H 6 v I J K x L M N O             ",
"        . b q d G F P Q R H S T U V W X Y Z z ` }           ",
"        +  ...u G +.@.F #.$.%.&.*.V =.-.Y ;.>.N ,.          ",
"        + '.).!.t #.G r ~.{.].^./.W X -.(.L _.:.,.          ",
"        + <.).[.u ~.u }.{.|.&.1.2.=.-.(.x 3.4.& ,.          ",
"        + 5.6.7.8.5 6 h 9.0.U 2.a.-.-.b.c...d.e.,.          ",
"        + f.g.h.h i.j.v k.I /.W X X K ( l.m.n.o.,.          ",
"        @ b p.^ q.r.s.t.I w V X X K u...B v.w.x.y.          ",
"          , z.A.B.B.C.D.9 k b.E.F.G.6.3 H.I.J.O             ",
"          ' K.L.3.M.M.N.O.k P.Q.G.R.B S.T.U.V.o             ",
"            } W.X.Y.Z.`.`.`.3.B. +S.H.T..+++|               ",
"              | @+f.#+Z.4.$+%+&+v.*+=+-+++;+                ",
"                o >+,+L.'+n.)+!+~+{+o.V.|                   ",
"                  . O b 1 ]+~ ^+o.x.O o                     ",
"                      } ,.,.,.,.,.y.                        ",
"                                                            ",
"                                                            ",
"                                                            "};
