/* XPM */
static char * ok_xpm[] = {
"30 30 90 1",
" 	c None",
".	c #7B797B",
"+	c #4A504A",
"@	c #838183",
"#	c #6A6D6A",
"$	c #6A6D62",
"%	c #6A7562",
"&	c #627162",
"*	c #62695A",
"=	c #5A695A",
"-	c #5A6552",
";	c #5A655A",
">	c #7B7D7B",
",	c #202018",
"'	c #7B8973",
")	c #BDCEB4",
"!	c #BDCAAC",
"~	c #ACBA9C",
"{	c #A4B29C",
"]	c #9CAA94",
"^	c #9CA594",
"/	c #949D8B",
"(	c #313431",
"_	c #292829",
":	c #838D7B",
"<	c #C5D6B4",
"[	c #9CA58B",
"}	c #94A18B",
"|	c #8B917B",
"1	c #52594A",
"2	c #B4C6AC",
"3	c #ACB69C",
"4	c #A4B69C",
"5	c #94A58B",
"6	c #9C9D9C",
"7	c #737573",
"8	c #525952",
"9	c #5A5D5A",
"0	c #949194",
"a	c #8B8983",
"b	c #525D52",
"c	c #626D5A",
"d	c #394031",
"e	c #394039",
"f	c #8B8D8B",
"g	c #838583",
"h	c #8B9983",
"i	c #83917B",
"j	c #7B8573",
"k	c #9C999C",
"l	c #313C31",
"m	c #182018",
"n	c #73816A",
"o	c #4A4C41",
"p	c #B4C2A4",
"q	c #8B9583",
"r	c #6A7162",
"s	c #5A6152",
"t	c #949D83",
"u	c #7B8173",
"v	c #394439",
"w	c #A4AE94",
"x	c #8B9D83",
"y	c #313429",
"z	c #9CAE94",
"A	c #8B957B",
"B	c #293029",
"C	c #626562",
"D	c #B4B2B4",
"E	c #626962",
"F	c #4A5041",
"G	c #292C20",
"H	c #6A756A",
"I	c #525552",
"J	c #6A6962",
"K	c #414C41",
"L	c #313831",
"M	c #414439",
"N	c #7B817B",
"O	c #202420",
"P	c #5A5D52",
"Q	c #414839",
"R	c #202820",
"S	c #BDC2BD",
"T	c #292C29",
"U	c #393839",
"V	c #83817B",
"W	c #393831",
"X	c #414441",
"Y	c #8B898B",
"                              ",
"                              ",
"                              ",
"                              ",
"                              ",
"                              ",
"                .+++++++@     ",
"               #$%%%&*=-;>    ",
"               ,')!~{]^/-(    ",
"               _:<![}}}|1(    ",
"               _:23}}}}|1(    ",
"               _:45}}}}|1(    ",
"          .6   _:{5[}}}|1(    ",
"         7890  _:{}[}}}|1(    ",
"        abcdefg,:{}}}hij1(    ",
"       kl{'emmmmj5hhhin%o(    ",
"      alp~qrssss*cr%jt{uve    ",
"     7bw][}hhhhhxtt/xj-y8     ",
"    .rhz}}}}}}}}}}/A%1BCD     ",
"   Erhw5}}}}}}}}}h'rFGCD      ",
"   9Hji}}}}}}}}}hjcoyID       ",
"    Jesi}}}}}}}tj=KLe         ",
"     #Bbh}}}}/hj-MBe          ",
"      NOPqti'j%bQRI           ",
"      SgRs*KyyTRmCD           ",
"        >LdRUVVVVD            ",
"         #WXY                 ",
"          J0                  ",
"                              ",
"                              "};
