/* XPM */
static char * pref_xpm[] = {
"30 30 89 1",
" 	c None",
".	c #000000",
"+	c #6A6D6A",
"@	c #ACAAAC",
"#	c #BDB6AC",
"$	c #D5CEC5",
"%	c #8B857B",
"&	c #BDBEBD",
"*	c #CDC6BD",
"=	c #CDCAC5",
"-	c #5A595A",
";	c #ACB2AC",
">	c #E6E2E6",
",	c #B4B6B4",
"'	c #FFFFFF",
")	c #838583",
"!	c #525052",
"~	c #C5C2C5",
"{	c #626962",
"]	c #292C29",
"^	c #F6F6F6",
"/	c #7B797B",
"(	c #CDCECD",
"_	c #ACAEAC",
":	c #D5D2CD",
"<	c #7B7D7B",
"[	c #C5C2BD",
"}	c #F6EEEE",
"|	c #94918B",
"1	c #4A4C4A",
"2	c #DEDEDE",
"3	c #A4A5A4",
"4	c #4A484A",
"5	c #A4A19C",
"6	c #EEEAE6",
"7	c #F6F2F6",
"8	c #EEEEEE",
"9	c #B4B2B4",
"0	c #949594",
"a	c #181818",
"b	c #A49D94",
"c	c #C5BEB4",
"d	c #DEDAD5",
"e	c #DED6D5",
"f	c #080C08",
"g	c #FFFAFF",
"h	c #8B8D8B",
"i	c #525552",
"j	c #101010",
"k	c #BDBABD",
"l	c #CDC6C5",
"m	c #626562",
"n	c #52504A",
"o	c #737573",
"p	c #83817B",
"q	c #7B756A",
"r	c #7391AC",
"s	c #A4BAD5",
"t	c #94A5BD",
"u	c #838183",
"v	c #9C9D9C",
"w	c #D5DEEE",
"x	c #A4AEBD",
"y	c #9CB6CD",
"z	c #627994",
"A	c #9C999C",
"B	c #839DB4",
"C	c #D5E2EE",
"D	c #8B99A4",
"E	c #9CBAD5",
"F	c #627594",
"G	c #9CAEC5",
"H	c #DEE6F6",
"I	c #8391AC",
"J	c #5A6D83",
"K	c #5A718B",
"L	c #736D6A",
"M	c #6A696A",
"N	c #A4B6CD",
"O	c #EEF2F6",
"P	c #62758B",
"Q	c #7B7573",
"R	c #94A5B4",
"S	c #B4C6DE",
"T	c #838994",
"U	c #BDC2BD",
"V	c #6A85A4",
"W	c #C5D2E6",
"X	c #A4A1A4",
"                              ",
"                              ",
"                              ",
"                              ",
"                              ",
"          ..+@                ",
"         .#$%.                ",
"         &.*=#.        .-&    ",
"          ;.>*.,      .')!~   ",
"       .{ &]^*./     .'(_.,   ",
"      .:<..[}#|1     .2_.3,   ",
"      45==67###.    .8..39    ",
"      0abc=*de#%.  fg.@_,     ",
"       hi...j6^[%..(._,~      ",
"        k;__@.}^l._._,        ",
"            &;.8._..0~        ",
"             ~_._.mn.,        ",
"           ...._.o/pq.3       ",
"          .rst..u.v&#p.0      ",
"         .rwxyz.A0.>8l%.)     ",
"        .BCDzEF.@,_.87*%.o    ",
"       .GHIJErK._~~;.783L.M   ",
"      .NOIPErK.3,  ~;.2Q1_.   ",
"     .t^RPErK.u9    ~;.&@_.   ",
"     .SOTErK.m_U     ~;...u   ",
"     .VEWtK.!_&        ,_9~   ",
"     X.VVz.!_&                ",
"      A...o_&                 ",
"       ~,;,&                  ",
"                              "};
