/* XPM */
static char * print_xpm[] = {
"30 30 81 1",
" 	c None",
".	c #949194",
"+	c #000000",
"@	c #C5C6C5",
"#	c #FFFAFF",
"$	c #FFFFFF",
"%	c #ACAEAC",
"&	c #E6E6E6",
"*	c #E6E2E6",
"=	c #DEDEDE",
"-	c #DEDADE",
";	c #B4B6B4",
">	c #6A696A",
",	c #626562",
"'	c #838183",
")	c #626162",
"!	c #A4A1A4",
"~	c #EEEEEE",
"{	c #EEEAEE",
"]	c #BDBEBD",
"^	c #8B898B",
"/	c #9C9D9C",
"(	c #F6F6F6",
"_	c #ACAAAC",
":	c #CDCECD",
"<	c #A4A5A4",
"[	c #C5C2C5",
"}	c #CDCACD",
"|	c #BDBABD",
"1	c #838583",
"2	c #D5D2D5",
"3	c #6A6D6A",
"4	c #7B797B",
"5	c #B4B2B4",
"6	c #83857B",
"7	c #EEEAE6",
"8	c #8B8983",
"9	c #52504A",
"0	c #837D73",
"a	c #ACAAA4",
"b	c #BDB6AC",
"c	c #F6F2F6",
"d	c #C5C2BD",
"e	c #FFFAF6",
"f	c #F6F2EE",
"g	c #F6EEEE",
"h	c #D5D6D5",
"i	c #DEDAD5",
"j	c #9C9994",
"k	c #948D83",
"l	c #FFF6F6",
"m	c #525552",
"n	c #9C999C",
"o	c #5A595A",
"p	c #5A5D52",
"q	c #524C4A",
"r	c #4A4841",
"s	c #4A4441",
"t	c #414441",
"u	c #7B7973",
"v	c #7B7573",
"w	c #9C9594",
"x	c #6A6D62",
"y	c #736D62",
"z	c #5A5952",
"A	c #62655A",
"B	c #5A5552",
"C	c #62615A",
"D	c #6A6962",
"E	c #73756A",
"F	c #949594",
"G	c #94918B",
"H	c #736D6A",
"I	c #6A6562",
"J	c #73716A",
"K	c #8B8D8B",
"L	c #B4AEAC",
"M	c #B4B2AC",
"N	c #BDBEB4",
"O	c #BDBAB4",
"P	c #B4AEA4",
"                              ",
"                              ",
"                              ",
"                              ",
"                              ",
"                              ",
"        .++++++++++++.        ",
"        +@#$$$$$$$##%+        ",
"        +#&*****===-;+        ",
"        +$>,'&)!-***;+        ",
"        +$~~~~~~~{{{]+        ",
"        +$^>/(.!{_.(@+        ",
"        +$$$$$##$$##:+        ",
"        +$%%&]#]<:{$:+[       ",
"        +(========{*}+|       ",
"      .++#1>^2342^!25++^      ",
"     .+$+}<<<<<<!!!!/+6+^     ",
"    .+$789++++++++++06ab+^    ",
"    +$$c$$$$$$$$$$$$$$$$7+    ",
"    +d^&###e((##(ffg&7/=b+%   ",
"    +!>(]h;2;h;h_2;:;i>jk+_   ",
"    +j>&g(####eleecccfm1k+_   ",
"    +n>opqrrrrrrsststq9uv+_   ",
"    +.w1xyzAzBzzB9mBzzCDE+_   ",
"    +uFGk0uvEHEHxBCI3xJED+_   ",
"    K++++++++++++++++++++3%   ",
"     +8LMNNNNNOPLaPjjj00+<    ",
"     K++++++++++++++++++3%    ",
"       %________________%     ",
"                              "};
