/* XPM */
static char * prop_xpm[] = {
"30 30 62 1",
" 	c None",
".	c #000000",
"+	c #BDBEBD",
"@	c #FFFFFF",
"#	c #E6E2E6",
"$	c #C5C2C5",
"%	c #B4B6B4",
"&	c #FFFAFF",
"*	c #ACAAAC",
"=	c #F6F6F6",
"-	c #D5D6D5",
";	c #EEEAEE",
">	c #DEDEDE",
",	c #ACAEAC",
"'	c #737573",
")	c #5A5D5A",
"!	c #414041",
"~	c #838583",
"{	c #4A484A",
"]	c #101410",
"^	c #E6E6E6",
"/	c #CDCECD",
"(	c #F6F2F6",
"_	c #F6F2EE",
":	c #EEEEEE",
"<	c #9C9D9C",
"[	c #A4A5A4",
"}	c #8B8D8B",
"|	c #D5D2D5",
"1	c #DEDADE",
"2	c #BDBABD",
"3	c #EEEAE6",
"4	c #A4A1A4",
"5	c #8B8983",
"6	c #CDCACD",
"7	c #CDCAC5",
"8	c #949594",
"9	c #E6E2DE",
"0	c #626562",
"a	c #9C999C",
"b	c #D5D2CD",
"c	c #C5C6C5",
"d	c #949194",
"e	c #DEDAD5",
"f	c #A4A19C",
"g	c #C5C2BD",
"h	c #8B898B",
"i	c #626162",
"j	c #ACAAA4",
"k	c #62615A",
"l	c #BDBAB4",
"m	c #7B7D7B",
"n	c #CDCEC5",
"o	c #6A696A",
"p	c #737173",
"q	c #9C9994",
"r	c #6A6D6A",
"s	c #B4B2AC",
"t	c #73716A",
"u	c #94918B",
"v	c #7B7973",
"w	c #83817B",
"                              ",
"                              ",
"                              ",
"                              ",
"                              ",
"                              ",
"     ..................+      ",
"     .@@@@@@@@@@@@@@@#$.%     ",
"     .@@@@@@@@@@@@@&&$&*.%    ",
"     .@=-;;>@@@@@@&&=,')!.    ",
"     .@@@@@@@@@@&&===#~{].    ",
"     .@@>####@^>-/;(>_::<.    ",
"     .@@@@@@&&&===(_:::;[.    ",
"     .@@%..:^..}>||1|/-^[.    ",
"     .@@.@.$=.:.2::;;3^^4.    ",
"     .@&.@....:.5/-67|##4.    ",
"     .@&.@::::$.83^^^#9>4.    ",
"     .@=*.@::$.0a|^b7/c>4.    ",
"     .@((d.@$.'*c#99>>1ef.    ",
"     .@_#%.@:.',e9g%g+/-4.    ",
"     .@::;.@$.hg>>>1e---4.    ",
"     .@;-[.@:.i,*b++%g|b4.    ",
"     .@3j.@:$$.kae--|bb/f.    ",
"     .@^.@::::$.',l%b///4.    ",
"     .@#.@....:.m[b///nn4.    ",
"     .@9.@.op.:.of//nnnn<.    ",
"     .@>q..r<..o'cnnnnnnf.    ",
"     .|s%qtm<~u)vhhhhhw~).    ",
"     ....................'    ",
"                              "};
