/* XPM */
static char * redo_xpm[] = {
"30 30 49 1",
" 	c None",
".	c #000000",
"+	c #94998B",
"@	c #ACAEAC",
"#	c #BDD29C",
"$	c #C5C2C5",
"%	c #949194",
"&	c #838D73",
"*	c #ACBEA4",
"=	c #C5D6AC",
"-	c #D5DEBD",
";	c #BDD2A4",
">	c #9CA18B",
",	c #D5E2C5",
"'	c #CDDEBD",
")	c #D5E2BD",
"!	c #8B997B",
"~	c #9CAA83",
"{	c #B4C2AC",
"]	c #94AE62",
"^	c #7B9941",
"/	c #5A7129",
"(	c #B4BAB4",
"_	c #7B8D6A",
":	c #CDDAB4",
"<	c #83A14A",
"[	c #526929",
"}	c #ACB2AC",
"|	c #BDBABD",
"1	c #A4B694",
"2	c #9CB673",
"3	c #6A8939",
"4	c #ACAAAC",
"5	c #B4B6B4",
"6	c #626162",
"7	c #B4B2B4",
"8	c #94A57B",
"9	c #8BAA5A",
"0	c #BDBEBD",
"a	c #627152",
"b	c #9CAE73",
"c	c #A4A5A4",
"d	c #ACC294",
"e	c #6A795A",
"f	c #9CAE83",
"g	c #738162",
"h	c #839573",
"i	c #5A595A",
"j	c #BDC2BD",
"                              ",
"                              ",
"                              ",
"                              ",
"                              ",
"                              ",
"                              ",
"                              ",
"               .              ",
"               ..             ",
"               .+.            ",
"           @....#+.$          ",
"          %.&*=-;#>.$         ",
"         %.*,')=###+.$        ",
"         .!,,-;#####~.        ",
"        %.{,]^^^^^^/.(        ",
"        ._:<^^^^^^[.}|        ",
"        .12^/...^[.@($        ",
"        .#^3.4@./.@5$         ",
"        .#^.6}5..7|$          ",
"        .89.%(0.00$           ",
"        .ab.70                ",
"        c.d.70                ",
"         .ef.0                ",
"          .gh.                ",
"           ..i                ",
"            j$                ",
"                              ",
"                              ",
"                              "};
