/* XPM */
static char * saveas_xpm[] = {
"30 30 183 2",
"  	c None",
". 	c #000000",
"+ 	c #8B898B",
"@ 	c #FFE639",
"# 	c #F6B64A",
"$ 	c #BDBEBD",
"% 	c #8B8D8B",
"& 	c #FFEA39",
"* 	c #F6B641",
"= 	c #5A5029",
"- 	c #C5D6F6",
"; 	c #ACCEE6",
"> 	c #73757B",
", 	c #EEC6BD",
"' 	c #F6CABD",
") 	c #F6C6BD",
"! 	c #EEBEB4",
"~ 	c #EEC2BD",
"{ 	c #EEB6AC",
"] 	c #6A5D31",
"^ 	c #414041",
"/ 	c #94A5BD",
"( 	c #94B2C5",
"_ 	c #BDD6EE",
": 	c #8BAAC5",
"< 	c #625D6A",
"[ 	c #E68D7B",
"} 	c #E6816A",
"| 	c #DE796A",
"1 	c #DE8173",
"2 	c #D58173",
"3 	c #F6B241",
"4 	c #625031",
"5 	c #7B3C31",
"6 	c #4A4C52",
"7 	c #7391A4",
"8 	c #526D83",
"9 	c #C5C2C5",
"0 	c #8BA5C5",
"a 	c #6A6573",
"b 	c #CD817B",
"c 	c #CD7D73",
"d 	c #CD7973",
"e 	c #FFDE39",
"f 	c #F6AE41",
"g 	c #624C29",
"h 	c #8B4841",
"i 	c #945552",
"j 	c #5A5962",
"k 	c #7B95AC",
"l 	c #B4D2E6",
"m 	c #83AAC5",
"n 	c #737173",
"o 	c #FFFFFF",
"p 	c #EEB64A",
"q 	c #625931",
"r 	c #BDBABD",
"s 	c #CDCECD",
"t 	c #E6E6E6",
"u 	c #6A6D6A",
"v 	c #839DB4",
"w 	c #BDD2E6",
"x 	c #83A5BD",
"y 	c #FFDA31",
"z 	c #F6AA39",
"A 	c #F6F6F6",
"B 	c #83A1BD",
"C 	c #4A697B",
"D 	c #F6D231",
"E 	c #EEA539",
"F 	c #5A5031",
"G 	c #949594",
"H 	c #A4A1A4",
"I 	c #B4B6B4",
"J 	c #C5C6C5",
"K 	c #8BA5BD",
"L 	c #4A6173",
"M 	c #626162",
"N 	c #D5AE73",
"O 	c #625529",
"P 	c #415D73",
"Q 	c #B4CAE6",
"R 	c #7BA1BD",
"S 	c #4A4010",
"T 	c #415D6A",
"U 	c #7BA1B4",
"V 	c #CDCACD",
"W 	c #9C999C",
"X 	c #9C9D9C",
"Y 	c #A4A5A4",
"Z 	c #52616A",
"` 	c #83A1B4",
" .	c #73595A",
"..	c #F6F2F6",
"+.	c #DEDADE",
"@.	c #D5D2D5",
"#.	c #E6E2E6",
"$.	c #EEEEEE",
"%.	c #FFFAFF",
"&.	c #525D62",
"*.	c #7B99B4",
"=.	c #7B8D9C",
"-.	c #7B797B",
";.	c #6A6D73",
">.	c #6A696A",
",.	c #6A757B",
"'.	c #39505A",
").	c #ACCAE6",
"!.	c #7395AC",
"~.	c #31485A",
"{.	c #ACC6E6",
"].	c #6A91AC",
"^.	c #7391AC",
"/.	c #41484A",
"(.	c #414852",
"_.	c #525962",
":.	c #626D7B",
"<.	c #5A6D73",
"[.	c #5A6973",
"}.	c #5A656A",
"|.	c #5A616A",
"1.	c #395062",
"2.	c #39404A",
"3.	c #7B95B4",
"4.	c #A4BACD",
"5.	c #314852",
"6.	c #6A8DA4",
"7.	c #4A505A",
"8.	c #94918B",
"9.	c #DEDEDE",
"0.	c #E6E2DE",
"a.	c #EEEAEE",
"b.	c #EEEAE6",
"c.	c #CDC6C5",
"d.	c #9C958B",
"e.	c #4A657B",
"f.	c #52718B",
"g.	c #ACC6DE",
"h.	c #31444A",
"i.	c #41444A",
"j.	c #DEDAD5",
"k.	c #62655A",
"l.	c #524C41",
"m.	c #DED6D5",
"n.	c #C5C6BD",
"o.	c #C5BEB4",
"p.	c #BDB2AC",
"q.	c #414C52",
"r.	c #4A6D83",
"s.	c #B4CADE",
"t.	c #313C4A",
"u.	c #738DA4",
"v.	c #F6EEEE",
"w.	c #CDCAC5",
"x.	c #C5BEBD",
"y.	c #4A555A",
"z.	c #BDCEDE",
"A.	c #A4C6DE",
"B.	c #6A89A4",
"C.	c #7389A4",
"D.	c #393C41",
"E.	c #E6DEDE",
"F.	c #4A4C41",
"G.	c #41505A",
"H.	c #A4C2DE",
"I.	c #73899C",
"J.	c #6A899C",
"K.	c #62859C",
"L.	c #313839",
"M.	c #D5D6D5",
"N.	c #4A4841",
"O.	c #D5CECD",
"P.	c #313C41",
"Q.	c #ACAAAC",
"R.	c #080C08",
"S.	c #4A5D6A",
"T.	c #5A6D7B",
"U.	c #4A5962",
"V.	c #A4A19C",
"W.	c #BDB6B4",
"X.	c #39444A",
"Y.	c #9CC2DE",
"Z.	c #293039",
"                                                            ",
"                                                            ",
"                                                            ",
"                                                            ",
"                                                            ",
"                                      . . +                 ",
"                                    . @ # . $               ",
"        % . . . . . . . . . . . . . & * = . . . +           ",
"        . - ; > , ' ) ! ! ~ ! { . & * ] . ^ / ( .           ",
"        . _ : < [ } } | 1 | 2 . @ 3 4 . 5 6 7 8 . 9         ",
"        . _ 0 a b c d d c c . e f g . h i j k 8 . $         ",
"        . l m n o o o o o . e p q . r s t u v 8 . $         ",
"        . w x n o o o o . y z q . r s t A n B C . $         ",
"        . w B n s s s . D E F . G H I J $ n K L . $         ",
"        . l B M o o o . N O . r s t A o o n K P . $         ",
"        . Q R n o o . S . . r s t A o o o n B T . $         ",
"        . ; U n s V . . W X Y r J V s s J n B Z . $         ",
"        . l `  .o o ..+.@.#.$.%.o o o o o n B &.. $         ",
"        . ; *.=.-.n n u u u ;.u n n n n >.,.B '.. $         ",
"        . ).!.v B B v *.*.v *.B B B B v K B K ~.. $         ",
"        . {.!.].^./.(._.:.<.[.}.|.Z _.1.2.3.4.5.. $         ",
"        . ).^.6.7.8.9.0.a.a.b.9.s c.d.Z e.f.g.h.. $         ",
"        . ).6.6.i.j.t k.l.l.m.n.o.p.s q.C r.s.t.. $         ",
"        . ).6.u.i.0.v.k.l.l.w.x.o.c.j.y.C r.z.t.. $         ",
"        . A.B.C.D.E.a.l.F.F.n.o.w.0.b.G.C r.H.D.. $         ",
"        . I.J.K.L.M.M.N.N.N.o.O.t $.t q.L e.H.P.. $         ",
"        Q.R.S.T.U.V.o.p.w.w.M.#.b.j.W.X.L L Y.P.. $         ",
"          Y . . . . . . . . . . . . . . . . Z.. + 9         ",
"              9 $ $ $ $ $ $ $ $ $ $ $ $ $ $ $ $ 9           ",
"                                                            "};
