/* XPM */
static char * spellcheck_xpm[] = {
"30 30 48 1",
" 	c None",
".	c #9C9D9C",
"+	c #000000",
"@	c #8B898B",
"#	c #949594",
"$	c #BDBABD",
"%	c #ACB2AC",
"&	c #BDBEBD",
"*	c #B4B2B4",
"=	c #ACAAAC",
"-	c #B4B6B4",
";	c #ACAEAC",
">	c #8B8D8B",
",	c #838583",
"'	c #C5C2C5",
")	c #8BBA8B",
"!	c #ACD2AC",
"~	c #183818",
"{	c #737573",
"]	c #B4D6B4",
"^	c #73A573",
"/	c #737173",
"(	c #102C10",
"_	c #292C29",
":	c #CDDECD",
"<	c #6AAE6A",
"[	c #ACCAA4",
"}	c #6A9D6A",
"|	c #D5E6D5",
"1	c #5A7152",
"2	c #BDD6BD",
"3	c #5A915A",
"4	c #62AE62",
"5	c #6A6D6A",
"6	c #9CC69C",
"7	c #94BE94",
"8	c #B4D2B4",
"9	c #62AE6A",
"0	c #62A162",
"a	c #838983",
"b	c #83BA83",
"c	c #73AE73",
"d	c #6A896A",
"e	c #9CC29C",
"f	c #7BB27B",
"g	c #6AA16A",
"h	c #4A5D41",
"i	c #A4A5A4",
"                              ",
"                              ",
"                              ",
"                              ",
"                              ",
"                              ",
"                              ",
"                              ",
"                              ",
"    .+++@ ++++# .+++@         ",
"    ++  + ++  + ++$$+         ",
"    ++% +&++++@&++*&          ",
"    +++++$++= +&++*           ",
"    ++=-+-++; +&++* +   +     ",
"    ++;&+$++++>&>+++,  +++    ",
"     $$  ''$-$&   $$& +)+%&   ",
"            ++       +!~{*    ",
"            +)+     +]^+=&    ",
"            /(^+   _:<+/*     ",
"             +[}+ +|<1+=&     ",
"             ,+23+|43+5*      ",
"              +678901+=&      ",
"              a+2bcd+5*       ",
"               +efgh+=&       ",
"               a+)d+5*        ",
"                +dh+=&        ",
"                a++i-         ",
"                 '--          ",
"                              ",
"                              "};
