/* XPM */
static char * stop_xpm[] = {
"30 30 156 2",
"  	c None",
". 	c #838183",
"+ 	c #181C18",
"@ 	c #180C00",
"# 	c #291000",
"$ 	c #180800",
"% 	c #181818",
"& 	c #7B7D7B",
"* 	c #838583",
"= 	c #291408",
"- 	c #833008",
"; 	c #C55520",
"> 	c #DE794A",
", 	c #DE7541",
"' 	c #D57541",
") 	c #D57141",
"! 	c #B44818",
"~ 	c #732808",
"{ 	c #291008",
"] 	c #393831",
"^ 	c #8B3408",
"/ 	c #DE7139",
"( 	c #E67D4A",
"_ 	c #E67139",
": 	c #DE5918",
"< 	c #D55010",
"[ 	c #D54C10",
"} 	c #CD4C08",
"| 	c #C54808",
"1 	c #C54408",
"2 	c #BD4008",
"3 	c #393431",
"4 	c #312820",
"5 	c #B44408",
"6 	c #E67941",
"7 	c #E65910",
"8 	c #DE5510",
"9 	c #CD4808",
"0 	c #BD4408",
"a 	c #943408",
"b 	c #292418",
"c 	c #413C39",
"d 	c #E67131",
"e 	c #EE5910",
"f 	c #E65510",
"g 	c #DE5010",
"h 	c #B43C08",
"i 	c #943008",
"j 	c #8B8D8B",
"k 	c #833408",
"l 	c #E67541",
"m 	c #E66D29",
"n 	c #EE5D10",
"o 	c #CD4C10",
"p 	c #AC3C08",
"q 	c #B44008",
"r 	c #6A2408",
"s 	c #D56129",
"t 	c #A44818",
"u 	c #9C7562",
"v 	c #8B614A",
"w 	c #AC4410",
"x 	c #C54810",
"y 	c #A4715A",
"z 	c #B48D7B",
"A 	c #A44C20",
"B 	c #AC3808",
"C 	c #201008",
"D 	c #7B3410",
"E 	c #AC816A",
"F 	c #FFFFFF",
"G 	c #DEB29C",
"H 	c #B44410",
"I 	c #C54C10",
"J 	c #A48173",
"K 	c #DEDADE",
"L 	c #E6B69C",
"M 	c #C56131",
"N 	c #622000",
"O 	c #202020",
"P 	c #C56939",
"Q 	c #AC7152",
"R 	c #DEAE9C",
"S 	c #AC897B",
"T 	c #DE997B",
"U 	c #CD6D41",
"V 	c #7B2808",
"W 	c #100800",
"X 	c #D5754A",
"Y 	c #BD4810",
"Z 	c #B48573",
"` 	c #E6B29C",
" .	c #CD714A",
"..	c #C56539",
"+.	c #8B2C08",
"@.	c #200C00",
"#.	c #AC8573",
"$.	c #EEB69C",
"%.	c #C55929",
"&.	c #A43808",
"*.	c #832C08",
"=.	c #200800",
"-.	c #EEC2AC",
";.	c #A43408",
">.	c #732400",
",.	c #AC4008",
"'.	c #EEEEEE",
").	c #EECABD",
"!.	c #BD5020",
"~.	c #202420",
"{.	c #AC5029",
"].	c #A4755A",
"^.	c #DEAA94",
"/.	c #B44C20",
"(.	c #5A1C00",
"_.	c #949594",
":.	c #834831",
"<.	c #AC7D6A",
"[.	c #CD6131",
"}.	c #C55529",
"|.	c #B45029",
"1.	c #9C3008",
"2.	c #7B2800",
"3.	c #411400",
"4.	c #201408",
"5.	c #BD5931",
"6.	c #9C3C10",
"7.	c #C58D7B",
"8.	c #DE9173",
"9.	c #BD5520",
"0.	c #D58D73",
"a.	c #DEA18B",
"b.	c #B45529",
"c.	c #AC4C20",
"d.	c #622810",
"e.	c #BD5929",
"f.	c #BD5529",
"g.	c #6A2000",
"h.	c #4A4441",
"i.	c #414041",
"j.	c #393029",
"k.	c #9C3408",
"l.	c #7B2400",
"m.	c #621C00",
"n.	c #312C29",
"o.	c #4A484A",
"p.	c #832808",
"q.	c #521800",
"r.	c #414441",
"s.	c #9C999C",
"t.	c #521C00",
"u.	c #4A1800",
"v.	c #292829",
"w.	c #080808",
"x.	c #080800",
"y.	c #949994",
"                                                            ",
"                                                            ",
"                                                            ",
"                                                            ",
"                                                            ",
"                                                            ",
"                      . + @ # # $ % &                       ",
"                  * = - ; > , ' ) ! ~ { .                   ",
"                ] ^ / ( _ : < [ } | 1 2 ~ 3                 ",
"              4 5 6 _ 7 7 8 8 < [ 9 | 0 2 a b               ",
"            c 5 6 d 7 e e 7 f g [ } | 1 2 h i 3             ",
"          j k l m 7 n o | e 7 8 < | p 1 2 q h r *           ",
"          = s 6 7 n t u v w 8 8 x y z A 0 q h B C           ",
"        j D > 8 7 e E F F G H I J K F L M q h B N *         ",
"        O P s g 8 7 Q F F F R S K F F T U q p B V +         ",
"        W X [ < 8 f Y Z F F F F F F `  ...h p B +.W         ",
"        @.) } [ < g 8 8 #.F F F F $.X %.q h B &.*.=.        ",
"        @.) 9 } [ < < 8 z F F F F -.; 2 h h B ;.>.$         ",
"        W U 1 | 9 } ,.z '.F F F F F ).!.h B &.;.N W         ",
"        ~.{.0 1 | p ].F F F ` ` F F F ^./.B ;.+.(.O         ",
"        _.:.2 0 0 a <.F F ` [.}.` F F ^.|.&.1.2.3.j         ",
"          4.5.q 2 2 6.7.8.M 2 9.9.0.a.b.c.;.*.>.C           ",
"          _.d.e.H q q %.%.q h h !.f.|.|.;.i g.3.j           ",
"            h.*.|.! h h h h p B B &.;.;.i g.(.i.            ",
"              j.*.b.! B B B B &.;.;.k.l.m.N n.              ",
"                o.(.;.;.;.;.;.;.k.p.m.>.q.r.                ",
"                  s.4.t.>.+.2.N N (.u.C _.                  ",
"                      s.v.w.W W x.v.y.                      ",
"                                                            ",
"                                                            "};
