/* XPM */
static char * top_xpm[] = {
"30 30 40 1",
" 	c None",
".	c #000000",
"+	c #F6F2F6",
"@	c #CDDAC5",
"#	c #9CB69C",
"$	c #94AA8B",
"%	c #8B9D7B",
"&	c #C5D2C5",
"*	c #ACCAAC",
"=	c #6A9162",
"-	c #5A7952",
";	c #415D39",
">	c #B4BAB4",
",	c #292C29",
"'	c #9CAE9C",
")	c #D5E2D5",
"!	c #8BAA83",
"~	c #394C39",
"{	c #DEE2D5",
"]	c #BDCABD",
"^	c #8BAA8B",
"/	c #5A7552",
"(	c #BDCEBD",
"_	c #9CBA9C",
":	c #DEE2DE",
"<	c #BDCAB4",
"[	c #A4BAA4",
"}	c #DEE6DE",
"|	c #B4C6B4",
"1	c #A4BEA4",
"2	c #CDD6CD",
"3	c #A4B6A4",
"4	c #4A6141",
"5	c #ACC2AC",
"6	c #8BAE8B",
"7	c #D5DED5",
"8	c #6A816A",
"9	c #6A896A",
"0	c #526D52",
"a	c #415539",
"                              ",
"                              ",
"                              ",
"                              ",
"                              ",
"                              ",
"                              ",
"      .................       ",
"      .+@@@@@@#$$$$$$%.       ",
"      .&******=------;.       ",
"      .................       ",
"             >.>              ",
"            >,'.>             ",
"           >.)!~.>            ",
"          >.{]^/~.>           ",
"         >.{(_^//~.>          ",
"        >.:<[_^///~.>         ",
"       >.}|1#_^////~.>        ",
"      >.2|3___^//4444.>       ",
"     >.....5##6//~.....>      ",
"          .(##^//~.           ",
"          .2##^//~.           ",
"          .7##6//~.           ",
"          .7##6//~.           ",
"          .7#_!//~.           ",
"          .589044a.           ",
"          .........           ",
"                              ",
"                              ",
"                              "};
