/* XPM */
static char * undelete_xpm[] = {
"30 30 173 2",
"  	c None",
". 	c #949194",
"+ 	c #000000",
"@ 	c #8B8D8B",
"# 	c #5A5D5A",
"$ 	c #181C18",
"% 	c #737573",
"& 	c #E6E6E6",
"* 	c #D5D2D5",
"= 	c #C5C2C5",
"- 	c #4A484A",
"; 	c #313431",
"> 	c #B4B2B4",
", 	c #9C9D9C",
"' 	c #525052",
") 	c #4A4439",
"! 	c #BDBAA4",
"~ 	c #E6E2DE",
"{ 	c #F6F2F6",
"] 	c #EEEAE6",
"^ 	c #F6F2EE",
"/ 	c #C5C2B4",
"( 	c #52554A",
"_ 	c #525041",
": 	c #525952",
"< 	c #ACAEAC",
"[ 	c #ACA58B",
"} 	c #C5BEA4",
"| 	c #A4A18B",
"1 	c #6A6D5A",
"2 	c #7B7D73",
"3 	c #4A4C4A",
"4 	c #414439",
"5 	c #414039",
"6 	c #6A6D62",
"7 	c #C5C6BD",
"8 	c #B4B69C",
"9 	c #B4B29C",
"0 	c #A4A58B",
"a 	c #948D7B",
"b 	c #ACAA94",
"c 	c #312C18",
"d 	c #D5D2C5",
"e 	c #ACAEA4",
"f 	c #94918B",
"g 	c #414441",
"h 	c #202020",
"i 	c #292820",
"j 	c #ACAE94",
"k 	c #C5C2AC",
"l 	c #B4AE94",
"m 	c #94917B",
"n 	c #000400",
"o 	c #313020",
"p 	c #EEE6BD",
"q 	c #62655A",
"r 	c #BDBEB4",
"s 	c #ACAAA4",
"t 	c #5A5D52",
"u 	c #626552",
"v 	c #737562",
"w 	c #837D6A",
"x 	c #BDBEA4",
"y 	c #A49D8B",
"z 	c #393420",
"A 	c #EEE6C5",
"B 	c #EED683",
"C 	c #201C10",
"D 	c #292410",
"E 	c #101008",
"F 	c #7B7973",
"G 	c #B4B6AC",
"H 	c #B4B2A4",
"I 	c #B4B6A4",
"J 	c #BDBA9C",
"K 	c #BDB69C",
"L 	c #8B8973",
"M 	c #CDB66A",
"N 	c #94854A",
"O 	c #CDCAB4",
"P 	c #CDCEBD",
"Q 	c #C5C6AC",
"R 	c #D5D6C5",
"S 	c #BDBAAC",
"T 	c #7B796A",
"U 	c #737162",
"V 	c #EEE2A4",
"W 	c #EED68B",
"X 	c #AC9D5A",
"Y 	c #9C9994",
"Z 	c #EEEEEE",
"` 	c #DEDAD5",
" .	c #C5BEB4",
"..	c #949583",
"+.	c #7B7562",
"@.	c #5A594A",
"#.	c #292829",
"$.	c #A47D31",
"%.	c #D59910",
"&.	c #D5A529",
"*.	c #DEB641",
"=.	c #A49152",
"-.	c #94958B",
";.	c #9C9D8B",
">.	c #8B8D7B",
",.	c #6A695A",
"'.	c #4A4C41",
").	c #737173",
"!.	c #9C7929",
"~.	c #D59508",
"{.	c #735000",
"].	c #9C7108",
"^.	c #DEAA31",
"/.	c #9C9983",
"(.	c #7B7D6A",
"_.	c #292418",
":.	c #A47D20",
"<.	c #101410",
"[.	c #5A4000",
"}.	c #B47D08",
"|.	c #626152",
"1.	c #525552",
"2.	c #313029",
"3.	c #8B6918",
"4.	c #080C08",
"5.	c #9C6908",
"6.	c #393C31",
"7.	c #080800",
"8.	c #4A4841",
"9.	c #AC9141",
"0.	c #837541",
"a.	c #393831",
"b.	c #5A5D4A",
"c.	c #525541",
"d.	c #313429",
"e.	c #6A6952",
"f.	c #73756A",
"g.	c #E6CA7B",
"h.	c #292C29",
"i.	c #83816A",
"j.	c #9C9D94",
"k.	c #838173",
"l.	c #414031",
"m.	c #83856A",
"n.	c #292C20",
"o.	c #949183",
"p.	c #73715A",
"q.	c #5A5952",
"r.	c #838573",
"s.	c #9C998B",
"t.	c #A4A59C",
"u.	c #BDBABD",
"v.	c #9C999C",
"w.	c #7B7962",
"x.	c #A4A194",
"y.	c #83817B",
"z.	c #ACAA9C",
"A.	c #ACAE9C",
"B.	c #B4B6B4",
"C.	c #A4A594",
"D.	c #4A4839",
"E.	c #949594",
"F.	c #BDBEBD",
"G.	c #B4B2AC",
"H.	c #6A6D6A",
"I.	c #838183",
"J.	c #202820",
"K.	c #313031",
"L.	c #A4A1A4",
"M.	c #B4BAB4",
"N.	c #393C39",
"O.	c #393839",
"P.	c #BDC2BD",
"                                                            ",
"                                                            ",
"                                                            ",
"                                                            ",
"                                                            ",
"                        . + + + + + + @                     ",
"                      # $ % & * = . - + ; >                 ",
"              , ' + + ) ! ~ { ] ^ ] / ( _ + + : <           ",
"            . + [ ! } | 1 2 3 4 5 6 7 8 1 9 0 a + ,         ",
"            + b c + d e f g h ; i $ _ j f k l b m +         ",
"            n o p + q r s @ 2 t 4 u v w x 9 8 9 y +         ",
"            z A B + C D E F G H I l y J K K k j L +         ",
"          o A B B B B M N + 3 O P k } Q R P S T U $         ",
"        c A V V V V V W B X + Y Z Z ] `  ...+.1 @.#.        ",
"        c $.%.%.%.%.%.&.*.B =.+ -.H ;.>.L >.T ,.'.).        ",
"          c !.~.~.+ + {.].^.M + @.0 j /.w (.,.5 + <         ",
"            _.:.~.+ <.+ [.}.B + 5 T L |.1.2.+ i +           ",
"              o 3.+ $ 4.+ 5.B + + + + + <.i o 6.+           ",
"              + C 7.8.q + 9.0.+ @.a.b._ 6.c.d._ +           ",
"              + e.i 2 f.+ g.+ h.,.6.t @.6.'.d.c.+           ",
"              + i.( j.+ M 0.+ t k.6.t e.l.,.l.,.+           ",
"              + m.@.+ X N + n.-.o._ i.p.l.,.l.,.+           ",
"              + m.q.;.+ + '.8.j..._ r.p.l.,.l.,.+           ",
"            > + m.q.s.2 s s.|.t.s.c.r.p.l.,.l.,.+ < =       ",
"          u.v.+ w.q.x.y.S z.q A.;.c.r.p.l.,.l.b.+ v.B.      ",
"          > @ + u q.C.y./ H ,.H ;.c.r.p.l.,.D.( + E.B.      ",
"          F., % + ( (.f.G.x.6 H ;.c.r.e.l.c.4 + H., F.      ",
"            F.< I.J.+ + q.@.'.v |.'.D.D.+ + K.% L.M.        ",
"                = F.% N.K.+ + + + + + O.# . > B.P.          ",
"                                                            "};
