/* XPM */
static char * warning_xpm[] = {
"30 30 119 2",
"  	c None",
". 	c #9C9D9C",
"+ 	c #6A6D6A",
"@ 	c #737173",
"# 	c #A4A1A4",
"$ 	c #838583",
"% 	c #181818",
"& 	c #000000",
"* 	c #202420",
"= 	c #414041",
"- 	c #000400",
"; 	c #4A3C20",
"> 	c #413418",
", 	c #393C39",
"' 	c #625531",
") 	c #E6BA6A",
"! 	c #FFCA5A",
"~ 	c #F6C24A",
"{ 	c #BD8929",
"] 	c #413008",
"^ 	c #5A595A",
"/ 	c #4A484A",
"( 	c #B4995A",
"_ 	c #FFC652",
": 	c #FFBE39",
"< 	c #F6BA39",
"[ 	c #E6AE31",
"} 	c #6A4C18",
"| 	c #737973",
"1 	c #B4955A",
"2 	c #FFC24A",
"3 	c #FFD27B",
"4 	c #FFCA62",
"5 	c #DEA531",
"6 	c #5A4410",
"7 	c #A4AAA4",
"8 	c #BDBEBD",
"9 	c #7B6539",
"0 	c #DEBA73",
"a 	c #181408",
"b 	c #181400",
"c 	c #D59D31",
"d 	c #292008",
"e 	c #181C18",
"f 	c #201C10",
"g 	c #F6C662",
"h 	c #7B6D4A",
"i 	c #6A5018",
"j 	c #F6BE39",
"k 	c #B48529",
"l 	c #B4B6B4",
"m 	c #B49552",
"n 	c #736539",
"o 	c #5A4010",
"p 	c #EEB639",
"q 	c #080C08",
"r 	c #4A4C4A",
"s 	c #312C18",
"t 	c #FFC252",
"u 	c #8B7141",
"v 	c #735518",
"w 	c #080800",
"x 	c #A4894A",
"y 	c #FFBE41",
"z 	c #CDA152",
"A 	c #B48929",
"B 	c #101010",
"C 	c #8B898B",
"D 	c #F6C65A",
"E 	c #201808",
"F 	c #DEAA31",
"G 	c #C59529",
"H 	c #525552",
"I 	c #624C29",
"J 	c #CD9D39",
"K 	c #BD8D29",
"L 	c #392808",
"M 	c #292829",
"N 	c #9C7D41",
"O 	c #EEC662",
"P 	c #8B754A",
"Q 	c #BD9141",
"R 	c #836118",
"S 	c #313031",
"T 	c #D5AA52",
"U 	c #8B7541",
"V 	c #D5A131",
"W 	c #101810",
"X 	c #202020",
"Y 	c #AC8539",
"Z 	c #BD9539",
"` 	c #9C7520",
" .	c #080808",
"..	c #414441",
"+.	c #EEB231",
"@.	c #392C08",
"#.	c #4A3410",
"$.	c #9C7920",
"%.	c #F6B639",
"&.	c #EEB239",
"*.	c #4A3810",
"=.	c #626162",
"-.	c #949194",
";.	c #101410",
">.	c #201800",
",.	c #949594",
"'.	c #B4B2B4",
").	c #BDBABD",
"!.	c #737573",
"~.	c #393839",
"{.	c #6A696A",
"].	c #838983",
"^.	c #A4A5A4",
"/.	c #C5C2C5",
"(.	c #7B7D7B",
"_.	c #5A5D5A",
":.	c #838183",
"<.	c #ACAEAC",
"[.	c #ACAAAC",
"                                                            ",
"                                                            ",
"                                                            ",
"                                                            ",
"                                                            ",
"                                                            ",
"                        . + @ #                             ",
"                    $ % & & & & * .                         ",
"                  = & & - ; > & & & +                       ",
"                , & & ' ) ! ~ { ] & & ^                     ",
"              / & - ( _ : : : < [ } & & |                   ",
"            | & & 1 2 : 2 3 4 : : 5 6 & - 7                 ",
"          8 - & 9 _ : : 0 a b c : : c d & e                 ",
"          / & f g : : 2 h & & i < : j k - & +               ",
"        l & & m : : : _ n & & o < : : p } & q               ",
"        r & s t : : : 2 u & & v < : : : 5 w & +             ",
"        - & x : : : : y z & & A : : : : p i & B             ",
"      C & w D : : : : : _ d E F : : : : : G & & #           ",
"      H & I 2 : : : : : : J K < : : : : : < L & ^           ",
"      M & N : : : : : : O P Q < : : : : : : R & S           ",
"      * & T : : : : : : U & w V : : : : : : k & W           ",
"      X & Y : : : : : : Z w ] 5 : : : : : < ` &  .          ",
"      ..& d c < : : : : : p [ : : : : : +.A @.& * 8         ",
"      . - & - #.$.F < < < < < %.&.+.5 ` *.w & & =.l         ",
"        -.;.& & & & b @.*.} } o ] >.& & & & - / ,.'.        ",
"          ).!.S  .& & & & & & & & & & & W ~.{.].^.8         ",
"            /.l # (._.r , , , , ..r _.@ !.:.-.^.).          ",
"                /.).<.[.^.# # . . . . . # [.l /.            ",
"                                                            ",
"                                                            "};
