/* XPM */
static char * yes_xpm[] = {
"30 30 189 2",
"  	c None",
". 	c #838583",
"+ 	c #414041",
"@ 	c #949594",
"# 	c #6A6D6A",
"$ 	c #626162",
"% 	c #394439",
"& 	c #203418",
"* 	c #314429",
"= 	c #315029",
"- 	c #294020",
"; 	c #182C10",
"> 	c #5A615A",
", 	c #737573",
"' 	c #838183",
") 	c #292C20",
"! 	c #293829",
"~ 	c #4A6141",
"{ 	c #5A7D52",
"] 	c #628D5A",
"^ 	c #629552",
"/ 	c #528141",
"( 	c #416531",
"_ 	c #294420",
": 	c #102410",
"< 	c #202818",
"[ 	c #8B8D8B",
"} 	c #9C9D9C",
"| 	c #182018",
"1 	c #4A5D41",
"2 	c #7B9973",
"3 	c #8BB283",
"4 	c #83AE7B",
"5 	c #739D62",
"6 	c #62955A",
"7 	c #5A8D4A",
"8 	c #396531",
"9 	c #183410",
"0 	c #101408",
"a 	c #9C999C",
"b 	c #414439",
"c 	c #627952",
"d 	c #9CB68B",
"e 	c #ACC6A4",
"f 	c #ACCAA4",
"g 	c #A4C29C",
"h 	c #94BA8B",
"i 	c #7BAA73",
"j 	c #6A995A",
"k 	c #4A7939",
"l 	c #416D31",
"m 	c #203C18",
"n 	c #000800",
"o 	c #6A716A",
"p 	c #293029",
"q 	c #4A614A",
"r 	c #B4CEAC",
"s 	c #C5D6BD",
"t 	c #C5D2BD",
"u 	c #B4CAAC",
"v 	c #9CBE94",
"w 	c #528541",
"x 	c #4A7D39",
"y 	c #417531",
"z 	c #396529",
"A 	c #183010",
"B 	c #181C10",
"C 	c #626562",
"D 	c #313C29",
"E 	c #D5E2CD",
"F 	c #CDDECD",
"G 	c #BDD2B4",
"H 	c #4A8539",
"I 	c #396D29",
"J 	c #295520",
"K 	c #081808",
"L 	c #7B797B",
"M 	c #414839",
"N 	c #52654A",
"O 	c #9CBA8B",
"P 	c #CDDEC5",
"Q 	c #DEE6DE",
"R 	c #D5E2D5",
"S 	c #83AE73",
"T 	c #528D41",
"U 	c #417D31",
"V 	c #316520",
"W 	c #394039",
"X 	c #293820",
"Y 	c #6A855A",
"Z 	c #A4BE94",
"` 	c #CDDAC5",
" .	c #BDCEB4",
"..	c #528941",
"+.	c #4A8131",
"@.	c #417529",
"#.	c #396920",
"$.	c #294C18",
"%.	c #081C08",
"&.	c #525052",
"*.	c #394C31",
"=.	c #7B9D6A",
"-.	c #8BB27B",
";.	c #73A162",
">.	c #5A914A",
",.	c #4A8939",
"'.	c #418131",
").	c #397529",
"!.	c #396929",
"~.	c #316129",
"{.	c #102810",
"].	c #395531",
"^.	c #7BA16A",
"/.	c #94B683",
"(.	c #A4BE9C",
"_.	c #8BAE7B",
":.	c #7BA56A",
"<.	c #629952",
"[.	c #417929",
"}.	c #417131",
"|.	c #4A7941",
"1.	c #527941",
"2.	c #6A8D5A",
"3.	c #83AA7B",
"4.	c #7BA573",
"5.	c #5A8D41",
"6.	c #397929",
"7.	c #527D4A",
"8.	c #203020",
"9.	c #203018",
"0.	c #527541",
"a.	c #739D6A",
"b.	c #629152",
"c.	c #417931",
"d.	c #527D41",
"e.	c #6A8D62",
"f.	c #7B9573",
"g.	c #52714A",
"h.	c #182818",
"i.	c #314C29",
"j.	c #6A9562",
"k.	c #6A955A",
"l.	c #4A7D31",
"m.	c #417939",
"n.	c #62895A",
"o.	c #394831",
"p.	c #52554A",
"q.	c #182810",
"r.	c #4A6D41",
"s.	c #628952",
"t.	c #5A8952",
"u.	c #5A854A",
"v.	c #5A814A",
"w.	c #83997B",
"x.	c #62795A",
"y.	c #182418",
"z.	c #202C20",
"A.	c #203C20",
"B.	c #4A7541",
"C.	c #6A9162",
"D.	c #6A8562",
"E.	c #294029",
"F.	c #8B898B",
"G.	c #101410",
"H.	c #416939",
"I.	c #4A7139",
"J.	c #4A7539",
"K.	c #5A8152",
"L.	c #739162",
"M.	c #314829",
"N.	c #000C00",
"O.	c #395931",
"P.	c #4A6D39",
"Q.	c #5A794A",
"R.	c #62855A",
"S.	c #738D6A",
"T.	c #7B9173",
"U.	c #5A7552",
"V.	c #293C29",
"W.	c #A4A5A4",
"X.	c #101C08",
"Y.	c #293C20",
"Z.	c #415D39",
"`.	c #62815A",
" +	c #526D4A",
".+	c #394431",
"++	c #202820",
"@+	c #182010",
"#+	c #293420",
"                                                            ",
"                                                            ",
"                                                            ",
"                                                            ",
"                                                            ",
"                                                            ",
"                      . + + + + + @                         ",
"                  # $ % & * = - ; % > ,                     ",
"                ' ) ! ~ { ] ^ / ( _ : < [                   ",
"              } | 1 2 3 3 4 5 6 7 / 8 9 0 a                 ",
"            @ b c d e f g h i j 7 / k l m n [               ",
"          o p q d r s t u v 4 j 7 w x y z A B .             ",
"          C D 2 f s E F G g 4 j 7 H x y I J K L             ",
"        . M N O G P Q R s g S j T H U y I V 9 W [           ",
"        + X Y Z G ` R F  .v i ^ ..+.U @.I #.$.%.&.          ",
"        + *.=.v u  .G r g -.;.>.,.'.U ).I !.~.{.&.          ",
"        + ].^./.v (.v h _.:.<.T H U [.).}.|.1.& &.          ",
"        + * 2.3.3 3 4 4.;.<.5.H U 6.).y 7.2.{ 8.&.          ",
"        + 9.0.a.4.^.5 j b.7 H U [.[.c.d.e.f.g.h.&.          ",
"        @ M i.] j.k.b.7 ..H l.c.y m./ n.2 f.o.p.}           ",
"          > q.r.s.t.u.w / x c.y k v.2.f.w.x.y.L             ",
"          , z.A.B.d.d.d.k k y k v.C.2 w.D.E.z.F.            ",
"            [ G._ H.I.I.J.J.B.K.L.2 w.D.M.G.a               ",
"              a N.& O.P.0.Q.R.S.f.T.U.V.G.W.                ",
"                [ | X.Y.Z.g.D.`. +.+y.++a                   ",
"                  . L b @+8.! #+y.p.L F.                    ",
"                      [ &.&.&.&.&.}                         ",
"                                                            ",
"                                                            ",
"                                                            "};
