/* XPM */
static char * zoom_in_xpm[] = {
"30 30 64 1",
" 	c None",
".	c #ACAEAC",
"+	c #6A6D6A",
"@	c #414441",
"#	c #292C29",
"$	c #292829",
"%	c #393C39",
"&	c #626562",
"*	c #A4A5A4",
"=	c #BDBEBD",
"-	c #5A595A",
";	c #313031",
">	c #737173",
",	c #A4A1A4",
"'	c #B4B6B4",
")	c #B4B2B4",
"!	c #9C9D9C",
"~	c #202020",
"{	c #4A484A",
"]	c #B4BAB4",
"^	c #ACAAAC",
"/	c #626162",
"(	c #CDCACD",
"_	c #CDCECD",
":	c #D5D2D5",
"<	c #C5C2C5",
"[	c #4A4C4A",
"}	c #101410",
"|	c #9CA19C",
"1	c #202420",
"2	c #737573",
"3	c #DEDADE",
"4	c #E6E6E6",
"5	c #EEEEEE",
"6	c #F6F2F6",
"7	c #5A5D5A",
"8	c #101010",
"9	c #D5D6D5",
"0	c #F6F6F6",
"a	c #FFFAFF",
"b	c #E6E2E6",
"c	c #414041",
"d	c #181C18",
"e	c #BDBABD",
"f	c #FFFFFF",
"g	c #080C08",
"h	c #9C999C",
"i	c #525552",
"j	c #525052",
"k	c #DEDEDE",
"l	c #C5C6C5",
"m	c #080808",
"n	c #EEEAEE",
"o	c #949194",
"p	c #000000",
"q	c #949594",
"r	c #393839",
"s	c #313431",
"t	c #949994",
"u	c #000400",
"v	c #838183",
"w	c #7B797B",
"x	c #181818",
"y	c #6A696A",
"                              ",
"                              ",
"                              ",
"                              ",
"                              ",
"                              ",
"         .+@#$%&*             ",
"       =-;>,')!&~{]           ",
"      ^$/'(_:_(<*[}|          ",
"     =12(:345664:=78'         ",
"     [-_940aaaa06b<cc         ",
"    *de94aaf@@aa654^gh        ",
"    7+:b0aff@@fa0543ij        ",
"    #^350aff@@aa054kh~        ",
"    }lk50@@@@@@cc543=m        ",
"    8lb56c@@@@cccnb9em        ",
"    1*b45600cc65543:od        ",
"    i73b4n55cc5n439([[        ",
"    hm'3kb44%%bk39(,pq        ",
"    =rr_:9333339:(=#s         ",
"     .mj<l(__(((<e@pt         ",
"     =qu;he===='o$pgmv        ",
"      =.spcwhh2%ps.xgmxq      ",
"        =q[dppd[q*==$$mg*     ",
"          =======  =8yrmm=    ",
"                    =mw%mm=   ",
"                    ==uy~m=   ",
"                     ==}p,=   ",
"                      ===     ",
"                              "};
