/* XPM */
static char * about_xpm[] = {
"26 26 52 1",
" 	c None",
".	c #4A4841",
"+	c #F6E6D5",
"@	c #E6CA94",
"#	c #DEAE62",
"$	c #E6B652",
"%	c #E6CAA4",
"&	c #C5C2BD",
"*	c #52504A",
"=	c #949594",
"-	c #D5CAC5",
";	c #E6BA4A",
">	c #DEAE41",
",	c #C58539",
"'	c #C5A58B",
")	c #E6E2DE",
"!	c #DEDAD5",
"~	c #C57D39",
"{	c #A46552",
"]	c #D5D2CD",
"^	c #FFFFFF",
"/	c #FFFAF6",
"(	c #080C08",
"_	c #D5A541",
":	c #AC5D31",
"<	c #9C5D4A",
"[	c #DECECD",
"}	c #EEEAE6",
"|	c #000000",
"1	c #C5914A",
"2	c #B47131",
"3	c #A44C29",
"4	c #943829",
"5	c #A4857B",
"6	c #ACA5A4",
"7	c #5A5952",
"8	c #312C29",
"9	c #E6DACD",
"0	c #BD9173",
"a	c #9C5541",
"b	c #AC8D8B",
"c	c #A49D94",
"d	c #181810",
"e	c #BDB6B4",
"f	c #7B756A",
"g	c #CDCACD",
"h	c #393831",
"i	c #292820",
"j	c #8B8583",
"k	c #F6EEEE",
"l	c #BDBAB4",
"m	c #413C39",
"                          ",
"                          ",
"                          ",
"                          ",
"                          ",
"                          ",
"                          ",
"                          ",
"                          ",
"                          ",
"                          ",
"                          ",
"                  .       ",
"          +@#$#% &*       ",
"        =-$$;$>,')!!      ",
"         @;;;$>~{]^/(     ",
"      ]  %_>;>,:<[}-(     ",
"       |! 1~~2345678(     ",
"          90aa<b]cd       ",
"           efe!}/gh       ",
"        ]!=idjk/klh       ",
"        .hdd  f=jm8       ",
"               ((d        ",
"                          ",
"                          ",
"                          "};
