/* XPM */
static char * add_xpm[] = {
"26 26 50 1",
" 	c None",
".	c #8B8D8B",
"+	c #6A6D6A",
"@	c #737973",
"#	c #C5C2C5",
"$	c #6A6D73",
"%	c #7B818B",
"&	c #5A616A",
"*	c #626562",
"=	c #8BA5BD",
"-	c #5A6D83",
";	c #313431",
">	c #B4B6B4",
",	c #737D83",
"'	c #8399B4",
")	c #52657B",
"!	c #313031",
"~	c #ACAEAC",
"{	c #ACAAAC",
"]	c #393839",
"^	c #181818",
"/	c #5A595A",
"(	c #6A696A",
"_	c #62717B",
":	c #626D7B",
"<	c #8B99AC",
"[	c #7B95B4",
"}	c #7389A4",
"|	c #6A7583",
"1	c #8BA1BD",
"2	c #7391AC",
"3	c #7B91AC",
"4	c #627183",
"5	c #737573",
"6	c #4A5562",
"7	c #5A6983",
"8	c #6A819C",
"9	c #627D9C",
"0	c #4A5D6A",
"a	c #BDBEBD",
"b	c #626162",
"c	c #5A6973",
"d	c #080C08",
"e	c #292C29",
"f	c #8B898B",
"g	c #B4BAB4",
"h	c #949594",
"i	c #A4A5A4",
"j	c #626973",
"k	c #414C5A",
"                          ",
"                          ",
"                          ",
"                          ",
"                          ",
"            .+@#          ",
"           .$%&*          ",
"           +%=-;>         ",
"           +,')!~         ",
"           +,')!{         ",
"       .+++],')^/(+@#     ",
"      .&_:::<[}|,,,&*     ",
"      +%1[[[[23''''4;>    ",
"      567)))829))))0]~    ",
"      ab;!!^c[)de!!]fg    ",
"        >~~/|')ehi{~g     ",
"           (,')!i         ",
"           +,')!{         ",
"           5j4k]~         ",
"           ab;]fg         ",
"             >~g          ",
"                          ",
"                          ",
"                          ",
"                          ",
"                          "};
