/* XPM */
static char * apply_xpm[] = {
"26 26 17 1",
" 	c None",
".	c #000000",
"+	c #B4C2A4",
"@	c #738D5A",
"#	c #839D73",
"$	c #62794A",
"%	c #94AA83",
"&	c #526D41",
"*	c #A4BE9C",
"=	c #7B9573",
"-	c #8BAE83",
";	c #5A754A",
">	c #6A8562",
",	c #6A8952",
"'	c #6A8152",
")	c #628152",
"!	c #4A6139",
"                          ",
"                          ",
"                          ",
"                          ",
"                          ",
"                          ",
"                ..        ",
"               .+@.       ",
"               .#$.       ",
"              .%@.        ",
"        ..    .#&.        ",
"       .*=.  .#@.         ",
"       .--.. .@&.         ",
"        .-=..;@.          ",
"        .-->.,&.          ",
"         .--').           ",
"          .-,!.           ",
"          .--.            ",
"           .>.            ",
"            .             ",
"                          ",
"                          ",
"                          ",
"                          ",
"                          ",
"                          "};
