/* XPM */
static char * copy_xpm[] = {
"26 26 30 1",
" 	c None",
".	c #000000",
"+	c #D5D2BD",
"@	c #949183",
"#	c #202420",
"$	c #ACAEAC",
"%	c #B4B6A4",
"&	c #D5D6BD",
"*	c #DEDAC5",
"=	c #EEEAE6",
"-	c #737173",
";	c #B4B2AC",
">	c #D5D6C5",
",	c #ACAE9C",
"'	c #DEDEDE",
")	c #414039",
"!	c #A4A594",
"~	c #DEDEC5",
"{	c #E6E2CD",
"]	c #626152",
"^	c #E6E6CD",
"/	c #BDBAA4",
"(	c #DEDECD",
"_	c #EEEAD5",
":	c #EEEED5",
"<	c #A4A194",
"[	c #F6F2D5",
"}	c #F6F2DE",
"|	c #F6F6DE",
"1	c #9C9D8B",
"                          ",
"                          ",
"                          ",
"                          ",
"                          ",
"                          ",
"         ..               ",
"       ..+@.              ",
"     .#$%&*.    ..        ",
"     .=-;>*,. ..+@.       ",
"     .')!*~{.#$%&*.       ",
"     .]!*~{^.=-;>*,.      ",
"     ./*~{{^.')!*~{.      ",
"     .@*({^_.]!*~{^%.     ",
"      .~{^_:./*~{{^_<.    ",
"      .,^_:[.@*({^_:}.    ",
"       .^_<...~{^_:}|!.   ",
"       .1..  .,^_:[!..    ",
"        .     .^_<..      ",
"           .  .1..        ",
"        .....  .          ",
"        .....             ",
"           .              ",
"                          ",
"                          ",
"                          "};
