/* XPM */
static char * exec_xpm[] = {
"26 26 25 1",
" 	c None",
".	c #000000",
"+	c #B4AA7B",
"@	c #B4AE83",
"#	c #7B7152",
"$	c #B4A57B",
"%	c #BDB283",
"&	c #ACA57B",
"*	c #BDB683",
"=	c #837D5A",
"-	c #7B7552",
";	c #C5B683",
">	c #C5B68B",
",	c #C5BA8B",
"'	c #C5BE8B",
")	c #CDBE8B",
"!	c #CDC294",
"~	c #D5C694",
"{	c #D5CA94",
"]	c #CDC694",
"^	c #CDC28B",
"/	c #D5CE94",
"(	c #D5CE9C",
"_	c #8B8162",
":	c #83795A",
"                          ",
"                          ",
"                          ",
"                          ",
"       ....               ",
"      .+.@#.              ",
"     .$@%%@&.             ",
"     ..@*=$..             ",
"     .&@-;*@.  ...        ",
"     ..+%*>.. .&&+. .     ",
"      .#.%#.%..%%%..@.    ",
"       . ..*,''')))'>%.   ",
"           .)!~~{{~]).    ",
"          .,^~{/((/{]..   ",
"         .%,^~/,_'({~);.  ",
"         .%,^~{:%=({]'*.  ",
"         .%,^~{~-^{{!,%.  ",
"          ..)]{{]~{])..   ",
"           .'^]]~]!),.    ",
"          .*,')^)',>%+.   ",
"           .*..,,*..+.    ",
"            . .%%@. .     ",
"               ...        ",
"                          ",
"                          ",
"                          "};
