/* XPM */
static char * folder_xpm[] = {
"26 26 119 2",
"  	c None",
". 	c #000000",
"+ 	c #B7C5E5",
"@ 	c #B0BEDD",
"# 	c #97A3C0",
"$ 	c #97A3C1",
"% 	c #96A3C1",
"& 	c #96A3C0",
"* 	c #727D97",
"= 	c #C9D4EC",
"- 	c #B3C0E0",
"; 	c #B2BFDF",
"> 	c #B1BEDE",
", 	c #B1BEDD",
"' 	c #C9D3EB",
") 	c #B0BDDD",
"! 	c #B0BDDC",
"~ 	c #AFBCDC",
"{ 	c #AFBCDB",
"] 	c #AEBBDB",
"^ 	c #AEBBDA",
"/ 	c #ADBADA",
"( 	c #ADBAD9",
"_ 	c #ADB9D9",
": 	c #ACB9D8",
"< 	c #ACB8D8",
"[ 	c #ABB8D7",
"} 	c #AEBADA",
"| 	c #ACB9D9",
"1 	c #AAB7D6",
"2 	c #AAB6D5",
"3 	c #A9B6D5",
"4 	c #A9B5D4",
"5 	c #A8B5D4",
"6 	c #ABB7D7",
"7 	c #A8B4D3",
"8 	c #A7B4D3",
"9 	c #A7B3D2",
"0 	c #A6B3D1",
"a 	c #A5B2D1",
"b 	c #A5B2D0",
"c 	c #A4B1D0",
"d 	c #A9B5D5",
"e 	c #A6B3D2",
"f 	c #A6B2D1",
"g 	c #A5B1D0",
"h 	c #A4B1CF",
"i 	c #A3B0CF",
"j 	c #A3AFCE",
"k 	c #A2AFCD",
"l 	c #A2AECD",
"m 	c #A1AECC",
"n 	c #A1ADCC",
"o 	c #A4B0CF",
"p 	c #A3B0CE",
"q 	c #A0ADCB",
"r 	c #A0ACCB",
"s 	c #9FACCA",
"t 	c #9FABC9",
"u 	c #9EABC9",
"v 	c #9EAAC8",
"w 	c #9DA9C7",
"x 	c #A1ADCB",
"y 	c #A0ACCA",
"z 	c #9DAAC8",
"A 	c #9CA9C7",
"B 	c #9CA8C6",
"C 	c #9BA7C5",
"D 	c #9AA6C4",
"E 	c #9AA6C3",
"F 	c #9EAAC9",
"G 	c #9BA8C5",
"H 	c #9AA7C4",
"I 	c #99A5C3",
"J 	c #98A5C2",
"K 	c #98A4C2",
"L 	c #97A4C1",
"M 	c #96A2BF",
"N 	c #98A4C1",
"O 	c #96A2C0",
"P 	c #95A2BF",
"Q 	c #95A1BE",
"R 	c #94A0BD",
"S 	c #939FBC",
"T 	c #95A1BF",
"U 	c #929EBB",
"V 	c #919DBA",
"W 	c #909CB9",
"X 	c #909CB8",
"Y 	c #8F9BB8",
"Z 	c #94A0BE",
"` 	c #939FBD",
" .	c #909BB8",
"..	c #8F9BB7",
"+.	c #8E9AB7",
"@.	c #8E9AB6",
"#.	c #8D99B6",
"$.	c #8D99B5",
"%.	c #8C98B4",
"&.	c #929EBA",
"*.	c #919DB9",
"=.	c #8F9AB7",
"-.	c #8E99B6",
";.	c #8D98B5",
">.	c #8B97B4",
",.	c #8B96B3",
"'.	c #8A96B2",
").	c #8A95B2",
"!.	c #8995B1",
"~.	c #8994B0",
"{.	c #8894B0",
"].	c #8B97B3",
"^.	c #8893AF",
"/.	c #8793AF",
"(.	c #8792AE",
"_.	c #8692AE",
":.	c #8591AD",
"<.	c #8590AC",
"[.	c #8490AC",
"                                                    ",
"                                                    ",
"                                                    ",
"        . . . . . . .                               ",
"      . + + + + + + + .                             ",
"    . @ @ @ @ @ @ @ @ @ .                           ",
"  . # $ % # # $ # & $ # # . . . . . . . . . . .     ",
"  . * * * * * * * * * * . = = = = = = = = = = = .   ",
"  . * . . . . . . . . . = - - - - - - - - - - - .   ",
"  . . = = = = = = = = = - - - - - ; ; ; ; > > , .   ",
"  . ' - - - - - - - ; ; ; ; > > , ) ) ! ~ { { ] .   ",
"  . - - ; ; ; > > > ) ) ) ~ ~ { ] ^ / ( _ : < [ .   ",
"  . > , ) ) ! ~ { ] ^ } ( _ | : [ [ 1 1 2 3 4 5 .   ",
"  . { ] } / ( | : < [ 6 1 2 3 4 5 7 8 9 0 a b c .   ",
"  . < [ [ 1 1 3 d 5 7 8 9 e f a g h i j k l m n .   ",
"  . 4 5 7 8 9 0 a g h o p j k l n q r s t u v w .   ",
"  . b c o i j k l m x q y t u v z w A B C C D E .   ",
"  . m n q y s t F v w A B G C H E I J K L $ & M .   ",
"  . v w w B B C H D I I K N $ # O P Q Q R R S S .   ",
"  . D E I J N $ # O M T Q R R S S U U V V W X Y .   ",
"  . & M P Q Z R ` S U U V V W W  ...+.@.#.$.%.%..   ",
"  . S S U &.V *.W  .Y =.@.-.$.;.%.>.,.'.).!.~.{..   ",
"  . X Y ..+.@.#.;.%.>.].'.'.!.~.{.^./.(._.:.<.[..   ",
"  . . . . . . . . . . . . . . . . . . . . . . . .   ",
"                                                    ",
"                                                    "};
