/* XPM */
static char * help_xpm[] = {
"26 26 20 1",
" 	c None",
".	c #000000",
"+	c #A4BEA4",
"@	c #F6F6EE",
"#	c #EEF2EE",
"$	c #E6EAE6",
"%	c #CDDACD",
"&	c #F6F6F6",
"*	c #D5DED5",
"=	c #C5D6C5",
"-	c #ACC2AC",
";	c #BDCEBD",
">	c #292829",
",	c #E6EEE6",
"'	c #202C18",
")	c #62895A",
"!	c #8BAE83",
"~	c #94B694",
"{	c #BDCEB4",
"]	c #8BAE8B",
"                          ",
"                          ",
"                          ",
"                          ",
"                          ",
"          .....           ",
"         .+@#$%.          ",
"        .%&@$$$*.         ",
"       .=@-...;$->        ",
"        .,'   .$$.        ",
"        %.    .$-.        ",
"             .$$).        ",
"            .$$!.         ",
"           .$$!.          ",
"          .~$!.           ",
"          .$~.            ",
"          ....            ",
"                          ",
"           ..             ",
"          .${.            ",
"          .{].            ",
"           ..             ",
"                          ",
"                          ",
"                          ",
"                          "};
