/* XPM */
static char * import_xpm[] = {
"26 26 27 1",
" 	c None",
".	c #000000",
"+	c #D57D73",
"@	c #314429",
"#	c #CD918B",
"$	c #D5897B",
"%	c #621029",
"&	c #C57573",
"*	c #D5958B",
"=	c #415531",
"-	c #CD8983",
";	c #D59D8B",
">	c #526541",
",	c #CD817B",
"'	c #4A6139",
")	c #526941",
"!	c #5A7141",
"~	c #52794A",
"{	c #4A6941",
"]	c #73996A",
"^	c #9CB694",
"/	c #628D5A",
"(	c #DEE2D5",
"_	c #62855A",
":	c #A4BEA4",
"<	c #8BAA83",
"[	c #415D39",
"                          ",
"                          ",
"                          ",
"                          ",
"                          ",
"       .      ....        ",
"      .+.    ...@..       ",
"     .#$%.  .   .@.       ",
"    .&#*%%.      .=.      ",
"   .&-#;%%%.     .>.      ",
"  .&,-#;%%%%.  ..>>'..    ",
"  .&,-#*%%%.    .)!).     ",
"   ..&,$%%.      .>.      ",
"     ..+%.        .       ",
"       ..                 ",
"                 ...      ",
"               ..~~{..    ",
"               .]^^]/.    ",
"              .~^(^]/{.   ",
"              ._:^<//{.   ",
"              .~]]//~[.   ",
"               .~//~{.    ",
"               ..[{[..    ",
"                 ...      ",
"                          ",
"                          "};
