/* XPM */
static char * jump_xpm[] = {
"26 26 38 1",
" 	c None",
".	c #202020",
"+	c #EED6CD",
"@	c #E6C6BD",
"#	c #DEB6A4",
"$	c #EEDED5",
"%	c #FFF6F6",
"&	c #F6E6E6",
"*	c #D5AE9C",
"=	c #000000",
"-	c #8B9D7B",
";	c #CDDAC5",
">	c #DEE6D5",
",	c #DEE2D5",
"'	c #9CAE8B",
")	c #B49183",
"!	c #737D62",
"~	c #B4C6A4",
"{	c #ACC29C",
"]	c #626D52",
"^	c #AC897B",
"/	c #E6EADE",
"(	c #62715A",
"_	c #C59D8B",
":	c #C5D2B4",
"<	c #838D73",
"[	c #4A5541",
"}	c #5A614A",
"|	c #E6EAE6",
"1	c #D5DECD",
"2	c #CDD6BD",
"3	c #94A17B",
"4	c #5A6952",
"5	c #525D4A",
"6	c #EEEEE6",
"7	c #ACBE94",
"8	c #7B896A",
"9	c #B4C2AC",
"                          ",
"                          ",
"                          ",
"                          ",
"                          ",
"                          ",
"                          ",
"              ...         ",
"            ..+@#..       ",
"            .$%&@*.       ",
"        =======+#**.      ",
"        =-;>,'=###).      ",
"         =!~{]=##*^.      ",
"       ==/;{(]=#*_.       ",
"     ==/;:{<[}=))..       ",
"    =|12{{34=5=..         ",
"     =6{{{]= ==           ",
"      =>78[=              ",
"       =9]=               ",
"        =4=               ",
"         =                ",
"                          ",
"                          ",
"                          ",
"                          ",
"                          "};
