/* XPM */
static char * last_xpm[] = {
"26 26 35 1",
" 	c None",
".	c #000000",
"+	c #E6EADE",
"@	c #FFFFFF",
"#	c #F6F6EE",
"$	c #D5E2D5",
"%	c #F6F6F6",
"&	c #EEF2EE",
"*	c #CDDECD",
"=	c #CDDAC5",
"-	c #E6EEE6",
";	c #181818",
">	c #E6EAE6",
",	c #DEE6DE",
"'	c #B4C6AC",
")	c #9CBA94",
"!	c #8BAE83",
"~	c #83AA7B",
"{	c #7BA573",
"]	c #83A57B",
"^	c #73996A",
"/	c #5A814A",
"(	c #395931",
"_	c #9CBA8B",
":	c #83AE7B",
"<	c #739D6A",
"[	c #527D4A",
"}	c #415941",
"|	c #83A573",
"1	c #4A7141",
"2	c #94B283",
"3	c #395D31",
"4	c #5A8552",
"5	c #315929",
"6	c #396531",
"                          ",
"                          ",
"                          ",
"                          ",
"                          ",
"                          ",
"     ..           ....    ",
"     .+..         .++.    ",
"     .@#$..       .@@.    ",
"     .@%&#*..     .@@.    ",
"     .@%%&&%=..   .@@.    ",
"     .@&&&&&-#=;. .@@.    ",
"     .@&&&&>,$,&'..@@.    ",
"     .)!~!~~{]^/(..)).    ",
"     ._~:~]~<[}.. .__.    ",
"     ._:|~^[1..   .__.    ",
"     .2|^[3..     .22.    ",
"     .~45..       .~~.    ",
"     .6..         .66.    ",
"     ..           ....    ",
"                          ",
"                          ",
"                          ",
"                          ",
"                          ",
"                          "};
