/* XPM */
static char * missing_xpm[] = {
"26 26 94 2",
"  	c None",
". 	c #BDBEBD",
"+ 	c #B4B6B4",
"@ 	c #ACB2AC",
"# 	c #525052",
"$ 	c #4A484A",
"% 	c #4A4C4A",
"& 	c #525552",
"* 	c #8B898B",
"= 	c #949194",
"- 	c #6A6D6A",
"; 	c #F6F2F6",
"> 	c #FFFFFF",
", 	c #EEEEEE",
"' 	c #B4B2B4",
") 	c #838583",
"! 	c #737173",
"~ 	c #7B797B",
"{ 	c #DEDADE",
"] 	c #E6E6E6",
"^ 	c #DEDEDE",
"/ 	c #CDCECD",
"( 	c #E6E2E6",
"_ 	c #7B7D7B",
": 	c #5A5D5A",
"< 	c #D5D6D5",
"[ 	c #F6F6F6",
"} 	c #CDCACD",
"| 	c #626162",
"1 	c #FFFAFF",
"2 	c #BDBABD",
"3 	c #838183",
"4 	c #FFFAF6",
"5 	c #FFF6F6",
"6 	c #414441",
"7 	c #393C39",
"8 	c #313031",
"9 	c #202020",
"0 	c #9C9D9C",
"a 	c #EEEAEE",
"b 	c #DEDAD5",
"c 	c #CDCAC5",
"d 	c #393831",
"e 	c #EEBEB4",
"f 	c #E6816A",
"g 	c #F6DED5",
"h 	c #F6E6E6",
"i 	c #EEB2A4",
"j 	c #ACAAA4",
"k 	c #4A4441",
"l 	c #F6E2DE",
"m 	c #E6755A",
"n 	c #E65D41",
"o 	c #E66141",
"p 	c #E66D52",
"q 	c #EEDAD5",
"r 	c #BDB6B4",
"s 	c #4A4841",
"t 	c #737973",
"u 	c #F6EEEE",
"v 	c #EEDED5",
"w 	c #E65031",
"x 	c #EEEAE6",
"y 	c #CDC6C5",
"z 	c #4A4C41",
"A 	c #EED6CD",
"B 	c #E6715A",
"C 	c #E6654A",
"D 	c #E6CEC5",
"E 	c #E6E2DE",
"F 	c #52504A",
"G 	c #D5D2CD",
"H 	c #EEC2B4",
"I 	c #E6917B",
"J 	c #EEDEDE",
"K 	c #E6BAAC",
"L 	c #E6DEDE",
"M 	c #EEE6E6",
"N 	c #C5C2BD",
"O 	c #737573",
"P 	c #524C4A",
"Q 	c #BDBEB4",
"R 	c #C5BEB4",
"S 	c #BDBAB4",
"T 	c #BDB6AC",
"U 	c #A4A19C",
"V 	c #414039",
"W 	c #ACAEAC",
"X 	c #414841",
"Y 	c #393431",
"Z 	c #313029",
"` 	c #949594",
" .	c #9C999C",
"..	c #A4A5A4",
"                                                    ",
"                                                    ",
"                                                    ",
"          . + + + + + + + + + .                     ",
"        @ # $ # # # # # # # % & *                   ",
"        = - ; > > > > > > > , ' ) !                 ",
"        = ~ > { ] ] ] ] ] ] ^ / ( _ :               ",
"        = ~ > < [ [ [ [ [ [ ^ } [ { - |             ",
"        = ~ > ( 1 > 1 1 1 1 ^ 2 ^ { ' ! 3           ",
"        = ~ > ^ 1 1 4 5 4 [ ( 3 6 7 8 9 8 0         ",
"        = ~ > ^ [ 5 [ [ [ [ ; a b c 2 ) d _         ",
"        = ~ 1 { [ [ e f g h f i ] ( ] j k ~         ",
"        = ~ 1 b ; ; l m n o p q a ] , r s t         ",
"        = ~ 5 < u , u v o w q x ] ( , y z t         ",
"        = ~ [ < , , A p p B C D ] E , c F t         ",
"        = ~ [ G a , H I q J I K E L a c F t         ",
"        = ~ ; / M x x M M ] ] E E ^ x y F t         ",
"        = ~ u } ( ] ] ] ] ] E E ^ b x N F t         ",
"        = O a c E ( E E E E E L ^ b x N P t         ",
"        = - E b ] ] ] ] ] ] ] ] ( E ] N P t         ",
"        = & Q R R R R R R R R S S S T U V t         ",
"        W X d d d d d d d d d d d Y Y Z Y `         ",
"          +  .` ` ` ` ` ` ` ` ` ` ` ` ` ..          ",
"                                                    ",
"                                                    ",
"                                                    "};
