/* XPM */
static char * new_xpm[] = {
"26 26 41 1",
" 	c None",
".	c #000000",
"+	c #ACAE9C",
"@	c #949583",
"#	c #DEDEC5",
"$	c #DEDECD",
"%	c #202420",
"&	c #A4A594",
"*	c #D5D6C5",
"=	c #DEDAC5",
"-	c #E6E2CD",
";	c #D5D6BD",
">	c #B4B29C",
",	c #7B7D7B",
"'	c #626562",
")	c #E6E6CD",
"!	c #EEEAD5",
"~	c #313431",
"{	c #E6E6E6",
"]	c #BDBAA4",
"^	c #D5D2BD",
"/	c #EEEED5",
"(	c #EEEEEE",
"_	c #393C31",
":	c #CDCEB4",
"<	c #F6F2DE",
"[	c #EEEEE6",
"}	c #393C39",
"|	c #8B8D83",
"1	c #525052",
"2	c #949183",
"3	c #F6F6DE",
"4	c #F6F2D5",
"5	c #BDBEAC",
"6	c #7B7973",
"7	c #9C998B",
"8	c #838173",
"9	c #4A4C4A",
"0	c #BDBAAC",
"a	c #CDCEBD",
"b	c #4A4C41",
"                          ",
"                          ",
"                          ",
"              .           ",
"            ..+.          ",
"          ..@#$%          ",
"        ..&*=##-.         ",
"      ..&;**==#->.        ",
"     .,';;;*=#-)!~        ",
"     .{~]^*=#-)!//.       ",
"     .((_:;=-)!!/<&.      ",
"     .[[}|^-)!//<<<.      ",
"     .[12^#-)!/<<<33.     ",
"     ..@^=--!/4<33335.    ",
"     .6==#-)!/<<33333=.   ",
"     .7=#$))!/<<333338.   ",
"      .#--)!//<33333..    ",
"      .5))!!/4<333=.      ",
"       9!!!//<<3<8.       ",
"       .!///<<<=.         ",
"        ./4<<!&.          ",
"        .0<<ab.           ",
"         .<&.             ",
"          ..              ",
"                          ",
"                          "};
