/* XPM */
static char * question_xpm[] = {
"26 26 143 2",
"  	c None",
". 	c #BDB2AC",
"+ 	c #AC9994",
"@ 	c #9C7D73",
"# 	c #94716A",
"$ 	c #947162",
"% 	c #946D62",
"& 	c #946962",
"* 	c #9C857B",
"= 	c #ACA19C",
"- 	c #AC9594",
"; 	c #94655A",
"> 	c #9C655A",
", 	c #A46152",
"' 	c #945041",
") 	c #9C5541",
"! 	c #A45541",
"~ 	c #A44C39",
"{ 	c #944839",
"] 	c #834839",
"^ 	c #8B6D62",
"/ 	c #BDBABD",
"( 	c #94756A",
"_ 	c #A45D52",
": 	c #946152",
"< 	c #A48983",
"[ 	c #C5B2AC",
"} 	c #DED2CD",
"| 	c #E6DEDE",
"1 	c #E6E2E6",
"2 	c #E6D2CD",
"3 	c #D5B6AC",
"4 	c #C5897B",
"5 	c #B46152",
"6 	c #9C4C39",
"7 	c #7B4439",
"8 	c #B4B2AC",
"9 	c #B4AAA4",
"0 	c #9C594A",
"a 	c #8B5541",
"b 	c #B4A5A4",
"c 	c #EEEAEE",
"d 	c #F6F6F6",
"e 	c #FFFAFF",
"f 	c #F6F2F6",
"g 	c #EEEEEE",
"h 	c #E6DADE",
"i 	c #C59183",
"j 	c #836962",
"k 	c #A4918B",
"l 	c #CDCACD",
"m 	c #414041",
"n 	c #313031",
"o 	c #313431",
"p 	c #B4B6B4",
"q 	c #E6D6D5",
"r 	c #AC594A",
"s 	c #7B554A",
"t 	c #AC958B",
"u 	c #BDA5A4",
"v 	c #5A595A",
"w 	c #5A5D5A",
"x 	c #737173",
"y 	c #393C39",
"z 	c #DEDADE",
"A 	c #E6E6E6",
"B 	c #AC5D4A",
"C 	c #835D52",
"D 	c #945541",
"E 	c #A4817B",
"F 	c #6A696A",
"G 	c #8B898B",
"H 	c #836562",
"I 	c #BDBAB4",
"J 	c #945D4A",
"K 	c #CDCECD",
"L 	c #6A6D6A",
"M 	c #9C8D8B",
"N 	c #8B615A",
"O 	c #9C5039",
"P 	c #BDAAAC",
"Q 	c #626162",
"R 	c #C5C2C5",
"S 	c #DEDEDE",
"T 	c #DED2D5",
"U 	c #B46552",
"V 	c #7B4031",
"W 	c #BDB6B4",
"X 	c #9C8583",
"Y 	c #9C5941",
"Z 	c #9C6D62",
"` 	c #CD9D94",
" .	c #A45039",
"..	c #6A554A",
"+.	c #BDBEBD",
"@.	c #83594A",
"#.	c #9C5041",
"$.	c #ACAEAC",
"%.	c #D5D6D5",
"&.	c #B4695A",
"*.	c #7B3C31",
"=.	c #7B7573",
"-.	c #9C8983",
";.	c #945D52",
">.	c #C5C6C5",
",.	c #525052",
"'.	c #737573",
").	c #D5D2D5",
"!.	c #DED6D5",
"~.	c #5A4039",
"{.	c #838183",
"].	c #A45041",
"^.	c #9C756A",
"/.	c #CDA19C",
"(.	c #AC5941",
"_.	c #623829",
":.	c #838983",
"<.	c #B4AEAC",
"[.	c #835041",
"}.	c #9C817B",
"|.	c #CDAEAC",
"1.	c #7B3C29",
"2.	c #4A4441",
"3.	c #9C9D9C",
"4.	c #ACA1A4",
"5.	c #834C41",
"6.	c #D5CECD",
"7.	c #D5C6C5",
"8.	c #BD8D83",
"9.	c #4A4039",
"0.	c #9C999C",
"a.	c #ACA5A4",
"b.	c #AC5541",
"c.	c #5A5052",
"d.	c #A4A5A4",
"e.	c #8B716A",
"f.	c #7B4839",
"g.	c #8B4839",
"h.	c #7B4431",
"i.	c #73554A",
"j.	c #837D7B",
"k.	c #A4A1A4",
"l.	c #BDC2BD",
"                                                    ",
"                                                    ",
"                                                    ",
"                                                    ",
"                . + @ # $ % & & % * =               ",
"            - ; > , ' ' ) ) ! ! ! ~ { ] ^ /         ",
"          ( _ ) : < [ } | 1 1 | 2 3 4 5 6 7 8       ",
"        9 0 a b c d d d e d d f f f g h i 6 j       ",
"        k 0 < f f f f l m n o p g g g c q r s       ",
"        t ) u f f g f v w l x y z c c A } B C       ",
"        + D E g g g g x F c G o l A A A 3 ! H       ",
"        I D J z c c A z z K o L z 1 1 1 4 6 M       ",
"          N O P A A A A 1 Q m R S S S T U V W       ",
"          X Y Z K 1 1 1 K o L S z z S `  ...+.      ",
"            @.#.+ S S S S $.$.z z %.} &.*.=.$.      ",
"            -.Y ;.>.z z z ,.'.).%.!.4 6 ~.{.$.      ",
"              C ].^.K %.).Q L K %./.(._.v :.p       ",
"              <.[.! }.l K >.>.%.|.B 1.2.x 3.R       ",
"                4.5. .Z . 6.7.8.B V 9.'.0./         ",
"                  a.5.6 b.&.B  .*.c.{.d.R           ",
"                    +.e.f.g.h.i.j.k./               ",
"                        l.p p +.                    ",
"                                                    ",
"                                                    ",
"                                                    ",
"                                                    "};
