/* XPM */
static char * redo_xpm[] = {
"26 26 8 1",
" 	c None",
".	c #000000",
"+	c #4A6139",
"@	c #526941",
"#	c #415531",
"$	c #526541",
"%	c #5A7141",
"&	c #314429",
"                          ",
"                          ",
"                          ",
"                          ",
"                          ",
"                          ",
"                          ",
"               .          ",
"               ..         ",
"            ...+@.        ",
"          ..#+$$%$.       ",
"         .##...$@.        ",
"         .&.   ..         ",
"        .&.    .          ",
"        ..                ",
"        ..                ",
"         .                ",
"          .               ",
"                          ",
"                          ",
"                          ",
"                          ",
"                          ",
"                          ",
"                          ",
"                          "};
