/* XPM */
static char * saveas_xpm[] = {
"26 26 57 1",
" 	c None",
".	c #000000",
"+	c #DEBE6A",
"@	c #8B7D41",
"#	c #629DAC",
"$	c #293C41",
"%	c #C5DADE",
"&	c #ACC6CD",
"*	c #EEEEEE",
"=	c #FFFAFF",
"-	c #F6F2F6",
";	c #7BAAB4",
">	c #B4CAD5",
",	c #202C31",
"'	c #8BB6BD",
")	c #D5E2E6",
"!	c #9C918B",
"~	c #EEEEF6",
"{	c #627D83",
"]	c #EEF2F6",
"^	c #E6EEEE",
"/	c #C5B273",
"(	c #736120",
"_	c #E6E2DE",
":	c #41656A",
"<	c #000400",
"[	c #31555A",
"}	c #9CC2C5",
"|	c #29404A",
"1	c #293839",
"2	c #395D62",
"3	c #A4AEAC",
"4	c #EEEAEE",
"5	c #41484A",
"6	c #CDD2D5",
"7	c #E6E6E6",
"8	c #ACB6BD",
"9	c #29444A",
"0	c #182829",
"a	c #5A8594",
"b	c #C5CACD",
"c	c #F6F6F6",
"d	c #395052",
"e	c #D5DEE6",
"f	c #E6E2E6",
"g	c #DEDEDE",
"h	c #838D8B",
"i	c #6AA5AC",
"j	c #DEE2E6",
"k	c #BDBABD",
"l	c #4A5D62",
"m	c #D5DEDE",
"n	c #A4B6B4",
"o	c #DEDADE",
"p	c #7B898B",
"q	c #292829",
"r	c #839594",
"                          ",
"                          ",
"                          ",
"                    .     ",
"                   .+.    ",
"              ..  .+@.    ",
"            ..#$..+@.     ",
"          ..%&*#.+@.      ",
"        ..%&%=-.+@.       ",
"      ..%&%===.+@.        ",
"    ..;>%====.+@.,.       ",
"   .'>)==!==.+@.~#.       ",
"   .{']=!==.+@.=]#$.      ",
"    .&^=!=/(.._^###.      ",
"    .:;]=!<.-^##[[#$.     ",
"     .}^=!-^##|12#[#.     ",
"     .:;]^##|3*45#[#$.    ",
"      .'##[6--4789#|0.    ",
"      .a;#bcde4fgh#,..    ",
"       .'#[-0ij7kl..      ",
"       .2##m*nopq.        ",
"        .9#[fr..          ",
"         .....            ",
"                          ",
"                          ",
"                          "};
