/* XPM */
static char * stop_xpm[] = {
"26 26 59 1",
" 	c None",
".	c #000000",
"+	c #D5D6D5",
"@	c #FFFFFF",
"#	c #B4B2B4",
"$	c #EEEAEE",
"%	c #B4B6B4",
"&	c #A4A19C",
"*	c #9CA19C",
"=	c #ACAEA4",
"-	c #C5C6C5",
";	c #F6F6F6",
">	c #D5D2CD",
",	c #949994",
"'	c #ACAAA4",
")	c #B4B2AC",
"!	c #B4BAB4",
"~	c #BDBEB4",
"{	c #101008",
"]	c #EEEEEE",
"^	c #9C9994",
"/	c #BDC2BD",
"(	c #C5C6BD",
"_	c #C5C2BD",
":	c #D5D2D5",
"<	c #DEDEDE",
"[	c #9C9D94",
"}	c #CDCEC5",
"|	c #949194",
"1	c #9C9D9C",
"2	c #B4B6AC",
"3	c #CDD2CD",
"4	c #A4AAA4",
"5	c #CDCAC5",
"6	c #D5D6CD",
"7	c #A4A59C",
"8	c #BDBAB4",
"9	c #94958B",
"0	c #D5DAD5",
"a	c #DEDED5",
"b	c #E6E6E6",
"c	c #F6F2F6",
"d	c #C5CAC5",
"e	c #4A4C4A",
"f	c #BDBABD",
"g	c #DEDAD5",
"h	c #DEDADE",
"i	c #100808",
"j	c #9C3C41",
"k	c #B4444A",
"l	c #BD555A",
"m	c #832C31",
"n	c #7B797B",
"o	c #943439",
"p	c #BD5962",
"q	c #BD5562",
"r	c #A43C41",
"s	c #C5616A",
"t	c #AC3C4A",
"                          ",
"                          ",
"                          ",
"         .....            ",
"       ..+@@+#..          ",
"      .+@@@@@@+#.         ",
"     .+@$%&*=-;++.        ",
"    .#@>,*'=)!~{+#.       ",
"    .+]^&)~/(_..:+.       ",
"   .#<%[..(}}..(<+|.      ",
"   .+@1&2..3..>}>+|.      ",
"   .<@^4~5...+666+|.      ",
"   .+@7'859.^000a+|.      ",
"   .#</'2(})0000b+|.      ",
"    .+c=)~d36660:+.       ",
"    .#<b2!~(5}>++e.   ..  ",
"     .f<;3__5gh+#ij. .k.  ",
"      .f<<@@<+#|..k..lm.  ",
"       ..#ff#n..  .klo.   ",
"         .....    .kk.    ",
"                 .pkk.    ",
"                .qo..r.   ",
"               .so. .t.   ",
"               ...   ..   ",
"                          ",
"                          "};
