/* XPM */
static char * top_xpm[] = {
"26 26 42 1",
" 	c None",
".	c #000000",
"+	c #D5D6D5",
"@	c #DEDEDE",
"#	c #DEDAD5",
"$	c #94B28B",
"%	c #94B283",
"&	c #83A173",
"*	c #739162",
"=	c #000400",
"-	c #CDD2CD",
";	c #83A573",
">	c #7B9D6A",
",	c #101010",
"'	c #080C08",
")	c #839D73",
"!	c #8BA583",
"~	c #E6E2E6",
"{	c #E6E6E6",
"]	c #83A17B",
"^	c #6A855A",
"/	c #EEEAEE",
"(	c #83A57B",
"_	c #7B956A",
":	c #F6EEF6",
"<	c #8BAE83",
"[	c #7B9D73",
"}	c #62855A",
"|	c #EEE6EE",
"1	c #F6EEEE",
"2	c #8BAE7B",
"3	c #F6F2F6",
"4	c #8BAA7B",
"5	c #83AA73",
"6	c #8BA57B",
"7	c #EEEEEE",
"8	c #6A895A",
"9	c #BDBEB4",
"0	c #BDC2BD",
"a	c #C5C2BD",
"b	c #739562",
"c	c #627D52",
"                          ",
"                          ",
"                          ",
"                          ",
"      ..............      ",
"      .+@@@@#$$%%&*.      ",
"      =-+++++;;;;>*.      ",
"      .,............      ",
"            ..            ",
"           '#)=           ",
"           ,@!.           ",
"          .~{]^.          ",
"          .//(_.          ",
"         .~/:<[}.         ",
"         .|1:2&_.         ",
"        .~/:324)^.        ",
"        .|:33256*.        ",
"       .~/33322<[^.       ",
"       .#/77{224)8.       ",
"      .990a00**b*^c.      ",
"      ..............      ",
"                          ",
"                          ",
"                          ",
"                          ",
"                          "};
