/* XPM */
static char * trash_xpm[] = {
"26 26 55 1",
" 	c None",
".	c #000000",
"+	c #202420",
"@	c #ACBA9C",
"#	c #B4C2AC",
"$	c #E6E6DE",
"%	c #83897B",
"&	c #949D83",
"*	c #4A4C41",
"=	c #A4AE94",
"-	c #9CAA94",
";	c #B4C6AC",
">	c #BDCEB4",
",	c #A4B69C",
"'	c #BDCAB4",
")	c #626D5A",
"!	c #292C29",
"~	c #313831",
"{	c #9CAA8B",
"]	c #9CA58B",
"^	c #94A58B",
"/	c #D5DED5",
"(	c #A4B29C",
"_	c #A4B294",
":	c #94A18B",
"<	c #7B9573",
"[	c #CDD6CD",
"}	c #DEE2D5",
"|	c #BDC6B4",
"1	c #5A6952",
"2	c #627152",
"3	c #738D6A",
"4	c #94AA8B",
"5	c #8BA58B",
"6	c #6A856A",
"7	c #627962",
"8	c #5A6D5A",
"9	c #4A594A",
"0	c #4A5041",
"a	c #73896A",
"b	c #6A7962",
"c	c #526552",
"d	c #394439",
"e	c #6A7D62",
"f	c #62795A",
"g	c #9CAE94",
"h	c #525D4A",
"i	c #4A5D4A",
"j	c #6A816A",
"k	c #080808",
"l	c #6A8162",
"m	c #B4C6B4",
"n	c #83997B",
"o	c #62715A",
"p	c #7B8D73",
"                          ",
"                          ",
"                          ",
"                          ",
"                          ",
"        ........          ",
"      +.@#$%&*=-..        ",
"     .;>,')!~+-{]].       ",
"     .^/'(__=-{]]:.       ",
"     .<#[}|=-{]]<1.       ",
"     .23455<<67890.       ",
"      .+abb8c09d+.        ",
"      .e++++++++b.        ",
"      .e|fghai69b.        ",
"      .e|fghaij9b.kkk     ",
"      .e|fghail9b.kkkk    ",
"      .emfghail9b.kkkk    ",
"      .emfghail9b.kkkk    ",
"      .n(fgoa9l17.kkk     ",
"       .<<p3a6le.kk       ",
"        ........k         ",
"                          ",
"                          ",
"                          ",
"                          ",
"                          "};
