/* XPM */
static char * undelete_xpm[] = {
"26 26 74 1",
" 	c None",
".	c #000000",
"+	c #D5CABD",
"@	c #C5B29C",
"#	c #CDBEAC",
"$	c #BDAA9C",
"%	c #A49583",
"&	c #B4A594",
"*	c #ACA194",
"=	c #9C917B",
"-	c #293020",
";	c #83756A",
">	c #ACB6A4",
",	c #293429",
"'	c #313831",
")	c #6A655A",
"!	c #626962",
"~	c #394839",
"{	c #182018",
"]	c #524C4A",
"^	c #5A6952",
"/	c #A4AEA4",
"(	c #626562",
"_	c #202420",
":	c #414839",
"<	c #6A7962",
"[	c #C5CEBD",
"}	c #526552",
"|	c #ACBAA4",
"1	c #415041",
"2	c #839983",
"3	c #414C41",
"4	c #83957B",
"5	c #080808",
"6	c #83997B",
"7	c #ACBEAC",
"8	c #52614A",
"9	c #ACBA9C",
"0	c #B4C2AC",
"a	c #E6E6DE",
"b	c #83897B",
"c	c #949D83",
"d	c #4A4C41",
"e	c #A4AE94",
"f	c #9CAA94",
"g	c #7B9573",
"h	c #7B8D73",
"i	c #B4C6AC",
"j	c #BDCEB4",
"k	c #A4B69C",
"l	c #BDCAB4",
"m	c #626D5A",
"n	c #292C29",
"o	c #9CAA8B",
"p	c #9CA58B",
"q	c #94A58B",
"r	c #D5DED5",
"s	c #A4B29C",
"t	c #A4B294",
"u	c #94A18B",
"v	c #CDD6CD",
"w	c #DEE2D5",
"x	c #BDC6B4",
"y	c #627152",
"z	c #738D6A",
"A	c #94AA8B",
"B	c #8BA58B",
"C	c #6A856A",
"D	c #627962",
"E	c #5A6D5A",
"F	c #4A594A",
"G	c #4A5041",
"H	c #73896A",
"I	c #394439",
"                          ",
"                          ",
"           ..             ",
"          .++.            ",
"         .++++.           ",
"        .@#@#@#.          ",
"        ...$$...          ",
"          .%&.            ",
"         ..*=..           ",
"       ..-.;;.>..         ",
"      .,'-.)).>!~.        ",
"      ...{.]].>...        ",
"      .^/(...._:<.        ",
"      .^[}|1234:<.        ",
"      .^[}|1234:<.555     ",
"      .^[}|1234:<.5555    ",
"      .^[}|1234:<.5555    ",
"      .^[}|123........    ",
"      .67}|8_.90abcdef..  ",
"       .ggh.ijklmn'_fopp. ",
"        ....qrlsttefoppu. ",
"           .g0vwxefoppg^. ",
"           .yzABBggCDEFG. ",
"            ._H<<E}GFI_.  ",
"              ________    ",
"                          "};
