/* XPM */
static char * warning_xpm[] = {
"26 26 108 2",
"  	c None",
". 	c #7B7D7B",
"+ 	c #414041",
"@ 	c #393C39",
"# 	c #6A6D6A",
"$ 	c #BDBABD",
"% 	c #949994",
"& 	c #181C18",
"* 	c #000000",
"= 	c #000400",
"- 	c #080400",
"; 	c #101010",
"> 	c #838583",
", 	c #625029",
"' 	c #CDA552",
") 	c #D5AA4A",
"! 	c #6A5018",
"~ 	c #100C00",
"{ 	c #5A5D5A",
"] 	c #949194",
"^ 	c #080808",
"/ 	c #101008",
"( 	c #B49552",
"_ 	c #F6C252",
": 	c #FFBE39",
"< 	c #EEB639",
"[ 	c #AC8529",
"} 	c #201808",
"| 	c #737173",
"1 	c #BD9952",
"2 	c #FFBE41",
"3 	c #EEC26A",
"4 	c #DEB65A",
"5 	c #F6BA39",
"6 	c #B48529",
"7 	c #9C9D9C",
"8 	c #414441",
"9 	c #837141",
"0 	c #FFC241",
"a 	c #F6C25A",
"b 	c #312818",
"c 	c #080800",
"d 	c #F6B639",
"e 	c #836518",
"f 	c #202020",
"g 	c #393018",
"h 	c #EEBA52",
"i 	c #E6BE6A",
"j 	c #735518",
"k 	c #E6AE31",
"l 	c #4A3410",
"m 	c #737573",
"n 	c #AC8D41",
"o 	c #EEC262",
"p 	c #7B5918",
"q 	c #C59529",
"r 	c #181818",
"s 	c #B4B2B4",
"t 	c #292010",
"u 	c #F6C24A",
"v 	c #292008",
"w 	c #523C10",
"x 	c #838183",
"y 	c #836D39",
"z 	c #836529",
"A 	c #291C08",
"B 	c #E6AA31",
"C 	c #313431",
"D 	c #393839",
"E 	c #D5AA52",
"F 	c #EEBE52",
"G 	c #D5A541",
"H 	c #EEB231",
"I 	c #201C08",
"J 	c #C5C2C5",
"K 	c #EEBA4A",
"L 	c #4A3C20",
"M 	c #4A3810",
"N 	c #5A4410",
"O 	c #A4A5A4",
"P 	c #EEB641",
"Q 	c #181808",
"R 	c #181400",
"S 	c #D5A131",
"T 	c #8B8D8B",
"U 	c #947120",
"V 	c #DEA539",
"W 	c #CD9929",
"X 	c #B48929",
"Y 	c #949594",
"Z 	c #836118",
"` 	c #C59129",
" .	c #DEA531",
"..	c #CD9931",
"+.	c #9C7520",
"@.	c #202420",
"#.	c #A4AAA4",
"$.	c #292C29",
"%.	c #312408",
"&.	c #312808",
"*.	c #313031",
"=.	c #ACAEAC",
"-.	c #525552",
";.	c #080C08",
">.	c #626962",
",.	c #A4A1A4",
"'.	c #BDBEBD",
").	c #9CA19C",
"                                                    ",
"                                                    ",
"                                                    ",
"                                                    ",
"                      . + @ # $                     ",
"                  % & * = - * ; .                   ",
"                > = - , ' ) ! ~ * {                 ",
"              ] ^ / ( _ : : < [ } * |               ",
"            $ ; - 1 2 2 3 4 : 5 6 ~ = 7             ",
"            8 * 9 0 : a b c 6 : d e = f             ",
"          7 = g h : : i * * j 5 : k l * m           ",
"          @ * n : : : o * * p 5 : : q - r           ",
"        s ^ t u : : : _ v * 6 : : : d w * x         ",
"        # * y : : : : 2 z A B : : : : 6 * C         ",
"        D * E : : : : : F G 5 : : : : H I ^ J       ",
"        & I K : : : : _ L M k : : : : 5 N = O       ",
"        & t P : : : : K Q R S : : : : d ! * T       ",
"        C * U d : : : : V W 5 : : : < X A = Y       ",
"        T ^ * v Z `  .k < < k  ...+.w c * @.#.      ",
"          T $.* * * ~ } %.&.v R - * * ^ *.x =.      ",
"            $ T -.*.r ;.^ ^ ^ ; & $.8 >.> ,.'.      ",
"                $ =.).% ] ] T T T T Y 7 =.J         ",
"                                                    ",
"                                                    ",
"                                                    ",
"                                                    "};
