/* XPM */
static char * ext_sh_xpm[] = {
"24 24 156 2",
"  	c None",
". 	c #5A5D5A",
"+ 	c #838583",
"@ 	c #8B898B",
"# 	c #9C999C",
"$ 	c #838183",
"% 	c #E6E6E6",
"& 	c #FFFFFF",
"* 	c #EEEEEE",
"= 	c #DEDEDE",
"- 	c #7B797B",
"; 	c #EEEAEE",
"> 	c #E6E2E6",
", 	c #F6F6F6",
"' 	c #D5D6D5",
") 	c #D5D2CD",
"! 	c #DEDADE",
"~ 	c #E6E2DE",
"{ 	c #BDBAB4",
"] 	c #F6F2F6",
"^ 	c #D5D2D5",
"/ 	c #B4B6B4",
"( 	c #ACAAAC",
"_ 	c #949594",
": 	c #C5BAA4",
"< 	c #C5B6A4",
"[ 	c #A4A19C",
"} 	c #FFFAFF",
"| 	c #BDBABD",
"1 	c #9C9994",
"2 	c #7B7D7B",
"3 	c #4A4C4A",
"4 	c #CDCECD",
"5 	c #BDAE9C",
"6 	c #DED6D5",
"7 	c #EEE2E6",
"8 	c #BDB2A4",
"9 	c #9C9D94",
"0 	c #FFFAF6",
"a 	c #525552",
"b 	c #C5C6C5",
"c 	c #DED6CD",
"d 	c #DED2D5",
"e 	c #DED2CD",
"f 	c #DECEC5",
"g 	c #B4A194",
"h 	c #ACAAA4",
"i 	c #5A595A",
"j 	c #C5B69C",
"k 	c #CDB6AC",
"l 	c #D5C2BD",
"m 	c #CDB2A4",
"n 	c #BDA18B",
"o 	c #9C856A",
"p 	c #C5BAAC",
"q 	c #DECABD",
"r 	c #CDBEB4",
"s 	c #C5AA94",
"t 	c #BDA58B",
"u 	c #C5AE9C",
"v 	c #B49D8B",
"w 	c #DECECD",
"x 	c #D5C2B4",
"y 	c #BDA183",
"z 	c #BD9D83",
"A 	c #D5C6BD",
"B 	c #AC9D8B",
"C 	c #B4AA9C",
"D 	c #BDAA8B",
"E 	c #CDBAA4",
"F 	c #C5B29C",
"G 	c #BD9D7B",
"H 	c #CDBAAC",
"I 	c #947D62",
"J 	c #ACAEAC",
"K 	c #B4AEAC",
"L 	c #836D4A",
"M 	c #9C7D52",
"N 	c #A4855A",
"O 	c #B49573",
"P 	c #C5AA8B",
"Q 	c #C5AE94",
"R 	c #B49173",
"S 	c #CDB6A4",
"T 	c #73654A",
"U 	c #83694A",
"V 	c #B49973",
"W 	c #AC8962",
"X 	c #A4815A",
"Y 	c #B49D83",
"Z 	c #736952",
"` 	c #F6F2EE",
" .	c #94918B",
"..	c #8B7552",
"+.	c #A48152",
"@.	c #94754A",
"#.	c #9C815A",
"$.	c #AC9573",
"%.	c #6A5D41",
"&.	c #CDCACD",
"*.	c #948D8B",
"=.	c #B4956A",
"-.	c #9C7D5A",
";.	c #8B714A",
">.	c #625541",
",.	c #83817B",
"'.	c #9C855A",
").	c #9CA19C",
"!.	c #CDCED5",
"~.	c #D5DADE",
"{.	c #CDD2D5",
"].	c #73757B",
"^.	c #BDC2C5",
"/.	c #B4B2B4",
"(.	c #948D83",
"_.	c #94795A",
":.	c #AC956A",
"<.	c #625941",
"[.	c #A4A5A4",
"}.	c #A4B2BD",
"|.	c #627994",
"1.	c #8BA1B4",
"2.	c #8399AC",
"3.	c #8395AC",
"4.	c #73899C",
"5.	c #6A859C",
"6.	c #41596A",
"7.	c #EEEAE6",
"8.	c #BDBEBD",
"9.	c #C5C2BD",
"0.	c #5A5041",
"a.	c #ACB6C5",
"b.	c #7B91A4",
"c.	c #B4BECD",
"d.	c #8B9DAC",
"e.	c #BDCAD5",
"f.	c #314C62",
"g.	c #C5C2C5",
"h.	c #D5DAD5",
"i.	c #5A718B",
"j.	c #B4C2CD",
"k.	c #DEE2E6",
"l.	c #BDC2CD",
"m.	c #627D94",
"n.	c #A4AEBD",
"o.	c #A4B2C5",
"p.	c #738DA4",
"q.	c #DEDAD5",
"r.	c #9CA5AC",
"s.	c #4A5562",
"t.	c #415562",
"u.	c #314452",
"v.	c #41505A",
"w.	c #737573",
"x.	c #525052",
"y.	c #737173",
"  . + @ @ @ @ @ @ @ @ @ @ @ @ @ @ # $           ",
"  @ % & & & & & & & & & & & & & & * = -         ",
"  @ ; & > * % , ' % ; = & & & & & = & ) -       ",
"  @ * & > ; % = > ! ~ { ] & & & & ^ / ( _ +     ",
"  @ * & & ; > = ] > : < [ ' * } } * | 1 2 3     ",
"  @ % & & , = 4 4 5 6 7 8 9 % 0 0 , , % ^ a     ",
"  @ * & & % ! b : c d e f g h ; ] , ] * = i     ",
"  @ * & } , > j f e k l m n o h % ] ] * = i     ",
"  @ % } } ] p q e r s s n t u v h % * % ! i     ",
"  @ % } * : l w x n y y z u A A B [ > % ! i     ",
"  @ ; , C D E F G y s z z F x x H I J > ! i     ",
"  @ ; ] K L M N O P Q O R P S S t T / = ! i     ",
"  @ = , % [ U V G P t W X V P Y Z ( ! = ' i     ",
"  @ % , ` !  ...V G O +.@.#.$.%. .&.= > ! i     ",
"  @ % ] * = &.*...=.O -.;.@.>. .J ) ' > ! i     ",
"  @ ~ ] * = ' b ,...=.W '.>.).!.~.~.~.{.!.].^.  ",
"  @ ! ` ; = ' ) /.(._.:.<.[.}.|.1.2.3.4.5.2.6.  ",
"  @ > * ; ; 7.8.9.J ,.0.[.' a.b.~.b.c.d.b.e.f.  ",
"  @ > * % % % 4 ' 4 g.&.h.> a.i.j.k.c.e.l.e.f.  ",
"  @ ' * g.4 4 % % % > > > > a.m.n.j.o.3.p.c.f.  ",
"  @ ! ; q.! = % % > > > > > r.s.s.s.s.t.t.u.v.  ",
"  w.' q.' ' ' ' ' ' ' ' ' ' ) g.g.g.g.g./ x.b   ",
"  y.i i i i i i i i i i i i i i i i i i a -     ",
"                                                "};
