/* XPM */
static char * ext_core_xpm[] = {
"24 24 128 2",
"  	c None",
". 	c #DEDADE",
"+ 	c #EE9D94",
"@ 	c #E6B2B4",
"# 	c #6A696A",
"$ 	c #626162",
"% 	c #BDBEBD",
"& 	c #D5D2D5",
"* 	c #E6D6AC",
"= 	c #FF8D00",
"- 	c #F67931",
"; 	c #EEC6BD",
"> 	c #626562",
", 	c #ACAAAC",
"' 	c #9C9D9C",
") 	c #737173",
"! 	c #B4B2B4",
"~ 	c #ACAA83",
"{ 	c #DEDE31",
"] 	c #D5C26A",
"^ 	c #D5CECD",
"/ 	c #A4A1A4",
"( 	c #9C999C",
"_ 	c #414041",
": 	c #414441",
"< 	c #A4A19C",
"[ 	c #ACAEAC",
"} 	c #CDCECD",
"| 	c #D5D6D5",
"1 	c #5A595A",
"2 	c #A4A5A4",
"3 	c #B4B6B4",
"4 	c #737573",
"5 	c #4A4C4A",
"6 	c #838583",
"7 	c #BDBABD",
"8 	c #CDCACD",
"9 	c #9CA19C",
"0 	c #6A716A",
"a 	c #4A504A",
"b 	c #C5C2C5",
"c 	c #C5C6C5",
"d 	c #CDD2D5",
"e 	c #9CB69C",
"f 	c #ACDABD",
"g 	c #C5EED5",
"h 	c #ACDEBD",
"i 	c #62856A",
"j 	c #203020",
"k 	c #414C41",
"l 	c #9CA1A4",
"m 	c #CDD2CD",
"n 	c #8BB694",
"o 	c #D5FFEE",
"p 	c #F6FAFF",
"q 	c #EEFAFF",
"r 	c #CDF6DE",
"s 	c #5A755A",
"t 	c #182C18",
"u 	c #293829",
"v 	c #949994",
"w 	c #7B9183",
"x 	c #FFFAFF",
"y 	c #8BBE94",
"z 	c #203829",
"A 	c #4A594A",
"B 	c #6A9173",
"C 	c #E6FFF6",
"D 	c #FFFFFF",
"E 	c #8BC69C",
"F 	c #294031",
"G 	c #52715A",
"H 	c #8B918B",
"I 	c #83AE8B",
"J 	c #739D83",
"K 	c #293C31",
"L 	c #314839",
"M 	c #7BA183",
"N 	c #8B9D8B",
"O 	c #737D73",
"P 	c #DEFFF6",
"Q 	c #ACE6C5",
"R 	c #415D4A",
"S 	c #415541",
"T 	c #9CD2AC",
"U 	c #9CBAA4",
"V 	c #949594",
"W 	c #838983",
"X 	c #A4DAB4",
"Y 	c #A4DEB4",
"Z 	c #526D5A",
"` 	c #293C29",
" .	c #62816A",
"..	c #B4EEC5",
"+.	c #8BA594",
"@.	c #ACB2AC",
"#.	c #081810",
"$.	c #314431",
"%.	c #6A8D73",
"&.	c #83AA8B",
"*.	c #395041",
"=.	c #4A614A",
"-.	c #94CAA4",
";.	c #C5FFD5",
">.	c #7B7D7B",
",.	c #414841",
"'.	c #102010",
").	c #183020",
"!.	c #BDFACD",
"~.	c #A4C6B4",
"{.	c #7B797B",
"].	c #A4AAA4",
"^.	c #6A896A",
"/.	c #83B294",
"(.	c #B4F2C5",
"_.	c #C5FFDE",
":.	c #C5E6D5",
"<.	c #8B898B",
"[.	c #738973",
"}.	c #A4DAAC",
"|.	c #ACCABD",
"1.	c #737973",
"2.	c #838183",
"3.	c #838D8B",
"4.	c #94AE9C",
"5.	c #A4BAB4",
"6.	c #94AA9C",
"7.	c #7B817B",
"                                                ",
"                                                ",
"                          .         + @         ",
"                      . # $ $ % & * = - ;       ",
"                      > , ' # ) ! ~ { ] ^       ",
"                      # / ' ( _ ( : < [ }       ",
"                    | 1 ( 2 3 4 5 6 ( ! |       ",
"                      6 > / 7 7 2 / [ 8         ",
"                  % 9 0 a 6 [ % b c &           ",
"              d e f g h i j k l % |             ",
"            m n o p p q r s t u v b             ",
"            w r p x x x q y z j A / 8           ",
"          c B C x D D x q E F u G 6 ! .         ",
"          H I q x x x x C J K L M N / }         ",
"          O B P p x x q Q R z S T U V 8         ",
"          W F X o C o Y Z z `  ...+.V c         ",
"          @.#.$.%.&.i *.z ` =.-.;.>.V 8         ",
"          } ,.'.).z F $.*. .-.!.~.{./ }         ",
"          . ].K K R ^./.X (._.:.4 <.! .         ",
"            8 ( [.}.(.;.o P |.1.2./ 8           ",
"              b / 3.4.5.6.7.{.<./ b             ",
"                8 ! / V V V / ! 8               ",
"                  . } 8 c 8 } .                 ",
"                                                "};
