/* XPM */
static char * ext_h_xpm[] = {
"24 24 141 2",
"  	c None",
". 	c #5A5D5A",
"+ 	c #838583",
"@ 	c #8B898B",
"# 	c #9C9D9C",
"$ 	c #E6E6E6",
"% 	c #FFFFFF",
"& 	c #FFFAFF",
"* 	c #EEEEEE",
"= 	c #DEDEDE",
"- 	c #7B7D7B",
"; 	c #EEEAEE",
"> 	c #F6F2F6",
", 	c #DEDADE",
"' 	c #E6E2E6",
") 	c #CDCECD",
"! 	c #D5D6D5",
"~ 	c #D5D2CD",
"{ 	c #838183",
"] 	c #F6F6F6",
"^ 	c #D5D2D5",
"/ 	c #B4B6B4",
"( 	c #ACAAAC",
"_ 	c #949594",
": 	c #8B8D8B",
"< 	c #CDCACD",
"[ 	c #BDBABD",
"} 	c #9C9994",
"| 	c #525052",
"1 	c #AC999C",
"2 	c #9C7173",
"3 	c #8B5552",
"4 	c #835552",
"5 	c #A49594",
"6 	c #FFFAF6",
"7 	c #5A595A",
"8 	c #ACAEAC",
"9 	c #6A6162",
"0 	c #94797B",
"a 	c #D5CACD",
"b 	c #DED6D5",
"c 	c #BD8583",
"d 	c #8B7173",
"e 	c #A4A1A4",
"f 	c #948583",
"g 	c #CDBEBD",
"h 	c #9C9594",
"i 	c #7B797B",
"j 	c #B49D9C",
"k 	c #6A5052",
"l 	c #C5C2BD",
"m 	c #947173",
"n 	c #D5B2B4",
"o 	c #C5AEAC",
"p 	c #CDB6B4",
"q 	c #BD999C",
"r 	c #624041",
"s 	c #625052",
"t 	c #BDBEBD",
"u 	c #F6F2EE",
"v 	c #B4AEAC",
"w 	c #D5BABD",
"x 	c #D5AEB4",
"y 	c #BD797B",
"z 	c #944441",
"A 	c #4A3839",
"B 	c #83696A",
"C 	c #C5AAAC",
"D 	c #E6D2D5",
"E 	c #CD898B",
"F 	c #A45D5A",
"G 	c #623C39",
"H 	c #291C18",
"I 	c #9C999C",
"J 	c #6A4441",
"K 	c #BD8D8B",
"L 	c #DEBEBD",
"M 	c #CD9194",
"N 	c #943C39",
"O 	c #736162",
"P 	c #312020",
"Q 	c #73484A",
"R 	c #B4898B",
"S 	c #D5999C",
"T 	c #944041",
"U 	c #6A4041",
"V 	c #311818",
"W 	c #C5C6C5",
"X 	c #835D62",
"Y 	c #AC8D94",
"Z 	c #DEC2C5",
"` 	c #B45052",
" .	c #8B3431",
"..	c #410000",
"+.	c #391C18",
"@.	c #7B7973",
"#.	c #DEDAD5",
"$.	c #6A6562",
"%.	c #B46162",
"&.	c #7B1C18",
"*.	c #521818",
"=.	c #392C29",
"-.	c #A4A19C",
";.	c #E6E2DE",
">.	c #C5C2C5",
",.	c #737173",
"'.	c #525552",
").	c #5A484A",
"!.	c #393031",
"~.	c #BDC2C5",
"{.	c #D5D6DE",
"].	c #D5DADE",
"^.	c #CDD2D5",
"/.	c #CDCED5",
"(.	c #73797B",
"_.	c #6A8194",
":.	c #7B91A4",
"<.	c #7B8DA4",
"[.	c #8B9DAC",
"}.	c #5A758B",
"|.	c #62696A",
"1.	c #B4B2AC",
"2.	c #BDBAB4",
"3.	c #9CAEBD",
"4.	c #9CAABD",
"5.	c #6A859C",
"6.	c #CDD6DE",
"7.	c #4A6983",
"8.	c #525962",
"9.	c #C5D2DE",
"0.	c #ACBECD",
"a.	c #94A5B4",
"b.	c #8BA1B4",
"c.	c #628194",
"d.	c #BDCAD5",
"e.	c #4A5962",
"f.	c #394C5A",
"g.	c #414C5A",
"h.	c #314052",
"i.	c #5A656A",
"j.	c #737573",
"  . + @ @ @ @ @ @ @ @ @ @ @ @ @ @ # @           ",
"  @ $ % & % % & & % & & % % % % % * = -         ",
"  @ ; > , ' , ) ! , ' $ % % % % % = % ~ {       ",
"  @ * % ] * * ; & * > > & > % % % ^ / ( _ :     ",
"  @ * % % ^ ) ! ! ! ) < ! ! & & & * [ } - |     ",
"  @ $ % % $ ; > , 1 2 3 4 5 = ] 6 ] ] $ ^ 7     ",
"  @ * % % ^ , 8 9 0 a a b c d $ > ] > * = .     ",
"  @ * % & & * e f g h i ^ j k ) * > > * = .     ",
"  @ $ & & & $ l m n o p q r s t ; u * $ , .     ",
"  @ $ & & & ] v j w x y z r A # ^ = * $ , .     ",
"  @ ; & ] ] ] ( B C D E F G H @ ) = ; $ , .     ",
"  @ ; ] ] ] = I J K L M N O P I = ; ; $ , .     ",
"  @ = ] > * $ # Q R L S T U V # = $ $ = ! .     ",
"  @ $ ] > W < I X Y Z `  ...+.@.< t $ ' , .     ",
"  @ $ > * #.= ) $.v Z %.&.*.=.-., ! $ ' , .     ",
"  @ ;.> * >.< < ,.'.- 9 ).!.,.~.{.].].^./.(./.  ",
"  @ , u ; ' = ! W # i ,.,.+ / ) _.:.<._.[.}.|.  ",
"  @ ' * ; ; ^ ) 8 1.2.W W ) #.{.}.3.4.5.6.7.8.  ",
"  @ ' $ , ^ $ $ $ ' ;.;.;.;.' {.}.3.9.0.6.7.8.  ",
"  @ ! ' ) W ' $ $ $ $ ' ' ' ' {.}.a.b.c.d.7.8.  ",
"  @ , ; $ $ $ $ $ ' ' ' ' ' ' ) e.f.g.f.g.h.i.  ",
"  j.! #.! ! ! ! ! ! ! ! ! ! ^ ^ t 2.[ [ 8 | <   ",
"  i . . . . . . . . . . . . . . . . . . 7 {     ",
"                                                "};
