/* XPM */
static char * ext_sql_xpm[] = {
"24 24 141 2",
"  	c None",
". 	c #5A5D5A",
"+ 	c #838583",
"@ 	c #8B898B",
"# 	c #9C9D9C",
"$ 	c #E6E6E6",
"% 	c #FFFFFF",
"& 	c #EEEEEE",
"* 	c #DEDEDE",
"= 	c #7B7D7B",
"- 	c #EEEAEE",
"; 	c #FFFAFF",
"> 	c #D5D2CD",
", 	c #838183",
"' 	c #F6F6F6",
") 	c #F6F2F6",
"! 	c #D5D2D5",
"~ 	c #B4B6B4",
"{ 	c #ACAAAC",
"] 	c #949594",
"^ 	c #8B8D8B",
"/ 	c #DEDADE",
"( 	c #D5D6D5",
"_ 	c #E6E2E6",
": 	c #9C9994",
"< 	c #525052",
"[ 	c #CDCACD",
"} 	c #5A595A",
"| 	c #ACA5A4",
"1 	c #C5C6C5",
"2 	c #BDBEBD",
"3 	c #94918B",
"4 	c #B48D7B",
"5 	c #EE916A",
"6 	c #C5795A",
"7 	c #A4897B",
"8 	c #C5C2C5",
"9 	c #B4B2B4",
"0 	c #EEEAE6",
"a 	c #8B6D5A",
"b 	c #DE794A",
"c 	c #F6A183",
"d 	c #DE6D4A",
"e 	c #CD4820",
"f 	c #CDCECD",
"g 	c #8B897B",
"h 	c #D5CAB4",
"i 	c #EEDAAC",
"j 	c #E6B68B",
"k 	c #E6895A",
"l 	c #BD554A",
"m 	c #B47583",
"n 	c #837D94",
"o 	c #A4956A",
"p 	c #EEDA94",
"q 	c #F6E6C5",
"r 	c #DEB65A",
"s 	c #A4816A",
"t 	c #AC9DCD",
"u 	c #B4A5CD",
"v 	c #9C99C5",
"w 	c #5A5D83",
"x 	c #A49562",
"y 	c #EED27B",
"z 	c #EECE83",
"A 	c #CD9920",
"B 	c #7B6D6A",
"C 	c #7B75BD",
"D 	c #8B81C5",
"E 	c #414094",
"F 	c #4A4C83",
"G 	c #BDBABD",
"H 	c #948D6A",
"I 	c #DEC273",
"J 	c #EECE8B",
"K 	c #C5A139",
"L 	c #6A656A",
"M 	c #8381C5",
"N 	c #4A489C",
"O 	c #5A598B",
"P 	c #A4A5A4",
"Q 	c #B4AE9C",
"R 	c #BDB6AC",
"S 	c #B4B6BD",
"T 	c #8381AC",
"U 	c #6A6594",
"V 	c #BDBEC5",
"W 	c #9C999C",
"X 	c #CDCAC5",
"Y 	c #DEDAD5",
"Z 	c #E6E2DE",
"` 	c #D5D6DE",
" .	c #C5C6CD",
"..	c #ACAEB4",
"+.	c #B4BABD",
"@.	c #ACB2B4",
"#.	c #C5CACD",
"$.	c #CDCED5",
"%.	c #73797B",
"&.	c #F6F2EE",
"*.	c #9CAEBD",
"=.	c #73899C",
"-.	c #94AAB4",
";.	c #738DA4",
">.	c #94AABD",
",.	c #8B9DB4",
"'.	c #6A859C",
").	c #8B9DAC",
"!.	c #5A798B",
"~.	c #41596A",
"{.	c #ACAEAC",
"].	c #94A1AC",
"^.	c #BDCAD5",
"/.	c #B4BECD",
"(.	c #D5DAE6",
"_.	c #C5CAD5",
":.	c #CDD6DE",
"<.	c #4A6983",
"[.	c #314C62",
"}.	c #9CAAB4",
"|.	c #D5DADE",
"1.	c #A4B6C5",
"2.	c #E6E6EE",
"3.	c #5A758B",
"4.	c #B4C2CD",
"5.	c #94A5B4",
"6.	c #8BA1B4",
"7.	c #ACBAC5",
"8.	c #C5CED5",
"9.	c #7B95A4",
"0.	c #395062",
"a.	c #8B9194",
"b.	c #4A5562",
"c.	c #737983",
"d.	c #6A7583",
"e.	c #415562",
"f.	c #314452",
"g.	c #41555A",
"h.	c #737573",
"i.	c #525552",
"j.	c #7B797B",
"  . + @ @ @ @ @ @ @ @ @ @ @ @ @ @ # @           ",
"  @ $ % % % % % % % % % % % % % % & * =         ",
"  @ - % % % % % % % % % % % ; ; % * % > ,       ",
"  @ & % % % % % ; ' ' ' ' ) - & ) ! ~ { ] ^     ",
"  @ & % % % % ' - - $ * $ & - / ( _ ~ : = <     ",
"  @ $ % % ' ) $ ) ' ' ) ' ' ' - [ ! & $ ! }     ",
"  @ & ; ) & - - ' & / | > - - - 1 2 $ & * .     ",
"  @ & ) & ; ; ) $ 3 4 5 6 7 ( _ 8 9 / 0 * .     ",
"  @ $ & ) ; - / 9 a b c d e 2 $ / f 8 / / .     ",
"  @ $ - - ) * g h i j k l m n 9 _ f { f ( .     ",
"  @ - & ! - * o p q r s t u v w / ( 8 8 ( .     ",
"  @ - ) * ) _ x y z A B C D E F / / f G ! .     ",
"  @ * ) $ ) _ H I J K L C M N O / / 8 P f .     ",
"  @ $ & * $ * & f Q R S n T U V $ ! W ~ ! .     ",
"  @ $ & / 8 G ) - & - _ _ / * * [ [ P X Y .     ",
"  @ Z ) $ ( ( & _ / [ f ` `  ...+.@.S #.$.%.#.  ",
"  @ / &.- _ Y _ ! ~ : 2 *.=.-.;.;.>.,.'.).!.~.  ",
"  @ _ & - $ Y 2 {.{.G G ].^./.'.(.=._.*.:.<.[.  ",
"  @ _ & 0 $ _ / ( ( * / }.'.|.1.2.3.4.1.:.<.[.  ",
"  @ ( & $ $ $ $ _ _ _ _ *.5./.6.7.4.8.9.(.*.0.  ",
"  @ / - $ $ $ $ $ _ _ _ a.b.b.b.b.c.$.d.e.f.g.  ",
"  h.( Y ( ( ( ( ( ( ( ( f 1 8 8 8 8 8 8 ~ i.(   ",
"  j.. . . . . . . . . . . . . . . . . . } ,     ",
"                                                "};
