/* XPM */
static char * special_readme_xpm[] = {
"24 24 113 2",
"  	c None",
". 	c #5A5D5A",
"+ 	c #838583",
"@ 	c #8B898B",
"# 	c #9C9D9C",
"$ 	c #E6E6E6",
"% 	c #FFFFFF",
"& 	c #EEEEEE",
"* 	c #DEDEDE",
"= 	c #7B7D7B",
"- 	c #EEEAEE",
"; 	c #E6E2E6",
"> 	c #F6F2F6",
", 	c #F6F6F6",
"' 	c #FFFAFF",
") 	c #D5D2CD",
"! 	c #838183",
"~ 	c #DEDADE",
"{ 	c #CDCACD",
"] 	c #D5D6D5",
"^ 	c #D5D2D5",
"/ 	c #B4B6B4",
"( 	c #ACAAAC",
"_ 	c #949594",
": 	c #8B8D8B",
"< 	c #9C9994",
"[ 	c #525052",
"} 	c #9CA59C",
"| 	c #838D7B",
"1 	c #8B9183",
"2 	c #B4BAAC",
"3 	c #BDC2BD",
"4 	c #CDCECD",
"5 	c #5A595A",
"6 	c #9CA19C",
"7 	c #627162",
"8 	c #839183",
"9 	c #7B8D7B",
"0 	c #737D6A",
"a 	c #73816A",
"b 	c #6A7562",
"c 	c #737973",
"d 	c #94A194",
"e 	c #A4AE9C",
"f 	c #9CA194",
"g 	c #949D94",
"h 	c #7B8973",
"i 	c #5A6552",
"j 	c #EEEAE6",
"k 	c #738173",
"l 	c #738573",
"m 	c #6A7962",
"n 	c #8B998B",
"o 	c #8B9583",
"p 	c #52594A",
"q 	c #ACAEAC",
"r 	c #62715A",
"s 	c #7B8573",
"t 	c #5A6D5A",
"u 	c #737573",
"v 	c #73756A",
"w 	c #BDBEBD",
"x 	c #A4AA9C",
"y 	c #62695A",
"z 	c #5A5D52",
"A 	c #F6F2EE",
"B 	c #B4B6AC",
"C 	c #627562",
"D 	c #5A695A",
"E 	c #6A6D6A",
"F 	c #7B7D73",
"G 	c #94958B",
"H 	c #8B7173",
"I 	c #7B857B",
"J 	c #62755A",
"K 	c #52554A",
"L 	c #A4AAA4",
"M 	c #CDD2CD",
"N 	c #6A7162",
"O 	c #8B5062",
"P 	c #E6D6DE",
"Q 	c #7B817B",
"R 	c #626D5A",
"S 	c #6A716A",
"T 	c #DEDAD5",
"U 	c #6A6D62",
"V 	c #945D6A",
"W 	c #A4A5A4",
"X 	c #83817B",
"Y 	c #5A615A",
"Z 	c #CDCAC5",
"` 	c #8B8583",
" .	c #8B8D83",
"..	c #9C9D94",
"+.	c #B4BAB4",
"@.	c #C5C2C5",
"#.	c #B4B2B4",
"$.	c #626962",
"%.	c #BDBAB4",
"&.	c #8B918B",
"*.	c #5A655A",
"=.	c #838983",
"-.	c #E6E2DE",
";.	c #8B8983",
">.	c #ACAAA4",
",.	c #949194",
"'.	c #525D52",
").	c #5A6152",
"!.	c #A4A19C",
"~.	c #C5C2BD",
"{.	c #BDBABD",
"].	c #C5C6C5",
"^.	c #7B797B",
"  . + @ @ @ @ @ @ @ @ @ @ @ @ @ @ # @           ",
"  @ $ % % % % % % % % % % % % % % & * =         ",
"  @ - % & $ ; > - > & & $ , ' % % * % ) !       ",
"  @ & % ~ { $ ; ] - * ^ - ] - , % ^ / ( _ :     ",
"  @ & % % % % % ' ' ' ' ' ' ' ' ' & / < = [     ",
"  @ $ % $ & ; ; * } | 1 } 2 3 4 * & > $ ^ 5     ",
"  @ & % * ~ $ ; 6 7 8 | | 9 0 a b c & & * .     ",
"  @ & % - $ $ / 7 | d e f g d h i : $ j * .     ",
"  @ $ ' & $ ] k b l m d n o o b p q ~ ; ~ .     ",
"  @ $ ' , $ o r m m m m m m s t u v w * ~ .     ",
"  @ - , - x r m m m m m m b r y + z 4 * ~ .     ",
"  @ - A B b r m m m m m b C D = E F 4 ~ ~ .     ",
"  @ ~ $ G H 6 I 7 r r J C J 7 + K L ) ] ] .     ",
"  + * M N O P - ~ / 6 Q N R c v S w ] * T .     ",
"  + * 4 U V P - * 4 / q W X = Y < Z ~ * ~ .     ",
"  + T ] q `  ...+.4 ^ @.#.= u $./ ) * * ] .     ",
"  + ] * %.( _ + S S c &.W + *.=.@.] -.~ ] .     ",
"  ;.-.$ w q q >.,.;.;.v *.'.).>.4 ~ -.* ~ .     ",
"  @ ; - ^ 4 { / #.q !.>.!.&.# ~.] * -.* T .     ",
"  @ ] & ~ 4 ] * T ^ 4 @.w {.@.4 ~ * -.T ] .     ",
"  @ ~ - $ $ ; ; -.* ~ ] ^ ) ^ T * -.-.~ ] .     ",
"  u ] T ] ] ] ] ] ] ^ ^ ) 4 4 ^ ^ ^ ^ ^ ].5     ",
"  ^.. . . . . . . . . . . . . . . . . . 5 !     ",
"                                                "};
