/* XPM */
static char * traceelement_xpm[] = {
"16 16 18 1",
" 	c None",
".	c #414CA4",
"+	c #393C9C",
"@	c #413C9C",
"#	c #4A48A4",
"$	c #397DBD",
"%	c #4159BD",
"&	c #397DB4",
"*	c #395DBD",
"=	c #4179BD",
"-	c #395DB4",
";	c #A4CAF6",
">	c #C5DAC5",
",	c #A4CAEE",
"'	c #BEDFBE",
")	c #414C9C",
"!	c #9CCEEE",
"~	c #A4CEEE",
"                ",
"                ",
"  .+.@.+.@#+.@  ",
"  $%&*=*&*$-$*  ",
"  ;>;>,';';>;'  ",
"                ",
"  .+#+#+.@.+#+  ",
"  *$%$*$%$*&%$  ",
"  >;';';';>;';  ",
"                ",
"  )@.+#+#+)@)@  ",
"  =*=*$*$%$*$*  ",
"  ;>!>~>;';';>  ",
"                ",
"                ",
"                "};
