/* XPM */
static char * ok_xpm[] = {
"26 26 36 1",
" 	c None",
".	c #101008",
"+	c #000000",
"@	c #B4C6AC",
"#	c #ACBAA4",
"$	c #9CAA94",
"%	c #94A18B",
"&	c #D5E6C5",
"*	c #7B8973",
"=	c #7B8573",
"-	c #62695A",
";	c #838D7B",
">	c #73796A",
",	c #ACBA9C",
"'	c #525D52",
")	c #5A5D52",
"!	c #6A7162",
"~	c #7B8173",
"{	c #94A58B",
"]	c #B4C2A4",
"^	c #9CA58B",
"/	c #737D6A",
"(	c #414839",
"_	c #8B9583",
":	c #414439",
"<	c #5A6152",
"[	c #4A554A",
"}	c #949D83",
"|	c #394039",
"1	c #949D8B",
"2	c #52594A",
"3	c #393C31",
"4	c #4A5041",
"5	c #8B9983",
"6	c #52554A",
"7	c #080C08",
"                          ",
"                          ",
"                          ",
"                          ",
"              .......     ",
"             +@@@#$$%.    ",
"             .@&$%%%*.    ",
"             .@@%%%%*.    ",
"             .@%%%%%*.    ",
"         .   .@%$%%%*.    ",
"        .=.  .@%%%%%*.    ",
"       .@-....@%%%;->.    ",
"      .@,=''')--!~{]).    ",
"     .@{%%%%{{{{^%/(.     ",
"    .@^%%%%%%%%%_-:.      ",
"   .@${%%%%%%%%;<:.       ",
"    .[}%%%%%%%='|.        ",
"     .[1%%%%%=23.         ",
"      .4}5==![3.          ",
"       .6[7....           ",
"        .3.               ",
"         .                ",
"                          ",
"                          ",
"                          ",
"                          "};
