/* XPM */
static char * pref_xpm[] = {
"26 26 43 1",
" 	c None",
".	c #000000",
"+	c #E6E6E6",
"@	c #CDCECD",
"#	c #DECA94",
"$	c #DEDEDE",
"%	c #C5C6C5",
"&	c #8B7D41",
"*	c #C5C2C5",
"=	c #AC595A",
"-	c #DEDADE",
";	c #838583",
">	c #D5D6D5",
",	c #AC4C4A",
"'	c #A4A5A4",
")	c #9C999C",
"!	c #F6F6F6",
"~	c #F6F2F6",
"{	c #A45552",
"]	c #6A6D6A",
"^	c #DECACD",
"/	c #AC5552",
"(	c #C5898B",
"_	c #AC6D6A",
":	c #EEDEDE",
"<	c #A45052",
"[	c #D5C28B",
"}	c #C5C2BD",
"|	c #83817B",
"1	c #AC8D31",
"2	c #736120",
"3	c #C5C6BD",
"4	c #A4A59C",
"5	c #838173",
"6	c #DEE2E6",
"7	c #D5E2E6",
"8	c #000400",
"9	c #A4A194",
"0	c #CDCACD",
"a	c #8B897B",
"b	c #7B7D73",
"c	c #B4BAB4",
"d	c #DEDAD5",
"                          ",
"                          ",
"                          ",
"                          ",
"              ..          ",
"            ..+@.     .   ",
"          ..@+++.    .#.  ",
"       ...$+++++%.  .#&.  ",
"     ..@++++@+*++. .#&.   ",
"    .$++++=+-+@;+-.#&.    ",
"    .>++++,'+);++.#&.     ",
"     .++!~{+]+++.#&.      ",
"     .$^/(_++++.#&.-.     ",
"      .+:<{+++.#&.@+%.    ",
"      .>+++++.[&.-+>}|.   ",
"       .+++!12..344445.   ",
"       .$+678.9944440.    ",
"        .+4abcddd+-..     ",
"        .>+++++++0.       ",
"         .++++++..        ",
"         .$+++0.          ",
"          .+-..           ",
"           ..             ",
"                          ",
"                          ",
"                          "};
