/* XPM */
static char * up_xpm[] = {
"26 26 36 1",
" 	c None",
".	c #000000",
"+	c #181C18",
"@	c #D5DAD5",
"#	c #94AA8B",
"$	c #000400",
"%	c #DEDEDE",
"&	c #94AA83",
"*	c #E6E2E6",
"=	c #94B28B",
"-	c #6A855A",
";	c #EEEAEE",
">	c #9CB694",
",	c #8BA583",
"'	c #EEEEEE",
")	c #F6EEF6",
"!	c #9CB68B",
"~	c #62855A",
"{	c #94B683",
"]	c #94AE83",
"^	c #739162",
"/	c #F6F2F6",
"(	c #94B283",
"_	c #839D73",
":	c #8BAE7B",
"<	c #8BAA83",
"[	c #7B956A",
"}	c #8BA57B",
"|	c #DEDAD5",
"1	c #E6E6E6",
"2	c #8BAE83",
"3	c #8BAA7B",
"4	c #738D62",
"5	c #BDBEB4",
"6	c #BDC2BD",
"7	c #627D52",
"                          ",
"                          ",
"                          ",
"                          ",
"                          ",
"                          ",
"            ..            ",
"            ..            ",
"           +@#$           ",
"           .%&.           ",
"          .**=-.          ",
"          .;;>,.          ",
"         .*')!&~.         ",
"         .;)){]^.         ",
"        .*')/(]_-.        ",
"        .;)//::<[.        ",
"       .*')//:::}-.       ",
"       .|1;;12]3}4.       ",
"      .556666^^^^-7.      ",
"      ..............      ",
"                          ",
"                          ",
"                          ",
"                          ",
"                          ",
"                          "};
