/* XPM */
static char * warning_xpm[] = {
"34 34 50 1",
" 	c None",
".	c #A2A2A2",
"+	c #121212",
"@	c #020202",
"#	c #727272",
"$	c #C2C2C2",
"%	c #2D2C1D",
"&	c #E6E291",
"*	c #F5F29A",
"=	c #5E5A3B",
"-	c #7A7A56",
";	c #BAB675",
">	c #F8ED8B",
",	c #F9E97C",
"'	c #1E1E16",
")	c #F2F2F2",
"!	c #F6F6A6",
"~	c #FAD738",
"{	c #FED327",
"]	c #9D9141",
"^	c #626262",
"/	c #F9DA45",
"(	c #D2D2D2",
"_	c #F6F6AE",
":	c #BAAA4A",
"<	c #434240",
"[	c #E2E2E2",
"}	c #F9E672",
"|	c #B2B2B2",
"1	c #555349",
"2	c #AAA25E",
"3	c #DAC656",
"4	c #3E3A22",
"5	c #F6F3A2",
"6	c #F9E262",
"7	c #FADE52",
"8	c #7A7340",
"9	c #CAC684",
"0	c #7E6A1A",
"a	c #3E3916",
"b	c #BBA12D",
"c	c #BAAE56",
"d	c #B9B16A",
"e	c #D6C763",
"f	c #868686",
"g	c #5E5622",
"h	c #DAD27E",
"i	c #F6F6AA",
"j	c #323232",
"k	c #8E7616",
"                                  ",
"                                  ",
"                                  ",
"                                  ",
"               .+@#               ",
"              $%&*=-              ",
"              %;>,&')             ",
"             .=!~{{]^             ",
"            )'&,{{{/%(            ",
"            --_~{{{{:<            ",
"           ['_}{{{~~/<|           ",
"           12*~~~~~~~3'           ",
"          $456~~~/~//78-          ",
"          %9,~0@@@@a77/'[         ",
"         .=*/~]@@@@8677]^         ",
"        )'&}~~b@@@@86666%$        ",
"        -8>/~/b@@@@8666}c<        ",
"       ['>6~//3@@@@d}}}}}<.       ",
"       12,////7@@@@;}}},,e%)      ",
"      $4>7~//77@@@@d,,,,,,8f      ",
"      %9}~///76%@@@&,,,>>>/%[     ",
"     .g,/~//7767}},,>>>>>>>]^     ",
"    )'76~~//776e8-d>>>****>,a$    ",
"    f86~~///766'@@@h>******>c<    ",
"   ['}/~~//7766+@@@9>**!5!5*>g.   ",
"   126{{~///776]%'^!>*5i_i5*>e%   ",
"  [%6~{~~~/7766}>**>>*5i_!5*>>=|  ",
"  (a7{{{~~/7766}},,>>*5!55**>>8f  ",
"   jkbbbbbbb::::cccddd;;;;;;d2'[  ",
"   )f<<<<<<<<<<<<<<<<<<<<<<<<#[   ",
"                                  ",
"                                  ",
"                                  ",
"                                  "};
