/* XPM */
static char * cancel_xpm[] = {
"26 26 8 1",
" 	c None",
".	c #000000",
"+	c #C56D73",
"@	c #9C3C41",
"#	c #B4444A",
"$	c #BD5962",
"%	c #7B2C31",
"&	c #8B3439",
"                          ",
"                          ",
"                          ",
"                          ",
"                          ",
"                          ",
"         ..      .        ",
"        .+@.    .#.       ",
"        .##.   .$#.       ",
"         .#@. .$#%.       ",
"         .##..$#&.        ",
"          .####@.         ",
"          .####.          ",
"         .$###.           ",
"        .$####.           ",
"       .$#&..#&.          ",
"      .+#&. .@#.          ",
"      .#&.   .#@.         ",
"       ..    .@#.         ",
"              ..          ",
"                          ",
"                          ",
"                          ",
"                          ",
"                          ",
"                          "};
