/* XPM */
static char * folder_xpm[] = {
"32 32 255 2",
"  	c None",	". 	c #FFFFFF",	"+ 	c #FB6A6A",	"@ 	c #FE5A5A",	"# 	c #FE5353",	"$ 	c #FF4F4F",	"% 	c #FB6161",	"& 	c #FB807F",	"* 	c #FE3F3F",	"= 	c #FF4646",	"- 	c #FF6464",	"; 	c #FF7575",	"> 	c #FF8181",	", 	c #FF7E7E",	"' 	c #FF7272",
") 	c #FF6363",	"! 	c #FA2C2C",	"~ 	c #F06E6E",	"{ 	c #FF7979",	"] 	c #FF8C8C",	"^ 	c #FF9A9A",	"/ 	c #FFA5A5",	"( 	c #FFA2A2",	"_ 	c #FF6D6D",	": 	c #FF5D5D",	"< 	c #FF4B4B",	"[ 	c #FF3838",	"} 	c #EC2121",	"| 	c #D28C8C",	"1 	c #FE2B2B",
"2 	c #FF4D4D",	"3 	c #FF6868",	"4 	c #FF9393",	"5 	c #FF3B3B",	"6 	c #FF2727",	"7 	c #D94646",	"8 	c #FF2E2E",	"9 	c #FF6666",	"0 	c #FF4242",	"a 	c #FF3636",	"b 	c #D22828",	"c 	c #FF5656",	"d 	c #FF4949",	"e 	c #F62D2D",	"f 	c #F62020",
"g 	c #BA2929",	"h 	c #F82020",	"i 	c #FC6464",	"j 	c #F75F5F",	"k 	c #FF3131",	"l 	c #FE2121",	"m 	c #FE1818",	"n 	c #FF1D1D",	"o 	c #FF2424",	"p 	c #F43D3D",	"q 	c #FF3333",	"r 	c #EB2525",	"s 	c #E91919",	"t 	c #974E4E",	"u 	c #FB4C4C",	"v 	c #826B6B",
"w 	c #FA2626",	"x 	c #FF1212",	"y 	c #FE0C0C",	"z 	c #FD0707",	"A 	c #F30505",	"B 	c #F50606",	"C 	c #F31B1B",	"D 	c #6F5F5F",	"E 	c #E41C1C",	"F 	c #D21010",	"G 	c #8B7676",	"H 	c #F83B3B",	"I 	c #9B7676",	"J 	c #BBD6D6",	"K 	c #956B6B",	"L 	c #F10000",
"M 	c #F60000",	"N 	c #E90000",	"O 	c #E50000",	"P 	c #DD0000",	"Q 	c #715757",	"R 	c #9BBDBD",	"S 	c #9BC1C1",	"T 	c #A85F5F",	"U 	c #D91919",	"V 	c #DC1616",	"W 	c #921212",	"X 	c #E73434",	"Y 	c #C1E0E0",	"Z 	c #E00000",	"` 	c #EC0000",	" .	c #D40000",
"..	c #FDFFFF",	"+.	c #A6D6D6",	"@.	c #BF7272",	"#.	c #F61010",	"$.	c #E21515",	"%.	c #D51515",	"&.	c #CF1313",	"*.	c #C20C0C",	"=.	c #D56060",	"-.	c #F5FFFF",	";.	c #D10000",	">.	c #796061",	",.	c #A5C1C1",	"'.	c #FAFFFF",	").	c #DB5353",	"!.	c #E80606",
"~.	c #E30F0F",	"{.	c #C70F0F",	"].	c #CE0D0D",	"^.	c #671F1F",	"/.	c #D61919",	"(.	c #E54E4E",	"_.	c #CBE8E8",	":.	c #F3FFFF",	"<.	c #D60000",	"[.	c #ABCBCB",	"}.	c #E10B0B",	"|.	c #DA0D0D",	"1.	c #900606",	"2.	c #E56161",	"3.	c #F30E0E",	"4.	c #EB0000",
"5.	c #D4ECEC",	"6.	c #AE8585",	"7.	c #C5DDDD",	"8.	c #D20000",	"9.	c #DB0505",	"0.	c #D20B0B",	"a.	c #CA0A0A",	"b.	c #BC0A0A",	"c.	c #A60505",	"d.	c #514E4E",	"e.	c #D73B3B",	"f.	c #D61212",	"g.	c #EB1313",	"h.	c #CC4141",	"i.	c #F6FFFF",	"j.	c #CB0000",
"k.	c #D40707",	"l.	c #D40909",	"m.	c #CF0808",	"n.	c #C60808",	"o.	c #BB0707",	"p.	c #B50808",	"q.	c #B30505",	"r.	c #372C2C",	"s.	c #CB1F1F",	"t.	c #D00E0E",	"u.	c #DA0202",	"v.	c #F9FFFF",	"w.	c #C60000",	"x.	c #CE0101",	"y.	c #D00606",	"z.	c #C90606",
"A.	c #C30505",	"B.	c #B60606",	"C.	c #AE0606",	"D.	c #B80707",	"E.	c #241717",	"F.	c #C11111",	"G.	c #D90A0A",	"H.	c #DC0D0D",	"I.	c #D50303",	"J.	c #C54846",	"K.	c #E8F8F8",	"L.	c #CC3A3A",	"M.	c #C90000",	"N.	c #CB0303",	"O.	c #CA0505",	"P.	c #C50505",
"Q.	c #BE0404",	"R.	c #B20303",	"S.	c #A90505",	"T.	c #B90505",	"U.	c #C11F1F",	"V.	c #C20808",	"W.	c #D20303",	"X.	c #C20000",	"Y.	c #BE0303",	"Z.	c #B60303",	"`.	c #AD0202",	" +	c #A30303",	".+	c #CE0606",	"++	c #BD0000",	"@+	c #DAF5F5",	"#+	c #C50000",
"$+	c #C10303",	"%+	c #B80202",	"&+	c #B00202",	"*+	c #A60202",	"=+	c #A10303",	"-+	c #9E0202",	";+	c #BB0404",	">+	c #C80505",	",+	c #BA0000",	"'+	c #AAC5C5",	")+	c #B70000",	"!+	c #AA0101",	"~+	c #890202",	"{+	c #BB0303",	"]+	c #C10101",	"^+	c #B90000",
"/+	c #C8E0E0",	"(+	c #B30000",	"_+	c #B10000",	":+	c #A20000",	"<+	c #9A0000",	"[+	c #6D0101",	"}+	c #A30404",	"|+	c #CA4D4D",	"1+	c #A90101",	"2+	c #AC0000",	"3+	c #A50000",	"4+	c #9B0202",	"5+	c #930202",	"6+	c #380101",	"7+	c #A50202",	"8+	c #A5CBCB",
"9+	c #AF0000",	"0+	c #B50000",	"a+	c #BA4848",	"b+	c #9D0000",	"c+	c #940202",	"d+	c #910202",	"e+	c #8C0202",	"f+	c #0F0201",	"g+	c #AC3131",	"h+	c #950000",	"i+	c #930000",	"j+	c #8B0000",	"k+	c #550101",	"l+	c #AE2727",	"m+	c #A10000",	"n+	c #8F0000",
"o+	c #900000",	"p+	c #890000",	"q+	c #800000",	"r+	c #980000",	"s+	c #C55959",	"t+	c #A70000",	"u+	c #B33A3A",	"v+	c #860000",	"w+	c #820000",	"x+	c #970000",	"y+	c #9F0000",	"z+	c #8C0000",	"A+	c #850000",	"B+	c #7F0000",	"C+	c #5D0101",	"D+	c #4A0101",
"E+	c #780101",	"F+	c #740101",
"                        + @ # $ # % &                           ",
"                  * = - ; > > , ' ) # * ! ~                     ",
"              * = ) { ] ^ / ( ^ ] , _ : < [ } |                 ",
"            1 2 3 , 4 ( / / ( ^ ] > ; 3 @ < 5 6 7               ",
"          8 2 9 , ] 4 4 4 ] , { ' ' _ - @ $ 0 a 6 b             ",
"        1 = : _ { > > ; 9 c d = d 2 # c $ d * [ e f g           ",
"      h 5 2 : 9 i j c 0 k l m m n o k a p [ a q ! r s t         ",
"    p 8 * < $ u v v w x y z A A B y y C D t o 6 w } E F G       ",
"    } k 5 * H I J J K L M N O N N M P Q R S T m m E U V W       ",
"  X r 8 k 8 I J . . Y K Z N O O `  .Q R . ..+.@.#.$.%.&.*.D     ",
"  V } w 6 o =.Y -.. . Y I P N N ;.>.,.. . . '.).!.~.F {.].^.    ",
"  /.E C l n z (._.:.. . _.I <. .G [.. . . . (.O }.|.].*.{.1.    ",
"2.%.$.s C C 3.4.7 5.-.. . 5.6.6.7.... . . (.8.9.|.0.a.b.b.c.d.  ",
"e.&.f.$.g.g.~.Z P h.5.i.. . -.:.. . . . 7 j.8.k.l.m.n.o.p.q.r.  ",
"s.{.t.|.~.~.}.u.<. .h.5.'.. . . . ..v.7 w.j.x.y.m.z.A.B.C.D.E.  ",
"F.*.a.0.G.H.G.I.8.8. .J.K.. . . . i.L.w.j.M.N.O.O.P.Q.R.S.T.E.  ",
"U.b.V.a.m.l.k.W.;. .X.6.K.. ..... v.| X.M.w.w.P.P.Y.Z.`. +C.E.  ",
"L.p.o.P.z..+y.x. .++v J . . . . . . @+6.++#+#+$+Y.%+&+*+=+-+E.  ",
"=.C.B.;+A.>+N.8.,+>.'+. . . . . . . . _.I )+X.++%+R.!+-+-+~+E.  ",
"  c.C.Z.{+]+x.^+Q ,.. . . . L.).'.-.. . /+K (+^+_+!+:+<+-+[+    ",
"  }+c.`.(+++_+D '+. . . . h._+(+|+@+i.. . _.I 1+2+3+4+5+4+6+    ",
"  g  +7+2+(+G 8+... . . |+9+0+)+(+a+@+v.. . @+6.:+b+c+d+e+f+    ",
"    R.-+3+!+g+J :.. . h.2+(+(+(+(+2+a+5.. . . g+h+i+j+5+k+      ",
"    l+-+<+m+m+l+'.. |+3+9+9+9+&+9+2+3+a+. . l+n+o+p+j+q+f+      ",
"      *+c+h+<+r+a+s+b+t+1+!+!+1+1+3+:+<+s+u+j+j+v+w+j+6+        ",
"        7+d+o+h+i+x+b+:+:+:+:+:+m+y+<+x+z+j+j+A+B+j+k+          ",
"          -+n+z+n+i+h+r+<+r+<+<+r+x+h+n+j+v+w+B+p+C+            ",
"            i+n+p+p+z+z+n+o+o+o+n+j+j+v+w+B+w+w+D+              ",
"              E+d+j+A+A+A+A+v+v+A+w+q+B+w+A+F+6+                ",
"                  F+v+p+A+w+w+q+q+q+w+w+[+6+                    ",
"                        C+[+F+F+[+C+D+                          ",
"                                                                "
};
