/* XPM */
static char * error_xpm[] = {
"34 34 255 2",
"  	c None",
". 	c #020202",
"+ 	c #F2CE16",
"@ 	c #C2A612",
"# 	c #560606",
"$ 	c #7E760A",
"% 	c #7A0E0A",
"& 	c #CECECE",
"* 	c #7A6A0A",
"= 	c #9E9E9E",
"- 	c #3E3606",
"; 	c #66220A",
"> 	c #9A1E0A",
", 	c #D67A66",
"' 	c #DADADA",
") 	c #767676",
"! 	c #121212",
"~ 	c #866A0A",
"{ 	c #B2260A",
"] 	c #5A4606",
"^ 	c #E2E2E2",
"/ 	c #CEA69E",
"( 	c #92720E",
"_ 	c #CA7E6E",
": 	c #B24A32",
"< 	c #622A1E",
"[ 	c #E6E6E6",
"} 	c #4A1206",
"| 	c #A2A2A2",
"1 	c #AAAAAA",
"2 	c #320A02",
"3 	c #2E2A06",
"4 	c #763E32",
"5 	c #363636",
"6 	c #EAEAEA",
"7 	c #DE4E12",
"8 	c #B69A12",
"9 	c #CABA12",
"0 	c #C6563E",
"a 	c #F2F2F2",
"b 	c #565656",
"c 	c #D2AEA6",
"d 	c #929292",
"e 	c #2A2A2A",
"f 	c #525252",
"g 	c #BA928A",
"h 	c #BE3A0E",
"i 	c #B2B2B2",
"j 	c #626262",
"k 	c #2A0202",
"l 	c #F6F6F6",
"m 	c #CA4212",
"n 	c #521606",
"o 	c #D2BA12",
"p 	c #1E1602",
"q 	c #F6E216",
"r 	c #660A06",
"s 	c #1A1A1A",
"t 	c #9A8A0E",
"u 	c #BE2A0A",
"v 	c #B67266",
"w 	c #A2320E",
"x 	c #6E660A",
"y 	c #D6A612",
"z 	c #B6B6B6",
"A 	c #6E1E06",
"B 	c #E2BAB2",
"C 	c #EED2CA",
"D 	c #CE4212",
"E 	c #7E160A",
"F 	c #727272",
"G 	c #160202",
"H 	c #9E2E0E",
"I 	c #8A820E",
"J 	c #C29286",
"K 	c #FAFAFA",
"L 	c #3E3206",
"M 	c #DAC616",
"N 	c #CE8272",
"O 	c #0E0E02",
"P 	c #AA220A",
"Q 	c #4E4A06",
"R 	c #828282",
"S 	c #760A0A",
"T 	c #2A2202",
"U 	c #7A260A",
"V 	c #D64612",
"W 	c #764E46",
"X 	c #C2C2C2",
"Y 	c #B22E0E",
"Z 	c #E6AA16",
"` 	c #5A520A",
" .	c #C2320E",
"..	c #3A3A3A",
"+.	c #EABA16",
"@.	c #CE3A0E",
"#.	c #8E1A0A",
"$.	c #420606",
"%.	c #664E0A",
"&.	c #CA6E5A",
"*.	c #DE9282",
"=.	c #4E4606",
"-.	c #B2320E",
";.	c #3A2A06",
">.	c #523E3A",
",.	c #F6E2DE",
"'.	c #96860E",
").	c #422E2A",
"!.	c #EABE16",
"~.	c #2E2E2E",
"{.	c #CACACA",
"].	c #FEFEFE",
"^.	c #DEA296",
"/.	c #C66652",
"(.	c #EAC2BA",
"_.	c #8E8E8E",
":.	c #F2D216",
"<.	c #464646",
"[.	c #6A5A0A",
"}.	c #A22E16",
"|.	c #6E6E6E",
"1.	c #6A1606",
"2.	c #C64226",
"3.	c #CA4226",
"4.	c #C6320E",
"5.	c #967A0E",
"6.	c #3A2E06",
"7.	c #621206",
"8.	c #9A220A",
"9.	c #C63A0E",
"0.	c #EEC616",
"a.	c #CEAE12",
"b.	c #1E1A12",
"c.	c #3A0606",
"d.	c #DE4A12",
"e.	c #1E1E1E",
"f.	c #1E1E02",
"g.	c #AA2A0E",
"h.	c #EAD616",
"i.	c #0E0202",
"j.	c #CE5E46",
"k.	c #D2D2D2",
"l.	c #AA2E0E",
"m.	c #424242",
"n.	c #DAAA12",
"o.	c #F2D616",
"p.	c #D64A12",
"q.	c #FAEA16",
"r.	c #861E0A",
"s.	c #D24612",
"t.	c #A6920E",
"u.	c #86160A",
"v.	c #DA8672",
"w.	c #220A02",
"x.	c #E6B216",
"y.	c #EEEEEE",
"z.	c #7A1606",
"A.	c #0E0E0E",
"B.	c #D6D6D6",
"C.	c #4E261E",
"D.	c #DEDEDE",
"E.	c #B6360E",
"F.	c #C6360E",
"G.	c #9E220A",
"H.	c #7A720A",
"I.	c #7E720A",
"J.	c #B69A92",
"K.	c #9A920E",
"L.	c #BE9A92",
"M.	c #EECAC2",
"N.	c #C24A2E",
"O.	c #DAB212",
"P.	c #C22E0A",
"Q.	c #3E3A06",
"R.	c #9E260A",
"S.	c #1A120E",
"T.	c #761A0A",
"U.	c #921E0A",
"V.	c #C63E0E",
"W.	c #1E1A0E",
"X.	c #3A3206",
"Y.	c #BA2A0A",
"Z.	c #1E0202",
"`.	c #D23E0E",
" +	c #D26246",
".+	c #F2DA16",
"++	c #521206",
"@+	c #961A0A",
"#+	c #9E7A0E",
"$+	c #2E2E12",
"%+	c #1E1E0E",
"&+	c #2E2606",
"*+	c #BE360E",
"=+	c #C63A1A",
"-+	c #7E7672",
";+	c #4A0606",
">+	c #D2725E",
",+	c #BA320E",
"'+	c #E6A292",
")+	c #725A0A",
"!+	c #AE260A",
"~+	c #868686",
"{+	c #C6C6C6",
"]+	c #323232",
"^+	c #222222",
"/+	c #1E1A02",
"(+	c #DA4A12",
"_+	c #F6E616",
":+	c #B62E0E",
"<+	c #C23A0E",
"[+	c #5A0A06",
"}+	c #7A6E0A",
"|+	c #CABE12",
"1+	c #BE2E0E",
"2+	c #160602",
"3+	c #5E560A",
"4+	c #CA3E0E",
"5+	c #EEC216",
"6+	c #EAC6BE",
"7+	c #621606",
"8+	c #EECA16",
"9+	c #3E0A06",
"0+	c #DAAE12",
"a+	c #D68A7A",
"b+	c #761E0A",
"c+	c #D2420E",
"d+	c #8A160A",
"e+	c #BA360E",
"f+	c #CA360E",
"g+	c #CA320E",
"h+	c #D27E6A",
"i+	c #A2360E",
"j+	c #F2D6D2",
"k+	c #DACA16",
"l+	c #CE725E",
"m+	c #4A4A4A",
"n+	c #CA4626",
"o+	c #C62E0A",
"p+	c #DA4612",
"q+	c #AE2E0E",
"r+	c #D25E46",
"s+	c #A2260E",
"t+	c #F6DA16",
"u+	c #C63616",
"v+	c #6A220A",
"w+	c #B6320E",
"x+	c #260A02",
"y+	c #A2220A",
"z+	c #C2360E",
"A+	c #FAE616",
"B+	c #BA2E0E",
"C+	c #AE220A",
"D+	c #AE2A0E",
"E+	c #1A0602",
"F+	c #EEC6BE",
"                                                                    ",
"                                                                    ",
"                                                                    ",
"                                                                    ",
"        ^ X X X k.                      ^ X X X X ^                 ",
"    a m.&+}+I.x Q.! f R d m.^+2+x+E+! ! . - }+H.[./+j a             ",
"    m.5.t+A+q.q.q.k+3 S.A w h e+q+s+> }.-+e.` M t+0.( ]+a           ",
"  a &+o.h.Q O 3 Q.s 1 a+f+(+p.s.D <+1+, l y._.A.f.'.5+)+R           ",
"  X - q $ d ].j f ' a *.@.(+(+7 d.p.P.j+].K a ' ... 8 O.]+          ",
"  k.- _+$ i j f [ l ]. +z+h <+V.s.c+3.a K ].].l 6 b ` 8+T           ",
"    O A+K.^+m.[ l ].].r+D+s+s+g.:+ .&.^ 6 a K ].l 6 5 t.X.          ",
"    f |+|+A.k.a ].].a >+y+u.E 1.T.r.v {.B.[ a K ].l B.W.&+          ",
"    | x $ ~+6 K ].l [ N @+k ^+F R F ^+<.z k.^ a ].K y.|..           ",
"    a $+f.k.a ].K 6 ' g x+d           d ^+J.c B 6+M.(./ i.          ",
"      j ).[ K ].l ^ {.~.|               | 2 g+g+ .Y.{ C+2 X         ",
"      d 7+n+*.,.y.' = m.                  m.i+(+m q+u.S c.R         ",
"      R b+z+f+o+2.0 < |                   | v+7 s.w+U.S # R         ",
"      R T.*+V d.9.Y ++X                   X ; 7 s.e+8.S # R         ",
"      R 7.q+m (+s.e+7+d                   d ; 7 V h G.% ;+R         ",
"      | 9+R.h V 7 m H ^+                  ^+q+p+s.h G.% c.|         ",
"      k.Z.u.l.V.(+(+V.n j               j >./.u+P.1+!+d+G |         ",
"        ^+> !+,+4+(+(+4+} f ^       ^ f } J k.[ C '+v.: /+]+        ",
"        . C.h+r+=+P.P.P.N.W ^+]+]+]+w.U F._ ^ a ].].y.F t L k.      ",
"        - 3 1 a ].K a [ B.{+L.4.m m D V `.l+y.K ].l {.. o.5.F       ",
"        Q.9 %+' l ].K a 6 D.c f+7 7 7 d.c+j.K ].K D.e ^+@ 0+]+      ",
"        /+.+I e D.l ].].K a ^.4.s.s.s.D 9. +].K D.e | R ~ x.p       ",
"        ]+a.o O A.i l K ].].r+:+w+E.E.-.B+v.l & e j X f #+Z 6.      ",
"        | %.!.@ * /+b k.l F+u d+#.U.U.#.P _ ) f.=.L X.( Z n.^+      ",
"          j %.0+5++ './+m+4 z.S S r [+$.2 . 3+t+:.0.+.Z y ] d       ",
"            R ^+T X.X.! m.R f m.m.m.f R X R f ! X.6.;.;.b.d         ",
"                                                a X X k.            ",
"                                                                    ",
"                                                                    ",
"                                                                    "};
