/* XPM */
static char * folder_xpm[] = {
"36 36 239 2",
"  	c None",
". 	c #BDBEBD",
"+ 	c #52595A",
"@ 	c #4A5052",
"# 	c #6A7173",
"$ 	c #83898B",
"% 	c #A4AAA4",
"& 	c #C5C2C5",
"* 	c #CDCACD",
"= 	c #5A6162",
"- 	c #314041",
"; 	c #39484A",
"> 	c #414C4A",
", 	c #525D5A",
"' 	c #6A7573",
") 	c #9C9D9C",
"! 	c #C5C6C5",
"~ 	c #B4BAB4",
"{ 	c #B4B6B4",
"] 	c #949194",
"^ 	c #526562",
"/ 	c #739D9C",
"( 	c #73999C",
"_ 	c #5A7D7B",
": 	c #415552",
"< 	c #4A5D5A",
"[ 	c #5A696A",
"} 	c #7B8183",
"| 	c #9CA19C",
"1 	c #ACB2AC",
"2 	c #ACAAAC",
"3 	c #626562",
"4 	c #395552",
"5 	c #629194",
"6 	c #5A8583",
"7 	c #4A7173",
"8 	c #395D5A",
"9 	c #41595A",
"0 	c #838583",
"a 	c #ACAEAC",
"b 	c #B4B2B4",
"c 	c #737573",
"d 	c #6A6D6A",
"e 	c #7B797B",
"f 	c #626162",
"g 	c #4A5952",
"h 	c #526D6A",
"i 	c #62898B",
"j 	c #6A9194",
"k 	c #6A9594",
"l 	c #5A817B",
"m 	c #4A696A",
"n 	c #415D5A",
"o 	c #5A898B",
"p 	c #5A8183",
"q 	c #528183",
"r 	c #52817B",
"s 	c #527D7B",
"t 	c #4A797B",
"u 	c #417573",
"v 	c #737D7B",
"w 	c #7B898B",
"x 	c #7B7D7B",
"y 	c #9CA1A4",
"z 	c #A4A5A4",
"A 	c #A49D9C",
"B 	c #8B8D8B",
"C 	c #73797B",
"D 	c #62696A",
"E 	c #416162",
"F 	c #4A6D6A",
"G 	c #4A7573",
"H 	c #417173",
"I 	c #416D6A",
"J 	c #396162",
"K 	c #394041",
"L 	c #A4C2C5",
"M 	c #A4C6C5",
"N 	c #9CBEBD",
"O 	c #9CB6B4",
"P 	c #9CAEAC",
"Q 	c #9CAAAC",
"R 	c #949D9C",
"S 	c #A4A1A4",
"T 	c #BDBABD",
"U 	c #949594",
"V 	c #294041",
"W 	c #294441",
"X 	c #314C4A",
"Y 	c #31595A",
"Z 	c #396562",
"` 	c #39696A",
" .	c #315052",
"..	c #8BA5A4",
"+.	c #A4CACD",
"@.	c #94BEBD",
"#.	c #8BBAB4",
"$.	c #94BAB4",
"%.	c #9CBABD",
"&.	c #94AEAC",
"*.	c #8B9D9C",
"=.	c #838D8B",
"-.	c #7B8583",
";.	c #9C999C",
">.	c #CDCECD",
",.	c #ACA5A4",
"'.	c #4A4C52",
").	c #313431",
"!.	c #182829",
"~.	c #29484A",
"{.	c #39656A",
"].	c #315D5A",
"^.	c #838183",
"/.	c #B4BABD",
"(.	c #9CC6C5",
"_.	c #8BBABD",
":.	c #8BB6B4",
"<.	c #83B2B4",
"[.	c #83B2AC",
"}.	c #83AEAC",
"|.	c #7BAAAC",
"1.	c #7BAAA4",
"2.	c #83AAAC",
"3.	c #8BB2B4",
"4.	c #8BAAA4",
"5.	c #839D9C",
"6.	c #73898B",
"7.	c #6A7D7B",
"8.	c #5A5D5A",
"9.	c #525552",
"0.	c #CDC6C5",
"a.	c #182420",
"b.	c #204C4A",
"c.	c #295052",
"d.	c #313839",
"e.	c #627D7B",
"f.	c #94C2BD",
"g.	c #7BA5A4",
"h.	c #73A5A4",
"i.	c #73A19C",
"j.	c #6A9D9C",
"k.	c #629594",
"l.	c #6A999C",
"m.	c #739194",
"n.	c #628183",
"o.	c #31484A",
"p.	c #737173",
"q.	c #D5D6D5",
"r.	c #183031",
"s.	c #203C39",
"t.	c #73A1A4",
"u.	c #628D8B",
"v.	c #738183",
"w.	c #EEEEEE",
"x.	c #DEDEDE",
"y.	c #6A696A",
"z.	c #203839",
"A.	c #5A6562",
"B.	c #83A5A4",
"C.	c #41716A",
"D.	c #4A6162",
"E.	c #C5CACD",
"F.	c #7B7573",
"G.	c #082429",
"H.	c #5A7573",
"I.	c #39595A",
"J.	c #A4AAAC",
"K.	c #D5D2CD",
"L.	c #5A595A",
"M.	c #082C29",
"N.	c #5A615A",
"O.	c #94999C",
"P.	c #8BAEAC",
"Q.	c #41696A",
"R.	c #313C39",
"S.	c #8B898B",
"T.	c #62918B",
"U.	c #4A757B",
"V.	c #626D6A",
"W.	c #6A8583",
"X.	c #5A858B",
"Y.	c #295552",
"Z.	c #101410",
"`.	c #626962",
" +	c #316162",
".+	c #315D62",
"++	c #101818",
"@+	c #738583",
"#+	c #293031",
"$+	c #292C29",
"%+	c #6A8D8B",
"&+	c #52797B",
"*+	c #29595A",
"=+	c #205052",
"-+	c #204041",
";+	c #525052",
">+	c #625D5A",
",+	c #181C18",
"'+	c #627173",
")+	c #29555A",
"!+	c #204C52",
"~+	c #414441",
"{+	c #395052",
"]+	c #315552",
"^+	c #20484A",
"/+	c #203C41",
"(+	c #393C39",
"_+	c #202020",
":+	c #394441",
"<+	c #203431",
"[+	c #184041",
"}+	c #292829",
"|+	c #202C29",
"1+	c #101C18",
"2+	c #102020",
"3+	c #102829",
"4+	c #182C29",
"5+	c #183431",
"6+	c #183839",
"7+	c #183C39",
"8+	c #202429",
"9+	c #080C08",
"0+	c #838983",
"a+	c #393839",
"b+	c #202829",
"c+	c #081010",
"d+	c #081410",
"e+	c #081818",
"f+	c #102C29",
"g+	c #182C31",
"h+	c #181C20",
"i+	c #101010",
"j+	c #4A4C4A",
"k+	c #C5CAC5",
"l+	c #182020",
"m+	c #000808",
"n+	c #000400",
"o+	c #081C18",
"p+	c #414041",
"                                                                        ",
"                                                                        ",
"                                                                        ",
"                                                                        ",
"                                                                        ",
"                                                                        ",
"                  . + @ # $ % & *           = - ; > , ' ) !             ",
"            ~ { & ] ^ / ( _ : < [ } | 1 2 3 4 5 5 6 7 8 4 9 0           ",
"  a 2 { b 0 c d e f g h _ i j k k j l m : n o o p q r s t u < ~         ",
"0 v w $ v x y z z A B } C D , : 9 E m F G 6 o 6 q s t G H I J ' &       ",
"K L M N O O P Q Q R ) S 2 T b 2 y U C + ; - V W X Y Z I I ` Z  .0       ",
"# ..+.@.@.@.#.$.%.%.O &.*.=.-.U ;.2 & * >.. ,.x = '.).!.~.{.].W ^.      ",
"/., (._.:.:.<.[.}.|.|.1.2.3.3.4.5.6.7.v $ 8.9.0 ;.2 0.) a.b.c.d.2       ",
"  # e.f.<.<.}.}.|.g.h.i.j.k k.k l./ / ( m.n.o.3 B c p.q.^.r.s.9.*       ",
"  2 [ @.<.}.|.1.g.t./ / l.k 5 u.o 6 q q q o I v.w.x.y.* ;.!.z.0         ",
"  . A.B.<.|.1.g.t./ / l.k 5 u.o o 6 q s t G C.D.E.x.c >.F.G.; 1         ",
"    C H.<.g.g.t./ / l.k 5 u.o 6 6 q s t G 7 H I.J.K.c & L.M.N.          ",
"    O.[ P.g.t./ l.k k 5 u.o 6 q s s t G H I Q.Y -.. x a R.r.S.          ",
"    { v B.t./ l.k 5 T.u.o 6 q s t U.7 H I Q.{.Y V.2 0 ] !.d.T           ",
"      -.W.t.l.k 5 u.i X.6 q s t G H H I ` Z Z Y.D.] ^.x Z.`.            ",
"      U W./ k 5 u.o 6 6 q s t G H I Q.` Z  +.+Y.9 ^.e 9.++;.            ",
"      ) @+( u.u.o 6 p q s t G H I Q.` Z  +].Y Y.X # d #+$+.             ",
"      S 7.%+p p s s &+t G G H I Q.{.Z  +].Y *+=+-+;+>+,+@ !             ",
"      2 '+H.7 F 7 7 F I I Q.` Z Z J .+].*+)+Y.!+s.~+;+,+y.T & *         ",
"        $ D.{+]+4 I.I.I.8 ].Y Y Y Y )+Y.c.c.!+^+/+(+#+_+d U z { !       ",
"        ! 0 :+<+<+z.s./+V W ~.~.~.^+^+^+^+^+^+[+z.#+Z.}+y.e S.) 1 &     ",
"            ) 3 K #+|+1+1+2+3+4+r.5+6+6+6+7+7+6+5+8+9+(+y.d c 0+| ~ *   ",
"                2 ] e 9.a+b+,+c+c+d+e+2+2+3+f+f+g+h+i+j+3 y.p.^.) { *   ",
"                      k+T 2 B y.j+).l+m+n+m+c+o+2+++}+f p.e 0 ] z .     ",
"                                  . % S.3 p+Z.9+b+~+y.0 U z a { &       ",
"                                                                        ",
"                                                                        ",
"                                                                        ",
"                                                                        ",
"                                                                        ",
"                                                                        "};
