/* XPM */
static char * information_xpm[] = {
"34 34 180 2",
"  	c None",
". 	c #F2F2F2",
"+ 	c #A2A2A2",
"@ 	c #626262",
"# 	c #424242",
"$ 	c #121212",
"% 	c #2A2E36",
"& 	c #56667A",
"* 	c #6E869E",
"= 	c #6A829A",
"- 	c #627E9A",
"; 	c #5E7A96",
"> 	c #42566E",
", 	c #1A2632",
"' 	c #727272",
") 	c #B2B2B2",
"! 	c #363E46",
"~ 	c #92A6BE",
"{ 	c #9EBAD6",
"] 	c #96B2D2",
"^ 	c #8EAED2",
"/ 	c #7296BE",
"( 	c #668AB6",
"_ 	c #7296C2",
": 	c #6E96C2",
"< 	c #6A92C2",
"[ 	c #567AA6",
"} 	c #1E2A3A",
"| 	c #C2C2C2",
"1 	c #0A0E0E",
"2 	c #6E7A8A",
"3 	c #A6C2DA",
"4 	c #96B6D6",
"5 	c #3A669A",
"6 	c #4E769E",
"7 	c #366296",
"8 	c #527EB2",
"9 	c #628EBE",
"0 	c #5A8ABA",
"a 	c #5686BA",
"b 	c #324E72",
"c 	c #06060A",
"d 	c #8EA2B6",
"e 	c #AAC2DA",
"f 	c #A2BADA",
"g 	c #9AB6D6",
"h 	c #92AED2",
"i 	c #FEFEFE",
"j 	c #C6D2DE",
"k 	c #2E5E92",
"l 	c #5E8ABA",
"m 	c #4E7EB6",
"n 	c #4A7AB2",
"o 	c #36628E",
"p 	c #02060A",
"q 	c #8AAACE",
"r 	c #668EBA",
"s 	c #6E8EAE",
"t 	c #26568E",
"u 	c #4E82B6",
"v 	c #4276B2",
"w 	c #3E72AE",
"x 	c #22466A",
"y 	c #AAC2DE",
"z 	c #A2BEDA",
"A 	c #92B2D2",
"B 	c #82A6CA",
"C 	c #628AB6",
"D 	c #5E82A6",
"E 	c #2A5A92",
"F 	c #5282B6",
"G 	c #4A7EB6",
"H 	c #427AB2",
"I 	c #3A6EAE",
"J 	c #326AAA",
"K 	c #0E2236",
"L 	c #020202",
"M 	c #96AAC2",
"N 	c #82A6CE",
"O 	c #7EA2CA",
"P 	c #5E86B6",
"Q 	c #1A4E86",
"R 	c #325E8E",
"S 	c #3E6EA6",
"T 	c #467AB2",
"U 	c #3E76AE",
"V 	c #3A72AE",
"W 	c #326EAA",
"X 	c #2E6AAA",
"Y 	c #225A92",
"Z 	c #A6BEDA",
"` 	c #8EAECE",
" .	c #86A6CE",
"..	c #769AC6",
"+.	c #2A5A8E",
"@.	c #22568E",
"#.	c #2A66A6",
"$.	c #2662A6",
"%.	c #0A1E32",
"&.	c #525252",
"*.	c #5E6A7A",
"=.	c #4E76AA",
"-.	c #8AA2BE",
";.	c #164682",
">.	c #366EAA",
",.	c #225EA2",
"'.	c #12365A",
").	c #768AA2",
"!.	c #86AACE",
"~.	c #769EC6",
"{.	c #4A76A6",
"].	c #1E5EA2",
"^.	c #16427A",
"/.	c #8EAAC6",
"(.	c #82A2CA",
"_.	c #7A9EC6",
":.	c #729AC6",
"<.	c #668EBE",
"[.	c #2E5A8E",
"}.	c #366EAE",
"|.	c #1A5AA2",
"1.	c #164E8E",
"2.	c #86A6C6",
"3.	c #6A96C2",
"4.	c #5E8ABE",
"5.	c #4676AA",
"6.	c #1E528A",
"7.	c #2E66A6",
"8.	c #2262A6",
"9.	c #165296",
"0.	c #667E9A",
"a.	c #7A9ECA",
"b.	c #2E66AA",
"c.	c #2A62A6",
"d.	c #12427A",
"e.	c #52667E",
"f.	c #7AA2CA",
"g.	c #6692BE",
"h.	c #22528E",
"i.	c #1E5AA2",
"j.	c #0E325A",
"k.	c #929292",
"l.	c #26323E",
"m.	c #6692C2",
"n.	c #5A86BA",
"o.	c #4272AA",
"p.	c #2E629A",
"q.	c #1E5692",
"r.	c #1E5A9A",
"s.	c #061A32",
"t.	c #E2E2E2",
"u.	c #6282AA",
"v.	c #3A6EA6",
"w.	c #426A96",
"x.	c #165292",
"y.	c #26364A",
"z.	c #5282BA",
"A.	c #F2F2F6",
"B.	c #164A8A",
"C.	c #0A223E",
"D.	c #46668E",
"E.	c #2A5E9A",
"F.	c #9AAEC6",
"G.	c #B6C6D6",
"H.	c #164E8A",
"I.	c #123E6E",
"J.	c #060A0A",
"K.	c #3E6696",
"L.	c #3A6EAA",
"M.	c #164A86",
"N.	c #1A569A",
"O.	c #164A82",
"P.	c #325A86",
"Q.	c #162A42",
"R.	c #2E5E96",
"S.	c #0E1E36",
"T.	c #163E66",
"U.	c #1A467A",
"V.	c #0E3666",
"W.	c #323232",
"                                                                    ",
"                                                                    ",
"                                                                    ",
"                                                                    ",
"                                                                    ",
"                        . + @ # # # # @ + .                         ",
"                    . @ $ % & * = - ; > , $ ' .                     ",
"                  ) $ ! ~ { ] ^ / ( _ : < [ } $ |                   ",
"                + 1 2 3 { 4 ^ 5 6 6 7 8 9 0 a b c +                 ",
"              ) 1 d e f g h / 6 i i j k l a m n o p )               ",
"            . $ 2 e f g h q r s i i j t a u n v w x $ .             ",
"            @ ! y z g A q B C D i i j E F G H w I J K @             ",
"          . L M z g A q N O P Q 6 6 R S G T U V W X Y L .           ",
"          + ! Z { ] `  ...+.6 6 6 6 6 @.T U V W X #.$.%.+           ",
"          &.*.{ ] ^  .O =.-.i i i i i ;.v V >.X #.$.,.'.&.          ",
"          # ).] ^ !.O ~.{.-.i i i i i ;.V >.X #.$.,.].^.#           ",
"          L /.^ !.(._.:.<.[.6 6 i i i ;.}.J #.$.,.].|.1.$           ",
"          L 2.q B _.:.3.9 4.5.6.i i i ;.J 7.$.8.].|.|.9.L           ",
"          # 0.B a.:.3.<.4.a F @.i i i ;.b.c.8.].|.|.|.d.#           ",
"          &.e.f...: g.4.a F G h.i i i ;.#.$.,.i.|.|.|.j.&.          ",
"          k.l...: m.4.n.F o.p.Q i i i ;.q.r.i.|.|.|.|.s.k.          ",
"          t.L u.m.9 n.F v.w.-.-.i i i -.-.D x.|.|.|.1.L .           ",
"            @ y.9 0 z.m p.j i i i i i i i A.B.|.|.|.C.@             ",
"            t.$ D.a m T E.F.i i i i i i i G.H.|.|.I.$ t.            ",
"              + J.K.n v L.6.;.;.;.;.;.;.;.M.N.|.O.p )               ",
"                + c P.w }.J b.$.8.].|.|.|.|.|.d.p +                 ",
"                  + $ Q.R.b.#.$.].i.|.|.|.1.C.$ +                   ",
"                    t.@ L S.T.U.i.|.d.V.s.L @ t.                    ",
"                        t.k.&.W.L L W.&.k.t.                        ",
"                                                                    ",
"                                                                    ",
"                                                                    ",
"                                                                    ",
"                                                                    "};
