/* XPM */
static char * open_xpm[] = {
"30 30 105 2",
"  	c None",
". 	c #BDBABD",
"+ 	c #292C29",
"@ 	c #101410",
"# 	c #080C08",
"$ 	c #000000",
"% 	c #ACAEAC",
"& 	c #B4BAA4",
"* 	c #E6E6D5",
"= 	c #838973",
"- 	c #313429",
"; 	c #9C9D9C",
"> 	c #181C18",
", 	c #E6E6CD",
"' 	c #CDD6AC",
") 	c #CDD2AC",
"! 	c #B4B694",
"~ 	c #292C20",
"{ 	c #9C999C",
"] 	c #5A615A",
"^ 	c #9C9D94",
"/ 	c #C5CAA4",
"( 	c #C5CEAC",
"_ 	c #CDCEAC",
": 	c #525941",
"< 	c #5A5952",
"[ 	c #292820",
"} 	c #D5D6C5",
"| 	c #BDC2A4",
"1 	c #B4BA94",
"2 	c #B4BA9C",
"3 	c #BDC29C",
"4 	c #83856A",
"5 	c #4A4C41",
"6 	c #313031",
"7 	c #202020",
"8 	c #8B8D8B",
"9 	c #202418",
"0 	c #DEDECD",
"a 	c #ACB694",
"b 	c #ACAE8B",
"c 	c #A4A58B",
"d 	c #A4AA8B",
"e 	c #ACAE94",
"f 	c #B4B6A4",
"g 	c #BDBAAC",
"h 	c #BDBEAC",
"i 	c #C5C2B4",
"j 	c #C5CAB4",
"k 	c #CDCEBD",
"l 	c #94997B",
"m 	c #9CA183",
"n 	c #9C9D83",
"o 	c #A4A583",
"p 	c #8B8D73",
"q 	c #DEDACD",
"r 	c #7B816A",
"s 	c #838583",
"t 	c #D5DACD",
"u 	c #7B7D62",
"v 	c #393C31",
"w 	c #E6E2DE",
"x 	c #EEEEDE",
"y 	c #EEEADE",
"z 	c #E6EADE",
"A 	c #DEE2D5",
"B 	c #DEDED5",
"C 	c #B4B6B4",
"D 	c #D5DAC5",
"E 	c #6A715A",
"F 	c #F6F6EE",
"G 	c #C5CAAC",
"H 	c #C5C6A4",
"I 	c #ACB294",
"J 	c #A4A5A4",
"K 	c #4A4839",
"L 	c #BDBE9C",
"M 	c #83816A",
"N 	c #393C39",
"O 	c #F6F2EE",
"P 	c #525541",
"Q 	c #5A5D5A",
"R 	c #BDBEBD",
"S 	c #737573",
"T 	c #EEEEE6",
"U 	c #BDC6A4",
"V 	c #949594",
"W 	c #A4AA9C",
"X 	c #5A5D52",
"Y 	c #414041",
"Z 	c #C5C2BD",
"` 	c #E6E6DE",
" .	c #94957B",
"..	c #73715A",
"+.	c #94918B",
"@.	c #C5C2AC",
"#.	c #8B917B",
"$.	c #737562",
"%.	c #73755A",
"&.	c #6A6D5A",
"*.	c #414439",
"=.	c #4A4C4A",
"-.	c #A4AAA4",
";.	c #B4B2B4",
">.	c #BDBAB4",
"                                                            ",
"                                                            ",
"                                                            ",
"                                                            ",
"                                                            ",
"                                                            ",
"                                                            ",
"                                                            ",
"        . + @ # $ $ $ $ %                                   ",
"        + & * * * * * = -                                   ",
"      ; > , ' ' ' ) ) ! ~ {                                 ",
"      ] ^ , / / / ( _ _ : <                                 ",
"      [ } | 1 ! ! 2 3 3 4 5 6 7 $ $ $ $ $ $ 8               ",
"      9 0 a b c d b b d d c e f g h i j k h $               ",
"      # 0 l m l l n n l m d d d c c o m n p $               ",
"      $ q 4 r @ $ $ $ $ $ $ $ $ $ $ $ $ $ $ $ > 6 s         ",
"      $ t u v w x y y y y y y y y y y y z * A 0 B + C       ",
"      $ D E # F ' ' ' ' ' ' ' ' ' ) ) ) _ G H 3 I 9 J       ",
"      $ D K B x ) ) ) ) ) ) ) ) ) ) ) _ G H L 2 M N %       ",
"      $ D @ O _ _ _ _ _ _ _ ( _ _ G / H 3 2 ! m P Q R       ",
"      $ & S T / H H H H H U | H | L L ! ! b c M @ V         ",
"      $ W B L L 2 ! ! ! ! I I I I b d m n n p X Y Z         ",
"      $ ^ ` I b d d c c c m m n n l  .p p p ..> +.          ",
"      $ ` @.l #.p p p p = = 4 M r u $.$.%.&.*.=.Z           ",
"      -.$ $ $ $ $ $ $ $ $ $ $ $ $ $ $ $ $ $ 6 -.            ",
"      R ;.% % % % % % % % % % % % % % % % % >.              ",
"                                                            ",
"                                                            ",
"                                                            ",
"                                                            "};
