/* XPM */
static char * folder_xpm[] = {
"32 32 252 2",
"  	c None",	". 	c #FFFFFF",	"+ 	c #BBC6D2",	"@ 	c #E1E6EB",	"# 	c #EAEBED",	"$ 	c #EDEDED",	"% 	c #EDEDEE",	"& 	c #EBECEE",	"* 	c #E4E9ED",	"= 	c #DAE3ED",	"- 	c #F1F1F0",	"; 	c #F4F4F5",	"> 	c #F8F8F9",	", 	c #F9FAFB",	"' 	c #F9FBFD",	") 	c #F4F6F9",	"! 	c #EBEEF3",	"~ 	c #D9DEE1",	"{ 	c #A1B2C2",	"] 	c #F9F9FA",	"^ 	c #FDFDFE",
"/ 	c #EEF2F6",	"( 	c #DDE4EB",	"_ 	c #CCD5DD",	": 	c #E3E4E6",	"< 	c #FAFDFF",	"[ 	c #EFF5FA",	"} 	c #BECDDB",	"| 	c #E8E9EB",	"1 	c #FCFEFF",	"2 	c #F9FDFF",	"3 	c #C6D7EB",	"4 	c #8099CB",	"5 	c #718EC5",	"6 	c #7995C7",	"7 	c #9EB4CE",	"8 	c #F2F8FC",	"9 	c #E4EBF2",	"0 	c #DFE5ED",	"a 	c #C4D0DB",	"b 	c #C3C6CA",	"c 	c #DFE1E3",
"d 	c #F6FAFE",	"e 	c #E9F0F9",	"f 	c #5D7CAD",	"g 	c #002480",	"h 	c #2853A8",	"i 	c #001C75",	"j 	c #00185C",	"k 	c #0F2C6D",	"l 	c #8096BE",	"m 	c #F3FCFF",	"n 	c #F1FAFF",	"o 	c #DFE8F3",	"p 	c #B3C5D6",	"q 	c #F3F9FF",	"r 	c #F5FDFF",	"s 	c #6888AC",	"t 	c #001A6A",	"u 	c #143D90",	"v 	c #CADCF2",	"w 	c #E4EDFA",	"x 	c #305397",
"y 	c #002274",	"z 	c #00247B",	"A 	c #84A1CE",	"B 	c #E9F5FF",	"C 	c #EBF5FC",	"D 	c #DAE5F1",	"E 	c #D2DFEC",	"F 	c #F0F8FF",	"G 	c #143578",	"H 	c #002987",	"I 	c #708ABC",	"J 	c #013194",	"K 	c #DEECFC",	"L 	c #E8F4FF",	"M 	c #E3F1FF",	"N 	c #EEFBFF",	"O 	c #FBFFFF",	"P 	c #E1ECF9",	"Q 	c #96A0A9",	"R 	c #D0D6DC",	"S 	c #DAE1E8",
"T 	c #F8FFFF",	"U 	c #EDF7FF",	"V 	c #032977",	"W 	c #022D8E",	"X 	c #365CA6",	"Y 	c #9AB3D4",	"Z 	c #1F4899",	"` 	c #DFEFFF",	" .	c #EAFAFF",	"..	c #D1E1F2",	"+.	c #ADC3D7",	"@.	c #EDF7FC",	"#.	c #EAF5FF",	"$.	c #6988BE",	"%.	c #406FC8",	"&.	c #8DA5CA",	"*.	c #CDE2F9",	"=.	c #E3F3FF",	"-.	c #DCEDFF",	";.	c #DBEDFF",	">.	c #DDF0FF",
",.	c #D1E6F9",	"'.	c #B2C6DA",	").	c #AABFD2",	"!.	c #A4A7AA",	"~.	c #6F747A",	"{.	c #E6F3FF",	"].	c #E4F2FF",	"^.	c #BCD5F3",	"/.	c #C6DDF9",	"(.	c #DDEDFD",	"_.	c #07399B",	":.	c #E4F4FF",	"<.	c #D9ECFF",	"[.	c #D8EBFF",	"}.	c #DFF5FF",	"|.	c #D6E9FA",	"1.	c #9CA7B1",	"2.	c #B7C3CE",	"3.	c #E1F0FF",	"4.	c #1A3E88",	"5.	c #3566C8",
"6.	c #5A83D0",	"7.	c #C3DCF6",	"8.	c #DAEEFF",	"9.	c #D5EAFF",	"0.	c #D3E9FF",	"a.	c #D6EDFE",	"b.	c #BCD1E5",	"c.	c #97A6B2",	"d.	c #D4E1EF",	"e.	c #DDEEFF",	"f.	c #E1F3FF",	"g.	c #88B2F7",	"h.	c #C8E0F9",	"i.	c #D1E8FF",	"j.	c #CFE7FF",	"k.	c #D2EBFF",	"l.	c #BCC9D7",	"m.	c #D6EBFF",	"n.	c #0C3B9C",	"o.	c #98BBE2",	"p.	c #CCE6FF",
"q.	c #CEE8FF",	"r.	c #B3CBE2",	"s.	c #8B99A7",	"t.	c #A8B9CB",	"u.	c #B8C6D5",	"v.	c #B5D1F0",	"w.	c #6287C8",	"x.	c #CCE5FF",	"y.	c #C9E4FF",	"z.	c #CAE5FF",	"A.	c #78818B",	"B.	c #A1B5CA",	"C.	c #B0BFCE",	"D.	c #204EA6",	"E.	c #8AAFE3",	"F.	c #C8E3FF",	"G.	c #C5E2FF",	"H.	c #C6E3FF",	"I.	c #8DA7C3",	"J.	c #859DB7",	"K.	c #A2B3C3",
"L.	c #C0DCFB",	"M.	c #C4E0FF",	"N.	c #C3E1FF",	"O.	c #BBD9F8",	"P.	c #ABC7E2",	"Q.	c #788EA5",	"R.	c #737576",	"S.	c #95AABE",	"T.	c #90AFDB",	"U.	c #BEDDFC",	"V.	c #C1E0FF",	"W.	c #BFDFFF",	"X.	c #BCDCFC",	"Y.	c #ABCBEC",	"Z.	c #9EBBD9",	"`.	c #8DABC8",	" +	c #617388",	".+	c #5E5E5E",	"++	c #98ABBD",	"@+	c #A3B9CE",	"#+	c #CBE7FF",
"$+	c #466CAC",	"%+	c #C4E4FF",	"&+	c #BDDEFF",	"*+	c #B9DCFD",	"=+	c #94AFCA",	"-+	c #7395B8",	";+	c #54585B",	">+	c #C3E3FF",	",+	c #09317D",	"'+	c #A8CEF5",	")+	c #BFE1FF",	"!+	c #BADDFF",	"~+	c #B6DAFE",	"{+	c #7E9EBE",	"]+	c #505A64",	"^+	c #809BB6",	"/+	c #90A6BC",	"(+	c #C1E2FF",	"_+	c #0F3FA1",	":+	c #1B4AAB",	"<+	c #AED3F9",
"[+	c #A4C7E9",	"}+	c #96B6D8",	"|+	c #7B9CBD",	"1+	c #576F88",	"2+	c #7C99B5",	"3+	c #AAC8E7",	"4+	c #B2D3F4",	"5+	c #B7D9FB",	"6+	c #B9DBFD",	"7+	c #9FC4F0",	"8+	c #B2D8FD",	"9+	c #ACD1F7",	"0+	c #A4C8EC",	"a+	c #92B3D1",	"b+	c #789ABF",	"c+	c #708DAB",	"d+	c #A2C2E3",	"e+	c #B5DCFF",	"f+	c #9FC2E7",	"g+	c #95B8DB",	"h+	c #8DAECF",
"i+	c #58636F",	"j+	c #7191B3",	"k+	c #85A1BD",	"l+	c #82A4C4",	"m+	c #84A9CF",	"n+	c #6D93B9",	"o+	c #6C6C6C",	"p+	c #61686E",	"q+	c #7897B7",	"r+	c #7998B8",	"s+	c #7997B8",	"t+	c #8BAFD2",	"u+	c #9BC3EB",	"v+	c #769ABE",	"w+	c #4B4F52",	"x+	c #565656",	"y+	c #8CB4DB",	"z+	c #7EA3C8",	"A+	c #96C0E9",	"B+	c #73A2D2",	"C+	c #6D99C4",
"                    + @ # $ $ $ % & * = =                       ",
"              + * % - ; > , , , ' , ) ; ! * ~ {                 ",
"          + @ & - ; ] ^ . . . . . . . ' ) / ! ( _               ",
"        + : $ ; , . . . . . . . . . . . . < [ ! * } {           ",
"      + : | ) 1 . . 1 . 2 3 4 5 6 7 = . . . . 8 9 0 a b         ",
"    + c * / 1 . < d < e f g h h i j k l m n < . 8 o = p b       ",
"    ~ @ / < . d q q r s t u v w x y z t A r B m . C D E { {     ",
"  + ~ 9 d 1 q F F F e G H g I . l t J i x K L M N O P E } Q {   ",
"  R S e T F U U U U P V W H X N Y y J z Z v L ` ` N  ...+.{ {   ",
"+ R = @.n #.#.L L L B $.h %.6 r &.y J g x *.=.-.;.>. .,.'.).!.~.",
"+ _ D U #.{.{.{.].].{.K ^./.(. .f i _.J f :.;.<.[.[.}.|.3 ).1.~.",
"2.a D L ].].3.M 3.3.` 3.:.=.:.v 4.W 5.6.7.8.9.9.9.0.a.,.b.+.c.~.",
"2.} d.M 3.` ` ` e.e.;.;.<.<.f.A g 5.g.h.<.0.i.i.i.j.k.*.b.'.c.~.",
"2.l.E ` e.-.-.;.<.<.[.[.m.m.a.Z n.o.a.9.j.j.j.j.p.p.q.h.r.+.s.~.",
"t.u.3 <.<.<.[.m.9.9.9.0.i.m.v.J w.}.i.p.p.x.x.x.y.y.z.7.r.7 A.~.",
"B.C.b.,.m.9.9.0.0.i.i.i.j.k.v.D.E.a.x.z.F.F.F.F.G.H.G.v.+.I.~.~.",
"J.K.p 3 i.i.j.j.j.j.p.x.x.x.q.L.y.p.F.F.G.G.G.M.N.N.O.P.7 Q.R.  ",
"  S.t.r.h.j.p.x.z.y.F.F.y.p.T.$.A U.G.M.N.V.V.W.W.X.Y.Z.`. +.+  ",
"  J.++@+r./.z.F.F.F.H.G.#+A j j j $+%+W.W.&+&+&+*+Y.Z.=+-+;+    ",
"    J.S.@+r.L.H.G.N.N.V.>+x t H y ,+'+)+!+!+!+~+Y.Z.`.{+]+.+    ",
"      ^+/+7 P.^.W.V.W.W.(+$+i _+:+Z <+!+~+~+<+[+}+`.|+1+.+      ",
"        2+/+=+Z.3+4+5+6+W.7+X %.g.E.!+8+9+0+o.a+I.b+1+.+        ",
"          c+^+I.=+Y Z.d+Y.4+9+<+e+e+'+f+g+h+`.|+s i+.+          ",
"            Q.j+^+k+k+l+m+h+}+f+9+'+o.h+l+{+n+1+]+o+            ",
"                p+p+c+q+r+s+{+t+u+u+t+v+f 1+w+.+                ",
"                    p+p+p+2+2+l+o.u+m+1+x+p+                    ",
"                          p+2+l+y+u+m+p+                        ",
"                            p+z+m+A+B+p+                        ",
"                              p+n+y+B+i+                        ",
"                                p+C+B+i+                        ",
"                                  p+s p+                        ",
"                                    p+p+                        "
};
