/* XPM */
static char * question_xpm[] = {
"34 34 159 2",
"  	c None",
". 	c #A2A2A2",
"+ 	c #424242",
"@ 	c #020202",
"# 	c #121212",
"$ 	c #525252",
"% 	c #D2D2D2",
"& 	c #222222",
"* 	c #7A7E7E",
"= 	c #D6DADE",
"- 	c #F6FAFE",
"; 	c #F2FAFE",
"> 	c #EEF6FE",
", 	c #EAF6FE",
"' 	c #EAF2FE",
") 	c #BAC6CE",
"! 	c #464A4E",
"~ 	c #F2F2F2",
"{ 	c #1E1E22",
"] 	c #CACACE",
"^ 	c #FAFAFE",
"/ 	c #FEFEFE",
"( 	c #E6F2FE",
"_ 	c #8A929E",
": 	c #323232",
"< 	c #2E2E32",
"[ 	c #C6CACE",
"} 	c #FAFEFE",
"| 	c #DEEAFA",
"1 	c #7E8A96",
"2 	c #727272",
"3 	c #8A8E8E",
"4 	c #F2F6FE",
"5 	c #CADEF2",
"6 	c #3A424A",
"7 	c #1E1E1E",
"8 	c #CAD6EA",
"9 	c #869ACA",
"0 	c #526EAE",
"a 	c #7A8EC2",
"b 	c #E2EEFE",
"c 	c #DAEAFA",
"d 	c #DEEAF6",
"e 	c #EEF2FA",
"f 	c #9AB2CA",
"g 	c #6A6E6E",
"h 	c #A2B2D6",
"i 	c #223E96",
"j 	c #3A56A2",
"k 	c #DEEEFA",
"l 	c #D2E6F6",
"m 	c #C6DAF2",
"n 	c #D6E6F2",
"o 	c #B2CAE6",
"p 	c #323A46",
"q 	c #B2BABE",
"r 	c #BAC6E6",
"s 	c #92A6D2",
"t 	c #B6C6E6",
"u 	c #D6EAFA",
"v 	c #CEDEF2",
"w 	c #BED6EE",
"x 	c #B6CEE6",
"y 	c #52667A",
"z 	c #828282",
"A 	c #9EB2D6",
"B 	c #D6E6F6",
"C 	c #D2E2F6",
"D 	c #C6DAEE",
"E 	c #B6D2EA",
"F 	c #AAC6E2",
"G 	c #9ABADA",
"H 	c #66829E",
"I 	c #768EC2",
"J 	c #BED6EA",
"K 	c #AECAE6",
"L 	c #9EBEDE",
"M 	c #92B2D6",
"N 	c #7A9EC2",
"O 	c #5E76B6",
"P 	c #4662AA",
"Q 	c #D6E6FA",
"R 	c #B2CEE6",
"S 	c #A6C2E2",
"T 	c #96BADA",
"U 	c #86AED2",
"V 	c #76A2CA",
"W 	c #AEC2E2",
"X 	c #CEE2F2",
"Y 	c #C2DAEE",
"Z 	c #B6CEEA",
"` 	c #9ABADE",
" .	c #8EB2D6",
"..	c #7EA6CE",
"+.	c #6286AE",
"@.	c #92B6D6",
"#.	c #82AAD2",
"$.	c #729ECA",
"%.	c #4A6E92",
"&.	c #AEB6BE",
"*.	c #E2F2FE",
"=.	c #DEEEFE",
"-.	c #A2BEDE",
";.	c #92B6DA",
">.	c #86AAD2",
",.	c #6696C2",
"'.	c #324E6A",
").	c #666A6E",
"!.	c #9EB2DA",
"~.	c #2E4A9A",
"{.	c #4A66AE",
"].	c #7AA2CA",
"^.	c #6A9AC6",
"/.	c #5A8EBE",
"(.	c #1A2A3A",
"_.	c #2E2E2E",
":.	c #CEE2F6",
"<.	c #8EAAD2",
"[.	c #7AA2CE",
"}.	c #6E9AC6",
"|.	c #5E8EBE",
"1.	c #4A76A2",
"2.	c #6A727E",
"3.	c #8EA6D2",
"4.	c #2A469A",
"5.	c #4262AA",
"6.	c #9ABEDE",
"7.	c #5686BA",
"8.	c #BAD2EA",
"9.	c #A6C6E2",
"0.	c #568ABA",
"a.	c #325676",
"b.	c #CADAEE",
"c.	c #6A96C6",
"d.	c #8AA2BA",
"e.	c #EAF2FA",
"f.	c #BED2EA",
"g.	c #8AAED2",
"h.	c #82AACE",
"i.	c #6692C2",
"j.	c #5A8ABE",
"k.	c #426E96",
"l.	c #929292",
"m.	c #566A7A",
"n.	c #B2CAE2",
"o.	c #2E3A46",
"p.	c #C2C2C2",
"q.	c #E2E2E2",
"r.	c #22262A",
"s.	c #82A2C6",
"t.	c #DEE6F2",
"u.	c #323E4E",
"v.	c #26323E",
"w.	c #46627E",
"x.	c #626262",
"y.	c #121E26",
"z.	c #121A22",
"A.	c #0A1216",
"B.	c #B2B2B2",
"                                                                    ",
"                                                                    ",
"                                                                    ",
"                                                                    ",
"                  . + @ @ @ @ @ @ @ @ @ @ # $ .                     ",
"              % & * = - - ; ; ; > > > , , ' ) ! + ~                 ",
"            % { ] ^ / / / / / / / / / / / / - ( _ : ~               ",
"          ~ < [ ^ / / / ^ ^ - - - - - - - } / / | 1 +               ",
"          2 3 - / / - ; ; 4 > > > , , , ' ( , - } 5 6 .             ",
"        ~ 7 ; / / ; ; ; 4 > 8 9 0 0 a | ( ( b c d e f &             ",
"        . g - / - ; 4 > > > h i i i i j ( ( k l m n o p %           ",
"        $ q } / > > > > > > | r , s i i t b u v w o x y z           ",
"        & > / ^ > > > > > , , , , A i i B c C D E F G H $           ",
"        @ > / - > > > , , , , , c j i I k B 5 J K L M N +           ",
"        @ , / - , , , , , , ' ( O i P C Q 5 w R S T U V +           ",
"        @ , / - , , , , ' ' ( v i i W Q X Y Z F `  ...+.+           ",
"        & ' / - ' ' ' ( ( ( ( t i i B X Y E F L @.#.$.%.$           ",
"        $ &.- / ( ( ( ( ( ( *.=.c l 5 Y E K -.;.>.V ,.'.z           ",
"        . ).> / > ( ( ( *.=.c !.~.{.w Z F -.;.U ].^./.(.%           ",
"        ~ _.b } - =.k c c B :.{.i i <.F L ;.U [.}.|.1.&             ",
"          z 2.k / k l C X 5 Y 3.4.5.S 6.@.U [.}.|.7.(..             ",
"          ~ & 5 } ^ 5 Y w 8.Z K 9.L T  .#.V ^.|.0.a.+               ",
"            + 8./ / b.R o F S L G @.U ..$.c.|.7.a.: ~               ",
"            + d.e./ f.S -.6.T M g.h.].}.i.j.k.(.+ ~                 ",
"            l.m.f./ n.o.@ @ @ @ @ @ @ @ @ # $ p.                    ",
"            q.r.s.t.-.u.p.                                          ",
"              . v.>.h.w.x.                                          ",
"                z y.%.|.z.%                                         ",
"                  p.+ A.A.# %                                       ",
"                      ~ p.B..                                       ",
"                                                                    ",
"                                                                    ",
"                                                                    ",
"                                                                    "};
