/* XPM */
static char * refresh_xpm[] = {
"26 26 11 1",
" 	c None",
".	c #000000",
"+	c #526941",
"@	c #4A6139",
"#	c #526541",
"$	c #5A7141",
"%	c #415531",
"&	c #314429",
"*	c #415031",
"=	c #415931",
"-	c #5A754A",
"                          ",
"                          ",
"                          ",
"                          ",
"                          ",
"            .             ",
"           ..             ",
"          .+@...          ",
"         .#$##@%..        ",
"          .+#...%%.       ",
"        .  ..   .&.       ",
"       .    .    .&.      ",
"      ..          ..      ",
"      ..          ..      ",
"      .*.    .    .       ",
"       .*.   ..  .        ",
"       .%@...#=.          ",
"        ..##-#@#.         ",
"          ...@%.          ",
"             ..           ",
"             .            ",
"                          ",
"                          ",
"                          ",
"                          ",
"                          "};
