/* XPM */
static char * about_xpm[] = {
"30 30 91 1",
" 	c None",
".	c #BDC2BD",
"+	c #C5C2BD",
"@	c #949983",
"#	c #414039",
"$	c #6A6D6A",
"%	c #9C9D94",
"&	c #5A5941",
"*	c #626520",
"=	c #6A6939",
"-	c #7B7973",
";	c #C5C2C5",
">	c #BDBEBD",
",	c #B4B6B4",
"'	c #73756A",
")	c #313808",
"!	c #C5CE31",
"~	c #949520",
"{	c #292C18",
"]	c #9C9D9C",
"^	c #B4B29C",
"/	c #737162",
"(	c #292829",
"_	c #202820",
":	c #6A6929",
"<	c #C5CA31",
"[	c #E6EE39",
"}	c #CDD639",
"|	c #949929",
"1	c #394029",
"2	c #393831",
"3	c #8B9183",
"4	c #BDBEB4",
"5	c #626131",
"6	c #6A6D18",
"7	c #A4A529",
"8	c #EEF639",
"9	c #CDD239",
"0	c #7B8120",
"a	c #626918",
"b	c #8B918B",
"c	c #393839",
"d	c #6A6D20",
"e	c #D5DE39",
"f	c #EEF239",
"g	c #F6FA39",
"h	c #DEE639",
"i	c #B4BA31",
"j	c #393C20",
"k	c #A4A5A4",
"l	c #6A695A",
"m	c #414410",
"n	c #CDD231",
"o	c #949920",
"p	c #94918B",
"q	c #73716A",
"r	c #181C00",
"s	c #C5C631",
"t	c #D5DA39",
"u	c #737518",
"v	c #181818",
"w	c #ACAEAC",
"x	c #7B797B",
"y	c #BDC231",
"z	c #626518",
"A	c #D5DA31",
"B	c #525010",
"C	c #838520",
"D	c #CDD631",
"E	c #ACB631",
"F	c #525541",
"G	c #626539",
"H	c #8B9520",
"I	c #838183",
"J	c #202410",
"K	c #838929",
"L	c #292C29",
"M	c #949D29",
"N	c #6A7120",
"O	c #B4B2B4",
"P	c #ACAAA4",
"Q	c #62695A",
"R	c #313018",
"S	c #5A6152",
"T	c #414029",
"U	c #4A4C39",
"V	c #8B8D8B",
"W	c #A4A59C",
"X	c #949594",
"Y	c #737573",
"Z	c #838583",
"                              ",
"                              ",
"                              ",
"                              ",
"                              ",
"                              ",
"                              ",
"                              ",
"                              ",
"                              ",
"               .              ",
"             +@#$             ",
"             %&*=-;           ",
"           >,')!~{]>>         ",
"         ^/(_:<[}|1(234       ",
"         /566788[90a*&b       ",
"        >cdefgggg88hij$       ",
"         klmngggg8fojp>       ",
"          qrs8gggftuvw        ",
"          xryffeh[yzvw        ",
"          xr<8ABCfDuvw        ",
"          xrEi0FGHsuvw        ",
"          IJK*Lp${MNLO        ",
"          PQRSO +]TUV         ",
"           W$X    YZ>         ",
"                              ",
"                              ",
"                              ",
"                              ",
"                              "};
