/* XPM */
static char * back_xpm[] = {
"30 30 34 1",
" 	c None",
".	c #000000",
"+	c #C5C2C5",
"@	c #BDD2BD",
"#	c #B4B6B4",
"$	c #CDDECD",
"%	c #B4C6B4",
"&	c #B4B2B4",
"*	c #B4CAB4",
"=	c #B4CEB4",
"-	c #BDCEB4",
";	c #BDCEBD",
">	c #7BAA7B",
",	c #BDBEBD",
"'	c #ACC6AC",
")	c #B4CAAC",
"!	c #ACC6A4",
"~	c #6A8162",
"{	c #292C29",
"]	c #ACCAAC",
"^	c #B4C6AC",
"/	c #628D62",
"(	c #9CAE9C",
"_	c #83AE83",
":	c #83B283",
"<	c #8BAE83",
"[	c #8BB283",
"}	c #527152",
"|	c #395031",
"1	c #5A7952",
"2	c #4A6141",
"3	c #415539",
"4	c #A4A5A4",
"5	c #ACAEAC",
"                              ",
"                              ",
"                              ",
"                              ",
"                              ",
"                              ",
"                              ",
"                              ",
"               .              ",
"              ..+             ",
"             .@.#             ",
"            .$%.&             ",
"           .$*%........       ",
"          .$*==-@-;@*>.,      ",
"         .$'**)'''''!~.&      ",
"        {$]^'']'''^']/.&      ",
"       .(______:<_:[_}.&      ",
"        .|111111111112.&      ",
"         .|11111111112.&      ",
"          .|112||||||3.&      ",
"           .|12........&      ",
"            .|2.45&&&&&,      ",
"             .2.5,            ",
"              ..&             ",
"               .#             ",
"                +             ",
"                              ",
"                              ",
"                              ",
"                              "};
