/* XPM */
static char * cdrom_xpm[] = {
"30 30 201 2",
"  	c None",
". 	c #9C9D9C",
"+ 	c #5A595A",
"@ 	c #414441",
"# 	c #000000",
"$ 	c #626162",
"% 	c #BDBABD",
"& 	c #ACAAAC",
"* 	c #CDCECD",
"= 	c #E6DEE6",
"- 	c #F6EAF6",
"; 	c #EEEAF6",
"> 	c #E6DEEE",
", 	c #B4B2B4",
"' 	c #8B898B",
") 	c #B4B6B4",
"! 	c #5A5D5A",
"~ 	c #DEDADE",
"{ 	c #EEE2E6",
"] 	c #E6CEDE",
"^ 	c #EEDAEE",
"/ 	c #EEE2EE",
"( 	c #DEDAEE",
"_ 	c #CDCADE",
": 	c #94999C",
"< 	c #4A4C4A",
"[ 	c #BDBEBD",
"} 	c #D5CECD",
"| 	c #CDA5AC",
"1 	c #C59DAC",
"2 	c #DEC2CD",
"3 	c #EEDAE6",
"4 	c #F6E6F6",
"5 	c #E6E2EE",
"6 	c #D5D6E6",
"7 	c #BDC2D5",
"8 	c #B4BECD",
"9 	c #BDC2CD",
"0 	c #313431",
"a 	c #737573",
"b 	c #EEDEE6",
"c 	c #B47D83",
"d 	c #AC717B",
"e 	c #BD919C",
"f 	c #D5BAC5",
"g 	c #E6D6E6",
"h 	c #EEE6F6",
"i 	c #D5D2E6",
"j 	c #B4BED5",
"k 	c #B4C2D5",
"l 	c #BDCAD5",
"m 	c #C5D2D5",
"n 	c #EEEAEE",
"o 	c #DEBECD",
"p 	c #CDAAB4",
"q 	c #B4797B",
"r 	c #B4858B",
"s 	c #CDAEBD",
"t 	c #F6E2EE",
"u 	c #DEDEEE",
"v 	c #C5CADE",
"w 	c #C5DADE",
"x 	c #D5DADE",
"y 	c #C5C2C5",
"z 	c #F6E6EE",
"A 	c #AC757B",
"B 	c #E6CAD5",
"C 	c #F6EEF6",
"D 	c #F6F2F6",
"E 	c #BDC6D5",
"F 	c #CDDADE",
"G 	c #CDE2DE",
"H 	c #D5E6E6",
"I 	c #A4A1A4",
"J 	c #DECADE",
"K 	c #E6D2E6",
"L 	c #E6D2DE",
"M 	c #DEC6D5",
"N 	c #D5AEB4",
"O 	c #E6D6D5",
"P 	c #EEEEEE",
"Q 	c #DEDEDE",
"R 	c #E6E2E6",
"S 	c #BDC6CD",
"T 	c #CDDEDE",
"U 	c #DEEAE6",
"V 	c #E6EEE6",
"W 	c #E6EAE6",
"X 	c #A4A5A4",
"Y 	c #525552",
"Z 	c #BDB6BD",
"` 	c #E6CEE6",
" .	c #F6EAEE",
"..	c #E6E6E6",
"+.	c #DEE6E6",
"@.	c #EEF2EE",
"#.	c #E7F3E7",
"$.	c #949594",
"%.	c #626562",
"&.	c #4A484A",
"*.	c #DED6E6",
"=.	c #E6DAE6",
"-.	c #EEDEEE",
";.	c #D5D6D5",
">.	c #ACAEAC",
",.	c #EFF7EF",
"'.	c #B4BAB4",
").	c #E6DAEE",
"!.	c #E6EEDE",
"~.	c #E6EADE",
"{.	c #DEE6D5",
"].	c #EEEEF6",
"^.	c #E6E6EE",
"/.	c #F6F2FF",
"(.	c #D5E2CD",
"_.	c #D5DECD",
":.	c #CDDECD",
"<.	c #E6E6F6",
"[.	c #E6E2F6",
"}.	c #DEE2D5",
"|.	c #C5D2B4",
"1.	c #C5D2BD",
"2.	c #414041",
"3.	c #ACAAB4",
"4.	c #DEE2EE",
"5.	c #E6EAF6",
"6.	c #EEF2F6",
"7.	c #7B7D7B",
"8.	c #DEDABD",
"9.	c #D5D6BD",
"0.	c #CDD2B4",
"a.	c #C5CAAC",
"b.	c #9CA194",
"c.	c #83858B",
"d.	c #DEE6EE",
"e.	c #E6EAEE",
"f.	c #E6EEF6",
"g.	c #E6F2F6",
"h.	c #F6F6F6",
"i.	c #838583",
"j.	c #EEE6E6",
"k.	c #DED2BD",
"l.	c #DED6BD",
"m.	c #D5D2B4",
"n.	c #7B7D73",
"o.	c #737173",
"p.	c #DEE2E6",
"q.	c #DEEAEE",
"r.	c #E6EEEE",
"s.	c #C5A1A4",
"t.	c #CDA194",
"u.	c #D5BEA4",
"v.	c #DECAB4",
"w.	c #DED2B4",
"x.	c #CDCAB4",
"y.	c #ACB2B4",
"z.	c #DEE6DE",
"A.	c #E6E2CD",
"B.	c #DEC6AC",
"C.	c #C5998B",
"D.	c #B47D7B",
"E.	c #C59D8B",
"F.	c #CDB6A4",
"G.	c #D5C2AC",
"H.	c #D5CAB4",
"I.	c #94918B",
"J.	c #DEEADE",
"K.	c #E6EAD5",
"L.	c #DECEB4",
"M.	c #C5AA94",
"N.	c #B4817B",
"O.	c #C5958B",
"P.	c #CDAE9C",
"Q.	c #BDAEA4",
"R.	c #8B8D8B",
"S.	c #D5E2DE",
"T.	c #D5E6DE",
"U.	c #E6E6CD",
"V.	c #CDBAA4",
"W.	c #BD9183",
"X.	c #AC797B",
"Y.	c #AC7D7B",
"Z.	c #AC8D83",
"`.	c #7B797B",
" +	c #838183",
".+	c #E6E6D5",
"++	c #BDA18B",
"@+	c #AC8173",
"#+	c #947573",
"$+	c #000400",
"%+	c #D5C6AC",
"&+	c #BDA594",
"*+	c #736D6A",
"=+	c #6A6D6A",
"-+	c #8B918B",
";+	c #ACB2AC",
">+	c #D5DAC5",
",+	c #A4A194",
"'+	c #73716A",
")+	c #525052",
"!+	c #393839",
"                                                            ",
"                                                            ",
"                                                            ",
"                                                            ",
"                                                            ",
"                    . + @ # # # @ $ %                       ",
"                & # # * = - ; > , ' # # )                   ",
"              ! # ~ { ] ^ / / / > ( _ : # < [               ",
"            # . } | 1 2 3 4 / 5 > 6 7 8 9 + 0 [             ",
"          a ! b c d e f g 4 h / > i j k l m ' !             ",
"        ) # n o p q r s ] t h h u v k l m w x # [           ",
"        # y z ] 2 p A 1 B C D D u 7 E m F G H ) #           ",
"      I # - J K L M N O n P P Q R S m T H U V W # X         ",
"      Y Z - ` K g g  .n & # # # , ..+.U V @.@.#.$.%.        ",
"      &.R *.*.K =.-.n $.# [ ;.[ # >.P ,.@.#.#.V '.&.        ",
"      # ; ).).> > C P # [ ;.;.;.[ # D ,.V !.!.~.{.#         ",
"      # ].5 ^.h h /.P # ;.;.;.;.;.# P V (.(._._.:.#         ",
"      # <.[.[.<.<./.P # [ ;.;.;.% # P }.|.|.1.1.1.#         ",
"      2.3.u 4.^.5.6.n . # [ ;.[ # 7...8.9.0.a.a.b.<         ",
"      + c.4.d.e.f.g.h...) # # # i.D j.k.l.l.m.a.n.o.        ",
"      . # p.q.r.f.r.r.r...n n ~ n s.t.u.v.w.m.x.# ,         ",
"        # y.r.r.r.U U z.z.~.!.A.B.C.D.E.F.G.H.I.#           ",
"        % # +.U +.+.z.z.J.~.K.A.L.M.N.D.O.P.Q.# y           ",
"          Y R.S.T.z.T.J.J.~.K.U.l.V.W.X.Y.Z.+ `.            ",
"            #  +z.T.z.J.~..+K.U.8.G.++@+#+@ $+[             ",
"              &.# ) z.J.z.{..+A.8.%+&+*+# =+[               ",
"                  # # -+;+_.{.>+,+'+# # %                   ",
"                    X )+2.# # # !++ &                       ",
"                                                            ",
"                                                            "};
