/* XPM */
static char * copy_xpm[] = {
"30 30 28 1",
" 	c None",
".	c #6A696A",
"+	c #000000",
"@	c #6A6D6A",
"#	c #B4B6B4",
"$	c #FFFAFF",
"%	c #F6F6F6",
"&	c #C5C2C5",
"*	c #EEEAEE",
"=	c #BDBABD",
"-	c #9C999C",
";	c #838183",
">	c #8B898B",
",	c #B4B2B4",
"'	c #626162",
")	c #5A595A",
"!	c #FFFFFF",
"~	c #D5D6D5",
"{	c #A4A5A4",
"]	c #8B8D8B",
"^	c #C5C6C5",
"/	c #E6E6E6",
"(	c #737573",
"_	c #7B7D7B",
":	c #BDBEBD",
"<	c #B4BAB4",
"[	c #9CA19C",
"}	c #626562",
"                              ",
"                              ",
"                              ",
"                              ",
"                              ",
"                              ",
"    .++++++++++++@            ",
"    +#$$$$$$$$$%&+            ",
"    +$***********+=           ",
"    +$-;;>*#;*;#*+#           ",
"    +$***********+,           ",
"    +$')*.;#*++++++++++++;    ",
"    +$******+,!!!!!!!!!!~+    ",
"    +$-;;*;;+!!!!!!!!!!!!+=   ",
"    +$******+!{]]-!^]!]^!+#   ",
"    +$'))*.;+!!!!!!!!!!!!+,   ",
"    +$*****/+!@'!(]^!^]!!+,   ",
"    +$-;;*;;+!!!!!!!!!!!!+,   ",
"    +%******+!{]]!]]^!-]!+,   ",
"    +&******+!!!!!!!!!!!!+,   ",
"    _++++++++!@''!(]^!^]!+,   ",
"      :=<##[+!!!!!!!!!!!!+,   ",
"            +!{]]!]]^!-]!+,   ",
"            +!!!!!!!!!!!!+,   ",
"            +~!!!!!!!!!!~+#   ",
"            }++++++++++++'=   ",
"              :=<########=    ",
"                              ",
"                              ",
"                              "};
