/* XPM */
static char * descending_xpm[] = {
"30 30 28 1",
" 	c None",
".	c #000000",
"+	c #FFF2EE",
"@	c #E6BABD",
"#	c #8B5D62",
"$	c #E6BEBD",
"%	c #C54831",
"&	c #942831",
"*	c #C54C39",
"=	c #EEBEBD",
"-	c #EEC2BD",
";	c #E6B2AC",
">	c #CD695A",
",	c #623C39",
"'	c #E6B6AC",
")	c #D5796A",
"!	c #9C2C18",
"~	c #7B2418",
"{	c #100C08",
"]	c #291C18",
"^	c #DEAA9C",
"/	c #D58573",
"(	c #7B2410",
"_	c #311C20",
":	c #D5D6D5",
"<	c #392429",
"[	c #D5897B",
"}	c #392831",
"                              ",
"                              ",
"                              ",
"                              ",
"                              ",
"                              ",
"                              ",
"                              ",
"                 ......       ",
"        .....       ...       ",
"        .+@#.      ...        ",
"        .$%&.     ...         ",
"        .$*&.    ...          ",
"        .=*&.    ......       ",
"        .-*&.                 ",
"        .$*&.      ..         ",
"        .$*&.      ..         ",
"        .$*&.                 ",
"        .$*&.      ..         ",
"        .@*&.      ..         ",
"      ...;>&...               ",
"      .,';)!~{.   ....        ",
"       .]^/(_.   ..::..       ",
"        .<[_.    ..::..       ",
"         .}.     ......       ",
"          .      ..  ..       ",
"                 ..  ..       ",
"                              ",
"                              ",
"                              "};
