/* XPM */
static char * error_xpm[] = {
"30 30 150 2",
"  	c None",
". 	c #B49D9C",
"+ 	c #A4918B",
"@ 	c #A48D8B",
"# 	c #B4A59C",
"$ 	c #C5B6B4",
"% 	c #94716A",
"& 	c #A4695A",
"* 	c #C56552",
"= 	c #D5614A",
"- 	c #DE5941",
"; 	c #CD5039",
"> 	c #AC4431",
", 	c #8B4031",
"' 	c #94756A",
") 	c #AC8D83",
"! 	c #9C695A",
"~ 	c #DE694A",
"{ 	c #DE4420",
"] 	c #DE3C18",
"^ 	c #D53818",
"/ 	c #D53418",
"( 	c #D53410",
"_ 	c #CD3010",
": 	c #CD2C10",
"< 	c #B42C18",
"[ 	c #7B2C20",
"} 	c #B4AAAC",
"| 	c #A48583",
"1 	c #B4715A",
"2 	c #E64C29",
"3 	c #C52810",
"4 	c #C52410",
"5 	c #7B2010",
"6 	c #B4A5A4",
"7 	c #B4A19C",
"8 	c #AC6D62",
"9 	c #DE4820",
"0 	c #BD2410",
"a 	c #BD2008",
"b 	c #7B2418",
"c 	c #C5C2C5",
"d 	c #946D62",
"e 	c #E65031",
"f 	c #C52C10",
"g 	c #BD1C08",
"h 	c #AC1808",
"i 	c #835D5A",
"j 	c #ACA19C",
"k 	c #C5654A",
"l 	c #DE3818",
"m 	c #D53010",
"n 	c #B41C08",
"o 	c #B41808",
"p 	c #831810",
"q 	c #9C7973",
"r 	c #DE4829",
"s 	c #CD3418",
"t 	c #C53010",
"u 	c #BD2810",
"v 	c #B42008",
"w 	c #AC1C08",
"x 	c #B41408",
"y 	c #9C1000",
"z 	c #9C8983",
"A 	c #9C655A",
"B 	c #CD8173",
"C 	c #F6F2F6",
"D 	c #EEEEEE",
"E 	c #EEEAEE",
"F 	c #E6E6E6",
"G 	c #B42418",
"H 	c #AC1008",
"I 	c #A41000",
"J 	c #8B6562",
"K 	c #A45541",
"L 	c #D58573",
"M 	c #FFFAFF",
"N 	c #F6F6F6",
"O 	c #BD3429",
"P 	c #AC1000",
"Q 	c #A40C00",
"R 	c #8B5552",
"S 	c #9C4431",
"T 	c #B43029",
"U 	c #AC0C00",
"V 	c #9C0800",
"W 	c #835552",
"X 	c #944431",
"Y 	c #D56952",
"Z 	c #E6B2AC",
"` 	c #E6B6AC",
" .	c #E6AEAC",
"..	c #DEAEA4",
"+.	c #DEAAA4",
"@.	c #DEA5A4",
"#.	c #D59994",
"$.	c #AC1810",
"%.	c #A40800",
"&.	c #8B0400",
"*.	c #735D5A",
"=.	c #946962",
"-.	c #AC1408",
";.	c #9C0400",
">.	c #730400",
",.	c #7B7173",
"'.	c #B4B2B4",
").	c #9C2008",
"!.	c #521010",
"~.	c #7B7D7B",
"{.	c #A4A1A4",
"].	c #BDBABD",
"^.	c #7B4439",
"/.	c #730000",
"(.	c #4A3C39",
"_.	c #7B797B",
":.	c #9C999C",
"<.	c #B4B6B4",
"[.	c #BDB6B4",
"}.	c #A40400",
"|.	c #7B0000",
"1.	c #411818",
"2.	c #5A5D5A",
"3.	c #9C9D9C",
"4.	c #7B1C10",
"5.	c #411410",
"6.	c #525052",
"7.	c #6A6D6A",
"8.	c #8B898B",
"9.	c #ACAAAC",
"0.	c #B4AEAC",
"a.	c #733431",
"b.	c #941008",
"c.	c #830000",
"d.	c #5A0400",
"e.	c #412820",
"f.	c #737173",
"g.	c #838983",
"h.	c #BDBEBD",
"i.	c #9C8D8B",
"j.	c #7B4039",
"k.	c #731810",
"l.	c #7B0800",
"m.	c #7B0400",
"n.	c #6A0800",
"o.	c #523431",
"p.	c #626162",
"q.	c #949994",
"r.	c #ACAEAC",
"s.	c #A4A5A4",
"                                                            ",
"                                                            ",
"                                                            ",
"                                                            ",
"                                                            ",
"                                                            ",
"                                                            ",
"                      . + @ + #                             ",
"                $ % & * = - ; > , '                         ",
"              ) ! ~ { ] ^ / ( _ : < [ }                     ",
"            | 1 2 ] ] ^ / ( _ : : 3 4 5 6                   ",
"          7 8 9 ] ] ^ / ( _ : : 3 4 0 a b c                 ",
"          d e ] ] ^ / ( _ : f 3 4 0 a g h i                 ",
"        j k ] l ^ / m _ : f 3 4 0 a g n o p                 ",
"        q r l s _ t f f u 0 0 v n n w o x y z               ",
"        A ^ ^ B C D D D E E E E F F E G H I J               ",
"        K ^ / L M N N N C C C D D D D O P Q R               ",
"        S / _ B N C C C D D D D E E D T U V W               ",
"        X _ _ Y Z ` ` `  . ...+.@.@.#.$.%.&.*.              ",
"        =.: : 3 3 4 a a g o o -.H P Q %.;.>.,.'.c           ",
"        6 ).3 4 4 a g g o o -.H P Q %.%.&.!.~.{.].          ",
"          ^.0 4 a g n o x -.H U Q %.%.;./.(._.:.<.          ",
"          [.5 a g n o x -.H U Q %.}.;.|.1.2._.3.].          ",
"            6 4.o o x -.H U Q %.}.;./.5.6.7.8.9.c           ",
"              0.a.b.H P U Q %.;.c.d.e.2.f.g.{.h.            ",
"                  i.j.k.l.m.n.!.o.p.~.g.q.9.h.              ",
"                      c r.3.:.:.{.s.9.'.h.                  ",
"                                                            ",
"                                                            ",
"                                                            "};
