/* XPM */
static char * find2_xpm[] = {
"30 30 100 2",
"  	c None",
". 	c #8B8D8B",
"+ 	c #000000",
"@ 	c #6A696A",
"# 	c #D5D2D5",
"$ 	c #F6F6F6",
"% 	c #FFFFFF",
"& 	c #FFFAFF",
"* 	c #DEDADE",
"= 	c #5A595A",
"- 	c #313431",
"; 	c #C5C6C5",
"> 	c #D5D6D5",
", 	c #C5C2C5",
"' 	c #E6E2E6",
") 	c #F6F2F6",
"! 	c #9C999C",
"~ 	c #ACAEAC",
"{ 	c #EEEAEE",
"] 	c #DEDEDE",
"^ 	c #A4A5A4",
"/ 	c #CDCECD",
"( 	c #A4A1A4",
"_ 	c #393C39",
": 	c #BDBABD",
"< 	c #414439",
"[ 	c #080808",
"} 	c #4A4841",
"| 	c #B4B6B4",
"1 	c #9C9D9C",
"2 	c #ACAAAC",
"3 	c #313429",
"4 	c #9C9D8B",
"5 	c #CDCEBD",
"6 	c #C5C6AC",
"7 	c #8B8D7B",
"8 	c #F6F2EE",
"9 	c #736D6A",
"0 	c #62615A",
"a 	c #E6E2D5",
"b 	c #EEEEE6",
"c 	c #C5C2AC",
"d 	c #B4B29C",
"e 	c #838173",
"f 	c #4A4C41",
"g 	c #E6E6E6",
"h 	c #E6E2DE",
"i 	c #DEDAD5",
"j 	c #8B857B",
"k 	c #BDBEBD",
"l 	c #FFFAF6",
"m 	c #D5D6BD",
"n 	c #B4B6A4",
"o 	c #A4A594",
"p 	c #080800",
"q 	c #EEEAE6",
"r 	c #8B8983",
"s 	c #CDCAB4",
"t 	c #DEDED5",
"u 	c #ACAA9C",
"v 	c #9C998B",
"w 	c #ACAEA4",
"x 	c #EEE6E6",
"y 	c #D5D2CD",
"z 	c #8B897B",
"A 	c #F6EEEE",
"B 	c #414441",
"C 	c #949183",
"D 	c #BDBAA4",
"E 	c #ACAE9C",
"F 	c #B4B2B4",
"G 	c #E6DEDE",
"H 	c #94918B",
"I 	c #949594",
"J 	c #83857B",
"K 	c #A4A194",
"L 	c #C5C2BD",
"M 	c #B4B2AC",
"N 	c #A49D94",
"O 	c #EEEEEE",
"P 	c #8B898B",
"Q 	c #414041",
"R 	c #737173",
"S 	c #CDCACD",
"T 	c #ACAAA4",
"U 	c #A49994",
"V 	c #CDC6C5",
"W 	c #B4AEAC",
"X 	c #D5CECD",
"Y 	c #CDCAC5",
"Z 	c #C5BEBD",
"` 	c #7B797B",
" .	c #BDBAB4",
"..	c #9C958B",
"+.	c #9C918B",
"@.	c #9C9994",
"#.	c #A4998B",
"$.	c #9C9183",
"%.	c #948D83",
"&.	c #737973",
"                                                            ",
"                                                            ",
"                                                            ",
"                                                            ",
"                                                            ",
"                                                            ",
"          . + + + + + + + + + + + + @                       ",
"          + # $ % % % % % % % % & * = -                     ",
"          + $ % % % % % % % % % % ; # > +                   ",
"          + % % % % % % % % % % % , ' ) ! +                 ",
"          + % % % % % % % % % % & ~ { % ] . +               ",
"          + % % % % % % & & & & & ^ ) % $ / ( _             ",
"          + % % % % : < [ [ } | $ 1 + + + + + + @           ",
"          + % % & 2 3 4 5 6 7 - ~ 8 ] # | 1 9 0 +           ",
"          + % & & < 4 a b c d e f g h i i / ~ j + k         ",
"          + % l $ [ m & c n o 4 p / ' { q > , r + k         ",
"          + % $ ) [ s t n u v w [ : i x g ' y z + k         ",
"          + % ) A B C D E 4 w / f F # h ' h G H + k         ",
"          + % ) A I 3 J K w L + + M y h ' h G N + k         ",
"          + % 8 O ] P } [ [ Q R + + ( ] h h G N + k         ",
"          + % O { h S F ( 1 1 1 + + + T i ] ] U + k         ",
"          + % { q g i V | ~ W F R + + + 1 i i U + k         ",
"          + % g g g h i # X X y Y @ + + + / > v + k         ",
"          + & ' h h h h G G ] ] > Z ` + +  ./ ..+ k         ",
"          + O h G h G h G h G h i y  .^ 1 T ; ..+ k         ",
"          + # G G ] ] G ] G ] G ] i / k 2 M ; +.+ k         ",
"          + @.N N N N N N N N N #.U ..$.%.%.C 0 + k         ",
"          P + + + + + + + + + + + + + + + + + + &.,         ",
"              k k k k k k k k k k k k k k k k k ,           ",
"                                                            "};
