/* XPM */
static char * first_xpm[] = {
"30 30 41 1",
" 	c None",
".	c #000000",
"+	c #F6F6F6",
"@	c #CDD6CD",
"#	c #E6EEE6",
"$	c #ACCAAC",
"%	c #CDDACD",
"&	c #BDCEBD",
"*	c #B4C6B4",
"=	c #BDCEB4",
"-	c #B4CEB4",
";	c #BDD6BD",
">	c #C5D6C5",
",	c #DEE6DE",
"'	c #7BAA7B",
")	c #BDD2BD",
"!	c #B4CAB4",
"~	c #B4CAAC",
"{	c #ACC6AC",
"]	c #ACC6A4",
"^	c #6A8162",
"/	c #292C29",
"(	c #E6EADE",
"_	c #B4C6AC",
":	c #628D62",
"<	c #9CB69C",
"[	c #6A9162",
"}	c #C5CEC5",
"|	c #8BB68B",
"1	c #83AE83",
"2	c #83B283",
"3	c #8BAE83",
"4	c #8BB283",
"5	c #527152",
"6	c #94AA8B",
"7	c #5A7952",
"8	c #395031",
"9	c #4A6141",
"0	c #415539",
"a	c #8B9D7B",
"b	c #415D39",
"                              ",
"                              ",
"                              ",
"                              ",
"                              ",
"                              ",
"                              ",
"                              ",
"     ....        .            ",
"     .+@.       ..            ",
"     .#$.      .%.            ",
"     .#$.     .#&.            ",
"     .#$.    .#&*........     ",
"     .#$.   .#=--=;>,,%'.     ",
"     .#$.  .#)!!~{{{{{]^.     ",
"     .#$. /(-_{{${{{_{$:.     ",
"     .<[..}|111112312415.     ",
"     .67. .8777777777779.     ",
"     .67.  .877777777779.     ",
"     .67.   .87798888880.     ",
"     .67.    .879........     ",
"     .67.     .89.            ",
"     .67.      .9.            ",
"     .ab.       ..            ",
"     ....        .            ",
"                              ",
"                              ",
"                              ",
"                              ",
"                              "};
