/* XPM */
static char * forward_xpm[] = {
"30 30 34 1",
" 	c None",
".	c #000000",
"+	c #8BA583",
"@	c #B4CEAC",
"#	c #73A16A",
"$	c #B4CEB4",
"%	c #ACCAAC",
"&	c #739962",
"*	c #C5D6BD",
"=	c #BDD2BD",
"-	c #BDD6BD",
";	c #B4CAAC",
">	c #B4CAB4",
",	c #ACC6AC",
"'	c #081008",
")	c #ACC6A4",
"!	c #A4C6A4",
"~	c #7B9D73",
"{	c #A4BEA4",
"]	c #A4C2A4",
"^	c #6A9162",
"/	c #738D6A",
"(	c #6A8D62",
"_	c #415929",
":	c #6A8562",
"<	c #5A7952",
"[	c #ACAEAC",
"}	c #BDBEBD",
"|	c #ACAAAC",
"1	c #B4B6B4",
"2	c #62815A",
"3	c #526941",
"4	c #B4B2B4",
"5	c #C5C2C5",
"                              ",
"                              ",
"                              ",
"                              ",
"                              ",
"                              ",
"                              ",
"                              ",
"              .               ",
"              ..              ",
"              .+.             ",
"              .@#.            ",
"       ........$%&.           ",
"       .*=-****;>,&'          ",
"       .,%,,,)),%,!~.         ",
"       .{,)!)),%,,%]^.        ",
"       ./(^^^^^^^^^^(_.       ",
"       .:<<<<<<<<<<<_.[}      ",
"       .:<<<<<<<<<<_.|1       ",
"       .2333333<<<_.|1        ",
"       ........3<_.|1         ",
"        }44444.3_.|1          ",
"              ._.|1           ",
"              ..|1            ",
"              .11             ",
"               5              ",
"                              ",
"                              ",
"                              ",
"                              "};
