/* XPM */
static char * help_xpm[] = {
"30 30 184 2",
"  	c None",
". 	c #838183",
"+ 	c #414041",
"@ 	c #4A484A",
"# 	c #949994",
"$ 	c #ACAAA4",
"% 	c #6A6D6A",
"& 	c #313031",
"* 	c #000400",
"= 	c #292C29",
"- 	c #6A6562",
"; 	c #9C9D9C",
"> 	c #949194",
", 	c #8B898B",
"' 	c #000000",
") 	c #5A595A",
"! 	c #4A4C4A",
"~ 	c #101010",
"{ 	c #838583",
"] 	c #C5BEBD",
"^ 	c #EEEAE6",
"/ 	c #F6F2F6",
"( 	c #F6F2EE",
"_ 	c #E6DEDE",
": 	c #ACAEAC",
"< 	c #202420",
"[ 	c #7B7D7B",
"} 	c #181C18",
"| 	c #181818",
"1 	c #080C08",
"2 	c #101410",
"3 	c #626162",
"4 	c #D5D6D5",
"5 	c #CDCACD",
"6 	c #524C4A",
"7 	c #FFFAF6",
"8 	c #FFFFFF",
"9 	c #F6F6F6",
"0 	c #F6EEEE",
"a 	c #DEDAD5",
"b 	c #202020",
"c 	c #B4B6B4",
"d 	c #C5CAC5",
"e 	c #6A696A",
"f 	c #737573",
"g 	c #525552",
"h 	c #CDCAC5",
"i 	c #312420",
"j 	c #AC3818",
"k 	c #FFAA94",
"l 	c #FFEAE6",
"m 	c #EEEAEE",
"n 	c #EECEC5",
"o 	c #D53408",
"p 	c #731800",
"q 	c #201818",
"r 	c #B4B2B4",
"s 	c #292829",
"t 	c #525952",
"u 	c #523C31",
"v 	c #AC3C20",
"w 	c #FFCEBD",
"x 	c #F6BEAC",
"y 	c #E67552",
"z 	c #DEDEDE",
"A 	c #DED6D5",
"B 	c #E6E2DE",
"C 	c #E65529",
"D 	c #E63808",
"E 	c #6A1400",
"F 	c #312820",
"G 	c #313431",
"H 	c #947973",
"I 	c #FFD6CD",
"J 	c #EE7552",
"K 	c #D55029",
"L 	c #C58173",
"M 	c #BDBEBD",
"N 	c #A4A1A4",
"O 	c #9C9994",
"P 	c #BDB6B4",
"Q 	c #E6E6E6",
"R 	c #E69983",
"S 	c #E63C08",
"T 	c #CD3008",
"U 	c #A4A5A4",
"V 	c #FFB29C",
"W 	c #EE8162",
"X 	c #DE5029",
"Y 	c #C53408",
"Z 	c #942000",
"` 	c #837973",
" .	c #DE3408",
"..	c #EE7D5A",
"+.	c #EE5931",
"@.	c #DE3808",
"#.	c #9C2000",
"$.	c #FFF2EE",
"%.	c #F6957B",
"&.	c #A4AAA4",
"*.	c #8B8D8B",
"=.	c #621400",
"-.	c #E65029",
";.	c #F6A594",
">.	c #E64C20",
",.	c #CD9183",
"'.	c #626562",
").	c #FFFAFF",
"!.	c #E6DAD5",
"~.	c #C54C29",
"{.	c #B42800",
"].	c #9C2C10",
"^.	c #EE8D73",
"/.	c #F69983",
"(.	c #EEDED5",
"_.	c #9C6152",
":.	c #C5C2C5",
"<.	c #390C00",
"[.	c #F6BAAC",
"}.	c #EEE6E6",
"|.	c #5A5552",
"1.	c #B4BAB4",
"2.	c #C5C2BD",
"3.	c #9C9594",
"4.	c #ACAAAC",
"5.	c #080808",
"6.	c #E6E2E6",
"7.	c #D5D2CD",
"8.	c #62615A",
"9.	c #DEDADE",
"0.	c #C5C6C5",
"a.	c #EEEEEE",
"b.	c #393C39",
"c.	c #BDBAB4",
"d.	c #7B4839",
"e.	c #CDCECD",
"f.	c #B4B2AC",
"g.	c #EEE2DE",
"h.	c #E6856A",
"i.	c #DE5D39",
"j.	c #621808",
"k.	c #B46D5A",
"l.	c #FFC2B4",
"m.	c #DED2CD",
"n.	c #CDC6C5",
"o.	c #5A5D5A",
"p.	c #EEAE9C",
"q.	c #EE6139",
"r.	c #391810",
"s.	c #6A4039",
"t.	c #E6A194",
"u.	c #FFD2C5",
"v.	c #F6AE9C",
"w.	c #CD3408",
"x.	c #B48173",
"y.	c #737173",
"z.	c #EE5929",
"A.	c #EE7952",
"B.	c #F6B6A4",
"C.	c #F6B29C",
"D.	c #F6E6E6",
"E.	c #FFCEC5",
"F.	c #F6896A",
"G.	c #BD2C08",
"H.	c #200800",
"I.	c #312C29",
"J.	c #E64C18",
"K.	c #EEBAAC",
"L.	c #EEB2A4",
"M.	c #DE4010",
"N.	c #C53008",
"O.	c #5A1000",
"P.	c #C54420",
"Q.	c #AC2800",
"R.	c #290800",
"S.	c #9CA19C",
"T.	c #C5AA9C",
"U.	c #62554A",
"V.	c #414441",
"W.	c #52504A",
"X.	c #5A5D52",
"Y.	c #393831",
"Z.	c #9C999C",
"`.	c #BDC2BD",
"                                                            ",
"                                                            ",
"                                                            ",
"                                                            ",
"                                                            ",
"        . + @ #     $ % & * * = - ;       > ,               ",
"      > ' ) ! ~ { * = ] ^ / ( _ : < * [ } | 1 2             ",
"      ! 3 4 5 6 | 7 8 7 9 ( ( 0 0 ^ a ' b c d & e           ",
"      f g h i j k l 0 ^ ^ ^ m m m m n o p q r [ s           ",
"      c t u v w x y z a A a B ^ m m C D o E F ) G           ",
"        H 1 I x J K L M N O P 4 Q R S S D T ' ~ U           ",
"        * V w W X Y Z ' ' ' ' 2 `  ...+.S @.#.' :           ",
"      $ 3 $.%.X Y Z ' ' { &.: *.' =.-.;.>.D ,.' '.          ",
"      % Q ).!.~.{.' ' ; r M     M ' ].^./.(.a < & M         ",
"      & 0 ( 4 M _.' { r :.        c <.[.9 }.a |.~ 1.        ",
"      * 9 0 a 2.3.' 4.M             5.9 / 6.7.8.' r         ",
"      * ( 0 9.0.$ ' :               5.7 a.z 0.b.' r         ",
"      = _ 0 _ 5 ] ~ *.              '.).m 4 c.' ~ r         ",
"      '.: 0 ^ z 4 d.' M           b ,.7 Q e.f.' & r         ",
"      ; < ^ m g.h.i.j.' c       s k.l.;.m.n.[ ' o.1.        ",
"        * a p.q.J ^.W ].r.5.~ s.t.u.v.X w.x.' ' ; M         ",
"        y.' o S z.A.B.C.D.( 7 7 E.F.>.o G.H.' ~ r           ",
"        o.I.p o D S J.K.9 a./ 9 L.M.o N.O.' } ' U           ",
"        + c.q E T @.-.Q Q B z 4 e.P.Q.R.' ~ { ' S.          ",
"        o.e.r F ' #.T.7.e.0.c.c U U.' ' b *.[ *             ",
"        { g ! V.o.' ' b W.X.Y.' ' ' ' < ; Z.= @             ",
"          M r     : 3 & ~ ' ' ~ = o.Z.= ' ' = 1.            ",
"                      M 1.r r r r 1.M   : `.                ",
"                                                            ",
"                                                            "};
