/* XPM */
static char * home_xpm[] = {
"30 30 75 1",
" 	c None",
".	c #000000",
"+	c #202020",
"@	c #292C29",
"#	c #C5655A",
"$	c #944831",
"%	c #292829",
"&	c #313031",
"*	c #313431",
"=	c #202420",
"-	c #944C39",
";	c #A45541",
">	c #181818",
",	c #414441",
"'	c #525552",
")	c #8B8D8B",
"!	c #393839",
"~	c #A4A1A4",
"{	c #626562",
"]	c #ACAEAC",
"^	c #BDBEBD",
"/	c #5A595A",
"(	c #101410",
"_	c #181C18",
":	c #BDBABD",
"<	c #7B7D7B",
"[	c #D5D2D5",
"}	c #FFFFFF",
"|	c #4A4C4A",
"1	c #525052",
"2	c #B4B2B4",
"3	c #949194",
"4	c #9C999C",
"5	c #838183",
"6	c #737173",
"7	c #A4A5A4",
"8	c #626162",
"9	c #C5C6C5",
"0	c #CDCACD",
"a	c #6A6D6A",
"b	c #EEEEEE",
"c	c #949594",
"d	c #EEEAEE",
"e	c #ACAAAC",
"f	c #EE9D8B",
"g	c #DE816A",
"h	c #9C5041",
"i	c #CDCECD",
"j	c #838583",
"k	c #EEA194",
"l	c #D55039",
"m	c #5A5D5A",
"n	c #CD5539",
"o	c #311C10",
"p	c #7B797B",
"q	c #6A696A",
"r	c #EEA594",
"s	c #CD5D4A",
"t	c #E67D62",
"u	c #8B898B",
"v	c #391008",
"w	c #D55031",
"x	c #839983",
"y	c #83957B",
"z	c #8B9983",
"A	c #6A8562",
"B	c #5A7552",
"C	c #4A6141",
"D	c #394C31",
"E	c #313C29",
"F	c #7B8D7B",
"G	c #62795A",
"H	c #415539",
"I	c #627562",
"J	c #415039",
"                              ",
"                              ",
"                              ",
"                              ",
"                              ",
"                              ",
"              ..              ",
"        .... .+@.             ",
"        .#$..%&*=.            ",
"        .-;.>,')!>.           ",
"        .-.+&~{]^/(.          ",
"        .._,{:<[^}|=.         ",
"        .+123[4}^}^5(.        ",
"       .+67[4}^}^}^}8_.       ",
"      ._990}]}:}:}^}[<_.      ",
"     .+]^^^^^^^^.....3a=.     ",
"    ....b}}}}}}}.c9d.<....    ",
"       .[}.....}.^}}.a.       ",
"       .e}.fgh.}.i}}.8.       ",
"       .j}.kl-.}.....a.       ",
"       m.}.kno.9cmmjp.q       ",
"       q.b.rs-.}}}}}:.j       ",
"       e.:.t#-.^^^^^u.e       ",
"        .~vw#h.}}}}}3.        ",
"   e.q..................j.e   ",
"     ee_xyzxABCDE.yFGHIJ.e    ",
"     ..j.........j......      ",
"    jjeeeejmqqjeeeeeee        ",
"                              ",
"                              "};
