/* XPM */
static char * jump_xpm[] = {
"30 30 124 2",
"  	c None",
". 	c #000000",
"+ 	c #9CBE83",
"@ 	c #ACAAAC",
"# 	c #6A696A",
"$ 	c #626562",
"% 	c #A4A5A4",
"& 	c #C5E2AC",
"* 	c #A4C683",
"= 	c #7B797B",
"- 	c #8B6508",
"; 	c #AC6518",
"> 	c #D5AE41",
", 	c #E6B641",
"' 	c #BD6D20",
") 	c #7B5900",
"! 	c #DEE6CD",
"~ 	c #DEEAD5",
"{ 	c #E6EEDE",
"] 	c #EEF6DE",
"^ 	c #CDEAB4",
"/ 	c #A4C68B",
"( 	c #9C6D20",
"_ 	c #E6BA41",
": 	c #EECE62",
"< 	c #F6D26A",
"[ 	c #F6D66A",
"} 	c #E6C24A",
"| 	c #D5B241",
"1 	c #BD8D31",
"2 	c #180400",
"3 	c #626162",
"4 	c #D5E6CD",
"5 	c #B4D29C",
"6 	c #B4D69C",
"7 	c #BDDEA4",
"8 	c #C5E6AC",
"9 	c #CDEEB4",
"0 	c #A4C283",
"a 	c #CDBA6A",
"b 	c #EEDA7B",
"c 	c #FFEA83",
"d 	c #FFE67B",
"e 	c #FFDE62",
"f 	c #FFD24A",
"g 	c #E6BE4A",
"h 	c #9C9D9C",
"i 	c #CDE2C5",
"j 	c #BDDAA4",
"k 	c #C5EAAC",
"l 	c #ACCE8B",
"m 	c #DEBA5A",
"n 	c #FFE66A",
"o 	c #FFEA62",
"p 	c #FFE252",
"q 	c #FFDA52",
"r 	c #FFCE4A",
"s 	c #C5A139",
"t 	c #5A595A",
"u 	c #8BA17B",
"v 	c #62814A",
"w 	c #62854A",
"x 	c #62894A",
"y 	c #6A894A",
"z 	c #6A9152",
"A 	c #739552",
"B 	c #528139",
"C 	c #EEC65A",
"D 	c #FFEE5A",
"E 	c #FFE652",
"F 	c #FFDE52",
"G 	c #FFD64A",
"H 	c #B46D18",
"I 	c #C5C2C5",
"J 	c #527D39",
"K 	c #B49131",
"L 	c #F6C24A",
"M 	c #FFF25A",
"N 	c #FFEA5A",
"O 	c #FFD652",
"P 	c #BD9939",
"Q 	c #B4B6B4",
"R 	c #4A7531",
"S 	c #947931",
"T 	c #DEB641",
"U 	c #FFEA52",
"V 	c #E6BA4A",
"W 	c #B48D31",
"X 	c #B4B2B4",
"Y 	c #527539",
"Z 	c #416929",
"` 	c #416D31",
" .	c #7B6931",
"..	c #D5AE4A",
"+.	c #F6CE4A",
"@.	c #EEC64A",
"#.	c #9C5D18",
"$.	c #5A7941",
"%.	c #416D29",
"&.	c #6A5D20",
"*.	c #A48931",
"=.	c #F6C64A",
"-.	c #C59131",
";.	c #525052",
">.	c #BDBABD",
",.	c #ACB2AC",
"'.	c #8B6520",
").	c #BD9D39",
"!.	c #F6CA4A",
"~.	c #CDAA41",
"{.	c #AC7520",
"].	c #8B898B",
"^.	c #A4AAA4",
"/.	c #525552",
"(.	c #B48129",
"_.	c #DEBA41",
":.	c #EEC24A",
"<.	c #C59D39",
"[.	c #AC7D29",
"}.	c #BDC2BD",
"|.	c #737973",
"1.	c #BD7120",
"2.	c #B49539",
"3.	c #A46118",
"                                                            ",
"                                                            ",
"                                                            ",
"                                                            ",
"                                                            ",
"                                                            ",
"                                                            ",
"                  .                                         ",
"                  . .                                       ",
"                  . + .     @ # . . . . $ %                 ",
"        . . . . . . & * . = . - ; > , ' ) . $               ",
"        . ! ! ~ { ] ^ ^ / . ( _ : < [ } | 1 2 3             ",
"        . 4 5 6 7 8 9 9 8 0 . a b c d e f g 1 . h           ",
"        . i 5 6 j & k k & 8 l . m n o p q r s ) t           ",
"        . u v v w x y y x z A B . C D E F G g H . I         ",
"        . u v v w w w w x z J . K L M N p O g P . Q         ",
"        . u v v v v v w x R . S T q D U F f V W . X         ",
"        . Y Z Z Z Z v w ` .  ...+.E E p q @.> #.. X         ",
"        . . . . . . $.%.. &.*.=.q F F q f g -.- ;.Q         ",
"          >.X X ,.. Z . . '.).!.O O O @.g ~.{.. ].I         ",
"                  . . ^./.. (.T _.@.:.| <.[.. /.Q           ",
"                  . Q Q }.|.. - 1.P 2.3.- . /.Q             ",
"                    I       h t . . . . ;.].Q               ",
"                                I Q X X Q I                 ",
"                                                            ",
"                                                            ",
"                                                            ",
"                                                            ",
"                                                            ",
"                                                            "};
