/* XPM */
static char * last_xpm[] = {
"30 30 38 1",
" 	c None",
".	c #000000",
"+	c #F6F6F6",
"@	c #CDD6CD",
"#	c #BDCEBD",
"$	c #E6EEE6",
"%	c #ACCAAC",
"&	c #EEF2EE",
"*	c #73A16A",
"=	c #E6EAE6",
"-	c #739962",
";	c #FFFAF6",
">	c #E6EADE",
",	c #DEE6D5",
"'	c #C5DAC5",
")	c #C5D6C5",
"!	c #B4CAB4",
"~	c #ACC6AC",
"{	c #081008",
"]	c #DEE6DE",
"^	c #ACC6A4",
"/	c #A4C6A4",
"(	c #7B9D73",
"_	c #D5E2D5",
":	c #A4C2A4",
"<	c #6A9162",
"[	c #A4B6A4",
"}	c #6A8D62",
"|	c #415929",
"1	c #9CB69C",
"2	c #9CB29C",
"3	c #5A7952",
"4	c #94AA8B",
"5	c #9CAE9C",
"6	c #7B9173",
"7	c #526941",
"8	c #8B9D7B",
"9	c #415D39",
"                              ",
"                              ",
"                              ",
"                              ",
"                              ",
"                              ",
"                              ",
"                              ",
"           .        ....      ",
"           ..       .+@.      ",
"           .#.      .$%.      ",
"           .&*.     .$%.      ",
"    ........=%-.    .$%.      ",
"    .;+&$>,')!~-{   .$%.      ",
"    .]%~~~^^~%~/(.  .$%.      ",
"    ._~^/^^~%~~%:<. .$%.      ",
"    .[}<<<<<<<<<<}|..1<.      ",
"    .233333333333|. .43.      ",
"    .53333333333|.  .43.      ",
"    .6777777333|.   .43.      ",
"    ........73|.    .43.      ",
"           .7|.     .43.      ",
"           .|.      .43.      ",
"           ..       .89.      ",
"           .        ....      ",
"                              ",
"                              ",
"                              ",
"                              ",
"                              "};
