/* XPM */
static char * new_xpm[] = {
"30 30 54 1",
" 	c None",
".	c #8B8D8B",
"+	c #000000",
"@	c #6A696A",
"#	c #D5D2D5",
"$	c #F6F6F6",
"%	c #FFFFFF",
"&	c #FFFAFF",
"*	c #DEDADE",
"=	c #5A595A",
"-	c #313431",
";	c #C5C6C5",
">	c #D5D6D5",
",	c #C5C2C5",
"'	c #E6E2E6",
")	c #F6F2F6",
"!	c #9C999C",
"~	c #ACAEAC",
"{	c #EEEAEE",
"]	c #DEDEDE",
"^	c #A4A5A4",
"/	c #CDCECD",
"(	c #A4A1A4",
"_	c #393C39",
":	c #FFFAF6",
"<	c #FFF6F6",
"[	c #9C9D9C",
"}	c #B4B6B4",
"|	c #736D6A",
"1	c #62615A",
"2	c #E6E6E6",
"3	c #DEDAD5",
"4	c #8B857B",
"5	c #BDBEBD",
"6	c #EEEEEE",
"7	c #EEEAE6",
"8	c #8B8983",
"9	c #F6F2EE",
"0	c #D5D2CD",
"a	c #8B897B",
"b	c #F6EEEE",
"c	c #EEE6E6",
"d	c #E6E2DE",
"e	c #E6DEDE",
"f	c #94918B",
"g	c #A49D94",
"h	c #A49994",
"i	c #DED6D5",
"j	c #9C998B",
"k	c #9C958B",
"l	c #9C9994",
"m	c #A4998B",
"n	c #8B898B",
"o	c #737973",
"                              ",
"                              ",
"                              ",
"                              ",
"                              ",
"                              ",
"     .++++++++++++@           ",
"     +#$%%%%%%%%&*=-          ",
"     +$%%%%%%%%%%;#>+         ",
"     +%%%%%%%%%%%,')!+        ",
"     +%%%%%%%%%%&~{%].+       ",
"     +%%%%%%&&&&&^)%$/(_      ",
"     +%%%%&&&:&:<[++++++@     ",
"     +%%&&&:<$<$$)]#}[|1+     ",
"     +%&&:<$$$$$))233/~4+5    ",
"     +%:<$$$)))))6667>,8+5    ",
"     +%$$))))9)996{72'0a+5    ",
"     +%)))969b9b6{c2'def+5    ",
"     +%)))969b9b6{c2'deg+5    ",
"     +%966666666{c2dddeg+5    ",
"     +%66{{{{7{7722d]]]h+5    ",
"     +%{77ccc2c22dde]]3h+5    ",
"     +%222222222dde]33ij+5    ",
"     +&'dddddddddd]33iij+5    ",
"     +6dedededed]e33ii>k+5    ",
"     +#ee]]e]e]e]]33i>0k+5    ",
"     +lgggggggggmhjjkkk1+5    ",
"     n++++++++++++++++++o,    ",
"       55555555555555555,     ",
"                              "};
