/* XPM */
static char * print_preview_xpm[] = {
"30 30 114 2",
"  	c None",
". 	c #949194",
"+ 	c #000000",
"@ 	c #BDBABD",
"# 	c #FFFFFF",
"$ 	c #F6F6F6",
"% 	c #8B8D8B",
"& 	c #A4A5A4",
"* 	c #B4B6B4",
"= 	c #DEDADE",
"- 	c #838183",
"; 	c #7B797B",
"> 	c #9C9D9C",
", 	c #5A5D5A",
"' 	c #FFFAFF",
") 	c #F6F2F6",
"! 	c #ACAEAC",
"~ 	c #414439",
"{ 	c #080808",
"] 	c #4A4841",
"^ 	c #7B7D7B",
"/ 	c #4A484A",
"( 	c #313429",
"_ 	c #9C9D8B",
": 	c #CDCEBD",
"< 	c #C5C6AC",
"[ 	c #8B8D7B",
"} 	c #313431",
"| 	c #C5C2C5",
"1 	c #E6E2E6",
"2 	c #CDCECD",
"3 	c #E6E2D5",
"4 	c #EEEEE6",
"5 	c #C5C2AC",
"6 	c #B4B29C",
"7 	c #838173",
"8 	c #4A4C41",
"9 	c #EEEEEE",
"0 	c #CDCACD",
"a 	c #737573",
"b 	c #D5D6BD",
"c 	c #B4B6A4",
"d 	c #A4A594",
"e 	c #080800",
"f 	c #E6E6E6",
"g 	c #8B898B",
"h 	c #CDCAB4",
"i 	c #DEDED5",
"j 	c #ACAA9C",
"k 	c #9C998B",
"l 	c #ACAEA4",
"m 	c #83857B",
"n 	c #EEEAE6",
"o 	c #83817B",
"p 	c #414441",
"q 	c #949183",
"r 	c #BDBAA4",
"s 	c #ACAE9C",
"t 	c #837D73",
"u 	c #ACAAA4",
"v 	c #BDB6AC",
"w 	c #A4A194",
"x 	c #C5C2BD",
"y 	c #D5D2D5",
"z 	c #C5C6C5",
"A 	c #414041",
"B 	c #A49D9C",
"C 	c #DEDEDE",
"D 	c #A4A1A4",
"E 	c #6A696A",
"F 	c #BDBEBD",
"G 	c #949594",
"H 	c #B4B2AC",
"I 	c #9C999C",
"J 	c #B4B2B4",
"K 	c #101410",
"L 	c #9C9994",
"M 	c #948D83",
"N 	c #ACAAAC",
"O 	c #F6EEEE",
"P 	c #EEEAEE",
"Q 	c #D5D6D5",
"R 	c #525552",
"S 	c #52504A",
"T 	c #838583",
"U 	c #5A595A",
"V 	c #5A5D52",
"W 	c #524C4A",
"X 	c #4A4441",
"Y 	c #414039",
"Z 	c #393839",
"` 	c #393831",
" .	c #4A4C4A",
"..	c #7B7973",
"+.	c #7B7573",
"@.	c #9C9594",
"#.	c #6A6D62",
"$.	c #736D62",
"%.	c #5A5952",
"&.	c #62655A",
"*.	c #5A5552",
"=.	c #6A6962",
"-.	c #73756A",
";.	c #94918B",
">.	c #736D6A",
",.	c #625D5A",
"'.	c #626562",
").	c #73716A",
"!.	c #6A6D6A",
"~.	c #8B8983",
"{.	c #B4AEAC",
"].	c #BDBEB4",
"^.	c #BDBAB4",
"/.	c #B4AEA4",
"                                                            ",
"                                                            ",
"                                                            ",
"                                                            ",
"                                                            ",
"                                                            ",
"                . + + + + + + + + + + + + .                 ",
"                + @ # # # # # # # # # # @ +                 ",
"                + # # # # # # # # # # # $ +                 ",
"                + # % & * # = # # # # # $ +                 ",
"                + # # # # # # # # # # # $ +                 ",
"                + # - ; & # ; > = @ , # $ +                 ",
"                + # ' ) ! ~ { { ] @ # # $ +                 ",
"                + ' ^ / ( _ : < [ } > # $ + |               ",
"                + 1 2 ~ _ 3 4 5 6 7 8 $ 9 + @               ",
"            . + + 0 a { b ' 5 c d _ e f 1 + + g             ",
"          . + # + & > { h i c j k l { 0 | + m + g           ",
"        . + # n o ~ + p q r s _ l 2 8 + t m u v + g         ",
"        + # # ) ) = 0 - ( m w l x + + # # # # # n +         ",
"        + x g f $ f y z g ] { { A B A + * n > C v + !       ",
"        + D E $ F 2 & * G H I * % J > A K l E L M + N       ",
"        + L E f O $ $ 9 P P P f Q 0 G > R + S T M + N       ",
"        + I E U V W X ] ] ] ] X Y Z ` ` a  . ...+.+ N       ",
"        + . @.T #.$.%.&.%.*.%.%.S ] X X / T ^ =.-.+ N       ",
"        + ..G ;.M t ..+.-.>.-.>.=.R %.*.,.'.).-.=.+ N       ",
"        % + + + + + + + + + + + + + + + + + + + + !.!       ",
"          + ~.{.H ].].].].].^./.{.u /.L L L t t + &         ",
"          % + + + + + + + + + + + + + + + + + + !.!         ",
"              ! N N N N N N N N N N N N N N N N !           ",
"                                                            "};
