/* XPM */
static char * question_xpm[] = {
"30 30 168 2",
"  	c None",
". 	c #B4A5A4",
"+ 	c #A4918B",
"@ 	c #9C857B",
"# 	c #94857B",
"$ 	c #9C8583",
"% 	c #94817B",
"& 	c #AC9D9C",
"* 	c #C5C2BD",
"= 	c #C5BAB4",
"- 	c #9C7D7B",
"; 	c #83594A",
"> 	c #8B5D52",
", 	c #9C5D4A",
"' 	c #AC6152",
") 	c #B46152",
"! 	c #AC5D4A",
"~ 	c #AC5941",
"{ 	c #AC5541",
"] 	c #9C4C39",
"^ 	c #944831",
"/ 	c #7B3C29",
"( 	c #733C31",
"_ 	c #836962",
": 	c #ACA19C",
"< 	c #8B716A",
"[ 	c #8B554A",
"} 	c #AC695A",
"| 	c #A45D4A",
"1 	c #944839",
"2 	c #8B4839",
"3 	c #8B594A",
"4 	c #9C6D62",
"5 	c #A47D73",
"6 	c #A4817B",
"7 	c #AC857B",
"8 	c #AC796A",
"9 	c #BD796A",
"0 	c #B4614A",
"a 	c #A44C39",
"b 	c #833C29",
"c 	c #6A4841",
"d 	c #BDBABD",
"e 	c #8B6962",
"f 	c #A46552",
"g 	c #A45541",
"h 	c #8B5041",
"i 	c #A4857B",
"j 	c #DEDEDE",
"k 	c #F6F2F6",
"l 	c #F6F6F6",
"m 	c #EEE2DE",
"n 	c #D5AEA4",
"o 	c #BD7562",
"p 	c #6A3C31",
"q 	c #BDB2AC",
"r 	c #8B756A",
"s 	c #D5D6D5",
"t 	c #FFFAFF",
"u 	c #EEEEEE",
"v 	c #DEC6C5",
"w 	c #8B4431",
"x 	c #948583",
"y 	c #A4958B",
"z 	c #8B5541",
"A 	c #CDCECD",
"B 	c #949194",
"C 	c #292829",
"D 	c #202020",
"E 	c #A4A5A4",
"F 	c #EEEAEE",
"G 	c #BD7D6A",
"H 	c #7B6D6A",
"I 	c #AC9994",
"J 	c #AC655A",
"K 	c #9C6962",
"L 	c #C5C2C5",
"M 	c #737573",
"N 	c #ACAAAC",
"O 	c #5A5D5A",
"P 	c #181C18",
"Q 	c #BD8173",
"R 	c #83716A",
"S 	c #A46152",
"T 	c #DEDADE",
"U 	c #ACAEAC",
"V 	c #181818",
"W 	c #E6E6E6",
"X 	c #B46552",
"Y 	c #8B817B",
"Z 	c #C5BEBD",
"` 	c #BDBEBD",
" .	c #6A6D6A",
"..	c #202420",
"+.	c #E6E2E6",
"@.	c #8B4031",
"#.	c #A4A1A4",
"$.	c #7B4C41",
"%.	c #9C5041",
"&.	c #5A595A",
"*.	c #D5D2D5",
"=.	c #CD9D94",
"-.	c #6A4031",
";.	c #CDCACD",
">.	c #393839",
",.	c #393C39",
"'.	c #E6DEDE",
").	c #B46952",
"!.	c #73615A",
"~.	c #835041",
"{.	c #A48D83",
"].	c #B4B2B4",
"^.	c #CDAAA4",
"/.	c #733829",
"(.	c #94918B",
"_.	c #7B5D52",
":.	c #94594A",
"<.	c #7B797B",
"[.	c #8B8D8B",
"}.	c #5A4039",
"|.	c #9C9D9C",
"1.	c #B4BAB4",
"2.	c #B4AAAC",
"3.	c #947973",
"4.	c #62615A",
"5.	c #949594",
"6.	c #B4B6B4",
"7.	c #7B6562",
"8.	c #8B4C39",
"9.	c #ACA5A4",
"0.	c #101410",
"a.	c #C5C6C5",
"b.	c #D5C2BD",
"c.	c #4A3431",
"d.	c #737173",
"e.	c #734839",
"f.	c #7B7D7B",
"g.	c #DECECD",
"h.	c #B46D5A",
"i.	c #522C20",
"j.	c #525952",
"k.	c #BDC2BD",
"l.	c #834839",
"m.	c #945D52",
"n.	c #D5C6C5",
"o.	c #A45039",
"p.	c #623020",
"q.	c #4A4441",
"r.	c #9C8D8B",
"s.	c #834439",
"t.	c #9C5541",
"u.	c #AC958B",
"v.	c #DED6D5",
"w.	c #C5A59C",
"x.	c #413C39",
"y.	c #8B898B",
"z.	c #7B4031",
"A.	c #AC6552",
"B.	c #6A3429",
"C.	c #524841",
"D.	c #9C999C",
"E.	c #734C41",
"F.	c #5A3C31",
"G.	c #6A696A",
"H.	c #9C9594",
"I.	c #735D52",
"J.	c #6A5D5A",
"K.	c #83817B",
"                                                            ",
"                                                            ",
"                                                            ",
"                                                            ",
"                                                            ",
"                                                            ",
"                    . + @ # $ $ % + & *                     ",
"            = - ; > , , ' ) ! ~ { ] ^ / ( _ :               ",
"          < [ } | 1 2 3 4 5 6 7 8 9 0 { { a b c d           ",
"        e f g h i = j k l l l l k k k m n o { ] p           ",
"      q 3 ] r s l l l l t t t l k k k u u u v { w x         ",
"      y } z A k k k k l B C D D E u u u u u F G ] H         ",
"      I J K j k k k u L D M N O P L F F F F F Q a R         ",
"      & S h T u u u u U D N F U V B W W W W F X ^ Y         ",
"      = h w Z u u F F j O ` u  ...N W W W +.v ! @.#.        ",
"        $.%.- W F W W W W u N ..&.*.+.+.+.+.=.{ -.          ",
"        < ' z ;.W W W W +.T >.,.d j j j j '.).] !.          ",
"        q ~.^ {.j +.+.+.+.].P &.j j T T T ^.! /.(.          ",
"          _.~ :.d j j j j +.<.[.T T T T j o ] }.|.1.        ",
"          2.h ] 3.s T T T W [.E s s s T =.~ /.4.5.6.        ",
"            7.! 8.9.T T s L 0.,.a.*.s b.! ^ c.d.5.1.        ",
"            L e.~ z d s *.s f.f.;.*.g.h.a i.j.<.|.k.        ",
"              : l.{ m.].A A a.A s n.Q o.p.q. .[.].          ",
"                r.s.{ t.u.;.s v.w.h.{ /.x. .y.N             ",
"                  r.z.o.o.' Q A.~ o.B.C.<.D.6.              ",
"                    2.E.w o.{ o.@.F.G.B N k.                ",
"                        H.7.I.J.K.#.U `                     ",
"                                                            ",
"                                                            ",
"                                                            "};
