/* XPM */
static char * quit_xpm[] = {
"30 30 94 2",
"  	c None",
". 	c #000000",
"+ 	c #D5D6D5",
"@ 	c #BDBEBD",
"# 	c #ACAAA4",
"$ 	c #94918B",
"% 	c #737173",
"& 	c #62615A",
"* 	c #202018",
"= 	c #F6F2EE",
"- 	c #E6E6E6",
"; 	c #DEDAD5",
"> 	c #CDCECD",
", 	c #C5C6C5",
"' 	c #737573",
") 	c #181C18",
"! 	c #BDBAB4",
"~ 	c #ACAEAC",
"{ 	c #8B8D8B",
"] 	c #202420",
"^ 	c #414041",
"/ 	c #EE816A",
"( 	c #DEDEDE",
"_ 	c #626162",
": 	c #000400",
"< 	c #EE7962",
"[ 	c #E67152",
"} 	c #DEDADE",
"| 	c #D5D2CD",
"1 	c #080800",
"2 	c #080C08",
"3 	c #F6B2A4",
"4 	c #EE8D73",
"5 	c #DE4018",
"6 	c #EE7D62",
"7 	c #CDCACD",
"8 	c #081008",
"9 	c #101408",
"0 	c #EEA194",
"a 	c #5A5D5A",
"b 	c #101810",
"c 	c #101C10",
"d 	c #B4B6B4",
"e 	c #182010",
"f 	c #182018",
"g 	c #182418",
"h 	c #CD8583",
"i 	c #9C0000",
"j 	c #731410",
"k 	c #A4A5A4",
"l 	c #181C10",
"m 	c #202818",
"n 	c #4A0000",
"o 	c #202C20",
"p 	c #203020",
"q 	c #293020",
"r 	c #5A0000",
"s 	c #293420",
"t 	c #293829",
"u 	c #7B4041",
"v 	c #6A0000",
"w 	c #730000",
"x 	c #313C29",
"y 	c #314029",
"z 	c #314431",
"A 	c #394831",
"B 	c #520000",
"C 	c #394C39",
"D 	c #9C9D9C",
"E 	c #525552",
"F 	c #415039",
"G 	c #415539",
"H 	c #313831",
"I 	c #202C18",
"J 	c #4A5941",
"K 	c #4A5D41",
"L 	c #C5C2C5",
"M 	c #8B898B",
"N 	c #313829",
"O 	c #293429",
"P 	c #395039",
"Q 	c #415941",
"R 	c #4A6141",
"S 	c #52654A",
"T 	c #7B7D7B",
"U 	c #313C31",
"V 	c #4A614A",
"W 	c #52694A",
"X 	c #526D4A",
"Y 	c #94958B",
"Z 	c #394431",
"` 	c #5A6D52",
" .	c #5A7152",
"..	c #5A7552",
"                                                            ",
"                                                            ",
"                                                            ",
"                                                            ",
"                                                            ",
"                                                            ",
"                    . . . . . . . . . . . . . . . .         ",
"                    . + @ # $ % & & & * . . . . . .         ",
"                    . = - ; > , # ' ' ) . . . . . .         ",
"                .   . = - ; > , ! ~ { ] . . . . . .         ",
"                . . . = - ; > , ! ! ! ^ . . . . . .         ",
"                . / . ( - ; > , ! ! ! _ : : : : : .         ",
"      . . . . . . < [ . + } | , ! ! ! _ 1 2 2 2 2 .         ",
"      . 3 < < < < 4 5 6 . 7 | , ! ! ! _ 2 8 9 9 9 .         ",
"      . 0 5 5 5 5 5 5 5 [ . @ , ! a ! _ 9 b c c c .         ",
"      . 0 5 5 5 5 5 5 5 5 [ . d ! a 2 _ b e f g g .         ",
"      . h i i i i i i i i i j . k 2 ! _ l g m m m .         ",
"      . h i i i i i i i i n . ~ ! ! ! _ g o p q q .         ",
"      . h i i i i i i i r . d , ! ! ! _ m s t t t .         ",
"      . u v v v v w i r . @ | , ! ! ! _ o s x y y .         ",
"      . . . . . . w r . , } | , ! ! ! _ g p x z A .         ",
"                . B . > - } | , ! ! ! _ f p x A C .         ",
"                . . . = - } | , ! ~ D E m t z F G .         ",
"                . d . = - } | ! D ' H I x A G J K .         ",
"                L   . = - , ~ M N O z P Q K R S S .         ",
"                    . } @ T U z F Q V W X X X X X .         ",
"                    . Y Z G K S `  ................         ",
"                    . . . . . . . . . . . . . . . .         ",
"                                                            ",
"                                                            "};
