/* XPM */
static char * refresh_xpm[] = {
"30 30 100 2",
"  	c None",
". 	c #000000",
"+ 	c #F6FFEE",
"@ 	c #BDBABD",
"# 	c #CDE2C5",
"$ 	c #F6FFF6",
"% 	c #838183",
"& 	c #081008",
"* 	c #739D6A",
"= 	c #A4CAA4",
"- 	c #CDE6C5",
"; 	c #EEFFEE",
"> 	c #8B8D8B",
", 	c #B4B2B4",
"' 	c #7B797B",
") 	c #102010",
"! 	c #8BB683",
"~ 	c #CFE7CF",
"{ 	c #7BAA7B",
"] 	c #6A9162",
"^ 	c #ACAAAC",
"/ 	c #D5EACD",
"( 	c #D7EBD7",
"_ 	c #D5EED5",
": 	c #AED7AE",
"< 	c #9CBE94",
"[ 	c #62855A",
"} 	c #B4B6B4",
"| 	c #8B898B",
"1 	c #293829",
"2 	c #8BBA83",
"3 	c #73996A",
"4 	c #73A173",
"5 	c #527552",
"6 	c #ACAEAC",
"7 	c #BDBEBD",
"8 	c #ACCAAC",
"9 	c #7BAA73",
"0 	c #7BA573",
"a 	c #6A956A",
"b 	c #73956A",
"c 	c #526D4A",
"d 	c #A4AAA4",
"e 	c #B4D2B4",
"f 	c #62815A",
"g 	c #9CC294",
"h 	c #4A694A",
"i 	c #739D73",
"j 	c #C5C6C5",
"k 	c #BDD6B4",
"l 	c #C7E3C7",
"m 	c #838583",
"n 	c #52714A",
"o 	c #C5C2C5",
"p 	c #9C9D9C",
"q 	c #83AA7B",
"r 	c #C5DABD",
"s 	c #6A6D6A",
"t 	c #ACB2AC",
"u 	c #CDEEC5",
"v 	c #A4A1A4",
"w 	c #A4CEA4",
"x 	c #94B68B",
"y 	c #C5EAC5",
"z 	c #DEF6DE",
"A 	c #B4D6AC",
"B 	c #BDDABD",
"C 	c #ACCEAC",
"D 	c #5A7952",
"E 	c #8BB283",
"F 	c #BDE2B4",
"G 	c #DEF6D5",
"H 	c #E6F6DE",
"I 	c #D5F2D5",
"J 	c #CDEECD",
"K 	c #BDD6BD",
"L 	c #7BA57B",
"M 	c #62895A",
"N 	c #A4C2A4",
"O 	c #CDEACD",
"P 	c #CDEAC5",
"Q 	c #C5E6C5",
"R 	c #C5E2BD",
"S 	c #BEDFBE",
"T 	c #94BA94",
"U 	c #394C31",
"V 	c #313831",
"W 	c #5A7D5A",
"X 	c #8BAE8B",
"Y 	c #8BAE83",
"Z 	c #949594",
"` 	c #5A815A",
" .	c #414841",
"..	c #737173",
"+.	c #6A9562",
"@.	c #6A8D62",
"#.	c #737573",
"$.	c #293820",
"%.	c #A4A5A4",
"&.	c #BDC2BD",
"                                                            ",
"                                                            ",
"                                                            ",
"                                                            ",
"                                                            ",
"                    .                                       ",
"                    . .                                     ",
"                    . + .                                   ",
"            @ . . . . # $ .                                 ",
"          % & * = # # - - ; .         > . . ,               ",
"        ' ) ! # # - - ~ ~ ~ $ .       . { ] . ^             ",
"      @ . * # - - ~ ~ ~ / ( _ : .       . < [ . }           ",
"      | 1 = # 2 3 3 3 * * 4 5 . 6 7       . 8 . %           ",
"      . 9 # 0 a b 3 3 * 4 c . d }         . e f . 7         ",
"      . = g a h . . . i c . d } j .       . k 0 . }         ",
"      . l a f . m ^ . n . d } j . . o   p . e q . ,         ",
"      . r ] . s t 7 . . ^ } j . u . } v . w e q . ,         ",
"      . x 0 . p 7   . } } j . y z . . . A B C * . ,         ",
"      . D E . 6       o j . F G H G I J l K L M . ,         ",
"      > . N . t         . A O / P Q R S e T 4 U V }         ",
"      o . W X . o     . < l # ~ ~ ~ l r Y ] 5 . | @         ",
"        Z . M i .       . * 3 3 3 3 3 a ] ` .  .,           ",
"          p . . ..7       . 3 +.@.] ] ` h .  .6 7           ",
"            o } }           . a @.. . . . #.6 7             ",
"                              $.] . %.6 , } &.              ",
"                                . . 6 7                     ",
"                                  . }                       ",
"                                    o                       ",
"                                                            ",
"                                                            "};
