/* XPM */
static char * remove_xpm[] = {
"30 30 21 1",
" 	c None",
".	c #BDB6BD",
"+	c #000000",
"@	c #ACA5AC",
"#	c #ACBED5",
"$	c #B4C6D5",
"%	c #94A1B4",
"&	c #C5C2C5",
"*	c #C5CEDE",
"=	c #7391B4",
"-	c #5A7994",
";	c #A4A1A4",
">	c #D5D2D5",
",	c #7389A4",
"'	c #5A7194",
")	c #9C999C",
"!	c #CDCECD",
"~	c #626162",
"{	c #C5BEC5",
"]	c #9C959C",
"^	c #CDCACD",
"                              ",
"                              ",
"                              ",
"                              ",
"                              ",
"                              ",
"                              ",
"                              ",
"                              ",
"                              ",
"                              ",
"                              ",
"                              ",
"                              ",
"      .+++++++++++++++@       ",
"      +#$$$$$$$$$$$$$%+&      ",
"      +*=============-+;>     ",
"      +,''''''''''''''+)!     ",
"      )+++++++++++++++~;>     ",
"       {;)]]]]]]]]]]]);{      ",
"        >!^^^^^^^^^^^!>       ",
"                              ",
"                              ",
"                              ",
"                              ",
"                              ",
"                              ",
"                              ",
"                              ",
"                              "};
