/* XPM */
static char * find_xpm[] = {
"30 30 113 2",
"  	c None",
". 	c #8B8D8B",
"+ 	c #000000",
"@ 	c #6A696A",
"# 	c #D5D2D5",
"$ 	c #F6F6F6",
"% 	c #FFFFFF",
"& 	c #FFFAFF",
"* 	c #DEDADE",
"= 	c #5A595A",
"- 	c #313431",
"; 	c #C5C6C5",
"> 	c #D5D6D5",
", 	c #BDBABD",
"' 	c #4A4841",
") 	c #080808",
"! 	c #414439",
"~ 	c #C5C2C5",
"{ 	c #E6E2E6",
"] 	c #F6F2F6",
"^ 	c #9C999C",
"/ 	c #8B8D7B",
"( 	c #C5C6AC",
"_ 	c #CDCEBD",
": 	c #9C9D8B",
"< 	c #313429",
"[ 	c #A4A1A4",
"} 	c #ACAEAC",
"| 	c #EEEAEE",
"1 	c #DEDEDE",
"2 	c #4A4C41",
"3 	c #838173",
"4 	c #B4B29C",
"5 	c #C5C2AC",
"6 	c #EEEEE6",
"7 	c #E6E2D5",
"8 	c #CDCECD",
"9 	c #393C39",
"0 	c #080800",
"a 	c #A4A594",
"b 	c #B4B6A4",
"c 	c #D5D6BD",
"d 	c #949594",
"e 	c #949194",
"f 	c #ACAEA4",
"g 	c #9C998B",
"h 	c #ACAA9C",
"i 	c #DEDED5",
"j 	c #CDCAB4",
"k 	c #E6E2DE",
"l 	c #B4B6B4",
"m 	c #9C9D9C",
"n 	c #FFE639",
"o 	c #F6B64A",
"p 	c #ACAE9C",
"q 	c #BDBAA4",
"r 	c #949183",
"s 	c #414441",
"t 	c #DEDAD5",
"u 	c #FFEA39",
"v 	c #F6B641",
"w 	c #5A5029",
"x 	c #C5C2BD",
"y 	c #A4A194",
"z 	c #83857B",
"A 	c #6A6D6A",
"B 	c #BDBAB4",
"C 	c #6A5D31",
"D 	c #737573",
"E 	c #CDCACD",
"F 	c #838583",
"G 	c #414041",
"H 	c #A4A5A4",
"I 	c #BDBEBD",
"J 	c #EEEAE6",
"K 	c #F6B241",
"L 	c #625531",
"M 	c #ACAAAC",
"N 	c #A4A19C",
"O 	c #E6DEDE",
"P 	c #FFDE39",
"Q 	c #F6AE41",
"R 	c #62615A",
"S 	c #7B797B",
"T 	c #EEB64A",
"U 	c #625931",
"V 	c #9C9994",
"W 	c #7B796A",
"X 	c #B4B2B4",
"Y 	c #FFDA31",
"Z 	c #F6AA39",
"` 	c #8B897B",
" .	c #CDCAC5",
"..	c #EEE6E6",
"+.	c #E6E6E6",
"@.	c #F6D231",
"#.	c #EEA539",
"$.	c #5A5031",
"%.	c #9C9594",
"&.	c #ACAAA4",
"*.	c #9C958B",
"=.	c #B4B2AC",
"-.	c #D5AE73",
";.	c #625529",
">.	c #D5D2CD",
",.	c #4A4010",
"'.	c #DED6D5",
").	c #A49D9C",
"!.	c #D5CECD",
"~.	c #A49D94",
"{.	c #A4998B",
"].	c #8B898B",
"^.	c #737973",
"                                                            ",
"                                                            ",
"                                                            ",
"                                                            ",
"                                                            ",
"                                                            ",
"          . + + + + + + + + + + + + @                       ",
"          + # $ % % % % % % % % & * = -                     ",
"          + $ % % % % % % % % % % ; # > +                   ",
"          + % % % , ' ) ) ! , % % ~ { ] ^ +                 ",
"          + % % , - / ( _ : < [ & } | % 1 . +               ",
"          + % % 2 3 4 5 6 7 : ! | [ ] % $ 8 [ 9             ",
"          + % % 0 : a b 5 & c ) > d + + + + + + + e         ",
"          + % & ) f g h b i j ) ~ k * # l m + n o +         ",
"          + % $ 2 8 f : p q r s , 1 k t > + u v w +         ",
"          + % $ + + x f y z < A B t | | + u v C + D         ",
"          + E + + F G ) ) ' D H I * J + n K L + + d         ",
"          + + + + l M H [ N H l 8 O + P Q L + R + [         ",
"        [ + + + S l I , l l I 8 1 + P T U + V W + X         ",
"        + + + A } , # t > > * k + Y Z U + V } ` + ,         ",
"        + + . M X  .1 ....+...+ @.#.$.+ %.&.x *.+ I         ",
"          + , =.; t { ....+.O + -.;.+ V &.x >.g + I         ",
"          + 8 ; > k +.+.+.k + ,.+ + V &.x >.> g + I         ",
"          + +.t O k k k k t + + d V &.x >.> '.g + I         ",
"          + | O O k O k 1 >.=.).N } x >.> '.> *.+ I         ",
"          + # O O 1 1 O t !.l =.I  .>.t '.> >.*.+ I         ",
"          + V ~.~.~.~.~.{.*.r r *.g g g *.*.*.R + I         ",
"          ].+ + + + + + + + + + + + + + + + + + ^.~         ",
"              I I I I I I I I I I I I I I I I I ~           ",
"                                                            "};
