/* XPM */
static char * revert_xpm[] = {
"30 30 186 2",
"  	c None",
". 	c #312C18",
"+ 	c #000000",
"@ 	c #313020",
"# 	c #EEE6BD",
"$ 	c #626162",
"% 	c #393420",
"& 	c #EEE6C5",
"* 	c #EED683",
"= 	c #201C10",
"- 	c #292410",
"; 	c #101008",
"> 	c #8B8D8B",
", 	c #CDB66A",
"' 	c #94854A",
") 	c #524041",
"! 	c #E6B6AC",
"~ 	c #EEBEB4",
"{ 	c #EEB6AC",
"] 	c #EEBAAC",
"^ 	c #EEBAB4",
"/ 	c #E6BEBD",
"( 	c #737173",
"_ 	c #B4CEE6",
": 	c #A4BED5",
"< 	c #EEE2A4",
"[ 	c #EED68B",
"} 	c #AC9D5A",
"| 	c #834839",
"1 	c #CD796A",
"2 	c #D5796A",
"3 	c #CD7162",
"4 	c #CD7562",
"5 	c #C5655A",
"6 	c #62616A",
"7 	c #83A1B4",
"8 	c #527183",
"9 	c #C5C2C5",
"0 	c #A47D31",
"a 	c #D59910",
"b 	c #D5A529",
"c 	c #DEB641",
"d 	c #A49152",
"e 	c #94504A",
"f 	c #C5756A",
"g 	c #C56962",
"h 	c #CD7D73",
"i 	c #BD6D6A",
"j 	c #6A6573",
"k 	c #839DB4",
"l 	c #BDBEBD",
"m 	c #9C7929",
"n 	c #D59508",
"o 	c #735000",
"p 	c #9C7108",
"q 	c #DEAA31",
"r 	c #838583",
"s 	c #F6F2F6",
"t 	c #FFFAFF",
"u 	c #FFFFFF",
"v 	c #83A1BD",
"w 	c #526D83",
"x 	c #292418",
"y 	c #A47D20",
"z 	c #5A4000",
"A 	c #B47D08",
"B 	c #6A696A",
"C 	c #EEEAEE",
"D 	c #4A697B",
"E 	c #8B6918",
"F 	c #5A595A",
"G 	c #4A4C4A",
"H 	c #9C6908",
"I 	c #5A5D5A",
"J 	c #BDBABD",
"K 	c #C5C6C5",
"L 	c #CDCECD",
"M 	c #8BA5BD",
"N 	c #4A6173",
"O 	c #ACC6D5",
"P 	c #080800",
"Q 	c #949194",
"R 	c #DEDEDE",
"S 	c #AC9141",
"T 	c #837541",
"U 	c #D5D6D5",
"V 	c #415D73",
"W 	c #B4C6E6",
"X 	c #628194",
"Y 	c #313031",
"Z 	c #E6CA7B",
"` 	c #525552",
" .	c #415D6A",
"..	c #ACCAE6",
"+.	c #7B9DB4",
"@.	c #6A6D6A",
"#.	c #838183",
"$.	c #B4B6B4",
"%.	c #52616A",
"&.	c #B4D2E6",
"*.	c #73595A",
"=.	c #DEDADE",
"-.	c #EEEEEE",
";.	c #525D62",
">.	c #ACCEE6",
",.	c #7B99B4",
"'.	c #7B8D9C",
").	c #737573",
"!.	c #626562",
"~.	c #62696A",
"{.	c #6A757B",
"].	c #39505A",
"^.	c #7395AC",
"/.	c #7B95AC",
"(.	c #738DA4",
"_.	c #6A899C",
":.	c #31485A",
"<.	c #ACC6E6",
"[.	c #6A91AC",
"}.	c #7391AC",
"|.	c #39484A",
"1.	c #39444A",
"2.	c #4A555A",
"3.	c #5A6973",
"4.	c #5A656A",
"5.	c #5A616A",
"6.	c #525962",
"7.	c #395062",
"8.	c #39404A",
"9.	c #7B95B4",
"0.	c #A4BACD",
"a.	c #314852",
"b.	c #6A8DA4",
"c.	c #4A505A",
"d.	c #94918B",
"e.	c #E6E2DE",
"f.	c #EEEAE6",
"g.	c #CDC6C5",
"h.	c #9C958B",
"i.	c #4A657B",
"j.	c #52718B",
"k.	c #ACC6DE",
"l.	c #31444A",
"m.	c #41444A",
"n.	c #DEDAD5",
"o.	c #E6E6E6",
"p.	c #62655A",
"q.	c #524C41",
"r.	c #DED6D5",
"s.	c #C5C6BD",
"t.	c #C5BEB4",
"u.	c #BDB2AC",
"v.	c #414C52",
"w.	c #4A6D83",
"x.	c #B4CADE",
"y.	c #313C4A",
"z.	c #F6EEEE",
"A.	c #CDCAC5",
"B.	c #C5BEBD",
"C.	c #BDCEDE",
"D.	c #A4C6DE",
"E.	c #6A89A4",
"F.	c #7389A4",
"G.	c #393C41",
"H.	c #E6DEDE",
"I.	c #4A4C41",
"J.	c #41505A",
"K.	c #A4C2DE",
"L.	c #73899C",
"M.	c #62859C",
"N.	c #313839",
"O.	c #4A4841",
"P.	c #D5CECD",
"Q.	c #313C41",
"R.	c #ACAAAC",
"S.	c #080C08",
"T.	c #4A5D6A",
"U.	c #5A6D7B",
"V.	c #4A5962",
"W.	c #A4A19C",
"X.	c #E6E2E6",
"Y.	c #BDB6B4",
"Z.	c #9CC2DE",
"`.	c #A4A5A4",
" +	c #293039",
".+	c #8B898B",
"                                                            ",
"                                                            ",
"                                                            ",
"                                                            ",
"                                                            ",
"              . +                                           ",
"            @ # + $                                         ",
"          % & * + = - ; + + + + + + + + + + + + + >         ",
"        @ & * * * * , ' + ) ! ~ { ] { ] ^ / ( _ : +         ",
"      . & < < < < < [ * } + | 1 2 3 3 4 5 5 6 7 8 + 9       ",
"      . 0 a a a a a b c * d + e f g h 5 5 i j k 8 + l       ",
"        . m n n + + o p q , + r s t u u u u ( v w + l       ",
"          x y n + $ + z A * + B C t u u u u ( v D + l       ",
"          + @ E + F G + H * + I J K L L L l ( M N + l       ",
"          + O = P Q R + S T + U C t u u u u ( M V + l       ",
"          + W X Y R C + Z + ` R s u u u u u ( v  .+ l       ",
"          + ..+.@.l + , T + #.$.K L L L L K ( v %.+ l       ",
"          + &.7 *.+ } ' + B =.-.t u u u u u ( v ;.+ l       ",
"          + >.,.'.).+ + Y G !.~.@.( ( ( ( B {.v ].+ l       ",
"          + ..^.k k /.(._.(./.^.v v v v k M v M :.+ l       ",
"          + <.^.[.}.|.1.2.3.3.3.4.5.%.6.7.8.9.0.a.+ l       ",
"          + ..}.b.c.d.R e.f.C f.R L g.h.%.i.j.k.l.+ l       ",
"          + ..b.b.m.n.o.p.q.q.r.s.t.u.L v.D w.x.y.+ l       ",
"          + ..b.(.m.e.z.p.q.q.A.B.t.g.n.2.D w.C.y.+ l       ",
"          + D.E.F.G.H.C q.I.I.s.t.A.e.f.J.D w.K.G.+ l       ",
"          + L._.M.N.U U O.O.O.t.P.o.-.o.v.N i.K.Q.+ l       ",
"          R.S.T.U.V.W.t.u.A.A.U X.f.n.Y.1.N N Z.Q.+ l       ",
"            `.+ + + + + + + + + + + + + + + +  ++ .+9       ",
"                9 l l l l l l l l l l l l l l l l 9         ",
"                                                            "};
