/* XPM */
static char * save_xpm[] = {
"30 30 155 2",
"  	c None",
". 	c #8B8D8B",
"+ 	c #000000",
"@ 	c #C5D6F6",
"# 	c #ACCEE6",
"$ 	c #73757B",
"% 	c #EEC6BD",
"& 	c #F6CABD",
"* 	c #F6C6BD",
"= 	c #EEBEB4",
"- 	c #EEC2BD",
"; 	c #EEB6AC",
"> 	c #EEBAAC",
", 	c #EEBAB4",
"' 	c #E6BEBD",
") 	c #737173",
"! 	c #B4CEE6",
"~ 	c #A4BED5",
"{ 	c #BDD6EE",
"] 	c #8BAAC5",
"^ 	c #625D6A",
"/ 	c #E68D7B",
"( 	c #E6816A",
"_ 	c #DE796A",
": 	c #DE8173",
"< 	c #D58173",
"[ 	c #D57D6A",
"} 	c #CD7162",
"| 	c #CD7562",
"1 	c #C5655A",
"2 	c #62616A",
"3 	c #83A1B4",
"4 	c #527183",
"5 	c #C5C2C5",
"6 	c #8BA5C5",
"7 	c #6A6573",
"8 	c #CD817B",
"9 	c #CD7D73",
"0 	c #CD7973",
"a 	c #BD6962",
"b 	c #C56962",
"c 	c #BD6D6A",
"d 	c #839DB4",
"e 	c #BDBEBD",
"f 	c #B4D2E6",
"g 	c #83AAC5",
"h 	c #FFFFFF",
"i 	c #83A1BD",
"j 	c #526D83",
"k 	c #BDD2E6",
"l 	c #83A5BD",
"m 	c #4A697B",
"n 	c #CDCECD",
"o 	c #8BA5BD",
"p 	c #4A6173",
"q 	c #626162",
"r 	c #415D73",
"s 	c #B4CAE6",
"t 	c #7BA1BD",
"u 	c #415D6A",
"v 	c #7BA1B4",
"w 	c #C5C6C5",
"x 	c #52616A",
"y 	c #73595A",
"z 	c #525D62",
"A 	c #7B99B4",
"B 	c #7B8D9C",
"C 	c #7B797B",
"D 	c #6A6D73",
"E 	c #6A6D6A",
"F 	c #6A696A",
"G 	c #6A757B",
"H 	c #39505A",
"I 	c #ACCAE6",
"J 	c #7395AC",
"K 	c #7B9DB4",
"L 	c #31485A",
"M 	c #ACC6E6",
"N 	c #6A91AC",
"O 	c #7391AC",
"P 	c #41484A",
"Q 	c #414852",
"R 	c #525962",
"S 	c #626D7B",
"T 	c #5A6D73",
"U 	c #5A6973",
"V 	c #5A656A",
"W 	c #5A616A",
"X 	c #395062",
"Y 	c #39404A",
"Z 	c #7B95B4",
"` 	c #A4BACD",
" .	c #314852",
"..	c #6A8DA4",
"+.	c #4A505A",
"@.	c #94918B",
"#.	c #DEDEDE",
"$.	c #E6E2DE",
"%.	c #EEEAEE",
"&.	c #EEEAE6",
"*.	c #CDC6C5",
"=.	c #9C958B",
"-.	c #4A657B",
";.	c #52718B",
">.	c #ACC6DE",
",.	c #31444A",
"'.	c #41444A",
").	c #DEDAD5",
"!.	c #E6E6E6",
"~.	c #62655A",
"{.	c #524C41",
"].	c #DED6D5",
"^.	c #C5C6BD",
"/.	c #C5BEB4",
"(.	c #BDB2AC",
"_.	c #414C52",
":.	c #4A6D83",
"<.	c #B4CADE",
"[.	c #313C4A",
"}.	c #738DA4",
"|.	c #F6EEEE",
"1.	c #CDCAC5",
"2.	c #C5BEBD",
"3.	c #4A555A",
"4.	c #BDCEDE",
"5.	c #A4C6DE",
"6.	c #6A89A4",
"7.	c #7389A4",
"8.	c #393C41",
"9.	c #E6DEDE",
"0.	c #4A4C41",
"a.	c #41505A",
"b.	c #A4C2DE",
"c.	c #73899C",
"d.	c #6A899C",
"e.	c #62859C",
"f.	c #313839",
"g.	c #D5D6D5",
"h.	c #4A4841",
"i.	c #D5CECD",
"j.	c #EEEEEE",
"k.	c #313C41",
"l.	c #ACAAAC",
"m.	c #080C08",
"n.	c #4A5D6A",
"o.	c #5A6D7B",
"p.	c #4A5962",
"q.	c #A4A19C",
"r.	c #E6E2E6",
"s.	c #BDB6B4",
"t.	c #39444A",
"u.	c #9CC2DE",
"v.	c #A4A5A4",
"w.	c #293039",
"x.	c #8B898B",
"                                                            ",
"                                                            ",
"                                                            ",
"                                                            ",
"                                                            ",
"                                                            ",
"        . + + + + + + + + + + + + + + + + + + + .           ",
"        + @ # $ % & * = = - = ; > ; > , ' ) ! ~ +           ",
"        + { ] ^ / ( ( _ : _ < [ } } | 1 1 2 3 4 + 5         ",
"        + { 6 7 8 9 0 0 9 9 a 0 b 9 1 1 c 7 d 4 + e         ",
"        + f g ) h h h h h h h h h h h h h ) i j + e         ",
"        + k l ) h h h h h h h h h h h h h ) i m + e         ",
"        + k i ) n n n n n n n n n n n n e ) o p + e         ",
"        + f i q h h h h h h h h h h h h h ) o r + e         ",
"        + s t ) h h h h h h h h h h h h h ) i u + e         ",
"        + # v ) n n n n n n n n n n n n w ) i x + e         ",
"        + f 3 y h h h h h h h h h h h h h ) i z + e         ",
"        + # A B C ) ) ) ) ) D E ) ) ) ) F G i H + e         ",
"        + I J d i i d K K d A i i i i d o i o L + e         ",
"        + M J N O P Q R S T U V W x R X Y Z `  .+ e         ",
"        + I O ..+.@.#.$.%.%.&.#.n *.=.x -.;.>.,.+ e         ",
"        + I ....'.).!.~.{.{.].^./.(.n _.m :.<.[.+ e         ",
"        + I ..}.'.$.|.~.{.{.1.2./.*.).3.m :.4.[.+ e         ",
"        + 5.6.7.8.9.%.{.0.0.^./.1.$.&.a.m :.b.8.+ e         ",
"        + c.d.e.f.g.g.h.h.h./.i.!.j.!._.p -.b.k.+ e         ",
"        l.m.n.o.p.q./.(.1.1.g.r.&.).s.t.p p u.k.+ e         ",
"          v.+ + + + + + + + + + + + + + + + w.+ x.5         ",
"              5 e e e e e e e e e e e e e e e e 5           ",
"                                                            ",
"                                                            "};
