/* XPM */
static char * strikethru_xpm[] = {
"30 30 50 1",
" 	c None",
".	c #5A595A",
"+	c #000000",
"@	c #525552",
"#	c #B4B6B4",
"$	c #E6E2E6",
"%	c #F6F2F6",
"&	c #F6F6F6",
"*	c #DEDADE",
"=	c #4A4C4A",
"-	c #E6E6E6",
";	c #EEEAEE",
">	c #EEEEEE",
",	c #A4AAA4",
"'	c #ACAAAC",
")	c #101010",
"!	c #A4A5A4",
"~	c #525052",
"{	c #9C999C",
"]	c #080808",
"^	c #6A696A",
"/	c #181818",
"(	c #393839",
"_	c #8B898B",
":	c #ACAEAC",
"<	c #CDCACD",
"[	c #313031",
"}	c #101410",
"|	c #C5C2C5",
"1	c #C5C6C5",
"2	c #626562",
"3	c #202420",
"4	c #FFFAFF",
"5	c #181C18",
"6	c #D5D2D5",
"7	c #313431",
"8	c #000400",
"9	c #BDBABD",
"0	c #FFFFFF",
"a	c #DEDEDE",
"b	c #202020",
"c	c #080C08",
"d	c #838583",
"e	c #A4A1A4",
"f	c #7B7D7B",
"g	c #949594",
"h	c #292C29",
"i	c #BDBEBD",
"j	c #8B8D8B",
"k	c #B4B2B4",
"                              ",
"                              ",
"                              ",
"                              ",
"                              ",
"    .++++++++++++++++++@#     ",
"   .$%%%%%%%&&&&&&&&&&&*=     ",
"   +%$$$$$----;;;;;>>>>>+#    ",
"   +%$$$$----;;;;;>>>>%%+,    ",
"   +%$$$----'+)->>>>>%%%+!    ",
"   +%$-----;~)+{>>>>%%%%+!    ",
"   +%-----;*]^/(>>>%%%%&+!    ",
"   +%---;;;_+:^+<%%%%%&&+!    ",
"   +&--;;;;[};|+^%%%%&&&+!    ",
"   +&-;;;;1+2>>3);%&&&&&+!    ",
"   +&;;;++++++++++++&&&4+!    ",
"   +&;;;>;}5%%%6+7&&&444+!    ",
"   +&;;>>!++++++++<&4444+!    ",
"   +&;>>>=8$%%&&9+244440+!    ",
"   +&>>>a8=%%&&&&bc>4400+!    ",
"   +&>>>d+e%&&&&&f+g4000+!    ",
"   +4%%%hc>&&&444*+[0000+!    ",
"   +4%%%&&&&&44440000000+!    ",
"   +%%%&&&&&44440000000>+!    ",
"   @<>4&&&444440000000>i3!    ",
"   i=++++++++++++++++++3jk    ",
"     #,!!!!!!!!!!!!!!!!!k|    ",
"                              ",
"                              ",
"                              "};
