/* XPM */
static char * underline_xpm[] = {
"30 30 53 1",
" 	c None",
".	c #5A595A",
"+	c #000000",
"@	c #525552",
"#	c #B4B6B4",
"$	c #E6E2E6",
"%	c #F6F2F6",
"&	c #F6F6F6",
"*	c #DEDADE",
"=	c #4A4C4A",
"-	c #E6E6E6",
";	c #EEEAEE",
">	c #EEEEEE",
",	c #ACAAAC",
"'	c #101010",
")	c #A4AAA4",
"!	c #525052",
"~	c #9C999C",
"{	c #A4A5A4",
"]	c #080808",
"^	c #6A696A",
"/	c #181818",
"(	c #393839",
"_	c #8B898B",
":	c #ACAEAC",
"<	c #C5C6C5",
"[	c #313031",
"}	c #101410",
"|	c #BDBEBD",
"1	c #626162",
"2	c #202420",
"3	c #6A6D6A",
"4	c #BDBABD",
"5	c #7B797B",
"6	c #949594",
"7	c #181C18",
"8	c #D5D2D5",
"9	c #313431",
"0	c #FFFAFF",
"a	c #CDCACD",
"b	c #000400",
"c	c #626562",
"d	c #202020",
"e	c #080C08",
"f	c #FFFFFF",
"g	c #838583",
"h	c #A4A1A4",
"i	c #7B7D7B",
"j	c #292C29",
"k	c #C5C2C5",
"l	c #9C9D9C",
"m	c #8B8D8B",
"n	c #B4B2B4",
"                              ",
"                              ",
"                              ",
"                              ",
"                              ",
"    .++++++++++++++++++@#     ",
"   .$%%%%%%%&&&&&&&&&&&*=     ",
"   +%$$$$$----;;;;;>>>>>+#    ",
"   +%$$$$---,+'$;;>>>>%%+)    ",
"   +%$$$----!'+~>>>>>%%%+{    ",
"   +%$-----*]^/(>>>>%%%%+{    ",
"   +%-----;_+:^+<>>%%%%&+{    ",
"   +%---;;;[};|+^%%%%%&&+{    ",
"   +&--;;;<+1>>2';%%%&&&+{    ",
"   +&-;;;;3+4>>5+6%&&&&&+{    ",
"   +&;;;;;}7>>%8+9&&&&&0+{    ",
"   +&;;;>{++++++++a&&000+{    ",
"   +&;;>>=b$%%%%4+c&0000+{    ",
"   +&;>>*b=%%%&&&de>000f+{    ",
"   +&>>>g+h%%&&&&i+600ff+{    ",
"   +&>>>je;%&&&&&*+[0fff+{    ",
"   +0%%%%%&&&&00000fffff+{    ",
"   +0%%k++++++++++++lfff+{    ",
"   +%%%&&&&&0000fffffff>+{    ",
"   @a>0&&&00000fffffff>|2{    ",
"   |=++++++++++++++++++2mn    ",
"     #){{{{{{{{{{{{{{{{{nk    ",
"                              ",
"                              ",
"                              "};
