/* XPM */
static char * undo_xpm[] = {
"30 30 46 1",
" 	c None",
".	c #000000",
"+	c #EEE6BD",
"@	c #BDBEBD",
"#	c #EEE6C5",
"$	c #EED683",
"%	c #5A5D5A",
"&	c #ACAEAC",
"*	c #EEE6B4",
"=	c #D5B65A",
"-	c #B49541",
";	c #737173",
">	c #D5B252",
",	c #6A6D6A",
"'	c #C5AE73",
")	c #C5A14A",
"!	c #9C6900",
"~	c #D59508",
"{	c #E6B64A",
"]	c #DEC273",
"^	c #6A696A",
"/	c #8B6500",
"(	c #D59D18",
"_	c #B49139",
":	c #C5C2C5",
"<	c #DEB64A",
"[	c #CDB66A",
"}	c #BDBABD",
"|	c #ACAAAC",
"1	c #626162",
"2	c #BD8108",
"3	c #DEA529",
"4	c #B4B6B4",
"5	c #B4B2B4",
"6	c #D5A529",
"7	c #C5B26A",
"8	c #A49152",
"9	c #525052",
"0	c #8B898B",
"a	c #E6CA7B",
"b	c #949594",
"c	c #8B7D4A",
"d	c #AC9D5A",
"e	c #94854A",
"f	c #8B8D8B",
"g	c #BDC2BD",
"                              ",
"                              ",
"                              ",
"                              ",
"                              ",
"                              ",
"                              ",
"                              ",
"             .                ",
"            ..                ",
"           .+.@               ",
"          .#$...%&            ",
"         .*$$$$=-.;           ",
"        .+$$$$$$$>.,          ",
"       .'$$$$$$$$$).@         ",
"        .!~~~~~~{$].^         ",
"         ./~~~~~~($_.@        ",
"         :./~...!~<[.}        ",
"          :.!.|1.23$.4        ",
"           :..54^.~$.4        ",
"            :.@@@.67.4        ",
"                 .>89}        ",
"                0.a.b@        ",
"                .[c.4:        ",
"               .de.5}         ",
"               f..4}          ",
"                 :g           ",
"                              ",
"                              ",
"                              "};
