/* XPM */
static char * up_xpm[] = {
"30 30 51 1",
" 	c None",
".	c #000000",
"+	c #292C29",
"@	c #A4B6A4",
"#	c #EEF6E6",
"$	c #94BA94",
"%	c #415039",
"&	c #F6FFF6",
"*	c #BDD6B4",
"=	c #9CC69C",
"-	c #62815A",
";	c #B4D6B4",
">	c #BDD6BD",
",	c #A4C69C",
"'	c #6A815A",
")	c #627D5A",
"!	c #395039",
"~	c #A4C6A4",
"{	c #6A8562",
"]	c #62795A",
"^	c #394C39",
"/	c #F6FFEE",
"(	c #5A7552",
"_	c #D7EBD7",
":	c #C5D6C5",
"<	c #4A6141",
"[	c #C7E3C7",
"}	c #BDBABD",
"|	c #B4B2B4",
"1	c #D5E6D5",
"2	c #B4D2B4",
"3	c #A4C29C",
"4	c #ACAAAC",
"5	c #ACAEAC",
"6	c #9CC29C",
"7	c #BDBEBD",
"8	c #9CBE9C",
"9	c #C5DEC5",
"0	c #B4CEB4",
"a	c #9CBE94",
"b	c #C5DABD",
"c	c #ACCEAC",
"d	c #ACCAAC",
"e	c #94B694",
"f	c #627952",
"g	c #8BB28B",
"h	c #738973",
"i	c #73916A",
"j	c #5A7152",
"k	c #415539",
"l	c #B4B6B4",
"                              ",
"                              ",
"                              ",
"                              ",
"                              ",
"                              ",
"                              ",
"              .               ",
"             +@.              ",
"            .#$%.             ",
"           .&*=-%.            ",
"          .&;>,')!.           ",
"         .&*;>~{)]^.          ",
"        ./*>;>,{)](^.         ",
"       ._>:>**,')<<<<.        ",
"      .....[;;,-]^.....       ",
"        }|.1;23)]^.45|}       ",
"          .[;26)]^.57         ",
"          .[228)]^.|          ",
"          .920a](^.|          ",
"          .bcdef(^.|          ",
"          .ghij<<k.|          ",
"          .........l          ",
"           7l|||||l7          ",
"                              ",
"                              ",
"                              ",
"                              ",
"                              ",
"                              "};
