/* XPM */
static char * zoom_fit_xpm[] = {
"30 30 64 1",
" 	c None",
".	c #ACAEAC",
"+	c #6A6D6A",
"@	c #414441",
"#	c #292C29",
"$	c #292829",
"%	c #393C39",
"&	c #626562",
"*	c #A4A5A4",
"=	c #BDBEBD",
"-	c #5A595A",
";	c #313031",
">	c #737173",
",	c #A4A1A4",
"'	c #B4B6B4",
")	c #B4B2B4",
"!	c #9C9D9C",
"~	c #202020",
"{	c #4A484A",
"]	c #B4BAB4",
"^	c #ACAAAC",
"/	c #626162",
"(	c #CDCACD",
"_	c #CDCECD",
":	c #D5D2D5",
"<	c #C5C2C5",
"[	c #4A4C4A",
"}	c #101410",
"|	c #9CA19C",
"1	c #202420",
"2	c #737573",
"3	c #DEDADE",
"4	c #E6E6E6",
"5	c #EEEEEE",
"6	c #F6F2F6",
"7	c #5A5D5A",
"8	c #101010",
"9	c #525052",
"0	c #FFFAFF",
"a	c #414041",
"b	c #181C18",
"c	c #BDBABD",
"d	c #D5D6D5",
"e	c #FFFFFF",
"f	c #080C08",
"g	c #9C999C",
"h	c #E6E2E6",
"i	c #525552",
"j	c #DEDEDE",
"k	c #C5C6C5",
"l	c #F6F6F6",
"m	c #080808",
"n	c #EEEAEE",
"o	c #949194",
"p	c #000000",
"q	c #949594",
"r	c #393839",
"s	c #313431",
"t	c #949994",
"u	c #000400",
"v	c #838183",
"w	c #7B797B",
"x	c #181818",
"y	c #6A696A",
"                              ",
"                              ",
"                              ",
"                              ",
"                              ",
"                              ",
"         .+@#$%&*             ",
"       =-;>,')!&~{]           ",
"      ^$/'(_:_(<*[}|          ",
"     =12(:345664:=78'         ",
"     [-_@{990099[{<aa         ",
"    *bcd[999ee99[[4^fg        ",
"    7+:h99eeeee09[43i9        ",
"    #^3599eeee009[4jg~        ",
"    }kj5l00eee0l6543=m        ",
"    8kh56l0000ll6nhdcm        ",
"    1*h4[[llll65[{3:ob        ",
"    i73h{[55555n{{d([[        ",
"    gm'3{{{{44{{@@(,pq        ",
"    =rr_@@@{33@@@a=#s         ",
"     .m9<k(__(((<c@pt         ",
"     =qu;gc===='o$pfmv        ",
"      =.spawgg2%ps.xfmxq      ",
"        =q[bppb[q*==$$mf*     ",
"          =======  =8yrmm=    ",
"                    =mw%mm=   ",
"                    ==uy~m=   ",
"                     ==}p,=   ",
"                      ===     ",
"                              "};
