/* XPM */
static char * zoom_100percent_xpm[] = {
"30 30 64 1",
" 	c None",
".	c #ACAEAC",
"+	c #6A6D6A",
"@	c #414441",
"#	c #292C29",
"$	c #292829",
"%	c #393C39",
"&	c #626562",
"*	c #A4A5A4",
"=	c #BDBEBD",
"-	c #5A595A",
";	c #313031",
">	c #737173",
",	c #A4A1A4",
"'	c #B4B6B4",
")	c #B4B2B4",
"!	c #9C9D9C",
"~	c #202020",
"{	c #4A484A",
"]	c #B4BAB4",
"^	c #ACAAAC",
"/	c #626162",
"(	c #CDCACD",
"_	c #CDCECD",
":	c #D5D2D5",
"<	c #C5C2C5",
"[	c #4A4C4A",
"}	c #101410",
"|	c #9CA19C",
"1	c #202420",
"2	c #737573",
"3	c #DEDADE",
"4	c #E6E6E6",
"5	c #EEEEEE",
"6	c #F6F2F6",
"7	c #5A5D5A",
"8	c #101010",
"9	c #D5D6D5",
"0	c #F6F6F6",
"a	c #FFFAFF",
"b	c #E6E2E6",
"c	c #414041",
"d	c #181C18",
"e	c #BDBABD",
"f	c #FFFFFF",
"g	c #080C08",
"h	c #9C999C",
"i	c #525552",
"j	c #525052",
"k	c #DEDEDE",
"l	c #C5C6C5",
"m	c #080808",
"n	c #949194",
"o	c #EEEAEE",
"p	c #000000",
"q	c #949594",
"r	c #393839",
"s	c #313431",
"t	c #949994",
"u	c #000400",
"v	c #838183",
"w	c #7B797B",
"x	c #181818",
"y	c #6A696A",
"                              ",
"                              ",
"                              ",
"                              ",
"                              ",
"                              ",
"         .+@#$%&*             ",
"       =-;>,')!&~{]           ",
"      ^$/'(_:_(<*[}|          ",
"     =12(:345664:=78'         ",
"     [-_940aaaa06b<cc         ",
"    *de94{afffaa6@4^gh        ",
"    7+:b{{ff{{fa{@43ij        ",
"    #^3@{{ff{{a{{@4kh~        ",
"    }lk5{{afffa0{@43=m        ",
"    8lb5{{aaaa00@@b9em        ",
"    1*b4@@00{{65@c3:nd        ",
"    i73b@@55@@5occ9([[        ",
"    hm'3cc4444bkc%(,pq        ",
"    =rr_:9333339:(=#s         ",
"     .mj<l(__(((<e@pt         ",
"     =qu;he===='n$pgmv        ",
"      =.spcwhh2%ps.xgmxq      ",
"        =q[dppd[q*==$$mg*     ",
"          =======  =8yrmm=    ",
"                    =mw%mm=   ",
"                    ==uy~m=   ",
"                     ==}p,=   ",
"                      ===     ",
"                              "};
