/* XPM */
static char * ext_xml_xpm[] = {
"24 24 81 1",
" 	c None",
".	c #5A5D5A",
"+	c #838583",
"@	c #8B898B",
"#	c #9C9D9C",
"$	c #E6E6E6",
"%	c #FFFFFF",
"&	c #FFFAFF",
"*	c #EEEEEE",
"=	c #DEDEDE",
"-	c #7B7D7B",
";	c #EEEAEE",
">	c #F6F2F6",
",	c #D5D6D5",
"'	c #CDCACD",
")	c #D5D2D5",
"!	c #E6E2E6",
"~	c #D5D2CD",
"{	c #838183",
"]	c #F6F6F6",
"^	c #B4B6B4",
"/	c #ACAAAC",
"(	c #949594",
"_	c #8B8D8B",
":	c #CDCECD",
"<	c #C5C6C5",
"[	c #BDBABD",
"}	c #9C9994",
"|	c #525052",
"1	c #FFFAF6",
"2	c #5A595A",
"3	c #DEDADE",
"4	c #BDBEBD",
"5	c #F6F2EE",
"6	c #C5C2C5",
"7	c #DEDAD5",
"8	c #B4B2B4",
"9	c #EEEAE6",
"0	c #E6E2DE",
"a	c #D5DADE",
"b	c #CDD2D5",
"c	c #CDCED5",
"d	c #73797B",
"e	c #9CAAB4",
"f	c #8B9DAC",
"g	c #73859C",
"h	c #7B8DA4",
"i	c #94A5B4",
"j	c #627D94",
"k	c #8399AC",
"l	c #6A859C",
"m	c #5A758B",
"n	c #62696A",
"o	c #ACAEAC",
"p	c #8395AC",
"q	c #D5DEE6",
"r	c #BDCAD5",
"s	c #7B91A4",
"t	c #EEF2F6",
"u	c #9CAABD",
"v	c #C5CAD5",
"w	c #4A6983",
"x	c #525962",
"y	c #EEEEF6",
"z	c #9CAEBD",
"A	c #738DA4",
"B	c #CDD6DE",
"C	c #D5DAE6",
"D	c #BDC6CD",
"E	c #ACBAC5",
"F	c #C5CED5",
"G	c #B4C2CD",
"H	c #8BA1B4",
"I	c #B4BECD",
"J	c #839194",
"K	c #394C5A",
"L	c #314052",
"M	c #5A656A",
"N	c #737573",
"O	c #BDBAB4",
"P	c #7B797B",
" .+@@@@@@@@@@@@@@#@     ",
" @$%&%%&&%&&%%%%%*=-    ",
" @;>,=,'),!!%%%%%=%~{   ",
" @*%>;*;&**>]*%%%)^/(_  ",
" @*%%:',,)'<,)&&&*[}-|  ",
" @$%%$$*!$]]]]&&1]]$)2  ",
" @*%%:3^:,>&&&]]]]>*=.  ",
" @*%&&*$$$$!!*]>>>>*=.  ",
" @$&&&$!3=4)=$>>>5*$3.  ",
" @$&&&]>))),6',)3=*$3.  ",
" @;&]]]>,6:7)<)<,=;$3.  ",
" @;]]]3,<8)<<~:*;;;$3.  ",
" @=]>*$=:,'37))$9$$=,.  ",
" @$]>6''4<<3<6[/)4$!3.  ",
" @$>*,3===70077)!,$!3.  ",
" @0>*4<:^[<a=33aaaabcdc ",
" @35;!=,~~efgfhijfhklmn ",
" @!*;;~'o^fpqrs&ituvhwx ",
" @!$3)$$$!imyzABCDuvhwx ",
" @,!'6!$$$iEfFkGwiHIIpx ",
" @3;$$$$$!JKKKKKKKKKKLM ",
" N,7,,,,,,'[[[OOOOO[o|' ",
" P..................2{  ",
"                        "};
