/* XPM */
static char * ext_php_xpm[] = {
"24 24 105 2",
"  	c None",
". 	c #5A5D5A",
"+ 	c #838583",
"@ 	c #8B898B",
"# 	c #9C9D9C",
"$ 	c #EEEAEE",
"% 	c #FFFFFF",
"& 	c #EEEEEE",
"* 	c #DEDEDE",
"= 	c #7B7D7B",
"- 	c #D5D6D5",
"; 	c #B4B6B4",
"> 	c #D5D2D5",
", 	c #BDBEBD",
"' 	c #F6F2F6",
") 	c #ACAEAC",
"! 	c #C5C2C5",
"~ 	c #E6E2E6",
"{ 	c #D5D2CD",
"] 	c #838183",
"^ 	c #CDCECD",
"/ 	c #A4A5A4",
"( 	c #949194",
"_ 	c #ACAAAC",
": 	c #DEDADE",
"< 	c #9C999C",
"[ 	c #949594",
"} 	c #8B8D8B",
"| 	c #FFFAFF",
"1 	c #C5C6C5",
"2 	c #CDCACD",
"3 	c #BDBABD",
"4 	c #9C9994",
"5 	c #525052",
"6 	c #7B797B",
"7 	c #525552",
"8 	c #BDC6CD",
"9 	c #B4C2CD",
"0 	c #B4BAC5",
"a 	c #ACBAC5",
"b 	c #F6F6F6",
"c 	c #5A595A",
"d 	c #626562",
"e 	c #6A6D6A",
"f 	c #EEF2F6",
"g 	c #F6F2EE",
"h 	c #737173",
"i 	c #7B7973",
"j 	c #737573",
"k 	c #B4B2B4",
"l 	c #94918B",
"m 	c #626162",
"n 	c #E6E6E6",
"o 	c #6A696A",
"p 	c #FFFAF6",
"q 	c #ACAAA4",
"r 	c #6A6962",
"s 	c #EEEAE6",
"t 	c #E6E2DE",
"u 	c #DEDAD5",
"v 	c #B4B2AC",
"w 	c #C5C2BD",
"x 	c #B4BABD",
"y 	c #A4AEB4",
"z 	c #BDC2C5",
"A 	c #BDBEC5",
"B 	c #D5DADE",
"C 	c #C5C6CD",
"D 	c #73797B",
"E 	c #C5CACD",
"F 	c #9C9DA4",
"G 	c #D5D6DE",
"H 	c #8395A4",
"I 	c #9CAEBD",
"J 	c #8B9DAC",
"K 	c #73899C",
"L 	c #8395AC",
"M 	c #5A7994",
"N 	c #94A5B4",
"O 	c #8399AC",
"P 	c #41596A",
"Q 	c #BDBAB4",
"R 	c #CDD6DE",
"S 	c #A4B2BD",
"T 	c #CDD2DE",
"U 	c #ACB6C5",
"V 	c #4A6983",
"W 	c #C5CAD5",
"X 	c #DEE2E6",
"Y 	c #41556A",
"Z 	c #C5CED5",
"` 	c #BDC6D5",
" .	c #D5DEE6",
"..	c #395062",
"+.	c #7B91A4",
"@.	c #A4B6C5",
"#.	c #DEDEE6",
"$.	c #B4BECD",
"%.	c #314C62",
"&.	c #4A5962",
"*.	c #4A5562",
"=.	c #415562",
"-.	c #415062",
";.	c #314452",
">.	c #41555A",
"  . + @ @ @ @ @ @ @ @ @ @ @ @ @ @ # @           ",
"  @ $ % % % % % % % % % % % % % % & * =         ",
"  @ & % - ; > ; , ' ) - ! ! ~ % % * % { ]       ",
"  @ ' % ^ = / ( _ : < _ ) [ # $ % > ; _ [ }     ",
"  @ & % % > - [ ] * ! | * 1 - 2 3 $ 3 4 = 5     ",
"  @ $ % % = # / / 6 7 $ ~ 8 9 0 8 a b $ ^ c     ",
"  @ ' % b ( * @ d / e $ b b b ' ' f ' & : .     ",
"  @ g | , < 1 @ , ( h i * 2 ( ! > ' ' $ : .     ",
"  @ $ | ~ j k h ] < d 1 l ( } h m & & n - .     ",
"  @ $ | | h ] < [ o 5 n ( _ e ] 7 - & n > .     ",
"  @ & p b # / . c q @ $ h ] o 6 5 - $ n - .     ",
"  @ $ b : 2 & n > 1 ~ & ] 7 e 7 c n $ ~ > .     ",
"  @ ~ b 3 h } d r e ) & - ! 6 , 2 s n * ^ .     ",
"  @ n ' $ s t t n ~ * ~ n u ~ u * n n t > .     ",
"  @ n g - 3 3 v 1 ) ; w 1 q w / ^ n n t { .     ",
"  @ t & ^ ) ) x y k , 2 1 1 z A - B B > C D E   ",
"  @ * & ^ , ( 1 F _ , G H I J K L M N O I L P   ",
"  @ t $ ^ 3 4 / ! Q 1 R a S T U 9 V f W J X Y   ",
"  @ * $ ^ # [ 3 ! _ : R a Z ` N  .I f W 8 8 ..  ",
"  @ - n ^ , ) , w ) ! R I J V +.@.V #.$.K V %.  ",
"  @ u n > ) w k u ) : C &.*.*.*.*.*.*.=.-.;.>.  ",
"  j > - - - - - - - - - 1 1 ! ! ! ! ! ! ) 7 -   ",
"  6 . . . . . . . . . . . . . . . . . . c ]     ",
"                                                "};
