/* XPM */
static char * ext_gz_xpm[] = {
"24 24 189 2",
"  	c None",
". 	c #A4A1A4",
"+ 	c #7B7D7B",
"@ 	c #6A716A",
"# 	c #CDCACD",
"$ 	c #A4AAA4",
"% 	c #9C9594",
"& 	c #9C8D83",
"* 	c #A4998B",
"= 	c #E6D2BD",
"- 	c #FFF2DE",
"; 	c #DED6C5",
"> 	c #838173",
", 	c #625D52",
"' 	c #524C41",
") 	c #5A554A",
"! 	c #838583",
"~ 	c #BDC2BD",
"{ 	c #ACA194",
"] 	c #EEDECD",
"^ 	c #C5BAAC",
"/ 	c #837973",
"( 	c #736D62",
"_ 	c #837D6A",
": 	c #BDAE94",
"< 	c #DEC2A4",
"[ 	c #CDB694",
"} 	c #C5AA8B",
"| 	c #B4957B",
"1 	c #62594A",
"2 	c #8B8983",
"3 	c #736D6A",
"4 	c #83817B",
"5 	c #A4A5A4",
"6 	c #94958B",
"7 	c #94918B",
"8 	c #6A6962",
"9 	c #5A5552",
"0 	c #948D8B",
"a 	c #B4A594",
"b 	c #D5BA9C",
"c 	c #D5B694",
"d 	c #CDAE8B",
"e 	c #C5A583",
"f 	c #BD9D7B",
"g 	c #AC9173",
"h 	c #B4AEAC",
"i 	c #625541",
"j 	c #E6CAAC",
"k 	c #F6E2CD",
"l 	c #BDB2A4",
"m 	c #413C39",
"n 	c #393831",
"o 	c #9C9994",
"p 	c #F6EADE",
"q 	c #DEC6AC",
"r 	c #A48562",
"s 	c #6A5031",
"t 	c #7B7973",
"u 	c #6A5D4A",
"v 	c #E6CAA4",
"w 	c #F6D6A4",
"x 	c #F6DAAC",
"y 	c #FFEAC5",
"z 	c #FFEED5",
"A 	c #BDBEB4",
"B 	c #737573",
"C 	c #393C39",
"D 	c #ACAAAC",
"E 	c #CDB69C",
"F 	c #C5AA94",
"G 	c #B49D83",
"H 	c #A4896A",
"I 	c #8B694A",
"J 	c #735531",
"K 	c #734C29",
"L 	c #6A4C29",
"M 	c #5A4020",
"N 	c #7B716A",
"O 	c #736552",
"P 	c #EED2A4",
"Q 	c #FFE2B4",
"R 	c #FFE6B4",
"S 	c #FFDEAC",
"T 	c #F6DEB4",
"U 	c #F6E2C5",
"V 	c #F6E6CD",
"W 	c #A4958B",
"X 	c #A4A19C",
"Y 	c #836D4A",
"Z 	c #7B5D41",
"` 	c #735D41",
" .	c #6A4820",
"..	c #6A4C20",
"+.	c #5A3C18",
"@.	c #73654A",
"#.	c #FFE2AC",
"$.	c #F6DEAC",
"%.	c #EECAA4",
"&.	c #E6C69C",
"*.	c #CDC2BD",
"=.	c #7B6141",
"-.	c #735939",
";.	c #6A5029",
">.	c #523810",
",.	c #6A6562",
"'.	c #7B6952",
").	c #FFEAB4",
"!.	c #FFDEB4",
"~.	c #DEC29C",
"{.	c #C5BEB4",
"].	c #6A4420",
"^.	c #624418",
"/.	c #4A3010",
"(.	c #626162",
"_.	c #7B6D52",
":.	c #FFEEBD",
"<.	c #FFEABD",
"[.	c #CDC6BD",
"}.	c #836541",
"|.	c #623C10",
"1.	c #4A2C08",
"2.	c #5A5D5A",
"3.	c #FFEEB4",
"4.	c #D5CAC5",
"5.	c #83654A",
"6.	c #7B6139",
"7.	c #735931",
"8.	c #5A3810",
"9.	c #4A2808",
"0.	c #525552",
"a.	c #FFDAA4",
"b.	c #FFDAAC",
"c.	c #D5C6BD",
"d.	c #7B5939",
"e.	c #623C18",
"f.	c #5A3808",
"g.	c #524C4A",
"h.	c #6A5941",
"i.	c #EECE9C",
"j.	c #EECEA4",
"k.	c #CDC2B4",
"l.	c #7B5D39",
"m.	c #735029",
"n.	c #5A3408",
"o.	c #4A4841",
"p.	c #C5C6C5",
"q.	c #4A4031",
"r.	c #F6DAA4",
"s.	c #F6D6AC",
"t.	c #F6D2AC",
"u.	c #CDBEB4",
"v.	c #624420",
"w.	c #414041",
"x.	c #C5AA83",
"y.	c #F6D2A4",
"z.	c #291800",
"A.	c #BDBEBD",
"B.	c #73695A",
"C.	c #DEBA94",
"D.	c #E6C29C",
"E.	c #C5BAB4",
"F.	c #624018",
"G.	c #5A3C10",
"H.	c #5A3410",
"I.	c #523008",
"J.	c #080C08",
"K.	c #8B8D8B",
"L.	c #D5BA94",
"M.	c #201400",
"N.	c #181818",
"O.	c #4A484A",
"P.	c #838983",
"Q.	c #B4B2B4",
"R.	c #BDBABD",
"S.	c #CDB28B",
"T.	c #DEBE94",
"U.	c #C5B6AC",
"V.	c #412C10",
"W.	c #181408",
"X.	c #202020",
"Y.	c #949594",
"Z.	c #5A595A",
"`.	c #5A5039",
" +	c #9C9183",
".+	c #392810",
"++	c #292C29",
"@+	c #6A696A",
"#+	c #838183",
"                                                ",
"                                                ",
"                    . + @ @ @ @ #               ",
"            $ % & * = - ; > , ' ) , !           ",
"    ~ % { { = ] ^ / ( ) _ : < < [ } | 1 2       ",
"  3 4 5 6 7 8 9 0 a b b c c c c d } e f g , h   ",
"  i j k l 7 m n o p q d c c d } [ < < f r s t   ",
"  u v w x y z A B C D ] c E F G H I J K L M N   ",
"  O P x Q R S T U V W X g Y Z ` J s L  ...+.3   ",
"  @.w S R R #.$.x %.&.*.=.Z Z -.J ;. . . .>.,.  ",
"  '.S S R ).R Q !.P ~.{.=.=.-.J s .. .].^./.(.  ",
"  _.S #.).:.<.).Q x %.[.}.=.-.J L  .].^.|.1.2.  ",
"  _.#.).3.:.:.).R !.P 4.5.6.7.J  . .^.|.8.9.0.  ",
"  @.a.#.R ).).R R b.P c.=.d.J L  .^.e.8.f.9.g.# ",
"  h.i.S S S #.R !.x j.k.l.7.m. .^.e.8.8.n.9.o.p.",
"  q.&.r.x x s.b.b.t.%.u.d.J  .v.e.8.f.n.n.9.w.~ ",
"  5 1 x.y.s.s.s.s.j.&.{.7.L  .e.8.8.n.n.n.z.C A.",
"      + B.C.%.j.j.j.D.E.m. .F.G.8.H.I.z.J.C K.  ",
"        p.t '.L.%.&.~.^ ..^.F.G.1.M.N.O.P.Q.    ",
"            R.8 O S.T.U. .^.V.W.X.2.Y.A.        ",
"                Q.Z.`. +.+W.++@+. p.            ",
"                    5 Z.Z.#+Q.                  ",
"                                                ",
"                                                "};
