/* XPM */
static char * ext_c_xpm[] = {
"24 24 110 2",
"  	c None",
". 	c #5A5D5A",
"+ 	c #838583",
"@ 	c #8B898B",
"# 	c #9C999C",
"$ 	c #838183",
"% 	c #E6E6E6",
"& 	c #FFFFFF",
"* 	c #FFFAFF",
"= 	c #F6F6F6",
"- 	c #EEEEEE",
"; 	c #DEDEDE",
"> 	c #7B797B",
", 	c #EEEAEE",
"' 	c #C5C6C5",
") 	c #CDCECD",
"! 	c #C5C2C5",
"~ 	c #D5D6D5",
"{ 	c #F6F2F6",
"] 	c #D5D2CD",
"^ 	c #E6E2E6",
"/ 	c #D5D2D5",
"( 	c #B4B6B4",
"_ 	c #ACAAAC",
": 	c #949594",
"< 	c #DEDADE",
"[ 	c #DEDAD5",
"} 	c #CDCACD",
"| 	c #BDBABD",
"1 	c #9C9994",
"2 	c #7B7D7B",
"3 	c #4A4C4A",
"4 	c #FFFAF6",
"5 	c #525552",
"6 	c #4A484A",
"7 	c #393839",
"8 	c #5A595A",
"9 	c #737573",
"0 	c #6A6562",
"a 	c #4A4841",
"b 	c #8B8D8B",
"c 	c #737173",
"d 	c #6A6D6A",
"e 	c #52504A",
"f 	c #626162",
"g 	c #F6F2EE",
"h 	c #393831",
"i 	c #292820",
"j 	c #101410",
"k 	c #525052",
"l 	c #8B8983",
"m 	c #BDBEBD",
"n 	c #7B7973",
"o 	c #5A5552",
"p 	c #393C39",
"q 	c #414039",
"r 	c #A4A19C",
"s 	c #6A6962",
"t 	c #83817B",
"u 	c #312C29",
"v 	c #9C9594",
"w 	c #414441",
"x 	c #73716A",
"y 	c #292C29",
"z 	c #8B8D83",
"A 	c #7B7573",
"B 	c #313031",
"C 	c #73756A",
"D 	c #837D7B",
"E 	c #202420",
"F 	c #313431",
"G 	c #A4A5A4",
"H 	c #E6E2DE",
"I 	c #A4A1A4",
"J 	c #BDBEC5",
"K 	c #D5DADE",
"L 	c #CDD2D5",
"M 	c #CDCED5",
"N 	c #73757B",
"O 	c #626562",
"P 	c #CDCAC5",
"Q 	c #B4B2B4",
"R 	c #B4B2AC",
"S 	c #94A1B4",
"T 	c #5A798B",
"U 	c #8395A4",
"V 	c #9CAABD",
"W 	c #7B91A4",
"X 	c #5A758B",
"Y 	c #5A656A",
"Z 	c #8BA1AC",
"` 	c #4A6983",
" .	c #E6E6EE",
"..	c #6A859C",
"+.	c #73899C",
"@.	c #4A555A",
"#.	c #8BA1B4",
"$.	c #EEEEF6",
"%.	c #526D83",
"&.	c #4A6D83",
"*.	c #BDC6CD",
"=.	c #A4B6C5",
"-.	c #8B9DAC",
";.	c #7B8994",
">.	c #394C5A",
",.	c #414C5A",
"'.	c #31404A",
").	c #5A5D62",
"!.	c #BDBAB4",
"~.	c #ACAEAC",
"  . + @ @ @ @ @ @ @ @ @ @ @ @ @ @ # $           ",
"  @ % & * & = & & & * & & & & & & - ; >         ",
"  @ , , ' ) ! ~ * { % & & & & & & ; & ] >       ",
"  @ - * = , { % , % ; * { ^ { & & / ( _ : +     ",
"  @ - & & , ^ < / ! ; * [ } ~ * * - | 1 2 3     ",
"  @ % & & , , = < { , = = % - - 4 , = % / 5     ",
"  @ - & & < ^ = ( 6 7 6 ~ ~ / ^ % % { - ; 8     ",
"  @ - & * * * = $ 9 0 a b { = { { { { - ; 8     ",
"  @ % * * * * = c d 9 e f % { { { g - % < 8     ",
"  @ % * * * = { _ h i j k 8 l m - - - % < 8     ",
"  @ , * = = = { ~ _ d . d n o p ' - , % < 8     ",
"  @ , = = = % % { , ( q l e n p b % , % < 8     ",
"  @ ; = { % % r p p p s t u v 3 8 ; % ; ~ 8     ",
"  @ % = { < - w t x y 6 z 1 A B + [ % ^ < 8     ",
"  @ % { ; ^ ~ 7 C D E B p y F F G H % ^ < 8     ",
"  @ H { ; < m d B i p b I 9 + G J K K L M N !   ",
"  @ < g , ~ / ! > O b ' P m Q R S T U V W X Y   ",
"  @ ^ - , < / | / | m / / < ~ ) Z `  ...+.` @.  ",
"  @ ^ - / % % % % % % % % ^ ^ ^ #.` $.%.&.` @.  ",
"  @ ~ - ; % % % % % % ^ ^ ^ ^ ^ #.` *.=.-.` @.  ",
"  @ < , % % % % % ^ ^ ^ ^ ^ ^ H ;.>.,.>.,.'.).  ",
"  9 ~ [ ~ ~ ~ ~ ~ ~ ~ ~ ~ ~ / / P !.| | ~.3 m   ",
"  c 8 8 8 8 8 8 8 8 8 8 8 8 8 8 8 8 8 8 5 >     ",
"                                                "};
