/* XPM */
static char * ic_folder_xpm[] = {
"24 24 175 2",
"  	c None",
". 	c #C5C2C5",
"+ 	c #7B7D7B",
"@ 	c #949194",
"# 	c #BDBABD",
"$ 	c #7B797B",
"% 	c #5A595A",
"& 	c #7B8183",
"* 	c #9C9D9C",
"= 	c #BDBEBD",
"- 	c #41595A",
"; 	c #6A9594",
"> 	c #5A7573",
", 	c #394441",
"' 	c #525052",
") 	c #737573",
"! 	c #A4AAAC",
"~ 	c #5A5D5A",
"{ 	c #293C39",
"] 	c #628D8B",
"^ 	c #52797B",
"/ 	c #416162",
"( 	c #39595A",
"_ 	c #4A595A",
": 	c #ACAAAC",
"< 	c #838183",
"[ 	c #525552",
"} 	c #4A484A",
"| 	c #838583",
"1 	c #A4A1A4",
"2 	c #8B8D8B",
"3 	c #738583",
"4 	c #628183",
"5 	c #5A817B",
"6 	c #5A8183",
"7 	c #4A7573",
"8 	c #4A797B",
"9 	c #5A8983",
"0 	c #528583",
"a 	c #4A8183",
"b 	c #395D5A",
"c 	c #202420",
"d 	c #6A8583",
"e 	c #62797B",
"f 	c #6A8183",
"g 	c #839594",
"h 	c #ACB6B4",
"i 	c #D5D2D5",
"j 	c #DEDADE",
"k 	c #E6E6E6",
"l 	c #E6E2E6",
"m 	c #D5CECD",
"n 	c #5A6D6A",
"o 	c #52696A",
"p 	c #29555A",
"q 	c #39696A",
"r 	c #396D6A",
"s 	c #39484A",
"t 	c #CDCACD",
"u 	c #9CBEBD",
"v 	c #9CBABD",
"w 	c #6A8D8B",
"x 	c #5A7D7B",
"y 	c #415552",
"z 	c #4A6162",
"A 	c #738183",
"B 	c #9CA5A4",
"C 	c #BDC2C5",
"D 	c #E6DEDE",
"E 	c #EEEAEE",
"F 	c #626162",
"G 	c #5A6562",
"H 	c #204041",
"I 	c #316562",
"J 	c #293839",
"K 	c #627173",
"L 	c #B4D6D5",
"M 	c #83B2AC",
"N 	c #83B6B4",
"O 	c #8BBAB4",
"P 	c #83AEAC",
"Q 	c #7BA1A4",
"R 	c #739594",
"S 	c #627D7B",
"T 	c #4A5D5A",
"U 	c #526D6A",
"V 	c #5A696A",
"W 	c #C5BEBD",
"X 	c #20484A",
"Y 	c #393839",
"Z 	c #8BBABD",
"` 	c #7BAAAC",
" .	c #7BA5A4",
"..	c #73A1A4",
"+.	c #739D9C",
"@.	c #629194",
"#.	c #6A999C",
"$.	c #080C08",
"%.	c #7B8D8B",
"&.	c #EEEEEE",
"*.	c #B4B2B4",
"=.	c #183031",
"-.	c #8B898B",
";.	c #73898B",
">.	c #8BB6B4",
",.	c #5A898B",
"'.	c #5A8583",
").	c #527D7B",
"!.	c #4A7973",
"~.	c #203431",
"{.	c #394C4A",
"].	c #626562",
"^.	c #A4A5A4",
"/.	c #293031",
"(.	c #313C39",
"_.	c #94BEBD",
":.	c #5A858B",
"<.	c #396562",
"[.	c #102020",
"}.	c #6A696A",
"|.	c #293431",
"1.	c #414441",
"2.	c #94BABD",
"3.	c #83AAAC",
"4.	c #528183",
"5.	c #4A757B",
"6.	c #417173",
"7.	c #416D6A",
"8.	c #41696A",
"9.	c #183431",
"0.	c #101C18",
"a.	c #5A797B",
"b.	c #8BB2B4",
"c.	c #184041",
"d.	c #313431",
"e.	c #6A9994",
"f.	c #39656A",
"g.	c #316162",
"h.	c #315D5A",
"i.	c #204C4A",
"j.	c #393C39",
"k.	c #737173",
"l.	c #292C29",
"m.	c #202C29",
"n.	c #4A7173",
"o.	c #29595A",
"p.	c #101010",
"q.	c #202020",
"r.	c #C5C6C5",
"s.	c #314C4A",
"t.	c #315552",
"u.	c #31595A",
"v.	c #295552",
"w.	c #295052",
"x.	c #181818",
"y.	c #9C999C",
"z.	c #ACB2AC",
"A.	c #393C41",
"B.	c #182829",
"C.	c #102420",
"D.	c #182C31",
"E.	c #203C39",
"F.	c #204441",
"G.	c #081410",
"H.	c #ACAEAC",
"I.	c #181C18",
"J.	c #000C08",
"K.	c #081818",
"L.	c #082020",
"M.	c #082429",
"N.	c #000808",
"O.	c #6A6D6A",
"P.	c #A4AAA4",
"Q.	c #081010",
"R.	c #949594",
"                                                ",
"                                                ",
"                                                ",
"                                                ",
"              . + @ #           $ % & * =       ",
"          * # + - ; > , ' ) ! ~ { ] ^ / ( _     ",
"  : ) < [ } | 1 2 3 4 5 6 6 7 8 9 0 0 0 a b @   ",
"  c d e f g h i j k l m # 1 & n o / b p q r s t ",
"  % u v w x o y z o A B C i D E m F F G H I J   ",
"  = K L M M N O P Q R S o T U V j W ~ : G X ~   ",
"    Y L Z `  ...+.; @.#...` ; $.%.&.[ *.& =.1   ",
"    -.;.>. ...+.#.@.] ,.'.).!.~.{.j ].^.[ /.    ",
"    . (._. .+.; @.] :.6 ).8 7 <.[.* ) }.|.F     ",
"      1.2.3.; @.] '.4.).5.6.7.8.9.) < % 0.^.    ",
"      % a.b.@.] '.4.).5.6.7.q <.c.[ + 1.d.      ",
"      @ U e.,.'.4.^ 7 6.7.f.g.h.i.j.k.l.~       ",
"      # m.).7 7 n.6.7.q <.g.h.o.p p.' q.$ r.    ",
"        [ s.s.t.u.u.u.u.u.p v.w.i.$.d.x.k.y.z.r.",
"          ) A.B.C.C.D.9.E.H H F.c.G.p.c ].k.2 H.",
"              # @ [ Y I.J.G.K.L.M.G.N.j.].O.< P.",
"                      r.P.$ 1.q.N.Q./.O.-.R.^.= ",
"                                                ",
"                                                ",
"                                                "};
