/* XPM */
static char * none_xpm[] = {
"24 23 42 1",
" 	c None",
".	c #9C999C",
"+	c #A4A5A4",
"@	c #A4A1A4",
"#	c #9C9D9C",
"$	c #9C9594",
"%	c #949594",
"&	c #949194",
"*	c #8B8D8B",
"=	c #8B898B",
"-	c #7B797B",
";	c #FFFFFF",
">	c #FFFAFF",
",	c #F6F6F6",
"'	c #E6E6E6",
")	c #F6F2F6",
"!	c #EEEEEE",
"~	c #EEEAEE",
"{	c #CDCACD",
"]	c #838583",
"^	c #838183",
"/	c #9CA1A4",
"(	c #7B7D7B",
"_	c #C5C6C5",
":	c #C5C2C5",
"<	c #BDC2BD",
"[	c #BDBEBD",
"}	c #BDBABD",
"|	c #737573",
"1	c #E6E2E6",
"2	c #B4BABD",
"3	c #B4B6B4",
"4	c #8B8D94",
"5	c #DEDEDE",
"6	c #737173",
"7	c #DEDADE",
"8	c #6A6D6A",
"9	c #B4B2B4",
"0	c #6A696A",
"a	c #5A5D5A",
"b	c #ACAEAC",
"c	c #9CA19C",
"   .+++@@##.$%&&**==-   ",
"   +;;;;;;;;;>>>>>,'*   ",
"   +;;;;;;;>>,,))!~{]   ",
"   +;;;;;;;>>,,))!!{]   ",
"   +;;;;;;;>>,,))!!{]   ",
"   @;;;;;;;>>,,))!!{^   ",
"   @;;;;;;;>>,,))!~{^   ",
"   /;;;;;;>>,,))!!~{^{  ",
"   #;;;;;>>>,,))!!~{(_  ",
"   #;;>>>>,,,))!!~~_(:  ",
"   .;>>>>,,,))!!~~~_(<  ",
"   .>,,,,,,))!!!~~'_-[  ",
"   %>,,,))))!!!~~'':-}  ",
"   %>)))))!!!~~~''':|}  ",
"   &,!!!!!!!~~~''11:|2  ",
"   &,!!!!~~~~'''111:|3  ",
"   4,~~~~~~'''11155[63  ",
"   *,''''''''111555[63  ",
"   *)''''1111155557}63  ",
"   =)11111115555777}83  ",
"   =7[[[[[[[[[[}}}}983  ",
"   -]^(((--||6688000a}  ",
"   _3b+@@@@c#######c@_  "};
