/* XPM */
static char * information_xpm[] = {
"48 48 267 2",
"  	c None",
". 	c #C5C2C5",
"+ 	c #ACAEAC",
"@ 	c #9C9D9C",
"# 	c #8B8D8B",
"$ 	c #838183",
"% 	c #7B7D7B",
"& 	c #BDBABD",
"* 	c #BDC2BD",
"= 	c #949594",
"- 	c #838583",
"; 	c #A4A1A4",
"> 	c #BDBEC5",
", 	c #D5D6E6",
"' 	c #E6E2EE",
") 	c #E6E6F6",
"! 	c #DEDEEE",
"~ 	c #D5D2DE",
"{ 	c #B4B6C5",
"] 	c #8B8D94",
"^ 	c #6A696A",
"/ 	c #737173",
"( 	c #9C999C",
"_ 	c #B4B2B4",
": 	c #BDBEBD",
"< 	c #8B898B",
"[ 	c #C5C2CD",
"} 	c #EEEAF6",
"| 	c #E6E2F6",
"1 	c #DEDEF6",
"2 	c #ACAEBD",
"3 	c #626562",
"4 	c #626962",
"5 	c #B4B6B4",
"6 	c #EEEEF6",
"7 	c #F6F2F6",
"8 	c #F6F2FF",
"9 	c #9C99A4",
"0 	c #414041",
"a 	c #D5D6DE",
"b 	c #F6F6FF",
"c 	c #FFFAFF",
"d 	c #BDBECD",
"e 	c #41444A",
"f 	c #DEDEE6",
"g 	c #DEE2F6",
"h 	c #DEDAEE",
"i 	c #C5CADE",
"j 	c #FFFFFF",
"k 	c #E6EAF6",
"l 	c #292C29",
"m 	c #949194",
"n 	c #B4B6BD",
"o 	c #9499A4",
"p 	c #9CA19C",
"q 	c #D5DAEE",
"r 	c #4A4C52",
"s 	c #7B797B",
"t 	c #C5C6CD",
"u 	c #ACAABD",
"v 	c #393839",
"w 	c #ACAAAC",
"x 	c #EEEEFF",
"y 	c #D5DEEE",
"z 	c #7B7D83",
"A 	c #CDCACD",
"B 	c #DEE2EE",
"C 	c #C5C6DE",
"D 	c #EEF2FF",
"E 	c #D5D2EE",
"F 	c #202020",
"G 	c #D5E2EE",
"H 	c #EEE6E6",
"I 	c #DEE6F6",
"J 	c #D5D6EE",
"K 	c #DEDAE6",
"L 	c #EEEEEE",
"M 	c #DEE6EE",
"N 	c #D5E6EE",
"O 	c #202420",
"P 	c #EEEAE6",
"Q 	c #E6E6EE",
"R 	c #313431",
"S 	c #9C9DA4",
"T 	c #D5D2D5",
"U 	c #EEF2F6",
"V 	c #E6E2DE",
"W 	c #D5EAEE",
"X 	c #525052",
"Y 	c #A4A5A4",
"Z 	c #DEDAD5",
"` 	c #737573",
" .	c #BDBAC5",
"..	c #E6EAEE",
"+.	c #E6EEF6",
"@.	c #E6E6E6",
"#.	c #A4A5AC",
"$.	c #D5EEEE",
"%.	c #D5D6CD",
"&.	c #9CA5A4",
"*.	c #41484A",
"=.	c #525552",
"-.	c #DEEAEE",
";.	c #A4AEAC",
">.	c #CDCEC5",
",.	c #CDD2CD",
"'.	c #CDCAD5",
").	c #A4AAA4",
"!.	c #BDC2D5",
"~.	c #101010",
"{.	c #CDD2DE",
"].	c #CDD6CD",
"^.	c #949D9C",
"/.	c #C5CEDE",
"(.	c #292C31",
"_.	c #4A4C4A",
":.	c #4A484A",
"<.	c #C5C2D5",
"[.	c #D5DEE6",
"}.	c #D5DAD5",
"|.	c #CDD6D5",
"1.	c #D5DACD",
"2.	c #D5E2E6",
"3.	c #BDB6B4",
"4.	c #C5C2B4",
"5.	c #BDBEB4",
"6.	c #C5C6BD",
"7.	c #CDCAB4",
"8.	c #CDCEBD",
"9.	c #D5CEBD",
"0.	c #C5C6B4",
"a.	c #CDCECD",
"b.	c #CDD6DE",
"c.	c #9C9DAC",
"d.	c #CDC2AC",
"e.	c #BDB6BD",
"f.	c #C5BEBD",
"g.	c #C5C2BD",
"h.	c #CDCABD",
"i.	c #CDC6BD",
"j.	c #B4B294",
"k.	c #B4BAB4",
"l.	c #EEE2C5",
"m.	c #D5CAAC",
"n.	c #CDC6A4",
"o.	c #CDCAC5",
"p.	c #CDC6C5",
"q.	c #CDC6B4",
"r.	c #CDC2A4",
"s.	c #D5CEAC",
"t.	c #D5C69C",
"u.	c #9C8D52",
"v.	c #101810",
"w.	c #F6DE9C",
"x.	c #F6EAC5",
"y.	c #FFF6E6",
"z.	c #FFF6EE",
"A.	c #F6F6EE",
"B.	c #EEEAD5",
"C.	c #EEE6CD",
"D.	c #F6EAD5",
"E.	c #F6EED5",
"F.	c #E6DEB4",
"G.	c #DECE9C",
"H.	c #BDAA62",
"I.	c #6A6539",
"J.	c #181C18",
"K.	c #F6E2AC",
"L.	c #E6D69C",
"M.	c #F6E6AC",
"N.	c #EED68B",
"O.	c #E6CA7B",
"P.	c #DEC273",
"Q.	c #D5BA6A",
"R.	c #C5B26A",
"S.	c #AC995A",
"T.	c #8B7D4A",
"U.	c #FFF2E6",
"V.	c #FFF2D5",
"W.	c #D5CA94",
"X.	c #D5C294",
"Y.	c #CDBE83",
"Z.	c #C5B673",
"`.	c #C5AE6A",
" +	c #BDB27B",
".+	c #C5BA8B",
"++	c #CDC28B",
"@+	c #949994",
"#+	c #F6DE94",
"$+	c #FFFAEE",
"%+	c #FFFAF6",
"&+	c #FFF6DE",
"*+	c #F6E6C5",
"=+	c #EEE2BD",
"-+	c #DED6AC",
";+	c #8B7D52",
">+	c #F6E6B4",
",+	c #E6D294",
"'+	c #F6E6BD",
")+	c #EEDE9C",
"!+	c #E6D28B",
"~+	c #DECA7B",
"{+	c #CDB66A",
"]+	c #A49562",
"^+	c #94855A",
"/+	c #E6DAAC",
"(+	c #D5C694",
"_+	c #CDC294",
":+	c #C5B273",
"<+	c #B4A162",
"[+	c #AC9D5A",
"}+	c #CDBE9C",
"|+	c #9C8952",
"1+	c #EED694",
"2+	c #EEDEBD",
"3+	c #BDA562",
"4+	c #837541",
"5+	c #DED29C",
"6+	c #EEE2B4",
"7+	c #EEDEA4",
"8+	c #E6D694",
"9+	c #DECA83",
"0+	c #D5BE73",
"a+	c #CDBA6A",
"b+	c #736539",
"c+	c #F6F2DE",
"d+	c #F6EACD",
"e+	c #E6DEBD",
"f+	c #D5CAA4",
"g+	c #CDC29C",
"h+	c #C5B683",
"i+	c #BDAA6A",
"j+	c #A4955A",
"k+	c #BDB28B",
"l+	c #CDBE94",
"m+	c #94814A",
"n+	c #8B815A",
"o+	c #E6D29C",
"p+	c #E6DEC5",
"q+	c #DED2AC",
"r+	c #C5B67B",
"s+	c #A49152",
"t+	c #101008",
"u+	c #313031",
"v+	c #4A4841",
"w+	c #D5C283",
"x+	c #E6D2A4",
"y+	c #DECA8B",
"z+	c #D5BE7B",
"A+	c #C5B66A",
"B+	c #393418",
"C+	c #101410",
"D+	c #4A4439",
"E+	c #9C9573",
"F+	c #ACA57B",
"G+	c #AC9D73",
"H+	c #948552",
"I+	c #837941",
"J+	c #6A6141",
"K+	c #313018",
"L+	c #292818",
"M+	c #292829",
"N+	c #181818",
"O+	c #5A5D5A",
"P+	c #393C39",
"Q+	c #626162",
"R+	c #414441",
"                                            . . . .                                             ",
"                                  . + @ # $ % % $ # @ + & *                                     ",
"                              & = - ; > , ' ) ! ~ { ] ^ / ( _ :                                 ",
"                            ( < [ } } } } } ) ) | | 1 ! 2 3 4 @ 5 .                             ",
"                        : $ _ 6 7 8 8 7 6 } } ) ) | | 1 ! ! 9 0 < + :                           ",
"                      & $ a 6 8 b c b b 7 } } } ) ) | 1 ! ! ! d e % + :                         ",
"                    * $ f 8 b c c c c b 6 6 } } ) ) | g 1 ! h h i 0 % + *                       ",
"                    - a 8 b c j j j c 8 6 6 6 } k ) | g 1 ! ! h h d l m _                       ",
"                  @ n 8 8 c c j j c b 8 8 6 6 } } ) | | 1 ! ! h h h o 0 p &                     ",
"                . ] 8 8 b c c c c c b 8 8 7 6 } } ) ) | 1 1 ! h h h q r s + .                   ",
"                @ t 8 b c c c c c c b b 8 8 6 6 } ) ) | 1 1 ! q q q q u v p &                   ",
"                # 8 8 b b c c j c c b b b 8 8 6 } } ) | | 1 h q q q q q v < _                   ",
"              & w 8 8 b c c j j j c c b b b 8 x 6 6 } ) | ! ! y y q q q z 3 w .                 ",
"              w A 8 8 b b c c j c c c c b b b 8 8 x 6 } ) g ! y y q y q u 0 ; :                 ",
"              @ f 8 8 b b c c c c c c c b b b b 8 8 6 6 } ) B ! y y y q C l @ &                 ",
"              m } 7 8 8 b c c c c c c c c c b b b 8 8 D } ) B B y y y q E F ( 5                 ",
"              m 6 6 8 8 b b c c c c c j j c j b j 8 8 8 6 ) B B G y y q q F ( 5                 ",
"              m } 6 6 8 8 b b b j j j c j b j b j j 8 H } ) I B G G y q J F ( 5                 ",
"              = K 6 6 6 7 b b b L b b j b j b j b 8 8 } } ) M M N G y y i O @ 5                 ",
"              ; . } 6 6 6 8 8 b 7 P b b b b 8 8 8 8 H 6 ) Q M N N N G y 2 R @ &                 ",
"              _ S } } } 6 6 7 8 8 T 8 8 8 8 8 U 6 6 V k ) M M N W N G y z X Y :                 ",
"                s ) } k } 6 6 6 6 . 6 6 6 6 6 6 } } Z Q M M N W W N G y R ` + .                 ",
"                <  .) Q ..k +.k k @.k k k k k ) ) ) #.B M N W W $.G y 2 F = 5                   ",
"                _ / ) ) ........k ..%.k ) ) I I B M &.G N W $.$.N G y *.=.Y :                   ",
"                  % #.) ) -.-.-.-.-.;.M M B B ! y >.,.G N W $.$.G y o F m _                     ",
"                  & X '.| B M M -.-.).B G G y y B >.G N W $.$.G y !.~.^ w :                     ",
"                    w X {.g g B M M >.].B G G G M ^.N N W W G y /.(._.Y &                       ",
"                      ( :.<.! ! ! ! [.&.}.|.].1.-.^.2.2.2.y y !.(.0 @ 5                         ",
"                        @ v S ! , & 3.4.5.6.7.8.9.0.7.a.b.y c.~._.@ 5                           ",
"                          5 =.X d.e.5 5 & f.g.h.h.h.h.i.j.e F ^ Y k.                            ",
"                            : / l.m.n.h.o.p.p.i.q.r.s.t.u.v.% ; k.                              ",
"                              # w.x.y.z.A.B.C.D.E.F.G.H.I.J.m + .                               ",
"                              m K.L.K.M.K.w.N.O.P.Q.R.S.T.F = _                                 ",
"                              m U.V.L.W.X.Y.Z.`.H. +.+++u.J.@+5                                 ",
"                              m #+x.$+%+%+&+x.*+=+l.-+H.;+J.@+5                                 ",
"                              m >+,+K.'+>+)+!+~+P.{+R.]+^+J.@+5                                 ",
"                              m E.x./+(+t._+:+H.<+[+}+t.|+J.@+5                                 ",
"                              m 1+'+y.%+$+z.E.l.2+l.(+3+4+J.( 5                                 ",
"                              m '+5+6+6+7+8+9+0+a+{+H.u.b+F ( 5                                 ",
"                              m c+d+e+f+g+h+i+<+S.j+k+l+m+F @ k.                                ",
"                              = n+o+d+z.z.C.l.e+p+q+r+s+t+u+Y :                                 ",
"                              5 v+w+o+x+o+y+z+A+R.H.j+B+C+` + .                                 ",
"                                $ O D+E+F+G+H+I+J+K+L+~._.@ &                                   ",
"                                  5 ` l M+$ ` O N+C+O+` Y &                                     ",
"                                      Y P+Q+/ J.~.=.Y 5 .                                       ",
"                                        @ R+M+l O+Y &                                           ",
"                                            : & : .                                             ",
"                                                                                                "};
