/* XPM */
static char * question_xpm[] = {
"48 48 270 2",
"  	c None",
". 	c #BDAAA4",
"+ 	c #A48983",
"@ 	c #83615A",
"# 	c #734C41",
"$ 	c #5A3429",
"% 	c #522C20",
"& 	c #5A3020",
"* 	c #5A3029",
"= 	c #5A2C20",
"- 	c #6A4841",
"; 	c #947D7B",
"> 	c #9C8583",
", 	c #BDA5A4",
"' 	c #83655A",
") 	c #6A4439",
"! 	c #7B554A",
"~ 	c #83554A",
"{ 	c #8B594A",
"] 	c #945D52",
"^ 	c #9C6152",
"/ 	c #B46D5A",
"( 	c #BD7162",
"_ 	c #B4695A",
": 	c #B4614A",
"< 	c #AC5D4A",
"[ 	c #AC594A",
"} 	c #A45541",
"| 	c #8B4839",
"1 	c #8B4431",
"2 	c #8B4031",
"3 	c #733829",
"4 	c #623020",
"5 	c #4A2418",
"6 	c #6A4441",
"7 	c #947973",
"8 	c #CDC2BD",
"9 	c #623829",
"0 	c #734439",
"a 	c #834C41",
"b 	c #9C695A",
"c 	c #B4796A",
"d 	c #BD756A",
"e 	c #B46952",
"f 	c #AC5039",
"g 	c #AC5541",
"h 	c #A45039",
"i 	c #A44C39",
"j 	c #944431",
"k 	c #7B3C29",
"l 	c #624439",
"m 	c #9C918B",
"n 	c #8B695A",
"o 	c #5A3831",
"p 	c #7B4C41",
"q 	c #9C655A",
"r 	c #BD796A",
"s 	c #C58173",
"t 	c #944C39",
"u 	c #833C31",
"v 	c #834031",
"w 	c #944831",
"x 	c #9C4839",
"y 	c #9C4C39",
"z 	c #944839",
"A 	c #522820",
"B 	c #523429",
"C 	c #9C8D8B",
"D 	c #6A4039",
"E 	c #A4857B",
"F 	c #B49994",
"G 	c #BDA19C",
"H 	c #C5BAB4",
"I 	c #C5C2C5",
"J 	c #CDAEA4",
"K 	c #DEBEB4",
"L 	c #C5897B",
"M 	c #836D6A",
"N 	c #624039",
"O 	c #835041",
"P 	c #B46D62",
"Q 	c #AC5941",
"R 	c #8B6D62",
"S 	c #BDBABD",
"T 	c #CDCECD",
"U 	c #E6E6E6",
"V 	c #EEEEEE",
"W 	c #F6F6F6",
"X 	c #FFFAFF",
"Y 	c #F6F2F6",
"Z 	c #EEE2DE",
"` 	c #7B6962",
" .	c #B47162",
"..	c #B46552",
"+.	c #834C39",
"@.	c #8B6962",
"#.	c #A49D9C",
"$.	c #E6E2E6",
"%.	c #BD7562",
"&.	c #412018",
"*.	c #9C9594",
"=.	c #AC695A",
"-.	c #8B716A",
";.	c #7B7D7B",
">.	c #DECAC5",
",.	c #7B3829",
"'.	c #62504A",
").	c #94756A",
"!.	c #7B5952",
"~.	c #83716A",
"{.	c #B4B6B4",
"].	c #FFFFFF",
"^.	c #5A4039",
"/.	c #9C7973",
"(.	c #8B898B",
"_.	c #ACAEAC",
":.	c #525552",
"<.	c #202420",
"[.	c #181818",
"}.	c #292C29",
"|.	c #DEDADE",
"1.	c #EEEAEE",
"2.	c #C5958B",
"3.	c #ACB2AC",
"4.	c #73504A",
"5.	c #AC7D73",
"6.	c #9C716A",
"7.	c #C5C6C5",
"8.	c #838183",
"9.	c #181C18",
"0.	c #313431",
"a.	c #292829",
"b.	c #ACAAAC",
"c.	c #D5B6B4",
"d.	c #A4A5A4",
"e.	c #7B5D5A",
"f.	c #A4716A",
"g.	c #BD9D9C",
"h.	c #5A595A",
"i.	c #737173",
"j.	c #626162",
"k.	c #393839",
"l.	c #DEDEDE",
"m.	c #D5BAB4",
"n.	c #A47162",
"o.	c #B4958B",
"p.	c #CDCACD",
"q.	c #626562",
"r.	c #393C39",
"s.	c #CD9994",
"t.	c #B4B2B4",
"u.	c #9C6962",
"v.	c #AC796A",
"w.	c #5A5D5A",
"x.	c #D5D2D5",
"y.	c #C58D7B",
"z.	c #836562",
"A.	c #B46152",
"B.	c #8B5041",
"C.	c #101410",
"D.	c #6A6D6A",
"E.	c #BDBEBD",
"F.	c #94817B",
"G.	c #734841",
"H.	c #ACA5A4",
"I.	c #4A484A",
"J.	c #525052",
"K.	c #4A4C4A",
"L.	c #D5BEBD",
"M.	c #6A5952",
"N.	c #BDB6B4",
"O.	c #AC8983",
"P.	c #9C9D9C",
"Q.	c #737573",
"R.	c #414441",
"S.	c #BD897B",
"T.	c #949594",
"U.	c #523029",
"V.	c #A4655A",
"W.	c #A4A1A4",
"X.	c #73554A",
"Y.	c #7B4839",
"Z.	c #9C999C",
"`.	c #624C4A",
" +	c #A49594",
".+	c #B4715A",
"++	c #A47D73",
"@+	c #313031",
"#+	c #949194",
"$+	c #BD7D73",
"%+	c #8B8D8B",
"&+	c #414041",
"*+	c #DED2CD",
"=+	c #4A3029",
"-+	c #7B615A",
";+	c #6A3C31",
">+	c #BD857B",
",+	c #5A5552",
"'+	c #BDB2B4",
")+	c #4A2820",
"!+	c #AC6D62",
"~+	c #838583",
"{+	c #833C29",
"]+	c #6A4C4A",
"^+	c #B4918B",
"/+	c #4A4441",
"(+	c #B4AEAC",
"_+	c #8B4C41",
":+	c #D5D6D5",
"<+	c #BD7D6A",
"[+	c #412820",
"}+	c #6A504A",
"|+	c #AC8173",
"1+	c #BD8173",
"2+	c #733429",
"3+	c #393431",
"4+	c #7B797B",
"5+	c #4A2C20",
"6+	c #CDAAA4",
"7+	c #73615A",
"8+	c #8B5D52",
"9+	c #DECECD",
"0+	c #9C5D52",
"a+	c #DED6D5",
"b+	c #312018",
"c+	c #6A696A",
"d+	c #9CA19C",
"e+	c #948983",
"f+	c #202020",
"g+	c #4A2818",
"h+	c #8B8583",
"i+	c #C59D94",
"j+	c #312C29",
"k+	c #5A3C31",
"l+	c #7B4439",
"m+	c #94898B",
"n+	c #CDB2AC",
"o+	c #6A3020",
"p+	c #B4AAA4",
"q+	c #8B4C39",
"r+	c #948583",
"s+	c #6A3429",
"t+	c #737973",
"u+	c #9C756A",
"v+	c #CDC6C5",
"w+	c #392018",
"x+	c #945041",
"y+	c #9C817B",
"z+	c #D5CECD",
"A+	c #BD9183",
"B+	c #412418",
"C+	c #A4594A",
"D+	c #B4857B",
"E+	c #C5AEA4",
"F+	c #B47D73",
"G+	c #6A3420",
"H+	c #626962",
"I+	c #524C4A",
"J+	c #6A5552",
"K+	c #522818",
"L+	c #413029",
"M+	c #948D8B",
"N+	c #5A4439",
"O+	c #5A4841",
"P+	c #523831",
"Q+	c #4A2420",
"R+	c #4A3C39",
"S+	c #A4AAA4",
"T+	c #B4BAB4",
"U+	c #BDC2BD",
"                                                                                                ",
"                                                                                                ",
"                                                                                                ",
"                            . + @ # # $ % & * $ $ $ * = % - # - ; >                             ",
"                    , ' ) $ # ! ~ { ] ^ / ( ( _ : < < [ } | 1 2 3 4 5 * 6 7                     ",
"              8 7 9 0 a b c d e < < < < < f f f f g g g f h g g g g i j k 4 5 l m               ",
"            n o p q r s / < } t u k k k k v v 1 1 w x y y h g g g g g g g y z 3 A B C           ",
"        8 D ) ^ ( _ < x v k k v ^ b E F G H I I I I I G J K L L g g g g g g g h z k 5 M         ",
"      8 N O P / Q y v k { R C S T U V W X X W W W W W W W W W W Y Z K L g g g g g y w 5 `       ",
"      # a  ...h u +.@.#.$.W X X X X W W W W W W W W W W Y Y Y Y Y Y Y Y Y K %.g g h y w &.*.    ",
"    . N =.: i 3 -.;.V X X W W W W W W W W W W W W Y Y Y Y Y Y Y Y Y Y Y Y Y Y >.%.g h x ,.'.    ",
"    ).!.< h 3 ~.{.W W W W W W W W W W ].].].].].].].Y Y Y Y Y Y Y Y V V V V V V V ..g h v ^.S   ",
"    # /.< v ] (.W W W W W W Y Y Y Y ].Y _.:.<.[.[.[.}.|.Y Y V V V V V V V V V V 1.2.g g v o 3.  ",
"    4.5.< k 6.7.W W Y Y Y Y Y Y Y Y ].8.9.[.[.<.0.a.[.[.b.V V V V V V 1.1.1.1.1.1.c.g g j 5 d.  ",
"    e.f.< k g.T Y Y Y Y Y Y Y Y Y ].b.0.[.}.h.i.j.k.0.[.a.l.V 1.1.1.1.1.1.1.1.1.1.m.g g i % d.  ",
"    e.n.< ,.o.p.Y Y Y Y Y Y Y Y V ].q.9.9.j.V V V T r.[.9.j.l.1.1.1.1.1.1.1.1.1.V s.< g 1 ^.t.  ",
"    e.u.< k v.p.Y Y Y Y V V V V V ].w.9.[.i.1.1.V Y w.[.9.h.x.1.1.1.1.1.U U U U V y.Q g v N {.  ",
"    z.{ A.k B.7.V V V V V V V V V ].h.0.C.h.1.1.V Y D.[.[.j.I 1.U U U U U U U 1.1...g g 3 '.E.  ",
"    F.G...z ,.H.1.V V V V 1.1.1.1.Y {.I.[.J.1.1.Y T K.C.9.;.{.U U U U U U U $.1.L...g g 3 M.    ",
"    N.* / h u O.|.1.1.1.1.1.1.1.1.1.V P.Q.x.1.V Y i.a.C.R.d.x.U U $.$.$.$.$.$.1.S._ g i 4 T.    ",
"      U.V.Q v q E.1.1.1.1.1.1.1.1.1.U U U U V W T.K.C.9.q.W.$.$.$.$.$.$.$.$.U 1._ Q g 2 o _.    ",
"      X.Y.A.z k #.U 1.1.1.1.U U U U U U U V Y x.:.[.C.K.Z.$.$.$.$.$.$.$.l.$.1.L./ g h 3 `.I     ",
"       +* .+g k ++7.U U U U U U U U U U $.Y l.j.@+C.0.#+T $.$.$.$.$.$.l.l.l.1.$+..g y = %+      ",
"        % V.Q w a W.l.U U U U $.$.$.$.$.$.Y W.&+C.[.#+b.$.$.l.l.l.l.l.l.l.$.*+_ g g v =+W.      ",
"        -+;+_ h k o.b.$.$.$.$.$.$.$.$.$.$.Y i.a.C.K.8.l.l.l.l.l.l.l.l.|.|.U >+_ f x 4 ,+t.      ",
"        '+)+!+g 1 B.W.p.$.$.$.$.$.$.$.$.$.V 8.9.[.C.~+l.l.l.l.|.|.|.|.|.l.*+( ..g {+)+~+{.S     ",
"          ]+# Q h k ^+W.$.$.$.$.$.l.l.l.l.l.$.D.a.}.W.|.|.|.|.|.|.|.|.|.U S.%.g y 4 /+T.b.{.E.  ",
"          (+)+=.g z _+P.7.l.l.l.l.l.l.l.l.l.1.E.Z.W.I |.|.|.|.|.:+:+:+$.*+<+: g k [+D.T.P.t.S   ",
"            }+# : g k |+P.l.l.l.l.|.|.|.|.|.1.Y T 7.T |.:+:+:+:+:+:+|.U 1+..g x 2+3+4+%+P._.S   ",
"            (+5+!+f h 3 *.7.|.|.|.|.|.|.|.U Y I.}.I.{.T :+:+:+:+:+:+$.6+..g h v &.:.4+(.P._.E.  ",
"              7+D e g 1 8+W.:+|.|.|.|.:+:+V P.C.C.<.j.{.:+:+:+:+:+$.9+/ Q g w 4 3+q.4+(.Z._.E.  ",
"                5+0+Q h u /._.:+:+:+:+:+:+1.Z.C.C.[.w.{.:+x.x.x.l.a+1+< g y 3 b+J.c+4+%+d+t.I   ",
"                e+)+P g h 3 7 7.:+:+:+:+:+|.|.:.f+k.;.{.x.x.x.l.$.2...g f ,.g+r.j.D.;.#+d.{.    ",
"                  ]+9 =.g h +.h+I :+:+:+x.x.x.7.{.T._.x.x.x.|.l.i+/ g g v = j+:.q.Q.~+Z._.E.    ",
"                    k+l+..g h +.m+I x.x.x.x.x.7.t.7.T T x.$.$.n+r Q f 1 o+b+K.j.D.;.#+d.{.I     ",
"                    p+)+q+< g h _+r+S T T p.p.T T T x.|.$.l.1+<+[ f z s+b+R.w.D.t+(.P._.E.      ",
"                      #.[+q+< g g 1 u+b.:+:+x.x.x.:+l.l.v+c r [ g y 2+w+&+w.D.4+(.Z.b.S         ",
"                        #.[+q+Q g f y x+y+t.x.|.|.|.z+A+e / Q g i 2+B+r.j.i.;.%+P._.{.          ",
"                          #.[+| g g g i x C+D+n+E+F+_ A.< g g y G+B+&+H+Q.~+#+W.t.E.            ",
"                            #.=+3 y f g g g g g g g g g g g w o+[+I+D.;.%+P._.{.                ",
"                              S J+K+1 i g g g g g g g g y ,.A L+q.;.%+T.d.t.E.                  ",
"                                  M+N+= 2 z h g g h j {+= L+h.;.%+Z.W.t.E.                      ",
"                                    E.h+O+P+A s+= Q+5+R+D.h+Z.W.S+3.{.I                         ",
"                                        S d.#+(.(.(.T.W.t.t.{.T+E.I                             ",
"                                                  E.E.U+U+I                                     ",
"                                                                                                ",
"                                                                                                ",
"                                                                                                "};
