/* XPM */
static char * warning_xpm[] = {
"48 48 169 2",
"  	c None",
". 	c #BDBEBD",
"+ 	c #737973",
"@ 	c #414841",
"# 	c #000000",
"$ 	c #181818",
"% 	c #8B8D8B",
"& 	c #626162",
"* 	c #A4AAA4",
"= 	c #313031",
"- 	c #181400",
"; 	c #7B6131",
"> 	c #B49552",
", 	c #B4954A",
"' 	c #524418",
") 	c #181000",
"! 	c #9C7D41",
"~ 	c #FFD683",
"{ 	c #FFD273",
"] 	c #FFCE6A",
"^ 	c #EEC25A",
"/ 	c #C59531",
"( 	c #6A4C10",
"_ 	c #7B6531",
": 	c #FFDA94",
"< 	c #FFCA62",
"[ 	c #FFC24A",
"} 	c #FFBE39",
"| 	c #E6AA31",
"1 	c #D5A131",
"2 	c #D59D31",
"3 	c #312408",
"4 	c #D5B673",
"5 	c #FFD68B",
"6 	c #FFC65A",
"7 	c #EEB639",
"8 	c #DEA531",
"9 	c #523C10",
"0 	c #181408",
"a 	c #EECA83",
"b 	c #FFCE73",
"c 	c #FFBE41",
"d 	c #E6AE31",
"e 	c #BD9129",
"f 	c #947120",
"g 	c #FFC241",
"h 	c #B48929",
"i 	c #624C10",
"j 	c #C5A56A",
"k 	c #FFD27B",
"l 	c #FFDA8B",
"m 	c #BD8D29",
"n 	c #4A3810",
"o 	c #A48552",
"p 	c #FFE2A4",
"q 	c #6A5D31",
"r 	c #6A5518",
"s 	c #AC8120",
"t 	c #413418",
"u 	c #735D39",
"v 	c #6A5018",
"w 	c #CD9D31",
"x 	c #A47920",
"y 	c #000400",
"z 	c #EEC67B",
"A 	c #FFDE9C",
"B 	c #F6BA39",
"C 	c #C59529",
"D 	c #624810",
"E 	c #8B754A",
"F 	c #EEB231",
"G 	c #312818",
"H 	c #DEC27B",
"I 	c #AC8129",
"J 	c #9C7520",
"K 	c #AC915A",
"L 	c #FFC652",
"M 	c #F6B639",
"N 	c #FFCA5A",
"O 	c #312810",
"P 	c #312808",
"Q 	c #CD9931",
"R 	c #201808",
"S 	c #6A5520",
"T 	c #DEAA31",
"U 	c #B48529",
"V 	c #836D39",
"W 	c #FFCE62",
"X 	c #C59941",
"Y 	c #CD9929",
"Z 	c #946D20",
"` 	c #392C10",
" .	c #8B6929",
"..	c #735518",
"+.	c #9C8141",
"@.	c #E6BE6A",
"#.	c #EEBA41",
"$.	c #DEAA39",
"%.	c #5A4820",
"&.	c #D5B26A",
"*.	c #392C08",
"=.	c #9C7D39",
"-.	c #393010",
";.	c #414441",
">.	c #B49952",
",.	c #101810",
"'.	c #392808",
").	c #8B6920",
"!.	c #CDA54A",
"~.	c #5A4410",
"{.	c #292829",
"].	c #737573",
"^.	c #B48D39",
"/.	c #F6BE4A",
"(.	c #393839",
"_.	c #A4A1A4",
":.	c #7B5D18",
"<.	c #5A5D5A",
"[.	c #B4B6B4",
"}.	c #292C29",
"|.	c #836118",
"1.	c #312008",
"2.	c #ACAEAC",
"3.	c #BDBABD",
"4.	c #101410",
"5.	c #A47D20",
"6.	c #413008",
"7.	c #9C999C",
"8.	c #ACAAAC",
"9.	c #B4BAB4",
"0.	c #413408",
"a.	c #8B6918",
"b.	c #836518",
"c.	c #8B6D20",
"d.	c #7B6118",
"e.	c #4A3410",
"f.	c #525052",
"g.	c #8B898B",
"h.	c #5A595A",
"i.	c #7B7D7B",
"j.	c #9C9D9C",
"k.	c #A4A5A4",
"l.	c #101010",
"m.	c #181C18",
"n.	c #4A4C4A",
"o.	c #6A6D6A",
"p.	c #7B797B",
"q.	c #949994",
"r.	c #C5C2C5",
"s.	c #202020",
"t.	c #080808",
"u.	c #393C39",
"v.	c #6A696A",
"w.	c #737173",
"x.	c #838583",
"y.	c #949594",
"z.	c #BDC2BD",
"A.	c #B4B2B4",
"B.	c #525552",
"C.	c #313431",
"D.	c #202420",
"E.	c #080C08",
"F.	c #414041",
"G.	c #626962",
"H.	c #838183",
"I.	c #949194",
"J.	c #838983",
"K.	c #9CA19C",
"L.	c #ACB2AC",
"                                                                                                ",
"                                                                                                ",
"                                                                                                ",
"                                    . + @ # # # $ @ %                                           ",
"                                . & # # # # # # # # # $ +                                       ",
"                              + # # # # # # # # # # # # # $ *                                   ",
"                          . = # # # # # # # # # # # # # # # # %                                 ",
"                        . $ # # # # # # - ; > , ' # # # # # # # @                               ",
"                      . $ # # # # # ) ! ~ ~ { ] ^ / ( # # # # # # @                             ",
"                    . $ # # # # # _ : ~ < [ } } } | 1 2 3 # # # # # @                           ",
"                  . $ # # # # - 4 5 6 } } } } } } } 7 1 8 9 # # # # # +                         ",
"                  @ # # # # 0 a b c } } } } } } } } } } d e f # # # # # %                       ",
"                & # # # # 0 a b } } } } g ] b ] c } } } } d h i # # # # $ .                     ",
"              * # # # # # j ] c } } } } k : l 5 < } } } } } | m n # # # # =                     ",
"              $ # # # # o { [ } } } } < p q # # r } } } } } } 1 s ) # # # # +                   ",
"            + # # # # t ~ [ } } } } } l u # # # # v | } } } } } w x # # # # # .                 ",
"          . # # # # y z < } } } } } [ A # # # # # # 8 B } } } } B C D # # # # =                 ",
"          & # # # # E { } } } } } } < A # # # # # # 2 7 } } } } } F m ) # # # # *               ",
"        . # # # # G ~ [ } } } } } } ] H # # # # # # I F } } } } } } 1 J # # # # =               ",
"        & # # # y K L } } } } } } } < k # # # # # # m 7 } } } } } } B w 3 # # # # *             ",
"      . # # # # G k } } } } } } } } < k # # # # # # C M } } } } } } } d I # # # # =             ",
"      + # # # # K L } } } } } } } } N k O # # # # P Q B } } } } } } } } 8 3 # # # # *           ",
"      $ # # # R ~ } } } } } } } } } [ { S # # # # v 8 } } } } } } } } } T U # # # # @           ",
"    * # # # # V W } } } } } } } } } } ] X # # # # U | } } } } } } } } B B 1 3 # # # #           ",
"    & # # # # z g } } } } } } } } } } L ] - # # - Y M } } } } } } } } } } T Z # # # # %         ",
"    $ # # # ` { } } } } } } } } } } } } 6  .# # ..C } } } } } } } } } } } F e # # # # @         ",
"  . # # # # +.< } } } } } } } } } } } } } } 9 n Q M } } } } } } } } } } } } F n # # # #         ",
"  % # # # # @.L } } } } } } } } } } } } [ [ #.$.7 } } } } } } } } } } } } } B Z # # # # %       ",
"  & # # # - k } } } } } } } } } } } } [ b ~ : ~ g } } } } } } } } } } } } } } T # # # # +       ",
"  @ # # # %.] } } } } } } } } } } } } b &.` # *.m 7 B } } } } } } } } } } } } | n # # # @       ",
"  @ # # # =.< } } } } } } } } } } } c 5 -.# # # P Y d } } } } } } } } } } } } d i # # # ;.      ",
"  ;.# # # >.L } } } } } } } } } } } c { # # # # # e d } } } } } } } } } } } } d J # # # ,.      ",
"  ;.# # # _ [ } } } } } } } } } } } } 6 ` # # # '.h M } } } } } } } } } } } } 8 ).# # # #       ",
"  ;.# # # ` [ } } } } } } } } } } } } c !.` # 3 f w } } } } } } } } } } } } M I ~.# # # {.      ",
"  ].# # # # ^.7 } } } } } } } } } } } } c /.8 Y 8 B } } } } } } } } } } } F U x ) # # # (..     ",
"  _.# # # # # :.| d B } } } } } } } } } } } } } } } } } } } } } } } } F Q x Z 3 # # # # <.[..   ",
"    }.# # # # # ) i e 8 7 } } } } } } } } } } } } } } } } } } } B | 2 m |.1.# # # # # # % 2.3.  ",
"    [.4.# # # # # # # 3 :.5.| F M M M M M M M M M F d | | 8 8 1 U |.6.# # # # # # # # <.7.8.9.  ",
"      2.4.# # # # # # # # # # 3 0...a.b.U w 1 1 2 1 c.).d.6.e.# # # # # # # # # # # f.g.7.8.3.  ",
"        . f.# # # # # # # # # # # # # # # # # # # # # # # # # # # # # # # # # # 4.h.i.% j.2.3.  ",
"          . k.& l.# # # # # # # # # # # # # # # # # # # # # # # # # # # # # m.n.o.p.g.q.k.[..   ",
"          r.. [.2.i.;.s.# # # # # # # # # # # # # # # # # # # # # # t.m.u.& v.w.p.x.y._.2.3.    ",
"              z.[.A.* j.y.o.B.C.{.D.E.# # # # # # # # # s.s.s.F.F.G.v.v.o.].].H.g.y._.2.3.r.    ",
"                  . [.2.k.j.q.I.g.J.H.i.p.p.p.p.p.p.+ p.p.].p.].p.p.p.i.H.J.I.y.j.k.A..         ",
"                    r.. 3.[.2.k._.j.7.y.y.y.y.I.% % % % g.g.% % % % I.y.7.j.K.8.A.9..           ",
"                            r.. 9.3.[.[.[.A.2.A.L.2.2.2.2.2.2.8.8.8.2.2.2.[.9.. z.              ",
"                                                                                                ",
"                                                                                                "};
