/* XPM */
static char * klip_xpm[] = {
"16 16 33 1",
" 	c None",
".	c #9C9DBD",
"+	c #DEDADE",
"@	c #C5BEDE",
"#	c #A4AAC5",
"$	c #D5D2E6",
"%	c #8B7DBD",
"&	c #6A6D83",
"*	c #736D8B",
"=	c #5A5D73",
"-	c #6A6D8B",
";	c #9C99DE",
">	c #837DBD",
",	c #62597B",
"'	c #CDCADE",
")	c #948DD5",
"!	c #D5CEE6",
"~	c #8381BD",
"{	c #C5BEE6",
"]	c #CDCECD",
"^	c #BDBED5",
"/	c #5A5D7B",
"(	c #4A4462",
"_	c #CDC2EE",
":	c #A499DE",
"<	c #39385A",
"[	c #414862",
"}	c #A495E6",
"|	c #9C8DD5",
"1	c #4A446A",
"2	c #C5C2D5",
"3	c #ACA1DE",
"4	c #ACA5C5",
"                ",
"                ",
"                ",
"                ",
"      .+@#      ",
"     $%&**      ",
"    %=-%;>,%    ",
"    ';*)!%~{]   ",
"    ^/,~*>(&_   ",
"    ~~:<%[}|    ",
"     ^)1;()2    ",
"      3>_34     ",
"                ",
"                ",
"                ",
"                "};
