/* XPM */
static char * refresh_xpm[] = {
"16 16 24 1",
" 	c None",
".	c #83818B",
"+	c #393841",
"@	c #202429",
"#	c #A4A5B4",
"$	c #9C99AC",
"%	c #62616A",
"&	c #101018",
"*	c #525562",
"=	c #000008",
"-	c #202431",
";	c #A4A5AC",
">	c #4A4C52",
",	c #8B8594",
"'	c #6A717B",
")	c #4A4852",
"!	c #94919C",
"~	c #100C18",
"{	c #73757B",
"]	c #4A4C5A",
"^	c #9C99A4",
"/	c #8B8994",
"(	c #52555A",
"_	c #000408",
"                ",
"                ",
"      .+@@.     ",
"       #$%&+$   ",
"          *=-;  ",
" #>>      ,=='  ",
"$@==)    $.==+!;",
"+&==~+   '====&;",
" {==$     ]===. ",
" ^&=/      -=%  ",
"  (=+      #,   ",
"   +_]$         ",
"   $]&&-+       ",
"      !!        ",
"                ",
"                "};
