/* XPM */
static char * test_succeeded_xpm[] = {
"16 16 20 1",
" 	c None",
".	c #33A021",
"+	c #0E2C09",
"@	c #AFECA5",
"#	c #F3FCF1",
"$	c #33A221",
"%	c #74DE63",
"&	c #71DD60",
"*	c #76DE65",
"=	c #80E170",
"-	c #8DE47F",
";	c #A9EA9F",
">	c #67DB54",
",	c #61DA4D",
"'	c #86E277",
")	c #A6EA9B",
"!	c #57D742",
"~	c #83E273",
"{	c #A5E99A",
"]	c #87E378",
"                ",
"                ",
"    .........   ",
"   .            ",
"  .  +++++++++  ",
"    +@@@@@@@#+  ",
"   +@@@@@@@#$+  ",
"  +########$$+  ",
"  +%&*=-;@#$$+  ",
"  +>,>*')@#$$+  ",
"  +,!,&~{@#$+   ",
"  +>,>*])@#+    ",
"  +++++++++  .  ",
"            .   ",
"   .........    ",
"                "};
