/* XPM */
static char * receive_xpm[] = {
"24 24 74 1",
" 	c None",
".	c #000000",
"+	c #EDF3EA",
"@	c #E8F1E4",
"#	c #E1ECDB",
"$	c #E3ECDD",
"%	c #A9BE99",
"&	c #A0B68F",
"*	c #799A61",
"=	c #EEF4EB",
"-	c #AECF9F",
";	c #BFD3B0",
">	c #679942",
",	c #568037",
"'	c #C1D5B2",
")	c #C6CFC2",
"!	c #E2ECDD",
"~	c #E6EFE2",
"{	c #A9C99A",
"]	c #B9D1AA",
"^	c #6F9D4E",
"/	c #476A2D",
"(	c #99A295",
"_	c #5A8639",
":	c #A6AFA2",
"<	c #5F8E3D",
"[	c #535353",
"}	c #FFFFFF",
"|	c #F1F1F1",
"1	c #ADADAD",
"2	c #649540",
"3	c #717171",
"4	c #9B9B9B",
"5	c #C0C0C0",
"6	c #D7D7D7",
"7	c #EEEEEE",
"8	c #4F4F4F",
"9	c #F5F5F5",
"0	c #FBFBFB",
"a	c #E7E7E7",
"b	c #B9B9B9",
"c	c #A7AFA2",
"d	c #639340",
"e	c #6C6C6C",
"f	c #979797",
"g	c #BCBCBC",
"h	c #DDDDDD",
"i	c #AEAEAE",
"j	c #E4E4E4",
"k	c #434343",
"l	c #A7A7A7",
"m	c #A2AB9C",
"n	c #7A7A7A",
"o	c #939393",
"p	c #C5C5C5",
"q	c #ACACAC",
"r	c #C8C8C8",
"s	c #AAAAAA",
"t	c #7B7B7B",
"u	c #9C9C9C",
"v	c #D1D1D1",
"w	c #A0A0A0",
"x	c #D4D4D4",
"y	c #CECECE",
"z	c #DBDBDB",
"A	c #959595",
"B	c #3E3E3E",
"C	c #4D4D4D",
"D	c #818181",
"E	c #C6C6C6",
"F	c #6A6A6A",
"G	c #636363",
"H	c #737373",
"I	c #7C7C7C",
"                        ",
"       .........        ",
"       .+@#$%&*.        ",
"       .=--;>>,.        ",
"       .+--;>>,.        ",
"       .=--;>>,.        ",
"    ....=--'>>,....     ",
"     .)!~{-]>^,//.      ",
"      .(---'>>>_.       ",
"   .....:--;>><.....    ",
"  .[}}|1.:-;>2.3456[.   ",
"  .7890ab.c;d.efgh8i.   ",
"  .}jk99al.m.nopa8qr.   ",
"  .}9j899as.tuv9kwxr.   ",
"  .}09jk99ayyz98Axjr.   ",
"  .}999jB99aa9CDEjjr.   ",
"  .}0999Fk9998Fwj9jr.   ",
"  .}999Gbb898AEHE9jr.   ",
"  .}09GE9jx8qEj9Ijjr.   ",
"  .}9Hx9999jj9999Ijr.   ",
"  .}IxjjjjjjjjjjjjIr.   ",
"  .HgggggggggggggggG.   ",
"   .................    ",
"                        "};
