/* XPM */
static char * clear_xpm[] = {
"26 26 109 2",
"  	c None",
". 	c #C5C6C5",
"+ 	c #9C9D9C",
"@ 	c #5A504A",
"# 	c #524439",
"$ 	c #73716A",
"% 	c #C5AA94",
"& 	c #6A5541",
"* 	c #6A696A",
"= 	c #413429",
"- 	c #BDAA9C",
"; 	c #BD9D8B",
"> 	c #4A4039",
", 	c #8B8983",
"' 	c #836D5A",
") 	c #CDBAAC",
"! 	c #735941",
"~ 	c #4A4C4A",
"{ 	c #4A3C31",
"] 	c #947962",
"^ 	c #A48D73",
"/ 	c #524C41",
"( 	c #A4A1A4",
"_ 	c #413831",
": 	c #9C7D62",
"< 	c #838183",
"[ 	c #737573",
"} 	c #B4B2B4",
"| 	c #ACAAAC",
"1 	c #392C20",
"2 	c #83654A",
"3 	c #6A5D4A",
"4 	c #BDBABD",
"5 	c #081008",
"6 	c #52554A",
"7 	c #414441",
"8 	c #D5D2D5",
"9 	c #ACA5A4",
"0 	c #413420",
"a 	c #6A5039",
"b 	c #292820",
"c 	c #7B8573",
"d 	c #949D8B",
"e 	c #9CA594",
"f 	c #414439",
"g 	c #CDCECD",
"h 	c #524031",
"i 	c #9C9D8B",
"j 	c #ACBAA4",
"k 	c #A4B29C",
"l 	c #6A7162",
"m 	c #5A5039",
"n 	c #EEEEEE",
"o 	c #8B898B",
"p 	c #7B7D7B",
"q 	c #73796A",
"r 	c #83755A",
"s 	c #D5C69C",
"t 	c #5A5541",
"u 	c #737173",
"v 	c #626962",
"w 	c #8B7D62",
"x 	c #DECA9C",
"y 	c #CDBE9C",
"z 	c #BDB294",
"A 	c #181810",
"B 	c #DEDADE",
"C 	c #9CAA94",
"D 	c #62655A",
"E 	c #8B8162",
"F 	c #EEDAAC",
"G 	c #DECEA4",
"H 	c #837D6A",
"I 	c #A49D83",
"J 	c #837962",
"K 	c #000000",
"L 	c #080C08",
"M 	c #6A716A",
"N 	c #525D52",
"O 	c #E6D2A4",
"P 	c #C5B28B",
"Q 	c #B4AA8B",
"R 	c #5A594A",
"S 	c #7B7D6A",
"T 	c #6A614A",
"U 	c #101410",
"V 	c #CDCACD",
"W 	c #181818",
"X 	c #E6D6A4",
"Y 	c #BDAE8B",
"Z 	c #94917B",
"` 	c #9C9D83",
" .	c #8B8D73",
"..	c #202418",
"+.	c #5A6152",
"@.	c #414031",
"#.	c #202420",
"$.	c #52504A",
"%.	c #736D52",
"&.	c #ACA583",
"*.	c #A4A183",
"=.	c #73715A",
"-.	c #393829",
";.	c #525541",
">.	c #4A4439",
",.	c #838583",
"'.	c #4A4839",
").	c #414039",
"!.	c #525552",
"                                                    ",
"                                                    ",
"                                                    ",
"                                                    ",
"                                                    ",
"                                                    ",
"          . +                                       ",
"        . @ # $                                     ",
"        + # % & *                                   ",
"        + = - ; >                                   ",
"          , ' ) ! ~                                 ",
"          + { ] ^ / .                               ",
"            ( _ : & <     [ [ }         } .         ",
"              | 1 2 3 4 * 5 6 7 4       . 8         ",
"                9 0 a b c d e f +   g *             ",
"                  9 h i j k l m b . g n o |         ",
"                  p q j j l r s t o * 8 . 4         ",
"                u q j j v w x y z A [ [ } + B       ",
"                A C j D E F G H I J K ~ + 4 *       ",
"                L M N E O P F Q R S T L U + V       ",
"                g W t s X Y Z `  ...+.@.#.#.V       ",
"                  4 $.%.&.*.=.-.;.>.~ <             ",
"                    } ,.>.'.).!.[ [                 ",
"                        | + + .                     ",
"                                                    ",
"                                                    "};
